<?xml version="1.0" encoding="utf-8"?>
<!-- Generator: Adobe Illustrator 24.0.0, SVG Export Plug-In . SVG Version: 6.00 Build 0)  -->
<svg version="1.1" id="Capa_1" xmlns="http://www.w3.org/2000/svg" xmlns:xlink="http://www.w3.org/1999/xlink" x="0px" y="0px"
	 viewBox="0 0 142 22" style="enable-background:new 0 0 142 22;" xml:space="preserve">
<style type="text/css">
	.st0{fill:#FFFFFF;}
</style>
<g>
	<path class="st0" d="M53.1,14.6h0.3c0.2,1,0.5,1.8,0.8,2.4c0.3,0.7,0.7,1.2,1,1.6c0.4,0.4,0.8,0.8,1.2,1c0.4,0.2,0.8,0.4,1.2,0.5
		c0.4,0.1,0.8,0.2,1.2,0.2c0.4,0,0.7,0,1.1,0c1,0,1.7-0.1,2.3-0.4c0.6-0.3,1.1-0.7,1.5-1.1c0.4-0.4,0.6-0.9,0.8-1.4
		c0.1-0.5,0.2-1,0.2-1.4c0-0.6-0.1-1.2-0.3-1.6c-0.2-0.5-0.5-0.8-0.9-1.1c-0.4-0.3-0.7-0.6-1.2-0.8c-0.4-0.2-0.8-0.3-1.2-0.5
		L58,11.1c-1.5-0.4-2.6-1-3.3-1.8c-0.7-0.7-1.1-1.7-1.1-3c0-0.8,0.1-1.6,0.4-2.2c0.3-0.7,0.7-1.3,1.2-1.8c0.5-0.5,1.1-0.9,1.9-1.2
		c0.7-0.3,1.5-0.4,2.4-0.4c0.6,0,1.2,0.1,1.6,0.2c0.4,0.1,0.8,0.2,1.1,0.4c0.3,0.1,0.6,0.3,0.8,0.4c0.2,0.1,0.5,0.2,0.7,0.2
		c0.2,0,0.4,0,0.5-0.1c0.1-0.1,0.2-0.2,0.3-0.5h0.4v4.9h-0.3c-0.1-0.6-0.3-1.3-0.5-1.9c-0.3-0.6-0.6-1.1-1-1.6
		c-0.4-0.5-0.9-0.8-1.5-1.1c-0.6-0.3-1.3-0.4-2-0.4c-0.4,0-0.9,0.1-1.4,0.2c-0.5,0.1-1,0.3-1.5,0.6c-0.5,0.3-0.8,0.7-1.1,1.1
		C55.1,3.5,55,4.1,55,4.8c0,0.6,0.1,1.1,0.4,1.5c0.2,0.4,0.5,0.7,0.9,1C56.6,7.6,57,7.8,57.5,8c0.5,0.2,0.9,0.4,1.4,0.5l3.3,1
		c0.3,0.1,0.8,0.2,1.3,0.4c0.5,0.2,1,0.4,1.5,0.8c0.5,0.4,0.9,0.8,1.3,1.4c0.3,0.6,0.5,1.3,0.5,2.3c0,0.8-0.2,1.6-0.5,2.4
		c-0.3,0.8-0.8,1.4-1.4,2c-0.6,0.6-1.3,1-2.2,1.4c-0.8,0.3-1.8,0.5-2.9,0.5c-0.4,0-0.7,0-1,0c-0.3,0-0.6,0-0.8-0.1
		c-0.3,0-0.5-0.1-0.8-0.1c-0.3,0-0.5-0.1-0.8-0.2c-0.4-0.1-0.7-0.2-1.2-0.4c-0.4-0.1-0.8-0.2-1.1-0.2c-0.3,0-0.5,0.1-0.6,0.2
		c-0.1,0.1-0.2,0.2-0.3,0.4h-0.4V14.6z"/>
	<path class="st0" d="M37.5,14.6h0.3c0.2,1,0.5,1.8,0.8,2.4c0.3,0.7,0.7,1.2,1,1.6c0.4,0.4,0.8,0.8,1.2,1c0.4,0.2,0.8,0.4,1.2,0.5
		c0.4,0.1,0.8,0.2,1.2,0.2c0.4,0,0.7,0,1.1,0c1,0,1.7-0.1,2.3-0.4c0.6-0.3,1.1-0.7,1.5-1.1c0.4-0.4,0.6-0.9,0.8-1.4
		c0.1-0.5,0.2-1,0.2-1.4c0-0.6-0.1-1.2-0.4-1.6c-0.2-0.5-0.5-0.8-0.9-1.1c-0.4-0.3-0.7-0.6-1.2-0.8c-0.4-0.2-0.8-0.3-1.2-0.5
		l-3.1-0.9c-1.5-0.4-2.6-1-3.3-1.8c-0.7-0.7-1.1-1.7-1.1-3c0-0.8,0.1-1.6,0.4-2.2c0.3-0.7,0.7-1.3,1.2-1.8c0.5-0.5,1.1-0.9,1.9-1.2
		c0.7-0.3,1.5-0.4,2.4-0.4c0.6,0,1.2,0.1,1.6,0.2c0.4,0.1,0.8,0.2,1.1,0.4c0.3,0.1,0.6,0.3,0.8,0.4c0.2,0.1,0.5,0.2,0.7,0.2
		c0.2,0,0.4,0,0.5-0.1c0.1-0.1,0.2-0.2,0.3-0.5h0.4v4.9h-0.3c-0.1-0.6-0.3-1.3-0.5-1.9c-0.3-0.6-0.6-1.1-1-1.6
		c-0.4-0.5-0.9-0.8-1.5-1.1c-0.6-0.3-1.3-0.4-2-0.4c-0.4,0-0.9,0.1-1.4,0.2c-0.5,0.1-1,0.3-1.5,0.6c-0.4,0.3-0.8,0.7-1.1,1.1
		c-0.3,0.5-0.4,1.1-0.4,1.8c0,0.6,0.1,1.1,0.4,1.5c0.2,0.4,0.5,0.7,0.9,1C41,7.6,41.4,7.8,41.9,8c0.5,0.2,0.9,0.4,1.4,0.5l3.3,1
		c0.3,0.1,0.8,0.2,1.3,0.4c0.5,0.2,1,0.4,1.5,0.8c0.5,0.4,0.9,0.8,1.3,1.4c0.3,0.6,0.5,1.3,0.5,2.3c0,0.8-0.2,1.6-0.5,2.4
		c-0.3,0.8-0.8,1.4-1.4,2c-0.6,0.6-1.3,1-2.2,1.4c-0.8,0.3-1.8,0.5-2.8,0.5c-0.4,0-0.7,0-1,0c-0.3,0-0.6,0-0.8-0.1
		c-0.3,0-0.5-0.1-0.8-0.1c-0.2,0-0.5-0.1-0.8-0.2c-0.4-0.1-0.7-0.2-1.2-0.4c-0.4-0.1-0.8-0.2-1.1-0.2c-0.3,0-0.5,0.1-0.6,0.2
		C38,20,38,20.2,37.9,20.4h-0.4V14.6z"/>
	<g>
		<g>
			<path class="st0" d="M16.1,20.4h-0.4c-0.1-0.1-0.3-0.3-0.4-0.4c-0.2-0.1-0.4-0.2-0.8-0.2c-0.3,0-0.6,0.1-0.9,0.1
				c-0.3,0.1-0.7,0.2-1.1,0.3c-0.4,0.1-0.9,0.2-1.4,0.3c-0.5,0.1-1.1,0.1-1.7,0.1c-1.1,0-2.2-0.2-3.3-0.6c-1.1-0.4-2.1-1.1-3-2
				C2.4,17.3,1.6,16.2,1,15c-0.6-1.2-0.9-2.6-0.9-4.2c0-1.3,0.2-2.6,0.7-3.8c0.5-1.2,1.2-2.3,2-3.2c0.9-0.9,1.9-1.7,3-2.2
				C7.1,1,8.4,0.7,9.7,0.7c0.6,0,1,0.1,1.5,0.2C11.7,1,12,1.1,12.4,1.3c0.3,0.1,0.7,0.3,0.9,0.4c0.3,0.1,0.6,0.2,0.8,0.2
				c0.4,0,0.6-0.1,0.8-0.2c0.2-0.1,0.3-0.2,0.4-0.4h0.4v5.4h-0.3c-0.2-0.7-0.4-1.4-0.6-2c-0.3-0.7-0.6-1.3-1-1.8
				c-0.4-0.5-1-0.9-1.7-1.2c-0.7-0.3-1.5-0.5-2.6-0.5c-1,0-1.8,0.1-2.4,0.4C6.4,1.9,5.8,2.3,5.3,2.7C4.9,3.2,4.5,3.8,4.2,4.5
				C3.9,5.1,3.7,5.8,3.6,6.5C3.4,7.3,3.3,8,3.3,8.7c0,0.7-0.1,1.4-0.1,2.1c0,1.9,0.2,3.4,0.5,4.7C4,16.8,4.4,17.7,5,18.5
				c0.5,0.7,1.2,1.2,2,1.5c0.8,0.3,1.6,0.4,2.6,0.4c1.2,0,2.2-0.2,2.9-0.5c0.7-0.3,1.3-0.8,1.8-1.3c0.4-0.5,0.8-1.2,1-1.9
				c0.2-0.7,0.4-1.4,0.6-2.1h0.3V20.4z"/>
		</g>
	</g>
	<g>
		<rect x="18.1" y="20.4" class="st0" width="6.5" height="0.4"/>
		<polygon class="st0" points="21.5,7.2 21.5,5.8 30.6,20.4 29,20.4 29,20.8 35.5,20.8 35.5,20.4 33.9,20.4 21.5,0.7 21.5,0.7 
			21.2,0.7 21.2,5.8 21.2,7.2 21.2,12.3 21.5,12.3 		"/>
	</g>
	<g>
		<rect x="68.7" y="20.4" class="st0" width="6.5" height="0.4"/>
		<polygon class="st0" points="72.2,7.2 72.2,5.8 81.2,20.4 79.6,20.4 79.6,20.8 86.1,20.8 86.1,20.4 84.5,20.4 72.2,0.7 72.2,0.7 
			71.8,0.7 71.8,5.8 71.8,7.2 71.8,12.3 72.2,12.3 		"/>
	</g>
</g>
<g>
	<path class="st0" d="M119.2,3.7c-0.9-0.9-1.9-1.6-3-2.1c-1.1-0.5-2.3-0.8-3.5-0.8c-1.1,0-2.2,0.3-3.3,0.8c-1.1,0.5-2.1,1.2-3,2.1
		c-0.9,0.9-1.6,2-2.2,3.2c-0.6,1.2-0.8,2.5-0.8,4c0,1.3,0.2,2.5,0.7,3.8c0.5,1.2,1.1,2.3,1.9,3.2c0.8,0.9,1.8,1.7,3,2.2
		c1.1,0.6,2.4,0.8,3.7,0.8c1.3,0,2.5-0.3,3.7-0.9c1.1-0.6,2.1-1.3,3-2.3c0.8-0.9,1.5-2,2-3.2c0.5-1.2,0.7-2.4,0.7-3.7
		c0-1.4-0.3-2.8-0.8-4C120.8,5.6,120.1,4.6,119.2,3.7z M118.7,15.1c-0.2,1.2-0.6,2.2-1.1,3c-0.5,0.8-1.2,1.4-2,1.8
		c-0.8,0.4-1.8,0.6-2.9,0.6c-1.2,0-2.1-0.2-2.9-0.6c-0.8-0.4-1.4-1-1.9-1.8c-0.5-0.8-0.9-1.8-1.1-3c-0.2-1.2-0.3-2.6-0.3-4.2
		c0-1.2,0.1-2.4,0.2-3.6c0.2-1.2,0.5-2.2,0.9-3.1c0.5-0.9,1.1-1.6,1.9-2.2c0.8-0.5,1.9-0.8,3.2-0.8c1.3,0,2.4,0.3,3.2,0.8
		c0.8,0.5,1.5,1.3,1.9,2.2c0.5,0.9,0.8,1.9,0.9,3.1c0.2,1.2,0.2,2.4,0.2,3.6C119,12.5,118.9,13.9,118.7,15.1z"/>
	<g>
		<g>
			<rect x="134.8" y="0.8" class="st0" width="6.5" height="0.4"/>
			<rect x="123.9" y="20.5" class="st0" width="6.5" height="0.4"/>
			<polygon class="st0" points="137.9,15.7 128.8,1.2 130.4,1.2 130.4,0.8 123.9,0.8 123.9,1.2 125.5,1.2 137.9,20.8 137.9,20.8 
				138.2,20.8 138.2,16.3 137.9,15.7 			"/>
		</g>
		<g>
			<rect x="95.1" y="0.8" class="st0" width="6.5" height="0.4"/>
			<polygon class="st0" points="98.2,14.3 98.2,15.7 89.2,1.2 90.8,1.2 90.8,0.8 84.3,0.8 84.3,1.2 85.9,1.2 98.2,20.8 98.2,20.8 
				98.6,20.8 98.6,15.7 98.6,14.3 98.6,9.2 98.2,9.2 			"/>
		</g>
	</g>
</g>
</svg>
