<?xml version="1.0" encoding="utf-8"?>
<!-- Generator: Adobe Illustrator 24.0.0, SVG Export Plug-In . SVG Version: 6.00 Build 0)  -->
<svg version="1.1" id="Capa_1" xmlns="http://www.w3.org/2000/svg" xmlns:xlink="http://www.w3.org/1999/xlink" x="0px" y="0px"
	 viewBox="0 0 110 110" style="enable-background:new 0 0 110 110;" xml:space="preserve">
<g>
	<path d="M88,75.82c0,8.19-2.76,14.45-8.28,18.79c-5.52,4.34-13.64,6.51-24.36,6.51H22.56V10.87H55.2c9.07,0,16,1.72,20.81,5.15
		c4.81,3.44,7.21,8.92,7.21,16.44c0,2.09-0.21,4.24-0.62,6.47c-0.41,2.23-1.17,4.3-2.27,6.22c-1.1,1.93-2.61,3.64-4.53,5.15
		c-1.93,1.51-4.4,2.6-7.42,3.26c4.23,0.39,7.62,1.31,10.18,2.76c2.56,1.46,4.53,3.23,5.93,5.32c1.4,2.09,2.33,4.38,2.8,6.88
		C87.77,71.03,88,73.46,88,75.82z M29.15,50.52h24.23c8.02,0,13.93-1.29,17.72-3.87c3.79-2.58,5.69-6.92,5.69-13.02
		c0-5.49-1.76-9.57-5.28-12.24c-3.52-2.66-9.15-4-16.9-4l-25.47,0.08V50.52z M29.15,94.53h26.13c17.03,0,25.55-6.24,25.55-18.71
		c0-3.24-0.44-6.04-1.32-8.41c-0.88-2.36-2.38-4.3-4.49-5.81c-2.12-1.51-4.92-2.64-8.41-3.38c-3.49-0.74-7.87-1.11-13.15-1.11H29.15
		V94.53z"/>
</g>
</svg>
