<?xml version="1.0" encoding="utf-8"?>
<!-- Generator: Adobe Illustrator 24.0.0, SVG Export Plug-In . SVG Version: 6.00 Build 0)  -->
<svg version="1.1" id="Capa_1" xmlns="http://www.w3.org/2000/svg" xmlns:xlink="http://www.w3.org/1999/xlink" x="0px" y="0px"
	 viewBox="0 0 400 68.1" style="enable-background:new 0 0 400 68.1;" xml:space="preserve">
<style type="text/css">
	.st0{display:none;}
	.st1{fill:#FFFFFF;}
</style>
<g id="Fondos">
</g>
<g id="Fotos">
</g>
<g id="Transparencias">
</g>
<g id="q">
</g>
<g id="Layer_6">
</g>
<g id="Layer_5">
</g>
<g id="Guias" class="st0">
</g>
<path class="st1" d="M107.4,49.2H87.6V17.9h-2.3v33.5h22.1C107.4,51.4,107.4,49.2,107.4,49.2z M79.7,29.5c-0.2,0.2-0.4,0.5-0.4,0.9
	s0.1,0.6,0.4,0.9c0.2,0.2,0.6,0.4,0.9,0.4s0.6-0.1,0.9-0.4c0.2-0.2,0.4-0.5,0.4-0.9s-0.1-0.6-0.4-0.9C80.9,29.1,80.2,29.1,79.7,29.5
	z M124.1,17.9l-21.4,50.2h2.2l21.3-50.2C126.2,17.9,124.1,17.9,124.1,17.9z M5.8,41.5H4.2v9.9h1.5v-4.2h11v-1.6h-11L5.8,41.5
	L5.8,41.5z M4.2,30.9h5.5v7H4.2v1.6h12.6v-1.7h-5.6v-7h5.6v-1.6H4.2V30.9z M15.2,25.6h-4v-7H9.7v7H5.8v-7.7H4.2v9.2h12.6v-9.2h-1.5
	L15.2,25.6L15.2,25.6z M59,17.9c-4.1,0-7.9,1.5-10.9,4c-3-2.6-6.9-4-10.9-4c-4.5,0-8.7,1.7-11.9,4.9s-4.9,7.4-4.9,11.8
	c0,4.5,1.7,8.7,4.9,11.8c3.2,3.2,7.4,4.9,11.9,4.9c4,0,7.9-1.4,10.9-4c2.9,2.5,6.7,4,10.9,4c9.3,0,16.8-7.5,16.8-16.8
	C75.8,25.4,68.3,17.9,59,17.9z M37.2,49.3c-3.9,0-7.6-1.5-10.4-4.3s-4.3-6.5-4.3-10.4S24,27,26.8,24.2s6.5-4.3,10.4-4.3
	c3.5,0,6.8,1.2,9.4,3.4c-2.7,3-4.4,7-4.4,11.3s1.7,8.3,4.4,11.3C44,48.1,40.7,49.3,37.2,49.3z M59,49.3c-3.6,0-6.8-1.3-9.4-3.4
	c1.5-1.7,2.7-3.5,3.4-5.6l0.3-0.8h-2.2L51,39.9c-0.7,1.7-1.6,3.3-2.9,4.7c-2.4-2.6-3.9-6.1-3.9-9.9s1.5-7.3,3.9-9.9
	c1.4,1.5,2.4,3.2,3,5.1l0.1,0.4h2.1L53,29.5c-0.7-2.3-2-4.3-3.6-6.1c2.6-2.1,5.8-3.4,9.4-3.4c8.1,0,14.7,6.6,14.7,14.7
	C73.7,42.7,67.1,49.3,59,49.3z M79.7,38.7c-0.5,0.5-0.5,1.2,0,1.7c0.2,0.2,0.6,0.4,0.9,0.4s0.6-0.1,0.9-0.4c0.5-0.5,0.5-1.2,0-1.7
	C80.9,38.2,80.2,38.2,79.7,38.7z M128.9,17.9l-14.4,33.5h2.3l13.7-31.9l13.7,31.9h2.2L132,17.9H128.9z M318.1,17.9
	c-9.3,0-16.8,7.5-16.8,16.8c0,9.2,7.5,16.8,16.8,16.8s16.8-7.5,16.8-16.8C334.8,25.4,327.3,17.9,318.1,17.9z M318.1,49.3
	c-8.1,0-14.7-6.6-14.7-14.7s6.6-14.7,14.7-14.7s14.7,6.6,14.7,14.7C332.8,42.7,326.2,49.3,318.1,49.3z M357.8,36.4
	c1.4-0.5,2.5-1.1,3.5-1.9s1.8-1.8,2.3-3c0.6-1.2,0.8-2.5,0.8-3.9v-0.1c0-2.6-0.8-4.8-2.5-6.4c-2.1-2.1-5.4-3.2-9.7-3.2h-13.8v33.5
	h2.3V37.3h11.1l10.7,14.1h2.8l-10.8-14.2C355.6,37,356.8,36.8,357.8,36.4z M351.8,35.1h-11.1V20h11.5c3.2,0,5.7,0.7,7.5,2
	c1.7,1.3,2.6,3.1,2.6,5.5v0.1c0,1-0.2,2-0.6,2.9s-1,1.7-1.9,2.4c-0.9,0.7-2,1.2-3.3,1.6C355.2,34.9,353.6,35.1,351.8,35.1z
	 M301.3,17.9h-25.6v2.2h11.7v31.3h2.3V20h11.7v-2.1H301.3z M174.2,36.5c-0.8-0.7-1.7-1.4-2.7-1.8c-0.4-0.2-0.8-0.3-1.2-0.5
	c1.1-0.5,2-1.2,2.8-2.1c1.3-1.4,1.9-3.2,1.9-5.4v-0.1c0-2.3-0.8-4.3-2.3-5.8c-2-2-5-2.9-8.9-2.9h-13.9v33.5h14.6
	c3.8,0,6.8-0.8,8.9-2.3c2.2-1.6,3.3-3.8,3.3-6.7v-0.1c0-1.2-0.2-2.2-0.7-3.2C175.6,38.1,175,37.2,174.2,36.5z M152.2,20h11.6
	c2.9,0,5.1,0.6,6.7,1.8c1.5,1.2,2.3,2.8,2.3,4.8v0.1c0,1.1-0.2,2.1-0.6,2.9c-0.4,0.8-1,1.5-1.7,2c-0.8,0.6-1.6,1-2.6,1.2
	c-1,0.3-2.1,0.4-3.2,0.4h-12.3V20H152.2z M174.4,42.4c0,2.1-0.8,3.8-2.5,4.9c-1.7,1.2-4.2,1.8-7.4,1.8h-12.3V35.5h13.1
	c1.3,0,2.5,0.2,3.6,0.5s2.1,0.8,2.9,1.3c0.8,0.6,1.4,1.3,1.9,2.1C174.2,40.3,174.4,41.2,174.4,42.4L174.4,42.4z M393.8,17.9
	l-12.6,17.4l-12.6-17.4h-2.7l14.3,19.6v13.9h2.3v-14l14.2-19.6h-2.9V17.9z M197.1,17.9c-9.3,0-16.8,7.5-16.8,16.8
	c0,9.2,7.5,16.8,16.8,16.8s16.8-7.5,16.8-16.8C213.8,25.4,206.3,17.9,197.1,17.9z M197.1,49.3c-8.1,0-14.7-6.6-14.7-14.7
	s6.6-14.7,14.7-14.7c8.1,0,14.7,6.6,14.7,14.7S205.2,49.3,197.1,49.3z M266.2,17.9l-14.4,33.5h2.3l13.7-31.9l13.7,31.9h2.2
	l-14.3-33.5H266.2z M244.3,51.4l-10.8-14.2c1.2-0.1,2.3-0.4,3.3-0.7c1.4-0.5,2.5-1.1,3.5-1.9s1.8-1.8,2.3-3c0.6-1.2,0.8-2.5,0.8-3.9
	v-0.1c0-2.6-0.8-4.8-2.5-6.4c-2.1-2.1-5.4-3.2-9.7-3.2h-13.8v33.5h2.3V37.3h11.1l10.7,14.1H244.3z M230.8,35.1h-11.1V20h11.5
	c3.2,0,5.7,0.7,7.5,2c1.7,1.3,2.6,3.1,2.6,5.5v0.1c0,1-0.2,2-0.6,2.9c-0.4,0.9-1,1.7-1.9,2.4c-0.9,0.7-2,1.2-3.3,1.6
	C234.2,34.9,232.6,35.1,230.8,35.1z M261.4,17.9l-22.7,50.2h2.2l22.6-50.2C263.5,17.9,261.4,17.9,261.4,17.9z"/>
</svg>
