<?xml version="1.0" encoding="utf-8"?>
<!-- Generator: Adobe Illustrator 22.1.0, SVG Export Plug-In . SVG Version: 6.00 Build 0)  -->
<svg version="1.1" id="Capa_1" xmlns="http://www.w3.org/2000/svg" xmlns:xlink="http://www.w3.org/1999/xlink" x="0px" y="0px"
	 width="400.9px" height="109.2px" viewBox="0 0 400.9 109.2" style="enable-background:new 0 0 400.9 109.2;" xml:space="preserve"
	>
<style type="text/css">
	.st0{fill:#FFFFFF;}
	.st1{display:none;}
</style>
<g id="Fondos">
</g>
<g id="Fotos">
</g>
<g id="Transparencias">
</g>
<g id="q">
</g>
<g id="Layer_6">
</g>
<g id="Layer_5">
</g>
<g id="Layer_2">
	<g>
		<g>
			<g>
				<path class="st0" d="M89.4,54.7c0-5.7,1.1-11,3.4-15.9s5.2-9.1,8.7-12.7c3.5-3.6,7.5-6.4,12-8.4s8.9-3.1,13.3-3.1
					c4.7,0,9.3,1,13.8,3.1c4.5,2,8.5,4.9,12,8.4c3.5,3.6,6.3,7.8,8.4,12.7c2.1,4.9,3.2,10.2,3.2,15.9c0,5-1,9.9-2.9,14.7
					c-1.9,4.8-4.6,9.1-8,12.8c-3.4,3.7-7.3,6.7-11.9,9c-4.6,2.3-9.4,3.4-14.7,3.4c-5.4,0-10.3-1.1-14.9-3.3
					c-4.6-2.2-8.5-5.2-11.9-8.8c-3.3-3.7-5.9-8-7.8-12.8C90.3,64.8,89.4,59.8,89.4,54.7 M101.8,54.7c0,6.4,0.4,12.1,1.3,16.8
					c0.9,4.8,2.3,8.8,4.3,12c2,3.2,4.6,5.6,7.7,7.2c3.1,1.6,7,2.3,11.7,2.3c4.6,0,8.5-0.8,11.6-2.3c3.2-1.6,5.8-4,7.8-7.2
					c2-3.2,3.4-7.2,4.3-12c0.9-4.8,1.3-10.4,1.3-16.8c0-5-0.3-9.7-0.9-14.3c-0.7-4.6-1.9-8.7-3.7-12.4c-1.8-3.6-4.4-6.5-7.6-8.6
					c-3.3-2.1-7.5-3.2-12.7-3.2c-5.2,0-9.5,1.1-12.7,3.2c-3.3,2.1-5.8,5-7.6,8.6c-1.8,3.6-3.1,7.7-3.7,12.4
					C102.1,45,101.8,49.7,101.8,54.7"/>
				<g>
					<rect x="209.5" y="14.6" class="st0" width="25.9" height="1.4"/>
					<rect x="166.1" y="93.2" class="st0" width="25.9" height="1.4"/>
					<polygon class="st0" points="221.7,48.3 221.7,68.7 221.7,74.3 185.6,16 192,16 192,14.6 166.1,14.6 166.1,16 172.4,16 
						221.7,94.6 221.7,94.6 223.2,94.6 223.2,74.3 223.2,68.7 223.2,48.3 					"/>
				</g>
				<g>
					<rect x="51.3" y="14.6" class="st0" width="26" height="1.4"/>
					<polygon class="st0" points="63.5,48.3 63.5,68.7 63.5,74.3 27.4,16 33.8,16 33.8,14.6 7.9,14.6 7.9,16 14.2,16 63.5,94.6 
						63.5,94.6 65,94.6 65,74.3 65,68.7 65,48.3 					"/>
				</g>
			</g>
		</g>
		<path class="st0" d="M275.8,74.9c0,3.2-0.4,6-1.3,8.4s-2.1,4.5-3.7,6.2c-1.6,1.7-3.4,2.9-5.5,3.8s-4.2,1.3-6.4,1.3
			c-3.7,0-6.9-0.8-9.8-2.4c-2.8-1.6-5.2-3.9-7-7l1.9-1.4c1.7,2.9,3.9,5.1,6.6,6.5c2.7,1.4,5.4,2.2,8.1,2.2c1.9,0,3.8-0.4,5.6-1.2
			c1.8-0.8,3.3-1.9,4.6-3.4c1.3-1.5,2.4-3.3,3.2-5.5c0.8-2.2,1.2-4.7,1.2-7.5c0-2.6-0.4-4.9-1.3-6.9c-0.9-2-2-3.8-3.4-5.4
			c-1.4-1.5-3-2.9-4.7-4c-1.7-1.2-3.5-2.2-5.2-3c-2-1-4-2.1-5.9-3.4c-1.9-1.3-3.6-2.7-5-4.4c-1.4-1.7-2.6-3.7-3.5-5.9
			c-0.9-2.2-1.4-4.8-1.4-7.8c0-3.2,0.5-6,1.4-8.4c0.9-2.4,2.2-4.4,3.8-6c1.6-1.6,3.4-2.9,5.5-3.7c2.1-0.8,4.3-1.2,6.6-1.2
			c3,0,5.7,0.6,8.2,1.8c2.5,1.2,4.5,3.2,6.1,6l-1.7,1.4c-1.6-2.7-3.5-4.5-5.6-5.5c-2.1-1-4.5-1.5-7.1-1.5c-1.8,0-3.6,0.4-5.3,1
			c-1.8,0.7-3.4,1.7-4.8,3.1c-1.4,1.4-2.6,3.2-3.4,5.4c-0.9,2.2-1.3,4.8-1.3,7.8c0,2.7,0.4,5,1.2,7c0.8,2,1.8,3.7,3.1,5.1
			c1.3,1.5,2.8,2.7,4.4,3.8c1.6,1.1,3.2,2,4.8,2.8c2.2,1.2,4.4,2.4,6.4,3.7c2,1.3,3.8,2.9,5.4,4.6c1.5,1.7,2.8,3.7,3.7,5.9
			C275.4,69.4,275.8,72,275.8,74.9z"/>
		<path class="st0" d="M291.9,94.6v-80h2.5v80H291.9z"/>
		<path class="st0" d="M330,16.9v77.8h-2.5V16.9h-15.8v-2.3h34.1v2.3H330z"/>
		<path class="st0" d="M363.4,94.6v-80h28.8v2.3h-26.3V52h24.7v2.3h-24.7v38.1H393v2.3L363.4,94.6L363.4,94.6z"/>
	</g>
</g>
<g id="Guias" class="st1">
</g>
</svg>
