<?xml version="1.0" encoding="utf-8"?>
<!-- Generator: Adobe Illustrator 24.0.0, SVG Export Plug-In . SVG Version: 6.00 Build 0)  -->
<svg version="1.1" id="Capa_1" xmlns="http://www.w3.org/2000/svg" xmlns:xlink="http://www.w3.org/1999/xlink" x="0px" y="0px"
	 viewBox="0 0 60 60" style="enable-background:new 0 0 60 60;" xml:space="preserve">
<style type="text/css">
	.st0{stroke:#000000;stroke-miterlimit:10;}
	.st1{fill:none;stroke:#000000;stroke-width:2;stroke-miterlimit:10;}
</style>
<g>
	<path class="st0" d="M25.78,42.59c0.13,0.13,0.31,0.21,0.5,0.21c0.19,0,0.37-0.07,0.5-0.21l11.69-11.69
		c0.27-0.27,0.28-0.71,0.01-0.98c0,0,0,0-0.01-0.01L26.77,18.23c-0.26-0.28-0.71-0.3-0.99-0.03c-0.28,0.26-0.3,0.71-0.03,0.99
		c0.01,0.01,0.02,0.02,0.03,0.03l11.19,11.19L25.78,41.6C25.5,41.87,25.5,42.32,25.78,42.59C25.77,42.59,25.77,42.59,25.78,42.59z"
		/>
	<path class="st1" d="M29.51,3.03C14.62,3.03,2.5,15.14,2.5,30.04s12.12,27.01,27.01,27.01s27.01-12.12,27.01-27.01
		S44.41,3.03,29.51,3.03z"/>
</g>
</svg>
