<?xml version="1.0" standalone="no"?>
<!DOCTYPE svg PUBLIC "-//W3C//DTD SVG 1.1//EN" "http://www.w3.org/Graphics/SVG/1.1/DTD/svg11.dtd" >
<svg>
<metadata>
Created by FontForge 20090622 at Fri Dec 13 00:18:20 2019
 By deploy user
Copyright (c) 2015 by Blue Vinyl Fonts. All rights reserved.
</metadata>
<defs>
<font id="FeltThat" horiz-adv-x="241" >
  <font-face 
    font-family="Felt That"
    font-weight="400"
    font-stretch="normal"
    units-per-em="1000"
    panose-1="3 8 8 2 3 4 7 0 0 0"
    ascent="675"
    descent="-325"
    x-height="320"
    cap-height="620"
    bbox="-227.96 -322.696 1157.14 865.842"
    underline-thickness="50"
    underline-position="-50"
    unicode-range="U+000D-U+FB06"
  />
<missing-glyph horiz-adv-x="418" 
d="M44 0v600h330v-600h-330zM75 569v-538h268v538h-268z" />
    <glyph glyph-name="ff" unicode="ff" horiz-adv-x="432" 
d="M118 147l-21 -50q50 -5 103 16q49 19 100 63q18 37 46.5 105t40.5 93q31 68 58 105.5t57 40.5q41 4 59 -24q18 -29 0 -72q-22 -53 -113 -159q-59 -69 -109 -112l-21 -51q92 -11 161 45q52 42 75 93q10 21 25 4q10 -12 0 -33q-25 -49 -66 -89q-60 -57 -150 -63
q19 -25 18.5 -81t-27.5 -120t-59 -104t-57 -40q-29 0 -48 18.5t-16 60.5q5 52 31 137q29 93 62 172q-31 -19 -59 -30q-29 -12 -61 -13q36 -71 -17 -196q-56 -132 -106 -132q-29 0 -48 18.5t-16 60.5q5 60 41.5 165t86.5 209q12 25 44 97.5l50 110.5q77 159 128 164
q40 4 58 -21q19 -29 1 -75q-15 -39 -105 -151q-101 -125 -146 -162zM214 -252q9 -9 29.5 9.5t45 62t40.5 96.5q19 76 9.5 110t-36.5 36q-34 -87 -60 -163q-45 -133 -28 -151zM0 -235q9 -9 27 6.5t40 56t38 93.5q15 50 15.5 82.5t-9 45.5t-27.5 13h-1q-39 -99 -61 -167
q-37 -113 -22 -130zM241 349q114 145 101 167q-12 19 -33.5 -4t-52.5 -78q-64 -116 -93 -183q2 3 78 98zM502 402q45 68 31 83q-14 16 -36.5 -11.5t-54.5 -90.5q-4 -7 -58 -124q77 82 118 143z" />
    <glyph glyph-name="fi" unicode="fi" horiz-adv-x="401" 
d="M408 280q-37 -74 -61 -147q-27 -82 -9 -92q26 -13 114 99q62 79 74 107q4 8 10 6t11 -10q7 -13 2 -25q-16 -38 -67 -105q-74 -102 -118 -108q-31 -4 -52 18q-33 35 -22 91q0 2 1 4q-16 -14 -34 -26q-48 -29 -110 -33q19 -25 18.5 -81t-27.5 -120q-26 -61 -57 -94t-57 -33
q-29 0 -47 17q-20 20 -17 62q4 52 35 144q38 115 93 230l48.5 108.5t57.5 124.5q68 134 116 139q38 4 56 -20q23 -29 3 -76q-15 -39 -105 -151q-101 -125 -146 -162q-7 -15 -19 -45q74 -8 126 21q56 31 104 104l24.5 51.5t16.5 35.5q4 13 21 6q11 -5 17 -16.5t0 -23.5z
M0 -235q9 -9 29 5t44 53.5t40 92.5q16 52 13.5 84.5t-13.5 47t-29 14.5h-1q-27 -67 -56 -152q-43 -128 -27 -145zM241 349q111 142 97 166q-12 19 -32.5 -3t-48.5 -73l-68 -134q-2 -3 -11 -22l-15 -32q2 3 78 98zM408 472q23 12 56 -5q14 -7 19 -19.5t-5 -18.5
q-9 -6 -32 -4.5t-35 7.5t-12.5 21t9.5 19z" />
    <glyph glyph-name="fl" unicode="fl" horiz-adv-x="451" 
d="M363 20q27 -11 122 104q68 81 88 121q9 17 19 4q12 -14 4 -34q-17 -41 -86 -126q-76 -95 -108 -107q-26 -10 -53 5q-30 17 -38 50q-9 36 -1 101q-24 -28 -53 -46q-48 -29 -110 -33q19 -25 18.5 -81t-27.5 -120q-26 -61 -57 -94t-57 -33q-29 0 -47 17q-20 20 -17 62
q4 52 35 144q38 115 93 230l48.5 108.5t57.5 124.5q68 134 116 139q38 4 56 -20q23 -29 3 -76q-15 -39 -105 -151q-101 -125 -146 -162q-7 -15 -19 -45q74 -8 126 21q56 30 102 101q15 56 40 127q30 80 61.5 143.5t47.5 76.5q33 26 62 11q18 -10 24.5 -33t-1.5 -53
q-14 -48 -73 -143q-58 -92 -125 -173q-11 -56 -14 -93q-3 -60 14 -67zM0 -235q9 -9 29 5t44 53.5t40 92.5q16 52 13.5 84.5t-13.5 47t-29 14.5h-1q-27 -67 -56 -152q-43 -128 -27 -145zM241 349q111 142 97 166q-12 19 -32.5 -3t-48.5 -73l-68 -134q-2 -3 -11 -22l-15 -32
q2 3 78 98zM466 398q23 37 39 71t21.5 54.5t1.5 24.5q-19 19 -64 -79l-11 -24q-26 -62 -37 -91q-10 -25 -26 -77z" />
    <glyph glyph-name="s_t" unicode="st" horiz-adv-x="443" 
d="M265 291q-26 4 -62 -24q-40 -31 -43 -66q-2 -21 17 -67q23 -56 27 -74q6 -31 -3 -52q-15 -40 -73 -47q-41 -5 -85 14q-12 6 -16 24q-3 12 1.5 18.5t14.5 0.5q34 -17 75 -12q52 7 48 49q-1 11 -5.5 22t-14.5 31t-13 25q-24 47 -16 95q6 40 46 75q41 36 73 34q22 -1 35 -20
q5 -7 6.5 -13t-1.5 -10t-11 -3zM295 337q46 3 91 4l35.5 71l30.5 61l15 30q13 23 30 6q15 -17 5 -45q-9 -23 -57 -121q79 0 100 -7q26 -8 29 -20q2 -4 -2 -6t-14 -2q-46 1 -133 -4q-32 -66 -45 -95q-21 -48 -34 -87q-35 -107 -9 -115q31 -8 127 103q76 88 103 138
q7 12 18 -3q12 -16 0 -39q-35 -62 -84 -121q-81 -100 -136 -113q-40 -10 -67 25q-20 27 -16 69q2 22 20 75q23 66 65 158l-46 -4q-22 -3 -35 18q-14 22 9 24z" />
    <glyph glyph-name="C_e" unicode="Ce" horiz-adv-x="740" 
d="M119 -47q54 -50 248 35q87 39 158 85q9 90 60 170q48 72 105 86q37 9 59.5 -9.5t18.5 -51.5q-7 -50 -76 -116q-46 -43 -118 -96q3 -43 30 -45q56 -5 156 100q73 76 104 136q8 15 20 1q9 -12 4 -26q-26 -69 -102 -150q-85 -93 -156 -98q-30 -2 -54.5 13t-38.5 43
q-174 -120 -314 -137q-80 -9 -129 32.5t-53 105.5q-9 136 121 327q80 118 155 187t126 85q35 11 67.5 -15.5t37.5 -57.5q6 -41 -38 -115q-14 -20 -29 3q-12 18 -5 34q35 92 10 104q-28 13 -109 -55t-159 -180q-91 -131 -118.5 -242.5t19.5 -152.5zM579 115q41 32 87 80
q79 81 59 95q-20 15 -88 -64q-20 -23 -30 -43t-28 -68z" />
    <glyph glyph-name="C_r" unicode="Cr" horiz-adv-x="751" 
d="M566 207q41 54 78 111t42 71q4 11 20.5 -1t11.5 -24q-2 -6 -6.5 -13.5t-6.5 -13t-2 -11.5q0 -3 7.5 -4.5t19 -4t18.5 -6.5q30 -16 6 -62q-19 -36 -46 -101q-44 -106 -24 -113q21 -8 102 90q74 89 89 122q4 8 10 7.5t11 -8.5q8 -16 -1 -34q-16 -33 -72 -110
q-58 -77 -92 -95q-50 -27 -75.5 3.5t-17.5 70.5q8 36 46 122q28 62 30 72q1 8 -7.5 12t-18.5 3h-9q-86 -144 -217 -270q-59 -56 -124.5 -94.5t-112.5 -42.5q-80 -6 -130.5 39t-54.5 109q-9 136 121 327q80 118 155 187t126 85q35 11 67.5 -15.5t37.5 -57.5q6 -41 -38 -115
q-14 -19 -28 1t-6 36q35 92 10 104q-28 13 -109 -55t-159 -180q-91 -131 -117.5 -241.5t18.5 -153.5q30 -35 103 -20t157 78q93 70 188 196z" />
    <glyph glyph-name="E_e" unicode="Ee" horiz-adv-x="754" 
d="M496 74l41 28q5 59 62 145q47 68 103 82q38 10 62 -9.5t16 -51.5t-76 -95q-68 -62 -119 -95q-3 -64 31 -67q66 -5 180 126q60 69 80 110q7 13 17 4q13 -13 7 -29q-22 -58 -85 -131q-95 -112 -173 -117q-35 -2 -62.5 18t-37.5 57q-56 -37 -117 -72q-127 -72 -222 -92
q-85 -18 -133 12t-56 87q-6 45 28.5 104.5t106.5 115.5q70 56 140 97q-44 18 -61 51t-5 67q12 35 48.5 78.5t83.5 81.5q94 77 144 75q7 0 13.5 -1t12.5 -4.5l9.5 -5.5t9.5 -8l8 -8t8.5 -10t7.5 -9q11 -11 1 -22q-5 -6 -12 -7t-10 4q-19 20 -41 19q-46 0 -141 -77
q-58 -47 -83.5 -93.5t-1.5 -72.5q14 -15 57 -30q61 32 90 35q39 3 54 -17q8 -11 -1 -20q-14 -14 -47 -28t-73 -13q-116 -62 -195 -137q-50 -45 -78 -92t-27.5 -78.5t22.5 -48.5q34 -21 113 1.5t177 71.5q63 32 124 71zM603 151q55 43 80 66q32 29 47 48t7 25q-10 7 -31 -7
t-45 -42q-34 -39 -58 -90z" />
    <glyph glyph-name="E_r" unicode="Er" horiz-adv-x="769" 
d="M694 389q4 12 19 0q13 -10 13 -24q0 -8 -5 -20.5t-2 -17.5q2 -4 8.5 -6t16.5 -4t17 -6q30 -16 6 -62q-11 -21 -44 -101q-41 -104 -26 -113q22 -11 103 84q82 97 94 130q3 7 9 6t11 -8q10 -16 -1 -35q-31 -54 -79 -115q-59 -76 -90 -90q-39 -17 -60 -3.5t-28.5 38
t-2.5 48.5q9 39 41 107.5t33 77.5q1 8 -7.5 12t-17.5 3h-10q-78 -124 -164 -210q-157 -157 -325 -198q-83 -20 -132 12t-57 90q-6 45 28.5 104.5t106.5 115.5q70 56 140 97q-44 18 -61 51t-5 67q25 71 128 156q42 36 83 58t65 21q7 0 13.5 -1t12.5 -4.5l9.5 -5.5t9.5 -8
l8 -8t8.5 -10t7.5 -9q10 -8 4 -18q-4 -7 -12.5 -10t-12.5 3q-19 20 -41 19q-46 0 -141 -77q-58 -47 -83.5 -93.5t-1.5 -72.5q13 -15 57 -30q61 32 90 35q39 3 54 -17q8 -11 -1 -20q-14 -14 -47 -28t-73 -13q-116 -62 -195 -137q-50 -45 -78 -92t-27.5 -78.5t22.5 -48.5
q58 -36 175.5 17t216.5 147q75 71 137.5 155t82.5 140z" />
    <glyph glyph-name="K_e" unicode="Ke" horiz-adv-x="722" 
d="M464 96l20 13q5 37 23 76q19 40 44 75q45 59 89 71q38 10 59 -15.5t9 -58.5q-18 -47 -71 -97q-45 -42 -105 -80q-3 -62 28 -71q36 -11 81.5 13t87.5 71q64 71 115 154q9 15 19 1q11 -15 5 -29q-12 -27 -47.5 -78.5t-70.5 -88.5q-78 -81 -162 -81q-37 1 -64 22.5t-37 59.5
q-40 -24 -70.5 -39t-88.5 -28t-112 -4q-59 10 -88.5 47.5t-31.5 86.5q-59 -164 -55 -214q1 -20 -7 -23.5t-19 5.5q-12 9 -20.5 22t-5.5 21q-1 22 35 126l77 204l24.5 61l23.5 59.5l21.5 53t20 50.5l16.5 43.5t14 39l10 30.5t6.5 25t1.5 15q0 9 5 12t12.5 0.5t14.5 -9.5
q19 -17 16 -38q-3 -13 -21 -58l-50 -120.5l-54 -130.5l-10 -25q57 81 149 159q65 55 134 92t110 37q21 0 38 -17q13 -15 -4 -16q-30 -4 -87.5 -29.5t-127.5 -82.5q-143 -117 -192 -203q-62 -109 -11 -158q25 -24 73 -27t117 20q52 18 113 56zM672 295q-21 15 -70 -49
q-26 -35 -50 -88q47 37 77 67q58 58 43 70z" />
    <glyph glyph-name="K_r" unicode="Kr" horiz-adv-x="737" 
d="M480 154q65 58 112 116.5t59 81t17 37.5q2 5 9 4t13 -6q15 -11 10 -23q-2 -6 -6.5 -13.5t-6.5 -13t-2 -11.5q0 -3 8 -4.5t20 -4t19 -6.5q30 -16 6 -62q-19 -35 -46 -103q-9 -22 -15.5 -40t-11 -35t-4.5 -25t5 -11q26 -5 102 82q32 38 60 77t33 53q3 7 9 6t11 -8
q10 -14 3 -29q-23 -46 -80 -120q-56 -70 -91 -89q-39 -20 -64 -3q-18 12 -25 38t-2 48q6 29 33 90q40 89 41 95q1 8 -7.5 12t-18.5 3h-9q-68 -98 -174 -191q-66 -58 -140.5 -88t-135.5 -21q-54 8 -83 44t-31 84q-60 -168 -56 -216q1 -16 -4 -21.5t-14 -1.5q-13 5 -25 22
t-8 26q-1 48 112 330l24.5 61l23.5 59.5l21.5 53t20 50.5l16.5 43.5t14 39l10 30.5t6.5 25t1.5 15q0 11 8 13.5t17 -4.5q11 -6 17.5 -18.5t4.5 -25.5q-3 -13 -21 -58l-50 -120.5l-54 -130.5l-14 -35q61 86 164 173q66 56 129.5 90.5t103.5 34.5q16 0 31 -11q6 -5 8.5 -9.5
t0.5 -8.5t-9 -4q-27 -3 -80 -29.5t-123 -83.5q-149 -122 -210 -224q-27 -43 -23.5 -83t39.5 -56q47 -22 131.5 6.5t169.5 103.5z" />
    <glyph glyph-name="L_e" unicode="Le" horiz-adv-x="629" 
d="M368 22q-49 -29 -122 -62t-106 -42q-38 -8 -71 13t-30 69q1 16 6.5 39t15.5 52l19.5 55t25 62l24.5 57.5l25 57.5l21 47l44 97l44.5 97.5t20.5 52.5q5 21 30 2t15 -41q-3 -8 -20.5 -42l-51.5 -104l-72 -155q-55 -128 -86 -223t-3 -97q28 -3 171 67q97 47 147 78
q6 66 58 140q52 76 109 87q39 7 61.5 -11t16.5 -50q-8 -39 -84 -103q-56 -47 -118 -87q-5 -60 20 -68q49 -18 153 85q40 38 73.5 81t47.5 71q8 16 20 0q10 -14 4 -25q-31 -72 -106 -153q-91 -96 -163 -99q-35 -1 -59 21t-31 60q-11 -7 -27.5 -16.5zM474 142q42 31 82 66
q34 30 52 53t9 29q-10 7 -31.5 -6.5t-46.5 -41.5q-36 -41 -65 -100z" />
    <glyph glyph-name="T_h" unicode="Th" horiz-adv-x="695" 
d="M343 521q-5 -8 -38 -75q-42 -90 -102 -231q-39 -93 -63 -158q-27 -75 -30 -107q-1 -23 -20 -12q-24 15 -22 48q2 25 26 90q12 32 74 187q36 86 88 199l48 107v1q-75 -9 -157 -28q-154 -38 -181 -63q-11 -9 -16.5 -5.5t-7.5 16.5q-4 33 17 45q9 5 33.5 14t73 22t100.5 23
q135 25 261 20q92 -4 132 -38.5t31 -84.5q-2 -11 -7.5 -27t-16 -40l-20 -45l-26 -57.5l-28.5 -62.5l-71 -157q35 61 96 130q50 57 84 69q28 9 52 -18.5t17 -54.5q-2 -7 -7 -20.5l-12.5 -34l-12.5 -34.5q-36 -102 -20 -110q24 -11 104 87q32 39 62 81t34 50t10 6.5t11 -10.5
q8 -13 2 -26q-13 -34 -81 -121q-54 -68 -92 -93q-41 -28 -69.5 1.5t-23.5 79.5q3 34 19.5 76.5l28 70t7.5 33.5q-5 8 -28 -12.5t-59 -60.5q-47 -53 -93 -112.5t-56 -80.5q-5 -12 -24 5t-15 42q7 36 110 272l23.5 51.5t19.5 44t16 36.5t12 30t7.5 25t3.5 20.5t-2 16.5
q-16 52 -222 31q11 -9 18.5 -25.5t1.5 -25.5z" />
    <glyph glyph-name="U_r" unicode="Ur" horiz-adv-x="843" 
d="M651 211q31 41 72.5 104.5t45.5 73.5q4 11 23 -1q17 -12 12 -24q-2 -6 -6.5 -13.5t-6.5 -13t-2 -11.5q0 -3 7.5 -4.5t19 -4t18.5 -6.5q32 -17 8 -62q-17 -32 -46 -104q-9 -22 -15.5 -39.5t-11 -34.5t-4.5 -25t5 -11q25 -5 100 83q66 77 96 129q5 9 13 7t11 -13
q3 -10 -2 -24q-20 -47 -82 -123q-58 -72 -89 -87q-36 -16 -61 -3q-20 11 -27.5 37t-2.5 49q7 35 40 105.5t34 79.5q1 8 -7.5 12t-18.5 3h-9q-11 -14 -37.5 -52l-52.5 -72q-118 -158 -173 -164q-30 -3 -53.5 17t-28.5 64q-7 62 35 176q-96 -124 -188 -212q-99 -94 -148 -106
q-27 -7 -54 24.5t-24 62.5q4 34 9.5 58.5t28 82.5t65.5 145l111 212q50 94 48 111q-1 14 22 3q6 -3 12 -8q20 -16 17 -27q-1 -9 -50 -97q-81 -144 -121 -228q-50 -106 -72 -167q-21 -59 -24 -91.5t16 -35.5q31 0 133 100q91 89 155 169q137 171 219 310q7 11 17.5 10.5
t18.5 -10.5q17 -19 5 -40q-3 -5 -17.5 -26.5l-28 -43t-38 -68.5t-50.5 -105q-32 -71 -45.5 -127t-10 -83t18.5 -30q34 -7 171 169z" />
    <glyph glyph-name="X_e" unicode="Xe" horiz-adv-x="720" 
d="M632 627q-20 -2 -167 -140q-100 -93 -190 -191q-11 -116 -8 -174q5 -104 49 -109q62 -6 186 76q1 77 63 161q49 66 103 79q37 9 59.5 -9.5t18.5 -51.5q-6 -47 -68 -106q-45 -43 -127 -96q2 -54 31 -55q55 -5 150 93q36 37 67 77.5t43 65.5q8 16 20 0q8 -14 4 -25
q-21 -53 -73 -117q-101 -124 -185 -131q-33 -2 -59.5 15.5t-38.5 49.5q-84 -52 -148 -65q-47 -9 -88.5 16t-51.5 90q-9 58 -2 153l-99 -117l-95 -122q10 0 17 -1q13 -2 3 -9q-28 -22 -56 -64q-8 -10 -24 -1q-25 15 -16 44q12 38 119 165l137 157l21 24q10 77 22 143
q20 118 -3 139q-20 19 -74 -10.5t-72 -57.5q-5 -8 -13 -4.5t-12 15.5q-7 20 7 41q14 20 57.5 44.5t81.5 18.5t60.5 -33t21.5 -61q0 -20 -20 -174q78 84 165 167q116 109 147 116q29 5 40 -8q4 -5 3 -10.5t-6 -7.5zM703 290q-11 8 -38 -11.5t-53 -55.5q-38 -48 -50 -93
q46 37 82 71q78 75 59 89z" />
    <glyph glyph-name="b_b" unicode="bb" horiz-adv-x="563" 
d="M507 359q-10 -15 -26 -44q17 12 42 18q32 6 57 -17q22 -22 22 -54q0 -54 -93 -164q-40 -47 -78.5 -80t-58.5 -37q-23 -4 -39.5 15t-17.5 43q-2 30 33 113q27 61 63 130q1 1 1 2q1 2 1 3q-17 -13 -40 -25q-39 -22 -78 -31q3 -28 -16.5 -70t-52.5 -82q-75 -92 -125 -103
q-23 -5 -39.5 14.5t-17.5 43.5q-4 61 95 248q118 224 159 284q10 13 18.5 13t15.5 -11q12 -19 3 -42q-6 -18 -25.5 -50l-48 -76t-45.5 -75q-49 -89 -92 -181q-56 -119 -44 -131q14 -12 80 56q48 50 69 88q27 47 10 70q-8 0 -16.5 6t-11.5 14q-4 9 -1 16.5t10 4.5q15 -6 58 5
q35 8 76 31q77 42 116 87l60 107q43 76 55 93q17 24 30 6q11 -17 2 -43q-12 -34 -49 -97zM465 239q-11 -18 -25 -4l-53 -112q-44 -98 -37 -104q9 -10 54.5 34t84.5 93q37 45 60 86.5t13 58.5q-7 13 -49 -10q-34 -20 -48 -42z" />
    <glyph glyph-name="c_r" unicode="cr" horiz-adv-x="528" 
d="M306 259q-3 -18 -16 -37t-24 -25q-12 -7 -24 7q-9 10 -3 20q2 2 5.5 8t7 11t7.5 11.5t6.5 12t4 10.5t0.5 9t-4 5q-18 8 -53.5 -21t-69.5 -76t-50.5 -91.5t-4.5 -69.5q14 -23 45 -15.5t75 43.5t89 91q115 142 159 237q3 7 17 2q11 -4 17.5 -14t0.5 -19q-12 -18 -12 -32
q0 -3 7.5 -5t19.5 -4.5t18 -5.5q12 -5 16 -19.5t-6 -34.5q-21 -37 -53 -116q-39 -100 -21 -106q24 -8 103 86q31 36 57 74.5t32 52.5q5 15 20 2t4 -34q-47 -78 -87 -128q-65 -80 -106 -90q-40 -10 -57 17.5t-12 65.5q4 29 28 85q8 19 21 45.5t20 42.5t7 21q1 10 -14 16.5
t-20 0.5q-3 -3 -22 -31.5l-44.5 -64.5t-41.5 -56q-60 -74 -106.5 -113.5t-95.5 -50.5q-43 -10 -76 25t-30 84q4 67 70 149q65 81 119 96q32 8 56 -18q25 -26 21 -53z" />
    <glyph glyph-name="e_e" unicode="ee" horiz-adv-x="535" 
d="M404 113l-41 -28q-6 -60 21 -70q59 -23 170 92q73 75 104 140q7 15 18 5q13 -13 7 -27q-26 -73 -106 -156q-89 -92 -159 -95q-36 -1 -62 22t-34 62q-41 -27 -79 -46q-71 -37 -116 -37q-55 0 -76 52q-25 64 22 152q31 59 63 93q38 42 75 58q33 12 60 -2q31 -15 25 -48
q-10 -50 -83 -112q-69 -59 -121 -73q-8 -30 -4.5 -51.5t15.5 -26.5q35 -14 125 32q48 25 91 54q3 38 20 76q25 56 65 98q37 39 73 53q32 13 58 -4.5t22 -48.5q-10 -68 -153 -164zM113 147q46 25 92 73q52 54 47 72q-1 3 -4 4q-9 4 -31 -14.5t-50 -54.5q-17 -22 -54 -80z
M380 148q35 27 83 72q32 30 47 51t5 25q-9 4 -29 -8t-44 -41q-27 -34 -62 -99z" />
    <glyph glyph-name="e_r" unicode="er" horiz-adv-x="548" 
d="M122 13q31 -14 92 32.5t132 146.5q38 53 80.5 119.5t44.5 77.5q3 12 23 -2q18 -14 13 -29q-2 -7 -5 -12.5t-4.5 -8t-2 -5.5t-0.5 -6q0 -5 7 -6t20 -2.5t22 -6.5q10 -6 14 -20.5t-3 -31.5l-9.5 -19.5l-19 -40.5l-19.5 -44q-22 -52 -32 -85t1 -35q29 -5 111 96
q58 71 85 116q5 7 11.5 6t10.5 -9q6 -13 0 -27q-15 -36 -70 -107q-80 -103 -122 -111q-38 -7 -57.5 24t-12.5 67q7 35 26 77.5t33.5 71t14.5 36.5q0 11 -16 15t-21 -3q-6 -7 -23 -31l-41.5 -59l-40.5 -57q-127 -173 -216 -166q-68 6 -87 74q-16 57 17 134q24 56 62.5 97
t74.5 50q38 10 61 -9.5t17 -51.5q-8 -44 -84 -100q-47 -36 -107 -66q-8 -36 -1.5 -59t21.5 -30zM255 293q-9 7 -30.5 -6t-45.5 -40q-35 -38 -59 -88q42 30 78 60q32 27 48.5 47.5t8.5 26.5z" />
    <glyph glyph-name="g_g" unicode="gg" horiz-adv-x="657" 
d="M519 -25l12 27l26 63q42 102 43 109q-52 -65 -79 -94q-62 -67 -99 -84q-28 -13 -50 21q-18 30 -9 64q0 2 2 8q-51 -48 -111 -93q-10 -6 -14 -10q-12 -24 -17 -36q-30 -63 -71 -126q-49 -75 -79 -94q-48 -31 -92 2q-22 16 -27 38t12 46q27 32 77 74q19 16 160 118l35 85
q31 76 32 81q-46 -57 -69 -83q-68 -76 -109 -95q-32 -14 -51 23q-15 29 -8 62q12 57 66 136q30 44 61.5 75t53.5 35q27 4 50 -9t34 -37q8 12 13 22t15 6t19 -17q15 -21 8 -36q-10 -20 -44 -106l-36 -89q91 76 156 156q70 101 115 110q27 4 50 -9t34 -37q8 12 13 22t14.5 6.5
t18.5 -14.5q17 -22 9 -39q-10 -18 -51 -123l-46 -112q61 47 120 119q35 43 77 108q9 13 19 -3t1 -33q-25 -47 -73 -104q-57 -69 -129 -123l-48 -35q-43 -88 -62 -123q-38 -69 -68 -89q-25 -15 -49 -12t-42 19q-20 18 -24 42t13 47q25 31 84 70q21 14 64 40t50 31zM242 283
q-33 3 -103 -102q-34 -51 -54.5 -96t-11.5 -49q14 -7 102 90q61 68 97 118q-15 37 -30 39zM572 283q-34 3 -105 -104q-33 -50 -53.5 -94.5t-10.5 -48.5q16 -7 109 98q45 51 90 110q-15 37 -30 39zM4 -208q-13 -15 -7 -27t30 -9q25 3 66 56q36 48 74 120q-76 -57 -107 -85
q-39 -34 -56 -55zM356 -188q-13 -15 -7.5 -33t28.5 -15q22 3 57 51q26 39 52 90l-42.5 -27l-40.5 -26q-32 -22 -47 -40z" />
    <glyph glyph-name="k_r" unicode="kr" horiz-adv-x="607" 
d="M423 151q-113 -135 -210 -150q-53 -8 -84 12t-33 60q-35 -97 -31 -126q1 -7 -4 -7q-7 0 -18 11q-18 18 -17 35q3 31 88 246q113 261 121 277q13 24 31 1q15 -16 11 -31q-3 -11 -116 -252l-19 -42q34 42 88 81q68 49 107 48q19 0 30 -17q6 -8 4 -15t-11 -6
q-20 3 -58.5 -18t-77.5 -54q-49 -42 -75 -84t-10 -65q10 -14 34 -14t55.5 12.5t71 42t77.5 70.5q35 38 74.5 93.5t61 90t23.5 39.5q5 11 22 -2q15 -11 10 -23q-2 -6 -6.5 -13.5t-6.5 -13t-2 -11.5q0 -3 7.5 -4.5t19 -4t18.5 -6.5q30 -16 6 -62q-15 -27 -45 -103
q-42 -106 -25 -111q27 -8 111 94q55 67 85 118q5 8 11.5 7t10.5 -10q6 -13 0 -27q-18 -43 -81 -123q-54 -69 -90 -87q-51 -26 -75.5 6.5t-16.5 72.5t41 110.5t34 78.5t-7.5 12t-18.5 3h-9l-5 -8l-17 -23l-24 -32l-29.5 -38z" />
    <glyph glyph-name="k_e" unicode="ke" horiz-adv-x="589" 
d="M277 479q-1 -3 -76 -165l-40 -87l-23 -52q13 17 24 29q37 39 82 69q68 46 112 44q21 0 21 -22q0 -10 -6 -17.5t-15 -6.5q-32 5 -103 -52q-50 -39 -83 -81t-23 -60q20 -36 119 -7q50 15 109 43q8 57 60 132q48 69 103 83q38 10 61 -9.5t17 -51.5q-9 -49 -80 -105
q-45 -37 -114 -76q-3 -32 4.5 -53.5t25.5 -22.5q56 -5 158 102q73 77 102 134q8 13 17 4q14 -12 7 -29q-25 -62 -94 -141q-91 -102 -164 -107q-38 -2 -66.5 21.5t-36.5 65.5q-105 -49 -175 -47q-47 1 -71.5 23.5t-22.5 57.5q-38 -104 -35 -131q1 -7 -4 -7q-9 1 -21 14
q-15 17 -14 32q3 29 82 229q113 261 121 277q11 23 30 2q16 -16 12 -32zM573 290q-10 7 -32.5 -8t-46.5 -44q-34 -41 -51 -79l-3 -7q42 26 75 55q80 67 58 83z" />
    <glyph glyph-name="l_l" unicode="ll" horiz-adv-x="432" 
d="M344 20q23 -9 99 76q36 40 69.5 86t41.5 63q6 10 12 8.5t10 -10.5q6 -16 1 -28q-8 -19 -40 -65t-68 -88q-58 -69 -86 -80t-56.5 7t-34.5 48q-4 20 -4 53q-84 -105 -119 -119q-28 -11 -56 7t-35 48q-10 46 3 122q12 76 48 178q31 87 66 159t52 86q44 35 75 1
q25 -28 10 -76q-14 -48 -73 -143q-49 -78 -125 -174q-13 -57 -17 -97q-7 -66 13 -73q19 -8 75 50q42 43 93 109q21 112 87 267q56 128 85 157q41 38 70 8q27 -29 15 -83q-12 -52 -83 -166q-24 -39 -70.5 -104t-60.5 -87q-10 -49 -12 -87q-2 -47 15 -53zM450 396
q39 62 60 112.5t12 60.5q-13 15 -49 -49q-14 -24 -30 -58q-28 -63 -46 -108q-20 -54 -32 -93q1 2 85 135zM237 398q23 37 39 71t21.5 54.5t1.5 24.5q-19 19 -68 -89q-8 -16 -16 -36q-38 -91 -55 -146z" />
    <glyph glyph-name="o_b" unicode="ob" horiz-adv-x="551" 
d="M240 264h2q2 0 7 0.5t11.5 1.5t15.5 3t18.5 5t22 8.5t24.5 11.5q7 4 22 11.5t20.5 10.5l16.5 9t16 10.5t14 11t16.5 14t15.5 16.5l61 115q37 68 52 91q15 21 27 10q7 -6 9.5 -19.5t-3.5 -28.5q-11 -28 -49 -92l-54 -89q-12 -20 -26 -48q18 15 46 21q31 6 55 -15.5
t24 -55.5q0 -29 -22 -77.5t-57 -90.5q-94 -113 -150 -118q-23 -2 -40.5 16.5t-16.5 41.5q1 35 35 117q30 72 61 134q-17 -13 -63 -35q-22 -11 -62 -22q9 -47 -39 -128q-61 -105 -109 -117q-28 -7 -54.5 24t-26.5 64q0 57 48 151q28 55 65 85.5t63 24.5q22 -4 28 -16
q5 -8 4.5 -15.5t-7.5 -6.5q-11 2 -28 -5.5t-42.5 -35.5t-47.5 -71q-23 -46 -33 -84.5t-7.5 -58t12.5 -20.5q21 -2 44 25.5t47 70.5q37 67 35 100q-1 19 -5 26q-3 3 -3 5q-3 10 7 14zM460 239q-11 -16 -22 -7q-27 -56 -45 -100q-43 -103 -35 -111q6 -6 25 4.5t47.5 37.5
t56.5 62q35 45 59.5 96.5t14.5 68.5q-7 12 -43 -6q-42 -22 -58 -45z" />
    <glyph glyph-name="o_i" unicode="oi" horiz-adv-x="451" 
d="M452 268q-2 -5 -10 -22l-18 -37.5t-17 -39.5q-48 -116 -19 -131q20 -10 99 87q72 88 88 122q4 7 10 6t11 -8q8 -11 2 -27q-20 -42 -72 -112q-74 -99 -115 -105q-40 -6 -63.5 27t-11.5 86q9 39 29 83.5t32.5 69.5t8.5 30t-18.5 1t-44.5 -16.5t-42 -16.5q8 -58 -55 -157
q-29 -43 -59 -75t-53 -41q-18 -7 -43.5 7.5t-36.5 41.5q-9 22 1.5 68.5t38.5 96.5q31 56 66.5 89.5t58.5 34.5q16 0 29.5 -9.5t13.5 -18.5h2q8 2 31 10t45 14.5t43 10.5q27 5 54 -18t15 -51zM141 189q-36 -62 -49 -107.5t4 -56.5q11 -7 48 30t66 84q43 71 52 117h-1
q-9 1 -21 11t-13 19q-41 -20 -86 -97zM458 478q23 12 56 -5q14 -7 19 -19.5t-5 -18.5q-9 -6 -32 -4.5t-35 7.5t-12.5 21t9.5 19z" />
    <glyph glyph-name="o_k" unicode="ok" horiz-adv-x="545" 
d="M514 472q-6 -20 -43 -89l-36 -66q-35 -79 -51 -121q51 53 100 83q57 37 96 35q21 0 31 -18q5 -8 3 -14.5t-11 -5.5q-31 4 -97 -41q-60 -42 -104 -93.5t-31 -75.5q19 -36 125 3q42 15 77.5 35.5t43.5 35.5q4 9 11 0q5 -6 6 -15q2 -13 -8 -28q-19 -29 -88 -63
q-65 -32 -112 -31q-77 3 -94 58q-35 -97 -34 -114q1 -7 -4 -7q-7 0 -16 14q-11 16 -12 30q-1 25 41 133l45 115q2 5 8 18.5t9 21.5q-27 -15 -49 -23q-32 -12 -63 -15q10 -11 8 -40q-2 -36 -23 -70q-37 -60 -75 -99q-41 -42 -73 -49q-24 -5 -50 19.5t-25 56.5q0 49 46 123
q25 40 54.5 72.5t51.5 43.5q24 12 47 -5q11 -9 6 -14q37 -7 92 18q53 24 83 50l40 89q28 60 41 81q6 11 15 11.5t15 -7.5q13 -15 4 -42zM70 16q14 -4 40.5 18.5t54.5 58.5q39 50 55 89q14 32 2 56q-15 6 -22 22q-34 -28 -84 -102q-17 -26 -30 -49t-21 -43.5t-7 -33.5t12 -16
z" />
    <glyph glyph-name="o_l" unicode="ol" horiz-adv-x="446" 
d="M358 20q7 -5 18 -0.5t27.5 20t28.5 29l33 37.5q34 39 64.5 81t38.5 58q6 10 12 8.5t10 -9.5q7 -14 1 -29q-16 -36 -87 -127q-75 -94 -107 -106q-28 -11 -57.5 12t-31.5 53q-3 66 37 180q-15 -9 -36 -16q-36 -12 -46 -14q12 -33 -5 -81q-17 -50 -55.5 -96.5t-66.5 -50.5
q-29 -5 -55.5 23t-26.5 60q0 82 50 166q68 114 123 102q19 -4 30 -21q5 -8 3.5 -13t-8.5 -4q-11 2 -26.5 -4t-40 -31.5t-46.5 -68.5q-23 -46 -33.5 -87t-8.5 -62.5t12 -22.5q24 -2 65 51.5t52 105.5q8 39 -8 51q-13 10 -8 19q4 7 24 3q16 -3 65 15q40 16 63 37l23.5 60
l28.5 69.5l27 60t30.5 57.5t28.5 36q34 31 67 9q37 -24 19 -80q-14 -48 -51 -95q-2 -2 -15.5 -21t-24.5 -32.5t-34.5 -38.5t-51.5 -51l-12 -26.5t-8.5 -20l-5.5 -16t-7 -23l-8 -31.5q-28 -113 -10 -125zM554 548q-7 6 -17 -1t-23 -27t-28 -52q-30 -61 -57 -130q61 68 89 113
q20 33 31.5 61.5t4.5 35.5z" />
    <glyph glyph-name="o_o_l" unicode="ool" horiz-adv-x="775" 
d="M222 284q-12 -1 -41.5 -38t-58.5 -86q-76 -128 -42 -143q12 -5 38.5 19t53.5 63q42 59 58 112q5 16 7 32q-18 11 -18 28q0 9 9 8q3 -1 11 -1h4q34 0 84 8q58 9 102 24q15 10 29 8l6 8q23 26 64.5 18t51.5 -43q7 -31 -2 -70q38 4 82 28q36 105 64 170q58 131 89 162
q33 33 60.5 3t19.5 -83q-1 -7 -3 -13q-12 -45 -48 -106t-94 -117q-22 -23 -48 -39q-19 -61 -28 -116q-14 -88 14 -100q30 -14 128 110q17 21 84 115q12 17 22 3q8 -12 -2 -33q-20 -42 -82 -122q-63 -81 -102 -106q-24 -17 -58.5 -1.5t-42.5 51.5q-13 63 13 170
q-46 -18 -83 -18q-23 -55 -68 -110q-59 -70 -105 -86q-32 -11 -60.5 11.5t-29.5 58.5q-1 31 25 90t59 106q-61 -16 -111 -19q2 -53 -29 -109q-28 -52 -68.5 -98t-73.5 -50q-22 -3 -47 18t-24 50q1 51 52 138q56 95 96 115q16 8 36 0q15 -6 15 -14q1 -5 -8 -6zM479 215
q-24 17 -31 42q-23 -23 -49 -67q-14 -25 -26.5 -51t-21.5 -52t-9 -42t11 -20q15 -4 47 24t66 72q27 35 50 75q-16 5 -37 19zM722 305q54 57 89 113q33 51 45.5 90.5t-0.5 53.5q-11 9 -29 -20t-49 -101l-36 -86q-10 -22 -20 -50zM487 291q-9 -38 20 -51q15 -7 27 -8
q29 67 -3 81q-15 6 -27.5 -1t-16.5 -21z" />
    <glyph glyph-name="o_m" unicode="om" horiz-adv-x="848" 
d="M417 346q21 -7 35 -34t5 -53q-8 -24 -28.5 -67t-37.5 -74l-17 -30q56 79 117 147q81 90 122 98q20 3 37 -23q13 -19 10 -43q-4 -29 -28 -85q-35 -85 -36 -89q39 49 106 121q79 83 105 97q16 9 34 -9q16 -16 8 -28q-23 -32 -55 -122q-39 -112 -10 -115q23 -3 106 99
q47 58 79 108q7 11 13.5 10t10.5 -10q7 -14 -2 -32q-21 -42 -69 -104q-61 -78 -104 -100q-26 -14 -52.5 2t-33.5 48q-6 27 6 71.5t27 74.5l15 31l-77 -83q-99 -108 -116 -131q-11 -16 -29 4q-15 17 -17 36q-2 15 44 126q37 90 32 93q-16 10 -111 -98q-47 -54 -88.5 -109
t-47.5 -71q-6 -12 -17 -9t-23 16q-21 25 -18 43q2 10 59 126.5t51 131.5q-2 4 -7.5 5t-14.5 -1t-18.5 -5t-22.5 -8.5l-22 -9t-22 -9.5t-18 -8q0 -3 1 -4q6 -31 -6 -65t-50 -90q-55 -82 -108 -108q-17 -8 -42 7t-36 42q-19 46 39 150q32 57 65 90t56 34q14 0 27 -7.5
t15 -16.5l28.5 12l31.5 14t33.5 12.5t33.5 6t32 -4.5zM143 189q-33 -56 -42 -97t7 -48q10 -7 38.5 23t58.5 75q51 78 55 124q-13 2 -20.5 9t-3.5 15q-42 -14 -93 -101z" />
    <glyph glyph-name="o_n" unicode="on" horiz-adv-x="651" 
d="M384 329q22 -2 42 -23q28 -30 18 -58q-9 -26 -35.5 -77.5t-29.5 -59.5q45 56 96 110q78 82 112 95q22 9 44 -10q32 -27 18 -55q-25 -50 -48 -111q-32 -87 -19 -99q11 -10 46 20t68 75q70 96 74 104q13 24 23 6q9 -15 5 -28q-9 -31 -74 -114q-61 -77 -101 -95
q-29 -13 -56 2q-32 19 -32 53q0 48 26 110q9 22 21.5 47.5l19 38.5t5.5 15q-4 8 -36.5 -22t-79.5 -81q-126 -136 -145 -170q-15 -25 -34 0q-20 24 -11 49q7 19 37 75.5t52 104t17 58.5t-52 -5q-39 -14 -55 -18q10 -55 -56 -151q-55 -82 -108 -108q-18 -7 -44 9
q-24 15 -34 40q-19 46 39 150q32 57 65 90t56 34q15 0 29 -9.5t16 -18.5l63 18q34 10 58 9zM145 189q-34 -57 -45 -99t4 -51q10 -7 39.5 23.5t59.5 77.5q47 71 57 118q-12 0 -19 11q-10 17 5 24q-42 -4 -101 -104z" />
    <glyph glyph-name="o_o" unicode="oo" horiz-adv-x="500" 
d="M220 284q-11 -2 -41 -39.5t-58 -83.5q-70 -117 -41 -141q9 -7 37.5 22t58.5 72q41 61 52 97q5 17 7 33q-17 8 -19 25q-1 10 8 10h2q3 -1 11 -1h4q37 -1 88 10q43 9 78 24q17 6 34 3q31 4 65 -8t43 -44q14 -55 -70 -165q-34 -45 -71 -78.5t-60 -39.5q-25 -7 -48 21
q-19 24 -16 57q3 35 28 87t48 87l24 35q-21 -8 -53 -15q-36 -9 -59 -10q2 -54 -28 -105q-32 -53 -74 -103q-42 -48 -68 -54q-21 -5 -47 18t-26 53q1 51 51 136q58 97 97 117q12 7 29 3q19 -5 22 -15q1 -5 -6 -7q-1 -1 -2 -1zM377 166q-20 -35 -34.5 -69.5t-18 -53.5t0.5 -25
q10 -6 48.5 31.5t74.5 87.5q58 82 58 122q0 24 -51 24q-27 -29 -78 -117z" />
    <glyph glyph-name="o_p" unicode="op" horiz-adv-x="569" 
d="M440 299q-9 -43 -22 -62q1 1 7.5 8.5t14.5 15.5l20 20t24 22q35 29 60 35q30 7 50 -19q16 -21 16 -45q2 -46 -34 -118q-77 -151 -139 -166q-57 -13 -95 59q-99 -201 -104 -248q-4 -29 -20 -9q-14 17 -12 44q3 23 37 104l67 159q4 11 34 75q64 138 58 151q-5 11 -54 -18
l-36 -21t-26 -15l1 -1q6 -31 -6 -65t-50 -90q-55 -82 -108 -108q-18 -8 -45 9q-22 14 -33 40q-19 46 39 150q32 57 65 90t56 34q16 0 29.5 -9.5t13.5 -18.5q10 3 70 36q34 18 57 23q29 5 49.5 -16.5t15.5 -45.5zM420 33q29 7 86 101q33 54 53.5 108.5t9.5 58.5
q-8 4 -36 -15.5t-61 -52.5q-72 -71 -112 -147q25 -62 60 -53zM213 284q-36 -20 -81 -95q-33 -56 -42 -97t7 -48q10 -7 38.5 23.5t58.5 76.5q45 70 53 112q-14 2 -24 10q-11 10 -10 18z" />
    <glyph glyph-name="o_r" unicode="or" horiz-adv-x="468" 
d="M393 389q3 13 22 -1q11 -9 11 -20q1 -15 -16 -42q5 -3 13 -5.5t18.5 -4t13.5 -2.5q16 -4 23 -18q6 -13 0 -26q-33 -71 -51 -113q-49 -116 -32 -122q26 -9 111 94q66 81 85 118q7 15 19 -1q11 -15 2 -33q-30 -55 -80 -119q-53 -67 -90 -87q-41 -21 -69 3q-29 24 -24 65
q5 42 35 108q6 14 17 36t17 35t7 21q1 6 -1 10t-7 5.5t-10 2t-11.5 1t-8.5 0.5q-12 -16 -32 -27q-25 -14 -52 -17q2 -53 -55 -136q-52 -77 -112 -107q-16 -7 -40 6q-26 15 -38 43q-19 48 38 151q31 56 67.5 89.5t59.5 34.5q14 0 27 -9q14 -10 12 -20q6 1 17 -6q7 -3 11 -9
q36 1 63 28q28 31 40 74zM140 189q-33 -56 -42.5 -99.5t6.5 -50.5q10 -7 44.5 26.5t64.5 80.5q41 65 48 108q-15 6 -19 10q-12 11 -14 22q-46 -24 -88 -97z" />
    <glyph glyph-name="o_u" unicode="ou" horiz-adv-x="644" 
d="M396 277q1 7 -12 8t-33 -3q-25 -4 -64 -13q6 -31 -6 -65t-50 -89q-55 -82 -108 -108q-18 -8 -45 9q-22 14 -33 40q-19 46 39 150q32 57 65 90t56 34q13 0 24 -6t17 -15l61 8q44 6 71 8q34 1 51 -29q18 -33 -3 -71q-26 -47 -42 -82q-54 -114 -23 -111q20 1 103 109
l105 142q19 24 44 -3q21 -21 11 -37q-21 -28 -40 -101q-25 -94 0 -101q21 -6 105 98q63 79 79 108q6 12 18 -2q12 -16 4 -30q-28 -51 -75 -113q-60 -79 -101 -94q-26 -11 -49.5 0.5t-33.5 39.5q-7 25 -6.5 50.5t5.5 44.5l4 19q-22 -38 -74 -98q-54 -63 -75 -73
q-29 -14 -53 12q-24 27 -22 69q1 28 34 98q8 17 22 43.5l21.5 41.5t8.5 22zM132 189q-33 -56 -42 -97t7 -48q10 -7 39.5 24.5t59.5 78.5q44 68 52 114q-14 -2 -23 1q-10 5 -18 19q-35 -24 -75 -92z" />
    <glyph glyph-name="o_v" unicode="ov" horiz-adv-x="518" 
d="M579 333q0 12 8.5 13.5t15.5 -6.5q13 -13 7 -34q-15 -57 -98 -168q-45 -60 -88 -103.5t-64 -47.5q-17 -3 -35 13t-23 39q-9 44 21 129q8 23 20.5 56l14.5 38q-17 -15 -40 -27q-18 -10 -48 -15v-1q0 -21 -25.5 -73.5t-59.5 -96.5q-28 -36 -57 -58.5t-48 -22.5
q-18 0 -35.5 16t-21.5 38q-10 61 56 160q30 44 65.5 77t57.5 37q11 0 20 -12q12 -14 -2 -20l-1 -1q28 -13 87 12q57 24 75 50q5 11 23 0q26 -15 17 -34l-9.5 -24l-19 -48.5l-20.5 -54.5q-22 -60 -32 -98.5t1 -40.5t51.5 42.5t87.5 106.5q99 133 99 159zM119 155
q-29 -45 -45 -81.5t-15.5 -51t5.5 -21.5q8 -5 37.5 24t59.5 71q56 79 66 123q-14 3 -18 14.5t0 22.5q-45 -33 -90 -101z" />
    <glyph glyph-name="o_w" unicode="ow" horiz-adv-x="709" 
d="M268 147q-20 -39 -65 -87q-70 -77 -125 -92q-23 -7 -44 20q-18 21 -16 51q4 55 70 159q51 80 94 123q7 7 23 -9q13 -13 12 -25q50 -12 91 -8q32 3 69.5 12.5t50.5 18.5q14 9 34 -2t7 -29q-30 -42 -75 -132q-45 -89 -34 -93q8 -3 98 98q91 103 100 126q4 9 14.5 9t19.5 -6
q22 -16 11 -38q-16 -32 -34 -102q-27 -102 -4 -103q16 -1 52.5 39.5t61.5 89.5q29 56 43 104t3 62q-3 4 -1 7.5t7.5 4.5t11.5 0q18 -4 22 -22q15 -63 -40 -170q-30 -59 -69 -102.5t-73 -47.5q-25 -3 -46 10.5t-26 35.5q-3 21 -1.5 45t5.5 44l4 19q-15 -21 -61 -69l-42 -42
l-38 -37.5t-17 -17.5q-12 -14 -38 22q-17 24 -14 42q4 33 47 117l46 86q-21 -10 -58 -15q-35 -5 -70 -3q10 -16 10 -37q0 -28 -16 -56zM61 15q17 -4 49.5 19.5t64.5 61.5q36 43 55 83q19 41 -5 67q-8 1 -17 5q-13 7 -12 14q-24 -27 -71 -100q-38 -59 -58 -102.5t-6 -47.5z
" />
    <glyph glyph-name="o_y" unicode="oy" horiz-adv-x="601" 
d="M650 283q-21 -30 -67 -133l-59 -136q60 48 110 109q57 67 90 124q10 16 21 -5q8 -15 -1 -30q-37 -68 -89 -129q-57 -66 -117 -111l-48 -35q-31 -68 -60 -110q-47 -71 -87 -93q-41 -23 -79 -3q-25 13 -31 38t14 50q25 27 99 75l110 71q13 25 36 86l42 108q-17 -29 -75 -89
t-82 -71q-36 -17 -61 24q-15 28 -14 59q1 32 30 91q7 15 21 41.5t21 41t8 21.5q0 4 -2.5 5.5t-8.5 2t-13 0t-17 -2.5q-8 -1 -17 -3t-20 -5t-17 -4q6 -31 -6 -65t-50 -90q-55 -82 -108 -108q-17 -8 -42 7t-36 42q-19 46 39 150q32 57 65 90t56 34q13 0 25 -7t16 -14l67 10
q28 4 51 6q33 2 50 -27q20 -33 -2 -73q-21 -38 -42 -82q-46 -103 -20 -103q26 3 146 140q74 85 116 139q9 12 26 -2q24 -17 12 -34zM131 195q-33 -56 -41.5 -100t7.5 -51q9 -6 36 21.5t56 70.5q52 77 59 125q-15 -2 -24 2q-11 4 -17 19q-38 -22 -76 -87zM283 -205
q-13 -14 -8 -24.5t25 -6.5q32 6 66 46q26 30 52 78l-46 -29.5l-40.5 -26t-27.5 -18.5t-21 -19z" />
    <glyph glyph-name="p_p" unicode="pp" horiz-adv-x="617" 
d="M485 -12q-26 -8 -51.5 11.5t-39.5 54.5q-5 -8 -13 -24q-119 -225 -126 -282q-1 -10 -4.5 -12.5t-8 1.5t-9.5 12q-11 23 -10 45q2 24 119 270q96 201 119 257q22 54 21 68q-1 9 6.5 10t15.5 -6q16 -11 18 -28q0 -14 -20 -65q-7 -18 -16 -39t-16 -35.5t-7 -15.5l10 12
l25.5 30t30.5 33q47 47 75 53q29 7 54 -17q21 -19 21 -39q0 -48 -52 -140q-75 -133 -142 -154zM159 -21q-51 -8 -80 61q-43 -86 -71 -149q-37 -85 -46 -116q-3 -10 -7.5 -12.5t-8.5 1t-8 11.5q-9 21 -4 44q5 20 47 115l85 191q94 211 100 237q5 18 23 0q15 -13 13 -25
q-3 -19 -46 -113q25 33 62 69q48 46 76 52t47 -12.5t19 -39.5q0 -49 -45 -145q-26 -56 -74 -109t-82 -60zM319 312q-4 3 -20.5 -8.5t-42 -34.5t-51.5 -52q-67 -75 -104 -138q5 -20 9 -30.5t14.5 -18.5t24.5 -2q17 7 46 36.5t50 60.5q23 34 43 77.5t29 74.5t2 35zM632 306
q-5 4 -33.5 -18t-65.5 -59q-70 -70 -117 -140q21 -58 46 -58q21 -1 44 22.5t55 73.5q30 47 49.5 88.5t23 62t-1.5 28.5z" />
    <glyph glyph-name="t_t" unicode="tt" horiz-adv-x="442" 
d="M488 432q-5 -15 -31 -68q88 -3 102 -8q21 -8 30 -20q4 -5 1 -8.5t-14 -3.5q-5 0 -53 0.5t-85 0.5q-17 -36 -63 -123q-29 -67 -42 -119q-20 -78 1 -85q27 -9 131 112q71 83 103 139q6 11 16 -2q15 -17 1 -42q-36 -64 -96 -135q-79 -93 -128 -105q-41 -10 -66 25
q-18 27 -14 68q2 18 7 36q-85 -106 -141 -120q-34 -8 -60 24t-16 93q12 74 86 231q-62 0 -74 -2q-19 -3 -32 16q-5 7 -6 13t2 10.5t11 4.5q5 0 20.5 0.5t46 1t53.5 0.5q29 61 53 105q6 12 16 12.5t16 -9.5q13 -17 3 -42q-8 -21 -30 -66h75q60 0 89 -1l53 106q6 11 15 12
t15 -7q15 -17 5 -44zM153 202q-31 -74 -42 -130t6 -66q27 -8 117 93q72 80 109 142l37 84q-13 0 -38.5 -0.5t-38.5 -0.5q-60 0 -88 -1z" />
    <glyph glyph-name="z_z" unicode="&#x7a;&#x7a;" horiz-adv-x="598" 
d="M409 191q-47 -42 -118 -122q6 -78 -75 -178q-29 -37 -78 -78t-76 -40t-42 29t-1 49q19 27 80 91q66 70 129 129q-33 5 -89 -16q-7 -3 -15.5 3.5t-12.5 16.5q-8 22 9 33q40 26 99 95q83 96 61 119q-20 22 -70 -28q-36 -34 -63 -79q-11 -18 -25 -2q-11 11 -3 25
q36 62 65 92q34 36 67 36q28 0 50 -34q25 -37 10 -71q-19 -40 -53 -81q-18 -21 -39 -42t-33 -31l-12 -10q18 11 43 13.5t46 -6.5l122 121q58 58 90.5 82.5t60.5 25.5q25 0 47 -27q30 -40 12 -74q-17 -30 -45 -57q-17 -16 -37 -32t-32 -24l-12 -8q39 18 74 -1q30 -15 29 -53
q49 48 89 101q28 38 61 89q11 16 21 0t1 -30q-43 -71 -61 -94q-51 -67 -126 -133q-2 -1 -6 -5q-24 -54 -57 -96q-36 -44 -78.5 -80.5t-70.5 -35.5q-38 1 -51 32.5t12 54.5q15 14 58.5 40t86.5 58l50 38l22 18q12 35 5 52q-8 20 -51 12q-27 -5 -54 -15q-13 -5 -24 12
q-16 22 5 36q60 39 111 89q67 65 46 91q-5 6 -14 6.5t-19.5 -5.5t-22 -14t-25.5 -20.5l-25 -23l-24.5 -23.5t-21.5 -20zM48 -191q12 -10 54.5 26t80.5 79q53 62 65 115l-131 -125q-83 -85 -69 -95zM461 -93l13 17q-30 -21 -63.5 -42l-54 -33.5t-25.5 -16.5q-14 -11 -5 -19
t31 3q53 27 104 91z" />
    <glyph glyph-name="oacute_m" unicode="&#xf3;m" horiz-adv-x="848" 
d="M417 346q21 -7 35 -34t5 -53q-8 -24 -28.5 -67t-37.5 -74l-17 -30q56 79 117 147q81 90 122 98q20 3 37 -23q13 -19 10 -43q-4 -29 -28 -85q-35 -85 -36 -89q39 49 106 121q79 83 105 97q16 9 34 -9q16 -16 8 -28q-23 -32 -55 -122q-39 -112 -10 -115q23 -3 106 99
q47 58 79 108q7 11 13.5 10t10.5 -10q7 -14 -2 -32q-21 -42 -69 -104q-61 -78 -104 -100q-26 -14 -52.5 2t-33.5 48q-6 27 6 71.5t27 74.5l15 31l-77 -83q-99 -108 -116 -131q-11 -16 -29 4q-15 17 -17 36q-2 15 44 126q37 90 32 93q-16 10 -111 -98q-47 -54 -88.5 -109
t-47.5 -71q-6 -12 -17 -9t-23 16q-21 25 -18 43q2 10 59 126.5t51 131.5q-2 4 -7.5 5t-14.5 -1t-18.5 -5t-22.5 -8.5l-22 -9t-22 -9.5t-18 -8q0 -3 1 -4q6 -31 -6 -65t-50 -90q-55 -82 -108 -108q-17 -8 -42 7t-36 42q-19 46 39 150q32 57 65 90t56 34q14 0 27 -7.5
t15 -16.5l28.5 12l31.5 14t33.5 12.5t33.5 6t32 -4.5zM143 189q-33 -56 -42 -97t7 -48q10 -7 38.5 23t58.5 75q51 78 55 124q-13 2 -20.5 9t-3.5 15q-42 -14 -93 -101zM281 355q-2 -7 -8.5 -5.5t-12.5 9.5q-12 14 -11 35q4 34 67 76q15 11 31.5 19.5t27 12.5t25.5 9t17 6
q13 4 24 -11q10 -14 -5 -18q-44 -14 -89 -51q-13 -11 -25.5 -25t-19 -23.5t-13.5 -21t-8 -12.5z" />
    <glyph glyph-name="ograve_m" unicode="&#xf2;m" horiz-adv-x="848" 
d="M417 346q21 -7 35 -34t5 -53q-8 -24 -28.5 -67t-37.5 -74l-17 -30q56 79 117 147q81 90 122 98q20 3 37 -23q13 -19 10 -43q-4 -29 -28 -85q-35 -85 -36 -89q39 49 106 121q79 83 105 97q16 9 34 -9q16 -16 8 -28q-23 -32 -55 -122q-39 -112 -10 -115q23 -3 106 99
q47 58 79 108q7 11 13.5 10t10.5 -10q7 -14 -2 -32q-21 -42 -69 -104q-61 -78 -104 -100q-26 -14 -52.5 2t-33.5 48q-6 27 6 71.5t27 74.5l15 31l-77 -83q-99 -108 -116 -131q-11 -16 -29 4q-15 17 -17 36q-2 15 44 126q37 90 32 93q-16 10 -111 -98q-47 -54 -88.5 -109
t-47.5 -71q-6 -12 -17 -9t-23 16q-21 25 -18 43q2 10 59 126.5t51 131.5q-2 4 -7.5 5t-14.5 -1t-18.5 -5t-22.5 -8.5l-22 -9t-22 -9.5t-18 -8q0 -3 1 -4q6 -31 -6 -65t-50 -90q-55 -82 -108 -108q-17 -8 -42 7t-36 42q-19 46 39 150q32 57 65 90t56 34q14 0 27 -7.5
t15 -16.5l28.5 12l31.5 14t33.5 12.5t33.5 6t32 -4.5zM143 189q-33 -56 -42 -97t7 -48q10 -7 38.5 23t58.5 75q51 78 55 124q-13 2 -20.5 9t-3.5 15q-42 -14 -93 -101zM363 407q5 1 6 -2t-1 -8q-9 -15 -31 -15q-21 0 -51.5 16.5t-52.5 39.5q-48 52 -48 94q0 16 19 25
q11 6 22 4t11 -13q0 -12 11.5 -36.5t31.5 -46.5q51 -58 83 -58z" />
    <glyph glyph-name="odieresis_m" unicode="&#xf6;m" horiz-adv-x="848" 
d="M417 346q21 -7 35 -34t5 -53q-8 -24 -28.5 -67t-37.5 -74l-17 -30q56 79 117 147q81 90 122 98q20 3 37 -23q13 -19 10 -43q-4 -29 -28 -85q-35 -85 -36 -89q39 49 106 121q79 83 105 97q16 9 34 -9q16 -16 8 -28q-23 -32 -55 -122q-39 -112 -10 -115q23 -3 106 99
q47 58 79 108q7 11 13.5 10t10.5 -10q7 -14 -2 -32q-21 -42 -69 -104q-61 -78 -104 -100q-26 -14 -52.5 2t-33.5 48q-6 27 6 71.5t27 74.5l15 31l-77 -83q-99 -108 -116 -131q-11 -16 -29 4q-15 17 -17 36q-2 15 44 126q37 90 32 93q-16 10 -111 -98q-47 -54 -88.5 -109
t-47.5 -71q-6 -12 -17 -9t-23 16q-21 25 -18 43q2 10 59 126.5t51 131.5q-2 4 -7.5 5t-14.5 -1t-18.5 -5t-22.5 -8.5l-22 -9t-22 -9.5t-18 -8q0 -3 1 -4q6 -31 -6 -65t-50 -90q-55 -82 -108 -108q-17 -8 -42 7t-36 42q-19 46 39 150q32 57 65 90t56 34q14 0 27 -7.5
t15 -16.5l28.5 12l31.5 14t33.5 12.5t33.5 6t32 -4.5zM143 189q-33 -56 -42 -97t7 -48q10 -7 38.5 23t58.5 75q51 78 55 124q-13 2 -20.5 9t-3.5 15q-42 -14 -93 -101zM230 401q-13 -3 -20 17.5t-4 39.5q2 16 13 28.5t25 14.5q14 4 27 -9t15 -29q0 -13 -20 -34.5t-36 -27.5z
M356 467q15 0 28 -13t11 -30q-2 -11 -21 -32.5t-32 -25.5q-14 -3 -22.5 12.5t-6.5 31.5q0 15 15.5 36t27.5 21z" />
    <glyph glyph-name="ocircumflex_m" unicode="&#xf4;m" horiz-adv-x="848" 
d="M417 346q21 -7 35 -34t5 -53q-8 -24 -28.5 -67t-37.5 -74l-17 -30q56 79 117 147q81 90 122 98q20 3 37 -23q13 -19 10 -43q-4 -29 -28 -85q-35 -85 -36 -89q39 49 106 121q79 83 105 97q16 9 34 -9q16 -16 8 -28q-23 -32 -55 -122q-39 -112 -10 -115q23 -3 106 99
q47 58 79 108q7 11 13.5 10t10.5 -10q7 -14 -2 -32q-21 -42 -69 -104q-61 -78 -104 -100q-26 -14 -52.5 2t-33.5 48q-6 27 6 71.5t27 74.5l15 31l-77 -83q-99 -108 -116 -131q-11 -16 -29 4q-15 17 -17 36q-2 15 44 126q37 90 32 93q-16 10 -111 -98q-47 -54 -88.5 -109
t-47.5 -71q-6 -12 -17 -9t-23 16q-21 25 -18 43q2 10 59 126.5t51 131.5q-2 4 -7.5 5t-14.5 -1t-18.5 -5t-22.5 -8.5l-22 -9t-22 -9.5t-18 -8q0 -3 1 -4q6 -31 -6 -65t-50 -90q-55 -82 -108 -108q-17 -8 -42 7t-36 42q-19 46 39 150q32 57 65 90t56 34q14 0 27 -7.5
t15 -16.5l28.5 12l31.5 14t33.5 12.5t33.5 6t32 -4.5zM143 189q-33 -56 -42 -97t7 -48q10 -7 38.5 23t58.5 75q51 78 55 124q-13 2 -20.5 9t-3.5 15q-42 -14 -93 -101zM174 439q14 0 70 39q58 41 68 57q10 13 28 -4q14 -14 14 -28q2 -19 10 -54q11 -42 26 -50q15 -6 4 -17
q-15 -15 -28 -9q-18 8 -34 51q-14 37 -14 48l-48 -34q-54 -38 -64 -43q-18 -6 -32 21q-12 21 0 23z" />
    <glyph glyph-name="otilde_m" unicode="&#xf5;m" horiz-adv-x="848" 
d="M417 346q21 -7 35 -34t5 -53q-8 -24 -28.5 -67t-37.5 -74l-17 -30q56 79 117 147q81 90 122 98q20 3 37 -23q13 -19 10 -43q-4 -29 -28 -85q-35 -85 -36 -89q39 49 106 121q79 83 105 97q16 9 34 -9q16 -16 8 -28q-23 -32 -55 -122q-39 -112 -10 -115q23 -3 106 99
q47 58 79 108q7 11 13.5 10t10.5 -10q7 -14 -2 -32q-21 -42 -69 -104q-61 -78 -104 -100q-26 -14 -52.5 2t-33.5 48q-6 27 6 71.5t27 74.5l15 31l-77 -83q-99 -108 -116 -131q-11 -16 -29 4q-15 17 -17 36q-2 15 44 126q37 90 32 93q-16 10 -111 -98q-47 -54 -88.5 -109
t-47.5 -71q-6 -12 -17 -9t-23 16q-21 25 -18 43q2 10 59 126.5t51 131.5q-2 4 -7.5 5t-14.5 -1t-18.5 -5t-22.5 -8.5l-22 -9t-22 -9.5t-18 -8q0 -3 1 -4q6 -31 -6 -65t-50 -90q-55 -82 -108 -108q-17 -8 -42 7t-36 42q-19 46 39 150q32 57 65 90t56 34q14 0 27 -7.5
t15 -16.5l28.5 12l31.5 14t33.5 12.5t33.5 6t32 -4.5zM143 189q-33 -56 -42 -97t7 -48q10 -7 38.5 23t58.5 75q51 78 55 124q-13 2 -20.5 9t-3.5 15q-42 -14 -93 -101zM180 440q17 21 40 33q23 11 42 7q18 -3 31 -26q15 -24 27 -27q21 -4 39 14q12 12 10 22q0 9 10 -1
q1 -1 2 -2.5t2 -3.5t2 -3q5 -37 -17 -58q-11 -11 -34 -15q-21 -3 -35 6q-12 8 -23.5 26t-19.5 20q-10 1 -23 -5q-21 -11 -33 -32q-4 -6 -10 -2.5t-10 13.5q-9 21 0 34z" />
    <glyph glyph-name="oacute_n" unicode="&#xf3;n" horiz-adv-x="651" 
d="M384 329q22 -2 42 -23q28 -30 18 -58q-9 -26 -35.5 -77.5t-29.5 -59.5q45 56 96 110q78 82 112 95q22 9 44 -10q32 -27 18 -55q-25 -50 -48 -111q-32 -87 -19 -99q11 -10 46 20t68 75q70 96 74 104q13 24 23 6q9 -15 5 -28q-9 -31 -74 -114q-61 -77 -101 -95
q-29 -13 -56 2q-32 19 -32 53q0 48 26 110q9 22 21.5 47.5l19 38.5t5.5 15q-4 8 -36.5 -22t-79.5 -81q-126 -136 -145 -170q-15 -25 -34 0q-20 24 -11 49q7 19 37 75.5t52 104t17 58.5t-52 -5q-39 -14 -55 -18q10 -55 -56 -151q-55 -82 -108 -108q-18 -7 -44 9
q-24 15 -34 40q-19 46 39 150q32 57 65 90t56 34q15 0 29 -9.5t16 -18.5l63 18q34 10 58 9zM145 189q-34 -57 -45 -99t4 -51q10 -7 39.5 23.5t59.5 77.5q47 71 57 118q-12 0 -19 11q-10 17 5 24q-42 -4 -101 -104zM290 348q-2 -7 -8.5 -5.5t-12.5 9.5q-12 14 -11 35
q4 34 67 76q15 11 31.5 19.5t27 12.5t25.5 9t17 6q13 4 24 -11q10 -14 -5 -18q-44 -14 -89 -51q-13 -11 -25.5 -25t-19 -23.5t-13.5 -21t-8 -12.5z" />
    <glyph glyph-name="odieresis_n" unicode="&#xf6;n" horiz-adv-x="651" 
d="M384 329q22 -2 42 -23q28 -30 18 -58q-9 -26 -35.5 -77.5t-29.5 -59.5q45 56 96 110q78 82 112 95q22 9 44 -10q32 -27 18 -55q-25 -50 -48 -111q-32 -87 -19 -99q11 -10 46 20t68 75q70 96 74 104q13 24 23 6q9 -15 5 -28q-9 -31 -74 -114q-61 -77 -101 -95
q-29 -13 -56 2q-32 19 -32 53q0 48 26 110q9 22 21.5 47.5l19 38.5t5.5 15q-4 8 -36.5 -22t-79.5 -81q-126 -136 -145 -170q-15 -25 -34 0q-20 24 -11 49q7 19 37 75.5t52 104t17 58.5t-52 -5q-39 -14 -55 -18q10 -55 -56 -151q-55 -82 -108 -108q-18 -7 -44 9
q-24 15 -34 40q-19 46 39 150q32 57 65 90t56 34q15 0 29 -9.5t16 -18.5l63 18q34 10 58 9zM145 189q-34 -57 -45 -99t4 -51q10 -7 39.5 23.5t59.5 77.5q47 71 57 118q-12 0 -19 11q-10 17 5 24q-42 -4 -101 -104zM221 391q-13 -3 -20 17.5t-4 39.5q2 16 13 28.5t25 14.5
q14 4 27 -9t15 -29q0 -13 -20 -34.5t-36 -27.5zM347 457q15 0 28 -13t11 -30q-2 -11 -21 -32.5t-32 -25.5q-14 -3 -22.5 12.5t-6.5 31.5q0 15 15.5 36t27.5 21z" />
    <glyph glyph-name="ograve_n" unicode="&#xf2;n" horiz-adv-x="651" 
d="M384 329q22 -2 42 -23q28 -30 18 -58q-9 -26 -35.5 -77.5t-29.5 -59.5q45 56 96 110q78 82 112 95q22 9 44 -10q32 -27 18 -55q-25 -50 -48 -111q-32 -87 -19 -99q11 -10 46 20t68 75q70 96 74 104q13 24 23 6q9 -15 5 -28q-9 -31 -74 -114q-61 -77 -101 -95
q-29 -13 -56 2q-32 19 -32 53q0 48 26 110q9 22 21.5 47.5l19 38.5t5.5 15q-4 8 -36.5 -22t-79.5 -81q-126 -136 -145 -170q-15 -25 -34 0q-20 24 -11 49q7 19 37 75.5t52 104t17 58.5t-52 -5q-39 -14 -55 -18q10 -55 -56 -151q-55 -82 -108 -108q-18 -7 -44 9
q-24 15 -34 40q-19 46 39 150q32 57 65 90t56 34q15 0 29 -9.5t16 -18.5l63 18q34 10 58 9zM145 189q-34 -57 -45 -99t4 -51q10 -7 39.5 23.5t59.5 77.5q47 71 57 118q-12 0 -19 11q-10 17 5 24q-42 -4 -101 -104zM357 373q5 1 6 -2t-1 -8q-9 -15 -31 -15q-21 0 -51.5 16.5
t-52.5 39.5q-48 52 -48 94q0 16 19 25q11 6 22 4t11 -13q0 -12 11.5 -36.5t31.5 -46.5q51 -58 83 -58z" />
    <glyph glyph-name="ocircumflex_n" unicode="&#xf4;n" horiz-adv-x="651" 
d="M384 329q22 -2 42 -23q28 -30 18 -58q-9 -26 -35.5 -77.5t-29.5 -59.5q45 56 96 110q78 82 112 95q22 9 44 -10q32 -27 18 -55q-25 -50 -48 -111q-32 -87 -19 -99q11 -10 46 20t68 75q70 96 74 104q13 24 23 6q9 -15 5 -28q-9 -31 -74 -114q-61 -77 -101 -95
q-29 -13 -56 2q-32 19 -32 53q0 48 26 110q9 22 21.5 47.5l19 38.5t5.5 15q-4 8 -36.5 -22t-79.5 -81q-126 -136 -145 -170q-15 -25 -34 0q-20 24 -11 49q7 19 37 75.5t52 104t17 58.5t-52 -5q-39 -14 -55 -18q10 -55 -56 -151q-55 -82 -108 -108q-18 -7 -44 9
q-24 15 -34 40q-19 46 39 150q32 57 65 90t56 34q15 0 29 -9.5t16 -18.5l63 18q34 10 58 9zM145 189q-34 -57 -45 -99t4 -51q10 -7 39.5 23.5t59.5 77.5q47 71 57 118q-12 0 -19 11q-10 17 5 24q-42 -4 -101 -104zM177 418q14 0 70 39q58 41 68 57q11 14 28 -4
q14 -14 14 -28q2 -19 10 -54q11 -42 26 -50q15 -6 4 -17q-15 -15 -28 -9q-18 8 -34 51q-14 37 -14 48l-48 -34q-54 -38 -64 -43q-18 -6 -32 21q-12 21 0 23z" />
    <glyph glyph-name="otilde_n" unicode="&#xf5;n" horiz-adv-x="651" 
d="M384 329q22 -2 42 -23q28 -30 18 -58q-9 -26 -35.5 -77.5t-29.5 -59.5q45 56 96 110q78 82 112 95q22 9 44 -10q32 -27 18 -55q-25 -50 -48 -111q-32 -87 -19 -99q11 -10 46 20t68 75q70 96 74 104q13 24 23 6q9 -15 5 -28q-9 -31 -74 -114q-61 -77 -101 -95
q-29 -13 -56 2q-32 19 -32 53q0 48 26 110q9 22 21.5 47.5l19 38.5t5.5 15q-4 8 -36.5 -22t-79.5 -81q-126 -136 -145 -170q-15 -25 -34 0q-20 24 -11 49q7 19 37 75.5t52 104t17 58.5t-52 -5q-39 -14 -55 -18q10 -55 -56 -151q-55 -82 -108 -108q-18 -7 -44 9
q-24 15 -34 40q-19 46 39 150q32 57 65 90t56 34q15 0 29 -9.5t16 -18.5l63 18q34 10 58 9zM145 189q-34 -57 -45 -99t4 -51q10 -7 39.5 23.5t59.5 77.5q47 71 57 118q-12 0 -19 11q-10 17 5 24q-42 -4 -101 -104zM176 421q17 21 40 33q23 11 42 7q18 -3 31 -26
q15 -24 27 -27q21 -4 39 14q12 12 10 22q0 9 10 -1l6 -9q5 -37 -17 -58q-11 -11 -34 -15q-21 -3 -35 6q-12 8 -23.5 26t-19.5 20q-10 1 -23 -5q-21 -11 -33 -32q-4 -6 -10 -2.5t-10 13.5q-9 21 0 34z" />
    <glyph glyph-name="ograve_r" unicode="&#xf2;r" horiz-adv-x="468" 
d="M393 389q3 13 22 -1q11 -9 11 -20q1 -15 -16 -42q5 -3 13 -5.5t18.5 -4t13.5 -2.5q16 -4 23 -18q6 -13 0 -26q-33 -71 -51 -113q-49 -116 -32 -122q26 -9 111 94q66 81 85 118q7 15 19 -1q11 -15 2 -33q-30 -55 -80 -119q-53 -67 -90 -87q-41 -21 -69 3q-29 24 -24 65
q5 42 35 108q6 14 17 36t17 35t7 21q1 6 -1 10t-7 5.5t-10 2t-11.5 1t-8.5 0.5q-12 -16 -32 -27q-25 -14 -52 -17q2 -53 -55 -136q-52 -77 -112 -107q-16 -7 -40 6q-26 15 -38 43q-19 48 38 151q31 56 67.5 89.5t59.5 34.5q14 0 27 -9q14 -10 12 -20q6 1 17 -6q7 -3 11 -9
q36 1 63 28q28 31 40 74zM140 189q-33 -56 -42.5 -99.5t6.5 -50.5q10 -7 44.5 26.5t64.5 80.5q41 65 48 108q-15 6 -19 10q-12 11 -14 22q-46 -24 -88 -97zM342 383q5 1 6 -2t-1 -8q-9 -15 -31 -15q-21 0 -51.5 16.5t-52.5 39.5q-48 52 -48 94q0 16 19 25q11 6 22 4t11 -13
q0 -12 11.5 -36.5t31.5 -46.5q51 -58 83 -58z" />
    <glyph glyph-name="odieresis_r" unicode="&#xf6;r" horiz-adv-x="468" 
d="M393 389q3 13 22 -1q11 -9 11 -20q1 -15 -16 -42q5 -3 13 -5.5t18.5 -4t13.5 -2.5q16 -4 23 -18q6 -13 0 -26q-33 -71 -51 -113q-49 -116 -32 -122q26 -9 111 94q66 81 85 118q7 15 19 -1q11 -15 2 -33q-30 -55 -80 -119q-53 -67 -90 -87q-41 -21 -69 3q-29 24 -24 65
q5 42 35 108q6 14 17 36t17 35t7 21q1 6 -1 10t-7 5.5t-10 2t-11.5 1t-8.5 0.5q-12 -16 -32 -27q-25 -14 -52 -17q2 -53 -55 -136q-52 -77 -112 -107q-16 -7 -40 6q-26 15 -38 43q-19 48 38 151q31 56 67.5 89.5t59.5 34.5q14 0 27 -9q14 -10 12 -20q6 1 17 -6q7 -3 11 -9
q36 1 63 28q28 31 40 74zM140 189q-33 -56 -42.5 -99.5t6.5 -50.5q10 -7 44.5 26.5t64.5 80.5q41 65 48 108q-15 6 -19 10q-12 11 -14 22q-46 -24 -88 -97zM215 388q-13 -3 -20 17.5t-4 39.5q2 16 13 28.5t25 14.5q14 4 27 -9t15 -29q0 -13 -20 -34.5t-36 -27.5zM341 454
q15 0 28 -13t11 -30q-2 -11 -21 -32.5t-32 -25.5q-14 -3 -22.5 12.5t-6.5 31.5q0 15 15.5 36t27.5 21z" />
    <glyph glyph-name="ocircumflex_r" unicode="&#xf4;r" horiz-adv-x="468" 
d="M393 389q3 13 22 -1q11 -9 11 -20q1 -15 -16 -42q5 -3 13 -5.5t18.5 -4t13.5 -2.5q16 -4 23 -18q6 -13 0 -26q-33 -71 -51 -113q-49 -116 -32 -122q26 -9 111 94q66 81 85 118q7 15 19 -1q11 -15 2 -33q-30 -55 -80 -119q-53 -67 -90 -87q-41 -21 -69 3q-29 24 -24 65
q5 42 35 108q6 14 17 36t17 35t7 21q1 6 -1 10t-7 5.5t-10 2t-11.5 1t-8.5 0.5q-12 -16 -32 -27q-25 -14 -52 -17q2 -53 -55 -136q-52 -77 -112 -107q-16 -7 -40 6q-26 15 -38 43q-19 48 38 151q31 56 67.5 89.5t59.5 34.5q14 0 27 -9q14 -10 12 -20q6 1 17 -6q7 -3 11 -9
q36 1 63 28q28 31 40 74zM140 189q-33 -56 -42.5 -99.5t6.5 -50.5q10 -7 44.5 26.5t64.5 80.5q41 65 48 108q-15 6 -19 10q-12 11 -14 22q-46 -24 -88 -97zM132 420q14 0 70 39q58 41 68 57q10 14 28 -4q14 -14 14 -28q2 -19 10 -54q11 -42 26 -50q15 -6 4 -17
q-15 -15 -28 -9q-18 8 -34 51q-14 37 -14 48l-48 -34q-54 -38 -64 -43q-18 -6 -32 21q-12 21 0 23z" />
    <glyph glyph-name="oacute_r" unicode="&#xf3;r" horiz-adv-x="468" 
d="M393 389q3 13 22 -1q11 -9 11 -20q1 -15 -16 -42q5 -3 13 -5.5t18.5 -4t13.5 -2.5q16 -4 23 -18q6 -13 0 -26q-33 -71 -51 -113q-49 -116 -32 -122q26 -9 111 94q66 81 85 118q7 15 19 -1q11 -15 2 -33q-30 -55 -80 -119q-53 -67 -90 -87q-41 -21 -69 3q-29 24 -24 65
q5 42 35 108q6 14 17 36t17 35t7 21q1 6 -1 10t-7 5.5t-10 2t-11.5 1t-8.5 0.5q-12 -16 -32 -27q-25 -14 -52 -17q2 -53 -55 -136q-52 -77 -112 -107q-16 -7 -40 6q-26 15 -38 43q-19 48 38 151q31 56 67.5 89.5t59.5 34.5q14 0 27 -9q14 -10 12 -20q6 1 17 -6q7 -3 11 -9
q36 1 63 28q28 31 40 74zM140 189q-33 -56 -42.5 -99.5t6.5 -50.5q10 -7 44.5 26.5t64.5 80.5q41 65 48 108q-15 6 -19 10q-12 11 -14 22q-46 -24 -88 -97zM281 349q-2 -7 -8.5 -5.5t-12.5 9.5q-12 14 -11 35q4 34 67 76q15 11 31.5 19.5t27 12.5t25.5 9t17 6q13 4 24 -11
q10 -14 -5 -18q-44 -14 -89 -51q-13 -11 -25.5 -25t-19 -23.5t-13.5 -21t-8 -12.5z" />
    <glyph glyph-name="otilde_r" unicode="&#xf5;r" horiz-adv-x="468" 
d="M393 389q3 13 22 -1q11 -9 11 -20q1 -15 -16 -42q5 -3 13 -5.5t18.5 -4t13.5 -2.5q16 -4 23 -18q6 -13 0 -26q-33 -71 -51 -113q-49 -116 -32 -122q26 -9 111 94q66 81 85 118q7 15 19 -1q11 -15 2 -33q-30 -55 -80 -119q-53 -67 -90 -87q-41 -21 -69 3q-29 24 -24 65
q5 42 35 108q6 14 17 36t17 35t7 21q1 6 -1 10t-7 5.5t-10 2t-11.5 1t-8.5 0.5q-12 -16 -32 -27q-25 -14 -52 -17q2 -53 -55 -136q-52 -77 -112 -107q-16 -7 -40 6q-26 15 -38 43q-19 48 38 151q31 56 67.5 89.5t59.5 34.5q14 0 27 -9q14 -10 12 -20q6 1 17 -6q7 -3 11 -9
q36 1 63 28q28 31 40 74zM140 189q-33 -56 -42.5 -99.5t6.5 -50.5q10 -7 44.5 26.5t64.5 80.5q41 65 48 108q-15 6 -19 10q-12 11 -14 22q-46 -24 -88 -97zM164 435q17 21 40 33q23 11 42 7q18 -3 31 -26q15 -24 27 -27q21 -4 39 14q12 12 10 22q0 9 10 -1l6 -9
q5 -37 -17 -58q-11 -11 -34 -15q-21 -3 -35 6q-12 8 -23.5 26t-19.5 20q-10 1 -23 -5q-21 -11 -33 -32q-4 -6 -10 -2.5t-10 13.5q-9 21 0 34z" />
    <glyph glyph-name="quoteright_r_e" unicode="&#x27;re" horiz-adv-x="551" 
d="M-1 81q22 22 98 129q43 60 74 111.5t36 67.5q5 11 24 -2q16 -11 12 -23q-2 -6 -6.5 -13.5t-6.5 -13t-2 -11.5q0 -3 8.5 -4.5t21 -4t19.5 -6.5q30 -16 6 -62q-23 -45 -47 -103q-42 -102 -27 -111q19 -12 87 65q25 29 59 74l5 10q33 68 72 106q32 29 68 39q39 10 63 -12
q21 -19 15 -49q-7 -38 -77 -92q-52 -41 -115 -73q-9 -37 -1.5 -64t29.5 -28q54 -4 146 90q37 38 69 79.5t45 66.5q9 16 20 1q9 -12 4 -26q-28 -71 -108 -156q-83 -87 -150 -92q-44 -3 -75 31q-28 31 -29 77q-44 -56 -80 -75q-46 -24 -74 7q-27 28 -17 76q6 34 28 83l19.5 42
l18.5 38.5t8 21.5q1 8 -8 12t-19 4h-10q-16 -21 -78 -115q-23 -35 -56 -75t-44 -48q-15 -9 -26 0q-15 12 1 28zM156 632q-1 3 2 5.5t9 3t13 -0.5q15 -3 22 -16q7 -15 5.5 -39t-8.5 -42q-25 -71 -57 -96q-10 -8 -24 -2q-12 6 -4 15q25 34 39 80q19 54 3 92zM539 293
q-5 10 -25.5 -3t-46.5 -41q-39 -42 -60 -86q41 27 81 62q59 52 51 68z" />
    <glyph glyph-name="quoteright_s" unicode="&#x27;s" 
d="M185 631q-1 3 1.5 5.5t8 3t12.5 -0.5q17 -4 24 -16q7 -15 5.5 -39t-8.5 -42q-25 -71 -57 -96q-8 -7 -22 -3q-15 6 -6 16q25 34 39 80q19 54 3 92zM275 331q-25 -3 -66 -42q-46 -44 -49 -77q-2 -23 14 -61q2 -4 8 -18.5t8 -20t6 -18.5t5 -21.5t1 -20t-3 -22.5
q-11 -48 -62 -66q-34 -12 -71 -5q-11 2 -20 14q-6 7 -8.5 13.5t0.5 10.5t12 3q33 -5 75 14q41 18 38 55q-1 17 -28 79q-19 43 -15 79q4 50 63 109q34 34 60 40t40 -18q6 -9 4.5 -17.5t-12.5 -9.5z" />
    <glyph glyph-name="quoteright_t" unicode="&#x27;t" horiz-adv-x="223" 
d="M63 336l55 3l48 2l33 66l48 96q11 21 28 8q19 -17 7 -47q-3 -7 -36 -78l-22 -44h50q37 -2 51 -6q18 -5 27 -16q2 -4 2 -6.5t-4 -4t-12 -1.5q-6 0 -72 -2l-61 -3q-28 -55 -45 -94q-28 -61 -43 -120q-20 -76 0 -82q18 -5 60.5 33.5t89.5 95.5q55 66 80 111q3 6 8.5 4.5
t10.5 -8.5q11 -17 -1 -38q-29 -52 -76 -110q-87 -110 -144 -123q-37 -10 -64 21q-23 27 -19 73q6 62 85 233l-28 -2l-30 -3q-17 -3 -30 12q-9 9 -8.5 19t12.5 11zM100 632q-1 3 2.5 6t10 3t14.5 -2q13 -4 19 -15q7 -15 5.5 -39t-8.5 -42q-25 -71 -57 -96q-9 -6 -19 -4
q-7 2 -10.5 7t1.5 10q25 34 39 80q19 54 3 92z" />
    <glyph glyph-name="quoteright_v_e" unicode="&#x27;ve" horiz-adv-x="564" 
d="M190 632q-2 4 3.5 7t14.5 2q20 -2 28 -17q7 -15 5.5 -39t-8.5 -42q-25 -71 -57 -96q-12 -9 -25 -1q-10 5 -3 14q25 34 39 80q19 54 3 92zM591 268q-8 -42 -87 -114q-60 -54 -110 -83q-2 -58 33 -60q60 -3 162 107q74 80 98 129q5 8 11 7.5t10 -7.5q7 -13 3 -25
q-26 -68 -98 -146q-87 -97 -160 -102q-49 -3 -79 35q-18 23 -23 58h-6q-26 0 -47.5 12t-28.5 33l-3 10l-46 -53q-61 -69 -91 -81q-25 -9 -43 15q-22 29 -15 80q6 44 27 98q33 87 59 131q8 13 24 2q9 -7 13 -15t0 -15q-9 -13 -43 -100q-24 -62 -36 -106.5t-1 -46.5
q15 -2 83 80q29 34 55 70l26 35q12 39 31 76t29 47t25 -2q9 -5 14 -16.5t1 -23.5q-5 -13 -22 -44q-15 -27 -46 -73q-15 -51 9 -70q8 -8 31 -6q3 39 23 80q25 55 62 95q36 39 78 50q42 10 65 -13q19 -19 13 -48zM418 159q-10 -22 -14 -37q50 36 97 88q60 65 51 83
q-5 10 -24.5 -2t-44.5 -39q-42 -45 -65 -93z" />
    <glyph glyph-name=".notdef" horiz-adv-x="418" 
d="M44 0v600h330v-600h-330zM75 569v-538h268v538h-268z" />
    <glyph glyph-name=".null" horiz-adv-x="0" 
 />
    <glyph glyph-name="nonmarkingreturn" horiz-adv-x="333" 
 />
    <glyph glyph-name="CR" unicode="&#xd;" horiz-adv-x="216" 
 />
    <glyph glyph-name="space" unicode=" " horiz-adv-x="322" 
 />
    <glyph glyph-name="exclam" unicode="!" horiz-adv-x="287" 
d="M385 486q-3 -11 -75 -176q-72 -166 -71 -179q1 -9 -5 -12.5t-13 1.5q-15 9 -12 37q4 36 61 177q66 162 67 176q0 11 6 14.5t13.5 0.5t14.5 -9q17 -15 14 -30zM214 -70q-6 -7 -24.5 -4t-28.5 14q-12 15 -5.5 29t22.5 19q16 6 34.5 -4t14.5 -23q-2 -5 -6.5 -11.5t-6.5 -11
t0 -8.5z" />
    <glyph glyph-name="quotedbl" unicode="&#x22;" horiz-adv-x="317" 
d="M322 505q-21 -24 -83 -120q-48 -73 -55 -94q-6 -14 -23 -3q-20 12 -12 33q6 14 43 80q71 120 83 130q15 13 38 1q21 -10 9 -27zM403 526q18 18 33 4q19 -17 2 -41q-27 -37 -75 -112q-44 -71 -49 -86q-8 -25 -25 -8q-16 16 -9 37q10 28 56 105q49 81 67 101z" />
    <glyph glyph-name="numbersign" unicode="#" horiz-adv-x="484" 
d="M556 575q11 13 29 1q17 -12 8 -24q-9 -9 -50 -77l-49 -82q45 0 51 -3q17 -7 26 -22q8 -14 -11 -14q-22 1 -91 -4q-35 -59 -79 -146q66 2 78 0q14 -1 16 -14q1 -8 -5.5 -16t-16.5 -9l-93 -5q-69 -142 -69 -157q-3 -17 -21 -7q-9 5 -14 16t-1 23q1 8 58 122
q-5 -1 -24.5 -2.5t-27.5 -2.5l-74 -7q-75 -144 -77 -151q-3 -8 -11.5 -6.5t-13.5 10.5q-8 14 -3 29t54 113q-15 -1 -31 -1q-15 0 -19 22q-2 11 1.5 19.5t14.5 9.5l61 4l69 136q-45 -7 -66 -13q-15 0 -26 13q-18 22 2 29q21 8 114 17l39 75q39 71 45 79q11 14 35 12
q13 -1 19.5 -6.5t0.5 -13.5q-9 -9 -45 -75l-36 -65q7 1 25.5 2.5t27.5 2.5l72 4l54 97q43 77 54 87zM224 197q23 2 71 4q33 0 49 1l78 144q-46 -4 -66 -5q-38 -2 -57 -4z" />
    <glyph glyph-name="dollar" unicode="$" horiz-adv-x="367" 
d="M502 630q-8 -1 -45 -57q-5 -7 -28 -44q39 -2 54 -6q9 -3 14.5 -14t4.5 -22q-1 -12 -7.5 -17t-18.5 2q-17 10 -74 10q-47 -82 -58 -103q-4 -7 -11 -20.5l-9 -17.5q63 -69 56 -122q-13 -106 -153 -140q-18 -5 -34 -6q-41 -91 -41 -106q-1 -11 -9.5 -13.5t-16.5 3.5
q-23 14 -16 38q5 19 33 80q-37 6 -63 22t-32 34q-6 19 5 28q13 11 30 -7q19 -22 83 -25l46 93l56 110q-17 20 -40 41q-24 23 -17 59.5t45 60.5q44 29 120 36l44 76q25 42 39 60q16 18 34 2q9 -8 12.5 -20.5t-3.5 -14.5zM315 168q37 46 -16 124l-46 -91l-35 -73q70 9 97 40z
M256 424q-3 -10 35 -50l57 103q-79 -15 -92 -53z" />
    <glyph glyph-name="percent" unicode="%" horiz-adv-x="539" 
d="M310 506q-16 9 -47 -20t-59 -75q-23 -38 -33.5 -76.5t1.5 -46.5q17 -8 48 16t58 67q29 46 38.5 85.5t-6.5 49.5zM535 238q-10 5 -21.5 0t-31.5 -29.5t-45 -69.5q-54 -100 -24 -124q8 -6 24 2t39 34.5t44 65.5q11 21 19 45t8.5 46.5t-12.5 29.5zM278 549q24 3 54 -20
q35 -26 38 -51q4 -21 -12 -62t-44 -82q-58 -83 -106 -93q-27 -5 -54 16q-29 23 -36 48q-12 45 32 123q27 47 62.5 82t65.5 39zM497 284q29 5 60 -23q40 -34 34 -83q-4 -45 -41 -105q-21 -34 -46 -59t-44 -32q-32 -13 -66 11q-30 21 -38 57q-8 39 34 119q23 45 52 77.5
t55 37.5zM623 505q-12 -6 -84 -76.5l-152 -156.5q-229 -243 -229 -288q0 -8 -5 -11.5t-12.5 -1t-13.5 9.5q-15 18 -5 47q19 55 226 277q82 88 150 153.5t89 74.5q21 8 33 -2q8 -6 9 -14t-6 -12z" />
    <glyph glyph-name="ampersand" unicode="&#x26;" horiz-adv-x="321" 
d="M274 166q-3 11 6 10q7 0 16 -6q20 -14 19 -30q-1 -23 -27 -56q-22 -29 -62 -59l-11 -9q2 -9 5 -18q10 -36 35 -75q31 -49 46 -51q5 -1 7.5 0.5t3 6t0 8.5t-1 10t-0.5 10q14 -9 20 -24t0 -27q-15 -25 -39 -23q-23 2 -54 31q-38 38 -62 127q-64 -39 -132 -50
q-64 -10 -94 15q-31 24 -18 57q9 19 83 97q91 96 128 142q-2 27 0 54q4 123 33 212q39 122 98 149q46 23 69 -31q18 -43 9 -100q-7 -48 -48 -122q-39 -71 -102 -161l-13 -17q3 -94 18 -176q25 21 47 52q26 37 21 54zM154 25l12 6q-17 81 -21 153q-33 -36 -103 -106
q-74 -76 -64 -87q5 -10 37.5 -9t75.5 16q29 10 63 27zM199 411q-6 -31 -10 -96q15 21 30 45q31 49 57 102q62 125 32 164q-14 18 -41 -19q-21 -28 -39 -80q-17 -49 -29 -116z" />
    <glyph glyph-name="quotesingle" unicode="'" horiz-adv-x="195" 
d="M315 503q-21 -21 -72 -111q-57 -99 -53 -114q3 -7 -1 -11q-3 -6 -13 -4.5t-18 12.5q-10 11 3 52t37 82q41 83 74 112q16 14 38 4q19 -8 5 -22z" />
    <glyph glyph-name="parenleft" unicode="(" horiz-adv-x="281" 
d="M424 597q-39 -18 -114 -118t-131 -219q-66 -142 -90.5 -260t-6.5 -150q26 11 46 -8q12 -11 5 -20.5t-28 -11.5q-32 -4 -54 22.5t-21 95.5q5 156 112 378q60 125 135.5 223.5t121.5 111.5q23 6 32 -8q6 -9 4 -20.5t-11 -15.5z" />
    <glyph glyph-name="parenright" unicode=")" horiz-adv-x="450" 
d="M325 573q-3 12 -1 16t13 -2q15 -10 27 -20q17 -14 27 -58t6 -104q-7 -124 -64 -253q-59 -136 -144 -243q-64 -80 -117 -118q-23 -17 -41 1q-10 7 -7 20t20 22q51 32 123 132q77 107 125 229q49 126 56 223q0 32 0.5 50t-4 39.5t-7 30t-7.5 21.5t-5 14z" />
    <glyph glyph-name="asterisk" unicode="*" horiz-adv-x="390" 
d="M61 462q11 4 76 9l50 4q-1 6 -10 49q-9 51 -9 66q0 8 7.5 12.5t16.5 4.5q18 0 18 -14q0 -7 3 -34q6 -47 8 -58l42 55q46 59 50 62q5 5 20 -7q24 -18 9 -27q-7 -5 -37 -45l-45 -59q64 3 84 3q8 -2 17 -14q16 -20 5 -22h-3q-7 0 -127 -10q11 -38 27 -74q19 -41 26 -48
q10 -14 -6 -17q-10 -3 -18 3q-13 13 -36 58q-11 21 -21 48q-21 -28 -41 -58q-46 -64 -47 -73q-4 -9 -11 -5t-15 16q-9 14 -9 24q0 5 47 71l36 50l-38 -4l-40 -4q-15 -2 -33 16q-17 17 4 22z" />
    <glyph glyph-name="plus" unicode="+" horiz-adv-x="355" 
d="M131 286q18 -3 60 -5q6 0 21 -0.5t25 -0.5q20 43 28 59q25 47 40 60q7 6 20 -1q9 -6 13.5 -14.5t-0.5 -12.5q-11 -7 -36 -55l-18 -36h52q58 -2 72 -10q6 -2 8 -10q1 -7 -4.5 -14t-14.5 -6q-7 0 -63 -4q-39 -3 -71 -3l-29 -67q-20 -48 -21 -73q1 -9 -17 6q-5 4 -10 9
q-13 15 -11 25q3 13 20 54l21 46q-45 0 -71 6q-15 2 -25 21q-6 11 -3.5 19t14.5 7z" />
    <glyph glyph-name="comma" unicode="," horiz-adv-x="199" 
d="M194 74q0 4 7 4.5t15 -3.5q21 -10 18 -27q-3 -18 -40 -71q-51 -74 -72 -95q-9 -8 -22 3q-8 6 -10.5 16t3.5 16q9 10 48 70q51 77 53 87z" />
    <glyph glyph-name="hyphen" unicode="-" horiz-adv-x="422" 
d="M149 186q17 4 140 0q110 -4 132 -6q13 -1 19 -15q4 -9 0.5 -18t-14.5 -9h-131h-55t-48 0.5t-20 0.5q-17 0 -27 20q-10 24 4 27z" />
    <glyph glyph-name="period" unicode="." horiz-adv-x="180" 
d="M111 5q23 12 56 -5q14 -7 19 -19.5t-5 -18.5q-9 -6 -32 -4.5t-35 7.5t-12.5 21t9.5 19z" />
    <glyph glyph-name="slash" unicode="/" horiz-adv-x="312" 
d="M551 584q-13 -9 -98.5 -108l-176.5 -214q-247 -310 -242 -356q4 -25 -9 -25t-23 20q-11 23 -6 48q13 55 244 352l173.5 213t102.5 107q24 13 36 -8q12 -20 -1 -29z" />
    <glyph glyph-name="zero" unicode="0" horiz-adv-x="408" 
d="M275 518q43 40 101 23q43 -12 70 -65q30 -61 16 -144q-14 -84 -66 -179q-36 -65 -78.5 -111.5t-76.5 -55.5q-42 -12 -75 13q-42 31 -47 89q-7 73 35 192q42 124 84 162q4 45 37 76zM286 418q-10 -6 -33 -50t-44 -100q-23 -58 -35.5 -108.5t-10.5 -91t26 -48.5
q34 -11 84.5 47t92.5 146q58 121 55 195q-1 52 -24 73q-20 19 -59 13q-17 -2 -35 -20.5t-23 -37.5q11 -15 6 -18z" />
    <glyph glyph-name="one" unicode="1" horiz-adv-x="289" 
d="M175 390q19 7 90 67q63 52 79 74q11 16 28 7q9 -6 12.5 -17t-1.5 -23q-73 -140 -129 -281q-87 -220 -81 -250q1 -5 -4 -5q-8 0 -20 11q-17 17 -17 35q0 31 72 206l90 210q-76 -61 -92 -66q-15 -6 -29 10t2 22z" />
    <glyph glyph-name="two" unicode="2" horiz-adv-x="360" 
d="M201 432q26 42 71 76q49 36 88 32q42 -4 64 -36q36 -51 5 -114q-25 -50 -120 -159l-84.5 -91l-75 -80t-22.5 -31q5 -9 109 -1q68 5 89 9q9 3 13 -3t2 -16q-4 -21 -24 -24q-54 -6 -84 -9q-79 -6 -100 -4q-35 2 -53 25q-24 29 1 55l24 25l44 46l56.5 60l61.5 68
q164 188 133 226q-22 29 -93 -17q-28 -18 -51 -41t-28 -38q-7 -14 -14.5 -10.5t-12.5 17.5q-8 21 1 35z" />
    <glyph glyph-name="three" unicode="3" horiz-adv-x="345" 
d="M194 483q35 30 93 49q49 16 78 6q25 -9 40 -40q22 -45 -4 -84q-18 -29 -62 -61q-39 -28 -88 -54q27 8 54.5 0.5t44.5 -28.5q27 -32 14 -80q-15 -55 -88 -120q-48 -42 -98 -68q-75 -40 -107 -32q-11 3 -19 18q-8 20 -1 26q1 1 4 0q20 -12 96 31q41 24 88 61q42 35 70 72.5
t24 60.5q-5 28 -49 25.5t-80 -31.5q-7 -5 -15 1.5t-12 18.5q-10 28 10 45q6 6 24 18.5l46 31t47 33.5q79 59 73 87q-8 34 -87 9q-61 -19 -85 -41q-8 -7 -14 0t-6 20q0 17 9 26z" />
    <glyph glyph-name="four" unicode="4" horiz-adv-x="407" 
d="M126 246q12 28 129 150q118 124 154 144q6 11 24 -2q18 -14 17 -28q-5 -27 -63 -189l-42 -114q71 0 76 -4q8 -8 8 -26q0 -9 -4 -14.5t-9 -1.5q-10 7 -86 5l-26 -73q-37 -108 -33 -121q3 -10 -3.5 -12t-15.5 2q-24 10 -23 28q1 13 31 105l23 70l-85 -4q-32 -2 -56 21
q-32 30 -16 64zM173 213q6 -11 124 -7l48 137l41 118q-75 -73 -120 -122q-103 -110 -93 -126z" />
    <glyph glyph-name="five" unicode="5" horiz-adv-x="400" 
d="M263 520q6 2 11 1l91 3q85 2 96 -3q12 -6 17 -22q4 -11 1.5 -19.5t-11.5 -5.5q-21 3 -100 -2q-77 -6 -91 -12q-1 0 -1 -0.5t-1 -0.5q-2 -3 -37 -65q-39 -72 -30 -76q1 0 20.5 6t34.5 10q50 12 85 5q35 -6 58 -41q25 -36 10 -83q-26 -86 -104 -154q-36 -32 -77 -58
q-61 -40 -90 -38q-14 0 -27 17q-16 22 -7 27q3 2 10 0q20 -6 85 37q44 30 73 57q49 46 80 98.5t22 79.5q-10 30 -81 9l-30.5 -10.5l-30.5 -10.5t-18 -4q-21 -3 -43 27q-19 26 -14 48q7 28 39 89q26 52 46 78q3 11 14 13z" />
    <glyph glyph-name="six" unicode="6" horiz-adv-x="359" 
d="M339 492q-6 -13 -45 -80q-56 -98 -68 -121q29 20 58 25q24 4 49 -5.5t38 -34.5q11 -23 10 -57q-2 -27 -25.5 -70t-56.5 -83q-60 -71 -109 -83q-59 -13 -82 41q-14 29 -9 77q5 72 106 258l44 77.5l39 69t14 30.5q4 13 12 10t16 -16q15 -23 9 -38zM148 20q21 -9 55.5 18
t69.5 73t55 91t11 66q-10 17 -33.5 12t-53.5 -26q-43 -29 -68 -65q-7 -11 -13 -10q-18 -42 -27 -71q-24 -78 4 -88z" />
    <glyph glyph-name="seven" unicode="7" horiz-adv-x="329" 
d="M174 524q10 -3 67 -1q81 2 103 1q46 -3 69 -40q20 -31 4 -66q-15 -34 -115 -177l-48 -69l-49 -70l-38.5 -55.5t-30.5 -45.5t-11 -21q-5 -20 -24 -4q-21 17 -14 39q1 5 11 21l30 46l37 54.5l48 69l47 67.5q125 179 123 191q-4 16 -92 12q-19 -1 -42 -2.5t-39 -3t-20 -1.5
q-12 0 -21 19q-12 25 -3 34q3 3 8 2z" />
    <glyph glyph-name="eight" unicode="8" horiz-adv-x="376" 
d="M430 515q12 -7 17 -13q1 2 3.5 5.5l4 5.5t2.5 4q13 21 26 4q16 -20 0 -54q-9 -19 -88 -92l-94 -87q20 -58 29.5 -95.5t8.5 -83t-21 -78.5q-27 -43 -89 -54.5t-95 8.5q-46 23 -53 69q-9 57 45 124q29 37 115 119q-33 71 -37 83q-33 100 49 142q54 23 104 18.5t73 -25.5z
M283 65q31 57 -21 185q-150 -146 -146 -193q2 -29 35 -40.5t73 1.5t59 47zM282 336l77 73l61 62q-34 20 -87.5 23.5t-78.5 -20.5q-6 -8 -9.5 -16.5t-2.5 -18.5t2 -18t6.5 -20.5l9 -20t11.5 -22.5t11 -22z" />
    <glyph glyph-name="nine" unicode="9" horiz-adv-x="337" 
d="M129 8q10 10 64 89l68 102q-51 -16 -81 3t-35 68q-6 72 44 152q51 83 115 109q40 16 75.5 -4t42.5 -64q6 -36 -7.5 -82t-30 -77t-48.5 -83q-29 -48 -85 -130q-63 -91 -90 -122q-13 -16 -27 2q-16 22 -5 37zM263 248q8 6 13.5 1t6.5 -17q34 52 69 131q52 120 18 136
q-25 11 -59.5 -16.5t-67.5 -76.5q-30 -45 -47 -90.5t-10 -67.5q10 -22 35 -19.5t42 19.5z" />
    <glyph glyph-name="colon" unicode=":" horiz-adv-x="246" 
d="M263 281q-29 2 -49 23q-13 16 -9 26t20 10q15 4 34.5 -4t27.5 -24q6 -11 -4.5 -21t-19.5 -10zM115 24q23 12 56 -5q14 -7 19 -19.5t-5 -18.5q-9 -6 -32 -4.5t-35 7.5t-12.5 21t9.5 19z" />
    <glyph glyph-name="semicolon" unicode=";" horiz-adv-x="170" 
d="M139 44q2 11 21 0q18 -10 15 -26q-3 -18 -47 -75q-51 -66 -69 -81q-12 -10 -24 2t0 23q23 27 59 80q44 63 45 77zM283 270q-29 2 -49 23q-13 16 -9 26t20 10q15 4 34.5 -4t27.5 -24q6 -11 -4.5 -21t-19.5 -10z" />
    <glyph glyph-name="less" unicode="&#x3c;" horiz-adv-x="367" 
d="M376 319q-18 -15 -125 -55q-99 -37 -100 -46q-1 -4 36.5 -22t90.5 -40l44 -18l40 -16.5t17 -7.5q15 -5 1 -19q-19 -21 -45 -13q-28 9 -93 37q-89 39 -108 50q-25 16 -37 40q-15 35 17 57q25 17 117 52q112 44 130 59q11 8 17.5 1.5t8.5 -21.5q4 -26 -11 -38z" />
    <glyph glyph-name="equal" unicode="=" horiz-adv-x="453" 
d="M211 348q37 -6 131 -6q120 0 135 -12q10 -4 8 -17q-2 -17 -19 -15q-8 0 -66.5 -4t-77.5 -4q-66 0 -96 7q-14 1 -25 20q-8 12 -5.5 22.5t15.5 8.5zM139 198q3 1 146 2q121 -1 141 -7q7 -2 14 -5q20 -11 22 -26q1 -5 -2.5 -7.5t-10.5 -1.5q-25 -2 -164 -2q-41 0 -72.5 -2.5
t-46.5 -1.5q-17 0 -30 19q-16 24 3 32z" />
    <glyph glyph-name="greater" unicode="&#x3e;" horiz-adv-x="414" 
d="M213 402q16 -19 91 -66q87 -54 114 -77q20 -16 22 -45q2 -31 -34 -43l-33.5 -11l-53 -16.5l-51.5 -15.5q-106 -33 -126 -45q-20 -14 -26 14q-2 14 3 28.5t17 20.5q20 8 128 38q115 31 117 42q0 1 -1 3t-4 4.5l-6 5t-8.5 6l-10.5 7t-12.5 8l-13 8t-14.5 8.5t-15 9
q-79 47 -104 76q-11 13 -4 33q3 11 10 13.5t15 -5.5z" />
    <glyph glyph-name="question" unicode="?" horiz-adv-x="382" 
d="M287 538q52 33 91 44q47 14 82 5q37 -9 52 -38q21 -41 -5 -93q-16 -34 -112 -138q-101 -109 -121 -136q-21 -29 -20 -37q5 -19 11 -18v-1q-1 -2 -3 -5q-5 -10 -23 -6q-19 2 -29 16q-11 14 1.5 39t49.5 69q9 11 27 31l44.5 48.5l44.5 49.5q121 137 105 167q-14 27 -78 4
q-50 -17 -88 -43q-17 -12 -35 6q-18 20 6 36zM175 -11q13 5 30 -2.5t23 -13.5q10 -15 0 -27t-24 -12q-12 0 -26 6t-20 14q-18 21 17 35z" />
    <glyph glyph-name="at" unicode="@" horiz-adv-x="705" 
d="M607 288q-25 -29 -57 -97q-42 -92 -20 -98q14 -3 41.5 13t55.5 47q45 51 69 120q34 104 19 165t-71 74q-85 21 -176 -39q-76 -51 -139 -146q-60 -90 -79.5 -184t-8.5 -149q19 -102 115 -80q45 9 82 29t55 37q13 12 21 -6q10 -20 -6 -40q-17 -19 -56 -37.5t-76 -23.5
q-56 -8 -102.5 20t-72.5 97q-20 45 -5 141.5t61 178.5q68 127 173 194q54 35 113 45q79 14 135.5 -13t76.5 -93q17 -62 2.5 -132t-54.5 -137q-67 -110 -151 -112q-30 1 -47.5 17.5t-19.5 41.5q-1 15 5 41q-45 -47 -79 -67q-35 -21 -63 9q-27 29 -18 63q14 55 48 108
q52 80 112 90q20 3 43 -8.5t37 -34.5q9 13 11 14q12 10 26 -14q12 -21 0 -34zM515 325q-40 3 -94 -75q-27 -39 -44.5 -78t-10.5 -44q16 -13 99 74q36 38 83 93q-19 29 -33 30z" />
    <glyph glyph-name="A" unicode="A" horiz-adv-x="561" 
d="M536 517q17 -30 30 -64l23 32q6 7 14.5 4.5t16.5 -12.5q17 -21 6 -37q-21 -31 -56.5 -92.5t-52.5 -101.5q-19 -43 -38 -103q-39 -123 -15 -135q25 -13 127 111q65 79 90 123q12 22 22 5q10 -15 2 -32q-19 -45 -93 -136q-63 -79 -102 -102q-30 -17 -62.5 2.5t-36.5 62.5
q-4 33 9 88q15 63 40 112q-1 -1 -11.5 -15.5l-23.5 -31.5l-31.5 -40l-41.5 -50t-46 -51q-97 -103 -180 -150q-31 -17 -62 -2q-36 18 -50 64q-12 43 21.5 144t94.5 197q73 114 143 184t119 91q48 20 85 -2.5t59 -62.5zM72 -63q47 -15 205 159q121 134 255 312
q-20 117 -79 135q-33 10 -114.5 -60.5t-166.5 -205.5q-69 -109 -102 -217.5t2 -122.5z" />
    <glyph glyph-name="B" unicode="B" horiz-adv-x="535" 
d="M155 255l120 294q5 9 15 5.5t18 -14.5q12 -16 8 -31q-3 -7 -42.5 -94t-56.5 -130l-9 -20q132 34 268 132q135 99 119 157q-10 36 -97 53t-178 10q-73 -5 -131 -21.5t-81.5 -30t-24.5 -21.5q-1 -16 -20 0q-6 5 -10 11q-13 21 -3 30q16 13 54.5 31.5t123 35.5t176.5 11
q228 -17 230 -133q1 -52 -57 -111.5t-127.5 -100t-131.5 -63.5q15 -1 39.5 -4t77 -19t78.5 -40q74 -69 -3 -144q-56 -53 -174 -92q-105 -34 -158 -31q-27 0 -39 18q-6 8 -3.5 14.5t12.5 5.5q13 -2 67.5 9t110.5 31q105 37 150 80q20 20 27.5 35t1.5 30t-29 29q-18 11 -69 23
t-104 16q-80 3 -123 -20q-96 -234 -99 -276q-3 -33 -33 -14q-24 16 -19 30q3 6 24 61.5l51 131z" />
    <glyph glyph-name="C" unicode="C" horiz-adv-x="456" 
d="M498 442q-14 -19 -28 1t-6 36q15 38 20 53q16 51 -1 59q-15 7 -52.5 -15t-84.5 -65q-76 -70 -140 -163q-78 -112 -109 -211q-43 -135 9 -188q75 -77 259 58q57 42 126 122.5t92 117.5q12 19 21 3q8 -17 1 -35q-7 -20 -61 -89t-101 -112q-125 -114 -228 -125
q-78 -8 -131 35q-50 41 -55 107q-9 136 121 327q80 118 155 187t126 85q36 11 70 -18q30 -25 35 -55q3 -23 -11 -59q-10 -26 -27 -56z" />
    <glyph glyph-name="D" unicode="D" horiz-adv-x="521" 
d="M273 595q-46 -4 -92 -16.5t-80.5 -28t-61.5 -32.5t-41 -30.5t-14 -20.5q0 -13 -7.5 -13t-15.5 9q-20 20 -13 38q4 10 26.5 28.5t58.5 40.5t92 41t115 25q165 17 258 -39.5t102 -164.5q7 -85 -49 -190.5t-148 -176.5q-168 -131 -293 -127q-40 2 -64 29q-24 28 -17 65
q18 88 103 258q111 224 116 261q2 15 22 -2q5 -4 9 -9q17 -21 10 -39q-21 -58 -109 -231q-123 -242 -101 -285q9 -20 80.5 2t141.5 69q231 155 252 356q5 49 -9 85t-41.5 55.5t-65 31.5t-79.5 12.5t-85 -1.5z" />
    <glyph glyph-name="E" unicode="E" horiz-adv-x="438" 
d="M522 608q9 -9 3 -19q-5 -7 -12.5 -9t-11.5 3q-19 20 -41 19q-49 0 -141 -77q-61 -51 -84 -97t-1 -69q14 -15 57 -30q61 32 90 35q39 3 54 -17q8 -11 -1 -20q-14 -14 -47 -28t-73 -13q-116 -62 -195 -137q-45 -41 -72 -82q-30 -47 -33 -84.5t22 -52.5q26 -21 99 -5.5
t157 66.5q97 58 178 142q44 47 90 114q10 14 17 0q10 -20 0 -40q-46 -89 -159 -184q-129 -109 -261 -141q-85 -21 -138 15q-42 28 -51 87q-8 62 53 140q34 42 82 80q70 56 140 97q-44 18 -61 51t-5 67q23 66 116 146q46 40 90 65t70 24q7 0 13.5 -1t12.5 -4.5l9.5 -5.5
t9.5 -8l8 -8t8.5 -10t7.5 -9z" />
    <glyph glyph-name="F" unicode="F" horiz-adv-x="438" 
d="M643 545q-2 -7 -15 -18q-23 -18 -26 -8q-1 3 2 10q2 6 -8.5 12t-34.5 11t-54 6q-91 4 -191 -5q20 -14 18 -34q-1 -11 -61 -143l-52 -118q50 10 93 14q59 7 81 -1q19 -7 27 -18q2 -4 2 -6.5t-4 -4t-12 -1.5q-32 1 -99 -9q-64 -10 -108 -20q-33 -80 -58 -153
q-43 -127 -26 -154q5 -7 -5 -7q-8 0 -17 5q-23 12 -26 34q-4 32 25 125q20 63 50 135q-4 -2 -5 -2q-19 -10 -33 14q-4 7 -5 13.5t2 11.5t10 5q15 0 52 8l67 151q60 135 66 154q-185 -19 -223 -60q-11 -10 -17 -6.5t-8 16.5q-4 32 18 46q35 21 157 40q105 16 229 16
q93 0 148 -19q23 -8 33.5 -18.5t7.5 -21.5z" />
    <glyph glyph-name="G" unicode="G" horiz-adv-x="492" 
d="M474 460q-6 -7 -13 -4t-12 12q-9 16 -1 28q19 32 31 61q18 42 8 48q-14 8 -51.5 -8.5t-88.5 -58.5q-77 -65 -155 -167q-72 -94 -110 -197q-22 -59 -25 -100t17 -53q28 -13 195 82q73 42 142.5 88t88.5 64q8 8 17 4.5t15 -14.5q14 -24 -2 -48q-67 -88 -151 -254
q-26 -52 -48.5 -109.5t-17.5 -70.5q2 -5 17 -8t15 -14q0 -5 -9.5 -8t-21.5 -2q-33 4 -44 32q-15 37 81 220l103 183q-66 -47 -142 -93q-127 -77 -187 -90q-47 -10 -79 16q-33 26 -35 70q-5 81 55 196q26 49 69 114q68 102 159 179q76 64 141 85q35 12 63.5 -9t32.5 -47
q3 -18 -16 -56q-16 -34 -41 -71z" />
    <glyph glyph-name="H" unicode="H" horiz-adv-x="647" 
d="M12 224q43 25 215 48l30 69l39 97q57 148 49 181q-1 4 4 5q11 2 28 -7q19 -9 20 -23q4 -21 -54 -166l-43 -105l-19 -45q71 8 110 10q122 7 200 5l70 171q54 131 53 146q-1 17 19 6q5 -3 10 -7q18 -16 15 -29q-2 -10 -58 -144l-59 -144q31 0 38 2q7 1 11.5 -3.5t4.5 -11.5
q1 -11 -6.5 -20t-20.5 -8q-4 0 -42 2q-1 -1 -1 -3q-21 -53 -55 -151q-44 -131 -43 -156q1 -11 -7.5 -13t-19.5 4q-30 15 -24 36q3 22 50 153q30 83 49 130q-95 -2 -199 -10q-61 -4 -116 -12l-70 -155q-71 -158 -72 -184q0 -7 -6 -8.5t-13.5 2t-13.5 10.5q-13 15 -10 31
q6 33 75 179l56 118q-135 -22 -164 -46q-12 -11 -31 12t1 34z" />
    <glyph glyph-name="I" unicode="I" horiz-adv-x="209" 
d="M333 590q3 -16 -36 -110l-102 -234q-62 -135 -99 -238q-29 -81 -25 -93q2 -8 -5 -7q-9 1 -20 13q-17 19 -16 41q1 19 26 80l49.5 113.5l56.5 130.5q45 105 84 206q38 97 41 121q1 18 22 7t24 -30z" />
    <glyph glyph-name="J" unicode="J" horiz-adv-x="375" 
d="M753 536q0 -9 -13 -16q-19 -11 -28 -4q-2 3 0 8q3 6 -3 13.5t-28 14.5t-56 9q-91 5 -135 4q0 -1 -0.5 -3.5t-0.5 -4.5q-13 -43 -54 -134q-31 -70 -93 -196q-44 -87 -81 -148q-71 -113 -130 -147q-61 -32 -101 -19t-50 54q-7 28 5 63t25 53q4 7 21 1t12 -22
q0 -1 -6.5 -20.5t-9 -31t-4.5 -28.5t2.5 -27t15.5 -13q54 -12 144 115q59 84 114 194q44 87 87 184l55 128q-27 -1 -131 -13q-113 -14 -145 -40q-6 -5 -12 0t-8 15q-8 32 10 41q58 27 220 38q99 7 189 1q101 -6 147 -25q44 -17 42 -44z" />
    <glyph glyph-name="K" unicode="K" horiz-adv-x="536" 
d="M621 581q17 0 31 -16q18 -21 -1 -22q-40 -2 -197 -88q-188 -103 -252 -176q9 -59 51 -117q35 -48 91 -86q34 -22 73 -29t70 0t52 24t22 39q1 11 8 12.5t14 -6.5q17 -19 5 -48q-18 -43 -78 -61t-125 -1q-59 16 -107 56q-55 46 -95 122q-17 33 -20 55q-80 -221 -80 -282
q0 -19 -10 -22t-21 8q-26 20 -21 38q8 43 108 318q24 67 59 156l53 137.5t18 62.5q0 13 10.5 13.5t20.5 -8.5q22 -18 19 -39q-2 -12 -18.5 -51l-48 -111l-53.5 -126l19 19q61 62 208 144q152 87 195 85z" />
    <glyph glyph-name="L" unicode="L" horiz-adv-x="354" 
d="M317 578l-47 -94l-97 -207q-54 -129 -75 -189q-10 -29 -16 -51t-9 -40.5t0 -28.5t11 -11q35 -3 181 50q89 31 107 43q14 10 16 -5q2 -8 -4 -18q-10 -19 -36 -31q-24 -12 -101 -42q-64 -25 -117 -40q-38 -9 -73 14q-37 23 -34 72q3 34 26 104q20 56 111 266l58 127
q46 99 51 120q5 20 31 2q27 -19 17 -41z" />
    <glyph glyph-name="M" unicode="M" horiz-adv-x="583" 
d="M-58 -44q14 35 179 303l225 359q18 28 43 11q14 -10 20.5 -29.5t-0.5 -37.5q-20 -45 -81 -262q-28 -101 -40 -154q-15 -67 -6 -70q10 -3 57 57q51 65 135 189q134 198 150 245q6 17 20.5 17t26.5 -12q26 -25 16 -53q-2 -6 -21.5 -53l-44 -110t-41.5 -111
q-68 -194 -52 -230q4 -10 17 -11.5t28 5t24.5 11t15.5 8.5q9 5 13 -4q6 -15 -3 -26q-13 -17 -37.5 -26t-53.5 0q-44 14 -47 79q-3 48 21 126q16 51 44 124t48 120l19 47l-131 -205q-130 -195 -176 -227q-19 -12 -41 2q-30 19 -31 74q0 34 46 201l64 220l-190 -306
q-172 -282 -173 -303q-1 -13 -9.5 -17t-17.5 1q-11 6 -16 18t0 30z" />
    <glyph glyph-name="N" unicode="N" horiz-adv-x="471" 
d="M11 -62q6 43 90 272l56.5 151l52.5 140t25 68q9 25 38 27q15 1 25 -8.5t9 -27.5q-5 -54 30 -291q20 -138 39 -226q39 123 103 277q64 153 99 217q41 74 68 78q21 4 35 -20q12 -22 2 -29q-3 -3 -8 -1q-23 7 -58 -51q-32 -54 -97 -212q-109 -269 -120 -324q-4 -20 -20 -15
q-19 6 -38 41q-25 47 -56 249q-23 154 -25 245q-26 -60 -124 -335q-81 -227 -88 -260q-5 -17 -24 2q-17 15 -14 33z" />
    <glyph glyph-name="O" unicode="O" horiz-adv-x="478" 
d="M111 412q30 85 87 140q61 58 142 69q72 10 126 -22t71 -102q19 -72 -11 -170t-92 -191q-50 -75 -111.5 -130t-119.5 -74q-76 -25 -129 10q-60 41 -63 139q-3 68 27 154q24 70 60 128q5 26 13 49zM76 182q-20 -72 -20 -123q-2 -92 57 -98q39 -4 99.5 27t120.5 98
q65 73 115 180q47 102 44 190q-3 93 -54 121q-60 35 -149 -16q-74 -43 -112 -126q-32 -69 -35 -119q-2 -38 11 -59t30 -28q10 -5 9.5 -10t-8.5 -8q-19 -9 -40 -1q-25 9 -40 51q-17 -41 -28 -79z" />
    <glyph glyph-name="P" unicode="P" horiz-adv-x="492" 
d="M34 552q11 10 36 25t68 34.5t109.5 33t138.5 13.5q123 0 192.5 -37t75.5 -93q6 -64 -65 -142.5t-166 -140.5q-60 -39 -120.5 -64.5t-87.5 -26.5q-13 -1 -25 11t-13 21l-8 -19q-82 -203 -82 -239q0 -22 -19 -13q-25 13 -24 45q1 11 6.5 30.5t16 47.5t21 53l26 62.5
t24.5 61.5l58 134l60.5 137.5t27.5 67.5q4 11 11.5 7.5t15.5 -15.5q14 -23 9 -35q-4 -10 -24 -53.5l-51.5 -114.5l-60.5 -140q2 2 6 2q92 9 230 99q89 58 146 128.5t43 110.5t-92 58t-171 9q-92 -9 -180.5 -44t-99.5 -59q-10 -16 -27 5q-19 26 -5 40z" />
    <glyph glyph-name="Q" unicode="Q" horiz-adv-x="457" 
d="M164 157q11 -11 -1 -11q-10 0 -25 11q-21 15 -29 37q-10 16 -9.5 64.5t16.5 100.5q32 100 111 179q59 59 131 85q68 25 119 17q34 -6 60 -27q31 -25 36 -59q4 -22 -10 -72.5t-47 -115.5q-46 -88 -115 -175q-72 -90 -156 -161q10 -4 30.5 -11t24.5 -9q20 -6 62.5 -22
l52.5 -20q95 -34 126 -33q14 -1 5 -15q-5 -7 -13 -12q-20 -13 -46 -10q-24 2 -121 39l-160 62q-51 -40 -95.5 -66.5t-63.5 -31.5q-23 -5 -44 5q-17 9 -28.5 26.5t-13.5 32.5q-5 37 14 69q30 52 82 51q45 0 138 -35q84 68 146 141q75 87 130 196q37 74 50 131.5t-4 71.5
q-9 12 -54.5 8t-94.5 -26q-88 -39 -145 -117q-36 -50 -55 -101q-29 -79 -19 -146q6 -41 15 -51zM10 -53q14 -11 82 30q28 16 62 41q-65 23 -84 26q-36 1 -59 -38q-10 -17 -10.5 -34t9.5 -25z" />
    <glyph glyph-name="R" unicode="R" horiz-adv-x="531" 
d="M47 590q9 7 39.5 21t99.5 29.5t142 15.5q121 0 203 -39.5t89 -102.5q6 -56 -42 -106.5t-131 -87.5q-71 -31 -135.5 -48.5t-90.5 -22.5t-27 -13q-2 -17 27.5 -54.5t77.5 -75.5q62 -48 127 -73q39 -14 81.5 -15.5t44.5 7.5q9 14 17 -2t-1 -34q-10 -19 -55 -19
q-63 0 -129 28q-69 29 -133 83q-56 49 -86 94q-45 -120 -49 -132q-30 -90 -22 -105q4 -7 -5 -7q-8 1 -17 6q-22 11 -25 36q-2 23 36 121l56 138v1q-4 41 22 56q21 53 51.5 123l48.5 112t20 54q3 19 24 2q19 -15 17 -30q-1 -13 -9.5 -31.5l-36 -77.5t-59.5 -137q94 19 164 46
q111 41 162 86t40 87q-12 38 -77.5 61.5t-170.5 22.5t-178.5 -24t-97.5 -50q-8 -8 -14.5 -2.5t-8.5 19.5q-4 28 11 40z" />
    <glyph glyph-name="S" unicode="S" horiz-adv-x="401" 
d="M-24 -92q-50 15 -39 63q7 28 26 39q7 4 10.5 0t-0.5 -9q-9 -12 -9 -24t10 -18q42 -26 179 16q155 48 171 113q3 11 3 21t-2.5 20t-6 19t-11 19.5l-14.5 19.5t-19 22l-22 23.5l-25.5 27t-27.5 30.5q-46 51 -67.5 91.5t-12.5 80.5q8 34 45.5 68.5t92.5 61.5q68 34 144 45
q45 7 67 -15q23 -23 12 -54q-5 -16 -22 -52l-10.5 -20.5l-8.5 -16.5q-4 -13 -13 -4q-8 9 -13 22q-4 10 11 43q16 39 13 45q-9 11 -60.5 -0.5t-111.5 -41.5q-107 -54 -98 -128q3 -26 19 -49.5t58 -67.5t64 -70q24 -29 37 -47.5t23.5 -49.5t4.5 -61q-7 -38 -61 -74t-130 -61
q-139 -46 -206 -27z" />
    <glyph glyph-name="T" unicode="T" horiz-adv-x="314" 
d="M332 505q-49 -80 -132 -283q-93 -235 -97 -282q-1 -10 -5.5 -12.5t-10.5 0.5t-12 10q-14 17 -13 38q1 11 8 33.5t20 55.5l25 62.5l29.5 71l26.5 64.5l75.5 175.5l49.5 112.5q-35 -3 -116 -15q-168 -26 -195 -51q-20 -20 -24 10q-4 34 17 46q13 7 64.5 20t119.5 22
q124 17 257 12q63 -3 108 -13.5t65 -25t16 -29.5q-4 -9 -13 -17q-21 -17 -27 -9q-3 3 1 12q2 6 -9 12t-34 12t-54 9q-78 9 -151 7q10 -12 15 -26q3 -10 -4 -22z" />
    <glyph glyph-name="U" unicode="U" horiz-adv-x="585" 
d="M382 605q-2 -11 -25 -51.5l-66 -118.5t-80 -155q-143 -296 -88 -299q29 -1 127 94t169 179q120 144 219 310q8 12 18 11t18 -11q16 -20 5 -39l-19 -28l-29.5 -44.5t-39 -68.5t-48.5 -102q-27 -63 -39 -117.5t-8.5 -84.5t18.5 -33q30 -6 119 101q54 65 72 99q10 19 20 -1
t-1 -38q-54 -83 -81 -116q-68 -85 -113 -90q-28 -3 -51 27q-20 27 -25 67q-4 33 3.5 78.5t25.5 84.5q-110 -131 -189 -209q-46 -47 -89.5 -78t-63.5 -34q-17 -3 -38 11q-34 25 -34 62q0 87 105 303l80 155t62 118t17 50q-1 15 23 1q6 -3 11 -7q18 -14 15 -26z" />
    <glyph glyph-name="V" unicode="V" horiz-adv-x="414" 
d="M239 545q0 -13 -11.5 -49.5l-35 -106t-39.5 -122.5q-16 -50 -29 -98t-23 -96.5t-9.5 -78t13.5 -28.5q27 2 117 114q96 122 182 266q59 101 113 176q72 101 103 117q28 13 40 -4q11 -14 -9 -28q-25 -17 -86 -106l-150 -230q-95 -148 -156 -224q-84 -105 -127 -122
q-25 -12 -54 15q-33 30 -32 76q-1 56 85 340q61 199 52 222q-2 7 7 8q14 1 30 -10q18 -12 19 -31z" />
    <glyph glyph-name="W" unicode="W" horiz-adv-x="641" 
d="M183 592q-6 14 10 14q9 0 18 -5q17 -9 21 -27q1 -4 -3 -21t-13.5 -48l-18.5 -61l-24.5 -78l-25.5 -80q-95 -303 -64 -312q12 -4 61 47.5t115 135.5q75 93 127.5 186t53.5 128q1 9 13.5 10t24.5 -6q24 -14 20 -33q-3 -13 -28 -93.5t-39 -132.5q-50 -185 -15 -202
q12 -5 56 51t120 170l134 209q69 102 101 113q21 7 40 -1q9 -4 11.5 -9.5t-2.5 -9.5q-34 -19 -113 -132q-28 -39 -80 -120.5l-54 -84.5q-126 -193 -174 -218q-26 -15 -59 8q-24 16 -36 45q-20 43 15 204q-31 -51 -97 -134q-100 -120 -131 -147q-20 -17 -32 -21
q-35 -9 -61 17q-32 32 -29 76q1 39 73 268q89 286 85 294z" />
    <glyph glyph-name="X" unicode="X" horiz-adv-x="421" 
d="M621 627q-19 -2 -153 -127q-108 -101 -196 -196l-8 -8q-13 -132 -5 -201q9 -81 47 -86q44 -8 141 105q71 83 97 133q8 16 20 -2q9 -14 2 -30q-26 -53 -89 -131q-82 -103 -124 -114q-48 -12 -91.5 22.5t-50.5 94.5q-7 62 -1 147l-96 -113l-99 -127q7 1 13 0q7 -1 9.5 -3
t-2.5 -7q-28 -22 -56 -64q-5 -6 -14 -5t-17 9q-16 14 -9 39q12 41 137 187l119 135l21 24q4 34 7 51q2 17 9.5 60.5t11.5 72t3 58.5t-12 40q-18 18 -73 -10q-57 -31 -73 -58q-6 -9 -14.5 -3.5t-11.5 19.5q-4 19 8 36q21 29 68 50q42 18 71 13q32 -4 55 -27q29 -29 27 -67
q0 -20 -20 -174q108 115 175 177q105 98 137 106q31 6 41 -9q9 -13 -4 -17z" />
    <glyph glyph-name="Y" unicode="Y" horiz-adv-x="458" 
d="M273 545q2 -13 -32.5 -92t-83.5 -173q-76 -145 -107.5 -218t-16.5 -84q10 -7 36.5 8.5t61.5 47.5l72.5 69.5l75.5 76.5l27 28q193 194 224 250q9 14 25.5 6.5t25.5 -25.5q13 -25 -6 -44q-27 -25 -117 -182l-123 -222q-46 -85 -72 -148q-44 -103 -44 -124q0 -7 13 -8.5
t15 -6.5q1 -4 -5.5 -9.5t-15.5 -9.5q-31 -12 -45 8q-19 30 31 153q25 61 67 145l79 148.5t66 116.5l24 40q-139 -163 -206 -224l-47 -42.5l-46 -40.5l-34 -27.5t-34.5 -22t-25.5 -5.5q-28 2 -44 18q-34 33 -22 90q6 26 28 70.5l57 110.5t57 112q53 112 74 169.5t11 79.5
q-5 10 9 10q16 0 31 -15q14 -14 17 -34z" />
    <glyph glyph-name="Z" unicode="Z" horiz-adv-x="455" 
d="M168 541q35 41 63 57q36 20 70 15q8 -1 19 -5t26.5 -12l26.5 -13.5l31.5 -16.5l29.5 -16q62 -33 91 -39q27 6 68 40q6 6 14.5 3.5t14.5 -10.5q17 -21 -7 -40q-99 -75 -313 -257l-213 -188q67 8 180 -8q83 -12 188 -46q25 -8 29 -28q2 -10 -4 -16t-17 -2q-34 15 -110.5 33
t-157.5 23q-139 11 -166 -16q-14 -8 -38 -28t-29 -23q-7 -5 -16 4t-14 25q-12 37 9 54q16 9 33.5 15t27.5 8l9 2l300 261l178 160l-73 38q-90 45 -116 50q-50 0 -96 -48q-16 -16 -33 -6q-19 11 -5 30z" />
    <glyph glyph-name="bracketleft" unicode="[" horiz-adv-x="297" 
d="M441 650q10 3 16.5 0t5.5 -11q-2 -22 -31 -34q-22 -9 -49.5 -11.5t-46 -3.5t-23.5 -5q-17 -14 -69 -148l-83 -222l-74 -194q-62 -165 -53 -175q5 -7 55 2q62 12 73 13q28 1 30 -12q2 -14 -22 -23q-53 -21 -95 -29q-52 -10 -68 -1q-34 20 -14 79q1 3 8 27.5t18.5 61
t28.5 83.5l33 90l119 309l57 145q10 28 19 37q12 12 39 11q96 0 126 11z" />
    <glyph glyph-name="backslash" unicode="\" horiz-adv-x="422" 
d="M207 664q12 -13 59 -180q47 -172 53 -191l61 -217q32 -110 39 -114q1 1 3.5 0.5t5.5 -3t3 -4.5q10 -6 10.5 -23t-6.5 -20q-20 -14 -44 2q-20 16 -53 131l-62 240l-59 198l-51 168q-6 10 0.5 16t18.5 6q16 0 22 -9z" />
    <glyph glyph-name="bracketright" unicode="]" horiz-adv-x="214" 
d="M283 621q21 -4 125 -4q45 2 56 -20q10 -17 -1 -55q-19 -65 -50 -158l-95 -272l-48 -126q-43 -111 -58 -141q-18 -41 -32.5 -59.5t-41.5 -27.5q-21 -8 -60.5 -0.5t-56.5 19.5q-15 10 -20 24q-3 9 -2.5 16.5t5 9.5t12.5 -2q30 -21 64.5 -26.5t52.5 9.5q15 13 34.5 55.5
t58.5 146.5l77 210q48 133 72 207q44 134 38 144q-3 7 -20 6t-38 -4t-46 2q-21 4 -35 18q-8 8 -10.5 16t2.5 11.5t17 0.5z" />
    <glyph glyph-name="asciicircum" unicode="^" horiz-adv-x="310" 
d="M116 329q16 10 92 92q87 93 92 110q8 20 32 4q21 -15 18 -34q0 -97 19 -130q22 -47 42 -60q6 -6 1 -12q-8 -12 -22 -9q-31 7 -60 54q-30 46 -30 101l-53 -57q-77 -83 -90 -93q-17 -12 -37 6t-4 28z" />
    <glyph glyph-name="underscore" unicode="_" horiz-adv-x="500" 
d="M0 -111v42h500v-42h-500z" />
    <glyph glyph-name="grave" unicode="`" horiz-adv-x="366" 
d="M368 424q5 1 6 -2t-1 -8q-9 -15 -31 -15q-21 0 -51.5 16.5t-52.5 39.5q-48 52 -48 94q0 16 19 25q11 6 22 4t11 -13q0 -12 11.5 -36.5t31.5 -46.5q51 -58 83 -58z" />
    <glyph glyph-name="a" unicode="a" horiz-adv-x="360" 
d="M222 336q22 4 47 -10t38 -41l17 22q10 13 24 2q10 -7 15.5 -20t0.5 -20q-34 -48 -62 -131q-32 -93 -4 -100q24 -5 96 84q29 36 56.5 74t33.5 51q5 8 11 6.5t10 -10.5q7 -15 1 -28q-17 -36 -70 -107q-36 -49 -64 -74q-68 -59 -111 -11q-20 23 -18 64q2 42 22 81
q-29 -42 -78 -94.5t-87 -79.5q-31 -22 -54 1q-13 13 -18.5 33t-1.5 36q18 67 73 154q70 109 123 118zM62 25q14 -10 121 111l102 122q-23 37 -38 38q-36 3 -103 -98q-24 -36 -45 -76t-31 -67t-6 -30z" />
    <glyph glyph-name="b" unicode="b" horiz-adv-x="259" 
d="M206 321l-10 -21q25 24 59 32q32 6 55 -14q24 -21 26 -55q3 -56 -76 -158q-39 -51 -80.5 -88.5t-65.5 -41.5q-23 -4 -40 16q-15 19 -17 40q-3 28 21 100q22 66 58 145l72 153q56 120 75 152q15 23 28 8q15 -17 6 -46q-9 -26 -56 -117zM192 234q-6 -8 -12 -10q-8 -1 -15 7
l-40 -97q-42 -112 -32 -120q12 -9 50 27t76 88q36 47 63 99.5t15 69.5q-10 14 -59 -20q-32 -22 -46 -44z" />
    <glyph glyph-name="c" unicode="c" 
d="M219 313q23 5 45 -17q27 -25 22 -55q-2 -14 -14 -32t-24 -27q-12 -8 -23 1q-13 11 -4 26q37 59 27 66q-20 14 -56.5 -21.5t-68.5 -91.5q-24 -43 -36 -83t-4 -61q18 -46 102 18q38 29 79 75q62 69 99 134q10 17 22 5q6 -6 8 -16t-2 -18q-49 -81 -95 -134
q-80 -93 -149 -110q-57 -14 -88 28q-23 31 -20 78q5 50 46 115q68 107 134 120z" />
    <glyph glyph-name="d" unicode="d" horiz-adv-x="338" 
d="M216 331q45 12 68 -42q40 72 72 148l32 78.5t22 53.5q12 26 30 3q15 -23 5 -54q-13 -36 -62 -135l-57 -114q-17 -29 -43 -119q-27 -97 -5 -103t93 78q59 68 90 122q9 14 18 3q12 -17 1 -41q-18 -36 -65 -99q-52 -68 -86 -88q-38 -21 -67 -7q-23 11 -31 39q-10 33 6 87
q-16 -24 -52 -65q-58 -68 -101 -95q-20 -12 -49 13q-26 23 -26 51q1 23 25.5 70t59.5 96q77 108 122 120zM249 231l16 26q-5 32 -22 32q-38 -3 -109 -106q-39 -57 -63.5 -108t-13.5 -55q24 -11 118 108q31 38 74 103z" />
    <glyph glyph-name="e" unicode="e" horiz-adv-x="263" 
d="M290 268q-8 -42 -87 -114q-60 -54 -110 -83q-2 -58 33 -60q60 -3 162 107q74 80 98 129q5 8 11 7.5t10 -7.5q7 -13 3 -25q-26 -68 -98 -146q-87 -97 -160 -102q-49 -3 -79 35q-23 29 -24.5 73.5t23.5 101.5q59 124 140 145q42 10 65 -13q19 -19 13 -48zM117 159
q-10 -22 -14 -37q50 36 97 88q60 65 51 83q-5 10 -24.5 -2t-44.5 -39q-42 -45 -65 -93z" />
    <glyph glyph-name="f" unicode="f" horiz-adv-x="217" 
d="M99 102q74 -8 126 21q63 35 116 123q8 14 20 -2q11 -15 0 -33q-46 -83 -104 -119q-48 -29 -110 -33q19 -25 18.5 -81t-27.5 -120q-26 -61 -57 -94t-57 -33q-29 0 -47 17q-20 20 -17 62q4 52 35 144q38 115 93 230l48.5 108.5t57.5 124.5q68 134 116 139q38 4 56 -20
q23 -29 3 -76q-15 -39 -105 -151q-101 -125 -146 -162q-7 -15 -19 -45zM0 -235q9 -9 29 5t44 53.5t40 92.5q16 52 13.5 84.5t-13.5 47t-29 14.5h-1q-27 -67 -56 -152q-43 -128 -27 -145zM241 349q111 142 97 166q-12 19 -32.5 -3t-48.5 -73l-68 -134q-2 -3 -11 -22l-15 -32
q2 3 78 98z" />
    <glyph glyph-name="g" unicode="g" horiz-adv-x="330" 
d="M204 2l25 61q42 101 44 111q-11 -19 -67 -81q-70 -78 -111 -97q-28 -13 -49 19q-19 30 -10 66q12 61 72 144q66 95 109 102q27 4 50 -9t34 -37q8 12 13 22t14.5 6.5t18.5 -15.5q16 -22 9 -38q-16 -32 -43 -102l-54 -133q66 51 125 125q34 43 72 102q5 6 10.5 4.5
t9.5 -8.5q8 -17 0 -32q-21 -41 -69 -99q-60 -73 -133 -128q-37 -26 -48 -33v-2q-34 -69 -69 -123q-46 -72 -81 -97q-29 -16 -56.5 -10.5t-47.5 26.5q-18 18 -21.5 40.5t12.5 42.5q28 34 110 81l55.5 31t64.5 37zM76 36q15 -7 105 93q50 56 94 115q-15 37 -30 39
q-30 3 -95 -90q-36 -52 -60 -102.5t-14 -54.5zM30 -244q27 3 72 65q19 25 55 87q-35 -21 -63 -36q-79 -44 -96 -65q-13 -15 -2.5 -34.5t34.5 -16.5z" />
    <glyph glyph-name="h" unicode="h" horiz-adv-x="380" 
d="M297 492q-10 -35 -43 -96q-65 -116 -86 -156q-57 -114 -71 -154q42 69 96 133q59 70 94 82q27 9 52 -18q25 -28 17 -55q-2 -7 -7 -20.5l-12.5 -34l-12.5 -34.5q-37 -102 -20 -110q24 -11 113 98q30 37 57 75t30 45t9 6t11 -8q9 -12 3 -28q-14 -36 -75 -114
q-57 -74 -98 -100q-41 -28 -69.5 1.5t-23.5 79.5q3 35 29 100q4 9 9.5 23l8 20t6.5 16.5t3 12.5t-1 8q-5 8 -29 -14t-63 -66q-49 -56 -96.5 -118.5t-57.5 -83.5q-2 -5 -9.5 -3t-15.5 10q-18 18 -14 40q2 12 26 71q29 70 94 208l65 135q45 92 46 95q3 8 11.5 8t16.5 -8
q15 -17 7 -46z" />
    <glyph glyph-name="i" unicode="i" horiz-adv-x="188" 
d="M192 472q23 12 56 -5q14 -7 19 -19.5t-5 -18.5q-9 -6 -32 -4.5t-35 7.5t-12.5 21t9.5 19zM192 280q-37 -74 -61 -147q-27 -82 -9 -92q26 -13 114 99q62 79 74 107q4 8 10 6t11 -10q7 -13 2 -25q-16 -38 -67 -105q-74 -102 -118 -108q-31 -4 -52 18q-33 35 -22 91
q10 45 34 100q11 26 27.5 60.5t18.5 39.5q4 13 21 6q11 -5 17 -16.5t0 -23.5z" />
    <glyph glyph-name="j" unicode="j" horiz-adv-x="152" 
d="M162 353q4 10 11 6.5t14 -15.5q16 -28 7 -45q-15 -31 -57 -138l-55 -137q58 45 119 119q49 60 75 105q9 15 19 -3q10 -17 1 -33q-23 -44 -69 -100q-61 -73 -123 -121l-56 -41q-87 -178 -150 -220q-25 -15 -50 -12t-46 20q-22 18 -28 43t11 48q31 37 115 85l52.5 29
t60.5 35l11 24l67 168q62 158 71 183zM-178 -192q-13 -17 -2 -37q11 -18 32 -15q23 3 59 47q31 38 66 103l-48.5 -27t-43.5 -25q-46 -26 -63 -46zM186 509q23 11 56 -5q14 -7 19 -19.5t-5 -18.5t-32.5 -4.5t-34.5 7.5t-12.5 21t9.5 19z" />
    <glyph glyph-name="k" unicode="k" horiz-adv-x="321" 
d="M140 180l12 14q42 45 101 83q62 38 97 37q16 0 28 -14q5 -6 6 -12t-1.5 -9.5t-9.5 -2.5q-34 6 -118 -56q-61 -46 -95 -90q-35 -45 -24 -66q7 -14 30.5 -15.5t52.5 5.5t61 20q90 36 107 66q2 4 5.5 4t7 -4t4.5 -10q4 -14 -8 -33q-9 -13 -37.5 -33t-62.5 -36
q-58 -26 -100 -25q-43 1 -68.5 20.5t-28.5 51.5q-13 -35 -25 -76q-11 -38 -9 -52q1 -8 -5 -7q-7 0 -17 10q-19 17 -17 36t37 114q25 68 51 132l79 182q35 83 42 95q8 12 16 11t16 -11q14 -15 10 -30q-2 -6 -73 -160l-43 -92z" />
    <glyph glyph-name="l" unicode="l" horiz-adv-x="227" 
d="M139 20q27 -11 122 104q68 81 88 121q9 17 19 4q12 -14 4 -34q-17 -41 -86 -126q-76 -95 -108 -107q-26 -10 -53 5q-30 17 -38 50q-23 97 56 314q30 80 61.5 143.5t47.5 76.5q33 26 62 11q18 -10 24.5 -33t-1.5 -53q-14 -48 -73 -143q-58 -92 -125 -173q-11 -38 -14 -93
q-3 -60 14 -67zM242 398q23 37 39 71t21.5 54.5t1.5 24.5q-19 19 -64 -79l-11 -24q-26 -62 -37 -91q-10 -25 -26 -77z" />
    <glyph glyph-name="m" unicode="m" horiz-adv-x="560" 
d="M199 288q-11 -16 -51 -90l-57 -111q56 78 117 146q83 92 123 100q18 3 35 -19q15 -20 12 -47q-4 -29 -32 -94.5t-32 -79.5q57 71 119 135q64 68 92 83q16 8 33 -9q17 -19 7 -30q-28 -34 -60 -134q-7 -20 -11 -37.5t-6 -32t0.5 -22.5t9.5 -8q23 -1 102 93q60 72 82 112
q10 19 21 4q12 -17 -1 -39q-40 -64 -65 -97q-63 -84 -109 -104q-27 -11 -50 2t-32 40q-10 32 8 89q7 23 18 47t18 37l8 13l-79 -85q-96 -105 -114 -129q-11 -14 -27 2q-15 15 -19 38q-2 11 22 67l45 107t14 55q-16 9 -112 -102q-48 -56 -91 -113t-49 -73q-6 -13 -18 -9
t-24 19q-19 24 -16 40q6 37 66 149q48 91 68 117q11 16 28 -1q15 -15 7 -29z" />
    <glyph glyph-name="n" unicode="n" horiz-adv-x="381" 
d="M183 271l-39 -80q-27 -56 -43 -102q41 63 120 148q70 74 105 83q21 5 38 -19q25 -35 9 -62q-27 -48 -47 -102q-32 -85 -10 -97q22 -11 101 85q65 78 88 122q3 6 9 6t11 -5q12 -12 2 -33q-27 -53 -75 -114q-51 -67 -93 -92q-43 -26 -73 12q-27 34 -19 79q9 47 37 100
q5 10 12.5 23l11 19.5l8.5 16t4.5 11.5t-1.5 7q-8 9 -39 -19.5t-80 -83.5q-47 -53 -92 -110.5t-52 -72.5q-5 -9 -22 5q-27 21 -20 46q8 27 53 129q44 98 64 130q6 11 20 -1q18 -14 12 -29z" />
    <glyph glyph-name="o" unicode="o" horiz-adv-x="283" 
d="M335 283q3 -35 -22 -85q-18 -38 -51 -79q43 7 87 51q31 33 55 74q8 11 14.5 10t9.5 -12q5 -16 -2 -31q-32 -56 -71 -90q-64 -57 -128 -43q-31 -33 -46 -46q-34 -29 -53 -34q-29 -7 -53 10q-29 21 -29 55q1 63 58 159q48 83 79 99q20 10 32 -8q48 43 88 27q29 -11 32 -57z
M294 291q-8 38 -45 6q-16 -12 -28 -31q-28 -41 -34 -83q-5 -40 18 -54q2 -2 3 -2q29 33 50 67q42 64 36 97zM92 32q14 -8 59 34q15 14 32 32q-18 13 -27 32q-11 21 -9 46q0 9 2 23q-32 -53 -48 -92q-28 -66 -9 -75z" />
    <glyph glyph-name="p" unicode="p" horiz-adv-x="308" 
d="M180 14q-62 -14 -84 52q-19 -37 -63 -140q-43 -103 -50 -134q-6 -26 -23 -11q-16 16 -14 41q3 30 135 327q90 205 97 233q1 5 4.5 7t7.5 0.5t8 -5.5q14 -12 14 -28q1 -23 -47 -119q26 33 61 62q40 34 64 39q22 5 42 -11q22 -19 24 -53q1 -35 -39 -116q-27 -53 -66.5 -95
t-70.5 -49zM315 301q-16 7 -79 -51q-77 -72 -121 -148q7 -28 16 -41t24 -10q39 9 92 85q26 38 45.5 77t24 60.5t-1.5 27.5z" />
    <glyph glyph-name="q" unicode="q" horiz-adv-x="320" 
d="M225 345q27 5 53.5 -11t40.5 -36q26 34 31 43q7 11 15.5 9.5t14.5 -12.5q11 -21 -1 -37q-35 -51 -130 -285q-80 -197 -80 -253q0 -25 31 -17q9 2 13 -4q6 -10 -12 -17q-47 -16 -67 17q-12 24 -2.5 69t44.5 144q40 116 68 181q-17 -26 -53 -68q-52 -60 -79 -72
q-23 -10 -48 9q-21 16 -23 42q-3 60 65 174t119 124zM84 30q6 -3 35.5 28t74.5 84l105 131q-13 13 -28.5 23t-22.5 9q-33 -7 -96 -101q-39 -60 -61.5 -114t-6.5 -60z" />
    <glyph glyph-name="r" unicode="r" horiz-adv-x="282" 
d="M95 202l58 92q44 71 52 95q3 11 21 -1t13 -24q-2 -6 -6.5 -13.5t-6.5 -13t-2 -11.5q0 -3 9.5 -4.5t23 -4t20.5 -6.5q12 -5 16 -17q5 -15 -10 -45q-12 -22 -38 -82q-54 -122 -36 -132q22 -13 102 83q75 90 94 129q5 9 12 6.5t10 -12.5q6 -17 -4 -33q-44 -71 -80 -118
q-47 -61 -87 -83q-47 -25 -76 9q-25 30 -16 74q8 39 33 91q7 16 19 38.5t18 35.5t7 20q1 8 -10 12t-23 4h-12l-27 -42l-51 -78q-12 -17 -24 -10q-18 10 1 41z" />
    <glyph glyph-name="s" unicode="s" horiz-adv-x="220" 
d="M30 25q3 10 70 42q36 16 58 27q-4 11 -16 36.5t-18 48.5t-4 48q4 44 52 97q41 45 71 52q17 4 32 -9q12 -10 13 -22t-13 -14q-29 -4 -70 -46q-44 -44 -45 -73q-1 -15 2.5 -29.5t15 -40t13.5 -31.5q22 12 33 19q41 25 69 52q26 23 51 65q8 13 18 1q11 -13 4 -33
q-10 -29 -43 -60q-35 -34 -77 -59q-15 -9 -45 -25q2 -22 -2 -38q-8 -37 -42 -57q-39 -23 -91 -14q-19 5 -30 24q-12 21 -6 39zM162 53l-30.5 -13.5t-27.5 -12.5q-37 -17 -43 -28l-2 -3q9 -3 30 0.5t39 13.5q28 15 34 43z" />
    <glyph glyph-name="t" unicode="t" horiz-adv-x="223" 
d="M75 337q46 3 91 4l35.5 71l30.5 61l15 30q13 23 30 6q15 -17 5 -45q-9 -23 -57 -121q79 0 100 -7q26 -8 29 -20q2 -4 -2 -6t-14 -2q-46 1 -133 -4q-32 -66 -45 -95q-21 -48 -34 -87q-35 -107 -9 -115q31 -8 127 103q76 88 103 138q7 12 18 -3q12 -16 0 -39
q-35 -62 -84 -121q-81 -100 -136 -113q-40 -10 -67 25q-20 27 -16 69q2 22 20 75q23 66 65 158l-46 -4q-22 -3 -35 18q-14 22 9 24z" />
    <glyph glyph-name="u" unicode="u" horiz-adv-x="388" 
d="M163 320q11 18 30 -3q18 -20 6 -36q-29 -35 -73 -127q-12 -24 -20 -45t-12.5 -39t-2.5 -29t11 -12q21 -3 99 98q68 87 114 156q11 17 36 -2q26 -20 16 -36q-23 -33 -40 -108q-21 -89 3 -96q24 -6 119 116q57 75 65 90q7 11 16 0q15 -15 6 -32q-16 -32 -61 -94
q-69 -95 -115 -113q-26 -11 -49.5 0.5t-33.5 39.5q-9 28 -2 67q2 15 6 31t7 24l3 8q-24 -41 -69 -98q-54 -68 -91 -89q-33 -18 -60 20q-23 31 -18 70q6 42 31 98q19 42 79 141z" />
    <glyph glyph-name="v" unicode="v" horiz-adv-x="314" 
d="M338 339q10 10 25 -2q9 -5 14 -16.5t1 -23.5q-5 -13 -22 -44q-15 -27 -46 -73q-9 -28 -9 -47.5t13 -18.5q25 1 77 67q31 39 45 63q6 9 12.5 9t10.5 -7q7 -11 3 -22q-9 -24 -40 -67q-47 -65 -87 -80q-23 -9 -40.5 1.5t-25.5 33.5l-3 10l-46 -53q-61 -69 -91 -81
q-25 -9 -43 15q-22 29 -15 80q6 44 27 98q33 87 59 131q8 13 24 2q9 -7 13 -15t0 -15q-9 -13 -43 -100q-24 -62 -36 -106.5t-1 -46.5q15 -2 83 80q29 34 55 70l26 35q12 41 30 74q18 37 30 49z" />
    <glyph glyph-name="w" unicode="w" horiz-adv-x="484" 
d="M276 191q-7 -7 -84 -100q-79 -95 -95 -100t-34 16q-18 22 -15 48q5 40 62 162q47 100 67 118q6 6 16 5.5t18 -6.5q13 -9 1 -24q-14 -18 -64 -117q-26 -52 -45.5 -99.5t-12.5 -48.5q3 -1 11.5 7.5t22.5 24.5l27 32l32 39l31 37q78 91 90 118q8 21 36 5q30 -19 16 -36
q-18 -21 -52 -128q-35 -110 -20 -113q17 -3 75 68l38.5 48.5l32.5 42.5l11 16q13 35 29 69q27 58 37 63q13 7 28 -5q22 -16 13 -36q-5 -11 -31 -55l-37 -59q-1 -2 -1.5 -5.5t-2.5 -13t-3 -18t-1 -17t3 -13t8 -4.5q22 1 70 58q33 38 54 74q7 10 14.5 8.5t12.5 -9.5
q8 -13 2 -23q-26 -48 -56 -84q-53 -64 -90 -69q-25 -3 -38.5 11t-14.5 30l-1 15q-18 -25 -43 -53q-71 -82 -99 -82q-27 0 -41 21.5t-14 48.5q0 22 13.5 67.5t23.5 65.5z" />
    <glyph glyph-name="x" unicode="x" horiz-adv-x="381" 
d="M383 340q17 9 37 -7q17 -13 0 -23q-36 -22 -106 -92l-78 -81l-38 -42q14 -49 52 -56q55 -11 123 47q13 11 25.5 23.5t24 26l21 25t20 26l16.5 22.5l14.5 20t9.5 14q15 21 23 3q9 -18 -5 -43q-45 -71 -89 -115q-65 -66 -127 -83q-65 -16 -106 25q-17 17 -27 37l-50 -58
q-44 -53 -53 -67q-12 -17 -25 2q-14 20 2 39l44 56q33 42 64 77q-5 26 -2 50l6 67q-11 -19 -33 -52q-11 -18 -27 -10q-17 9 -3 33q1 2 2 3l44 68q15 23 30 52q8 16 11 18q10 7 24 0q17 -8 11 -23q-11 -32 -20 -84q-8 -43 -8 -84l19 18l86 88q73 73 88 80z" />
    <glyph glyph-name="y" unicode="y" horiz-adv-x="372" 
d="M150 0q-50 -25 -75 19q-19 33 -9 82q10 44 35 100q16 35 70 136q8 13 29 -10q19 -19 10 -32q-22 -31 -62 -115q-63 -132 -43 -150t160 151q65 79 109 138q9 13 30 -8q20 -20 11 -35q-19 -31 -60 -124l-57 -131q57 46 108 104q55 62 90 122q4 6 9.5 5.5t9.5 -6.5
q11 -17 1 -34q-41 -76 -98 -136q-40 -43 -106 -97q-9 -8 -26 -20.5t-23 -17.5q-32 -70 -65 -116q-43 -62 -81 -84q-45 -24 -85 1q-22 14 -26 37t15 47q24 27 80 63l61 39l68 44q8 20 13 30q48 116 64 163q-13 -21 -63 -79q-59 -68 -94 -86zM57 -198q-13 -14 -8 -24.5
t25 -6.5q29 5 65 46q30 35 51 75l-45.5 -28.5t-39 -24.5l-27.5 -19t-21 -18z" />
    <glyph glyph-name="z" unicode="z" horiz-adv-x="279" 
d="M234 64q-8 19 -49 10q-14 -3 -58 -19q-14 -6 -24 19t9 37q32 21 87 79q104 112 77 144q-19 22 -80 -53q-15 -18 -52 -71q-11 -17 -24 -2q-11 11 -4 24q29 53 60 91q42 53 75 53q26 0 46 -29q28 -41 12 -76q-22 -49 -66 -96q-15 -17 -31.5 -33t-25.5 -24l-9 -7q27 18 60 8
q30 -9 39 -35q44 47 66 78q24 32 57 84q10 16 22 -2q10 -17 2 -29q-29 -46 -58 -85q-42 -57 -91 -106q-11 -33 -25 -61q-24 -45 -47 -74q-34 -43 -77 -77q-47 -39 -75 -39q-21 0 -37 21q-21 30 -4 55q6 8 11 14t14.5 14.5t15 13t23.5 18l28 21.5l79 64q30 25 56 50
q0 15 -2 20zM53 -189q41 17 118 103q23 28 34 48l-92 -77q-59 -48 -66 -56q-6 -8 -6 -13t4 -5.5t8 0.5z" />
    <glyph glyph-name="braceleft" unicode="{" horiz-adv-x="369" 
d="M521 630q8 -8 3 -16q-8 -12 -29 -3l-13 6.5t-14.5 6.5t-12 2.5t-15.5 -1t-14 -7.5q-20 -15 -71 -151l-25 -68.5t-26.5 -70t-14.5 -30.5q-15 -22 -31.5 -36.5t-24.5 -17.5t-11 -3l2 -1q2 -2 4.5 -4t6 -5.5t7 -8t6.5 -10.5q15 -26 16 -58q1 -33 -51 -161q-57 -139 -54 -159
q3 -24 34.5 -25.5t46.5 7.5q15 4 19 -13q2 -17 -12 -21q-47 -13 -77 0q-21 9 -33 27q-28 42 -5 115q17 52 45 125q39 101 42 123q3 20 -10.5 37.5t-40.5 17.5q-16 0 -16 21q0 9 4 15t12 5q36 -3 53 9q22 14 75 170l30.5 85.5t29.5 65.5t34 45q33 22 73 15q37 -7 58 -28z" />
    <glyph glyph-name="bar" unicode="|" horiz-adv-x="333" 
d="M397 666q5 10 14 8.5t14 -12.5q12 -25 -3 -57l-37 -81l-118 -274l-152 -379q-55 -142 -58 -171q-1 -10 -8.5 -13.5t-14.5 0.5q-10 5 -16 17.5t-2 28.5q5 27 71 192l148 366l109 258z" />
    <glyph glyph-name="braceright" unicode="}" horiz-adv-x="240" 
d="M287 675q24 -2 64 -19.5t52 -42.5q24 -50 2 -124q-3 -11 -20 -54.5l-27 -70.5q-43 -114 -40 -144q1 -15 7 -23.5t12.5 -11.5t18.5 -5q18 -2 18 -26q0 -9 -3.5 -14.5t-9.5 -4.5q-11 1 -21.5 1.5t-22.5 -6.5t-22 -23q-4 -6 -9.5 -20.5l-10.5 -29t-13.5 -42t-14.5 -44.5
q-44 -132 -83 -184q-22 -30 -51.5 -42t-52.5 -9t-42 15q-20 13 -18 30q1 12 9.5 17t17.5 -3q41 -41 65 -30q20 9 40 48.5t47 115.5l24 70.5l20 60t16 40.5t18 31q10 14 26 22.5t24 10.5t12 2q-7 3 -16.5 9t-21.5 25.5t-10 43.5q1 22 53 175q49 140 41 169q-6 20 -19 29.5
t-31.5 14t-23.5 7.5q-17 11 -17 26q0 11 13 10z" />
    <glyph glyph-name="asciitilde" unicode="~" horiz-adv-x="399" 
d="M124 223q9 16 31 37t38 27q37 12 56 -3q7 -4 14 -12t16.5 -20t14.5 -17q28 -32 48 -34q34 -3 54 50q6 25 19 24q7 -1 14 -13.5t7 -23.5q-1 -13 -14.5 -37.5t-28.5 -33.5q-17 -10 -41.5 -8t-41.5 12q-16 10 -32 26q-7 7 -17.5 19.5t-17 18t-12.5 6.5q-18 2 -38.5 -16.5
t-33.5 -39.5q-7 -13 -24 3q-20 20 -11 35z" />
    <glyph glyph-name="uni00A0" unicode="&#xa0;" horiz-adv-x="322" 
 />
    <glyph glyph-name="exclamdown" unicode="&#xa1;" horiz-adv-x="313" 
d="M27 -232q4 16 73 165q73 155 92 182q6 8 14 8.5t12 -5.5q11 -13 1 -32q-27 -54 -83 -182q-61 -136 -62 -155q-1 -14 -10.5 -17t-18.5 4q-22 14 -18 32zM252 326q5 8 17.5 5.5t21.5 -14.5q12 -16 5 -40.5t-26 -31.5q-10 -3 -21 2.5t-15 14.5t1 16q26 24 17 48z" />
    <glyph glyph-name="cent" unicode="&#xa2;" horiz-adv-x="312" 
d="M390 555q0 -10 -26 -71l-20 -44q20 -1 36 -14q14 -11 19 -29q3 -13 -2 -25q-7 -17 -15 -16q-3 0 -3 5q-5 16 -19.5 26.5t-36.5 4.5q-29 -63 -51 -116l-24 -60q71 10 93 21q18 6 25.5 2.5t5.5 -13.5q-4 -19 -27 -32q-30 -16 -113 -22q-40 -105 -40 -120q-1 -15 -21 -1
q-17 11 -18 26q-4 15 28 95l-21 3q-36 8 -55 33q-21 27 -8 63q14 38 86 95q60 46 109 65l38 85q17 41 19 54q3 16 19 11q22 -6 22 -26zM134 226q11 -17 63 -15l39 95l25 57q-44 -27 -73 -54q-70 -63 -54 -83z" />
    <glyph glyph-name="sterling" unicode="&#xa3;" horiz-adv-x="400" 
d="M112 283q32 6 97 4q3 6 12 28.5t15 35.5q36 83 75 132q52 66 116 70q35 2 65 -30q36 -40 29 -83q-7 -33 -42 -87q-7 -10 -16 -8t-17 11q-14 17 -6 28q27 40 36.5 75t-4.5 48q-22 20 -53.5 4.5t-68.5 -64.5q-45 -61 -87 -161l54 -3q33 -3 42 -7q22 -10 28 -24
q3 -6 -0.5 -10t-14.5 -3q-45 3 -57 4q-42 2 -68 2q-2 -2 -2 -4q-32 -84 -71 -174q28 2 47 2q91 0 142 -16q40 -12 57 -35q9 -10 1 -24q-9 -18 -17 -8q-22 25 -99 38q-78 12 -149 -3q-22 -29 -58.5 -43.5t-53.5 -8.5q-4 1 -8 5t-5.5 10t-0.5 13.5t9 16.5t22 18q26 16 57 25
l74 189q-43 -2 -48 -5q-19 -9 -35 11q-8 9 -8 19t11 12z" />
    <glyph glyph-name="currency" unicode="&#xa4;" horiz-adv-x="469" 
d="M145 135q-18 49 -1 104q16 53 51 94q-17 20 -45 48q-26 26 -46 44q-16 14 13 35q12 9 24 11t15 -6q3 -11 39 -47l42 -41q55 44 110 59q73 20 115 -24q13 -16 16 -24q29 29 57 53l26 22q9 7 24 -10q22 -24 0 -42l-18 -14l-66 -51q-3 -2 -9 -4q23 -36 6 -103
q-14 -49 -66 -99l21.5 -17.5l26.5 -21.5q22 -19 33 -35q5 -8 -4 -24q-7 -12 -18 -18.5t-18 0.5q-8 11 -38 41l-43 43q-76 -53 -141 -48q-51 4 -81 36q-21 -15 -41 -34q-16 -15 -39 -40q-12 -11 -22 -6t-15 19q-10 25 5 35l41 31zM462 260q17 45 -10 74q-20 0 -14 17
q12 38 -42 44q-51 4 -116 -46t-96 -117q-23 -50 -4 -86t69 -40q57 -3 125 44.5t88 109.5z" />
    <glyph glyph-name="yen" unicode="&#xa5;" horiz-adv-x="352" 
d="M463 499q-36 -28 -154 -225q-14 -24 -21 -38q75 2 80 3q10 1 19 -11q10 -16 -3 -20q-14 -8 -116 -13q-10 -22 -22 -52q79 5 99 -1q11 -3 18 -15q3 -4 3.5 -8t-2.5 -6t-9 -2q-34 2 -123 -5q-9 -25 -19 -64q-10 -43 -5 -53q7 -17 -0.5 -21.5t-22.5 1.5q-16 7 -21 28
q-5 22 1 62q1 7 13 44q-34 -4 -51 0q-18 2 -24 19q-6 16 10 16q31 0 79 3l21 52q-51 -2 -70 0q-20 2 -28 19q-3 6 -2 11.5t7 5.5q57 6 111 7q-21 38 -31 96q-6 35 -4 95q1 20 3 46.5t3 42.5t0 23q-1 11 3.5 15.5t13.5 3.5q11 -1 22 -8.5t12 -16.5q1 -11 -3.5 -41.5
t-5.5 -61.5v-58q2 -52 11 -91q30 56 80 134q69 104 90 118q19 12 33 -1q9 -7 10.5 -17t-5.5 -16z" />
    <glyph glyph-name="brokenbar" unicode="&#xa6;" horiz-adv-x="343" 
d="M204 91l-95 -238q-52 -132 -55 -153q-1 -10 -7.5 -13.5t-13.5 0.5q-9 5 -14.5 17.5t-1.5 28.5q5 25 58 162q84 214 100 242q9 14 23 -10q13 -20 6 -36zM270 250q-2 -9 -6.5 -11.5t-9.5 0.5t-10 10q-17 23 -8 42l68 154l43 101l34.5 82t16.5 38q5 9 13 8.5t14 -9.5
q17 -25 0 -60l-80 -174q-68 -153 -75 -181z" />
    <glyph glyph-name="section" unicode="&#xa7;" horiz-adv-x="468" 
d="M507 664q3 -13 -2 -18.5t-14 -3.5t-18 8.5t-11 13.5q-2 8 16 45t18 59q-31 8 -96 -25q-83 -42 -86 -90q-2 -26 11 -48t40 -51.5t41 -50.5q4 -7 17 -25t19 -28t13.5 -26.5t10.5 -32.5q8 -40 -12 -92q-25 -66 -92 -106q-76 -46 -162 -38h-8q22 -25 68.5 -61.5t54.5 -43.5
q86 -80 15 -170q-42 -53 -147 -71q-91 -15 -148 1q-15 4 -30 17q-21 19 -16 31q4 9 21 3q47 -18 145 -6q58 7 101 25.5t54 49.5q6 11 4 24.5t-5 23t-12.5 21.5t-18.5 20.5t-23 20.5t-26 20.5t-27.5 21l-27.5 22.5q-111 97 -44 224q32 64 100 110.5t124 56.5q-14 18 -39 45
t-30 33q-30 35 -28 74t34 73q58 61 178 95q54 12 70 -39q4 -14 -15 -58t-17 -54zM405 299q37 67 -24 159q-32 -8 -75 -31t-78 -54q-68 -59 -73 -118q-3 -24 6 -50q59 -11 132 11q80 25 112 83z" />
    <glyph glyph-name="dieresis" unicode="&#xa8;" horiz-adv-x="347" 
d="M202 551q-13 -3 -20 17.5t-4 39.5q2 16 13 28.5t25 14.5q14 4 27 -9t15 -29q0 -13 -20 -34.5t-36 -27.5zM328 617q15 0 28 -13t11 -30q-2 -11 -21 -32.5t-32 -25.5q-14 -3 -22.5 12.5t-6.5 31.5q0 15 15.5 36t27.5 21z" />
    <glyph glyph-name="copyright" unicode="&#xa9;" horiz-adv-x="711" 
d="M670 590q30 -37 20 -95q30 -24 48 -82.5t-3 -143.5q-32 -130 -159 -233q-62 -50 -130 -76t-126 -22q-122 8 -176 114q-50 96 -16 215q40 140 146 244q97 95 200 124q62 17 112.5 5t83.5 -50zM692 311q25 100 -24 155q-11 0 -17 8q-9 12 -2 37q25 81 -80 93
q-57 6 -123.5 -27t-127.5 -93q-112 -110 -142 -227q-31 -117 1 -188q34 -74 125 -81q56 -4 121 21.5t122 73.5q111 92 147 228zM534 352q-11 -15 -22 -2t-6 24q6 14 10.5 33.5t-0.5 28.5q-17 6 -50.5 -22.5t-76.5 -89.5q-33 -47 -48 -85.5t-14 -58t11 -26.5q19 -13 78.5 9.5
t82.5 47.5q5 5 9 1.5t5 -12.5q2 -19 -8 -28q-67 -54 -107 -62q-39 -7 -75 13q-41 23 -43 66q-2 59 52 141q38 59 76 94t63 43q19 5 46 -9q35 -20 39 -39q2 -12 -5.5 -33t-16.5 -34z" />
    <glyph glyph-name="ordfeminine" unicode="&#xaa;" horiz-adv-x="277" 
d="M308 272q-10 -2 -27 17q-15 19 -14 38q1 23 27 79q-26 -39 -54 -72q-34 -42 -55 -52q-20 -12 -43 4q-24 17 -27 44q-2 41 54 127q26 41 54.5 70.5t48.5 34.5q37 9 61 -39v1q11 21 32 -8q23 -32 10 -48q-14 -16 -43 -77q-33 -73 -25 -81q2 -2 29 12t29 11q3 -7 -17 -29
q-27 -30 -40 -32zM156 313q10 -7 76 74q48 59 85 113q-12 24 -23 26q-17 6 -81 -85q-31 -45 -49.5 -83.5t-7.5 -44.5z" />
    <glyph glyph-name="guillemotleft" unicode="&#xab;" horiz-adv-x="410" 
d="M349 395q-6 -12 -57 -63q-54 -56 -55 -60q-5 -13 14 -57q14 -32 21 -40t-8 -14q-16 -7 -30 1q-12 6 -30 47q-14 34 -17 49q-6 26 13 48q6 7 55 54q62 60 68 69q7 7 19 -9t7 -25zM432 349q-10 -15 -36 -39q-46 -44 -47 -47q-1 -8 11 -38q4 -9 9 -22t8.5 -20.5t3.5 -9.5
q2 -4 -4 -8.5t-14 -5.5q-17 -2 -25 12l-21 36q-23 42 -23 52q0 28 20 44l54 47q35 32 43 41q10 13 20 -12q8 -21 1 -30z" />
    <glyph glyph-name="logicalnot" unicode="&#xac;" horiz-adv-x="387" 
d="M154 352q13 -13 34 -14q21 -5 76 -3q109 2 149 17q19 7 30 -8q5 -7 6 -15.5t-4 -11.5q-46 -46 -77 -93q-44 -71 -38 -91q0 -4 -2.5 -5.5t-8 -0.5t-10.5 4q-20 10 -21 26q-4 22 26 76q23 42 42 68q-22 -9 -78.5 -12t-83.5 1q-27 3 -48 12q-24 11 -24 31q0 15 13 21t19 -2z
" />
    <glyph glyph-name="uni00AD" unicode="&#xad;" horiz-adv-x="422" 
d="M149 186q17 4 140 0q110 -4 132 -6q13 -1 19 -15q4 -9 0.5 -18t-14.5 -9h-131h-55t-48 0.5t-20 0.5q-17 0 -27 20q-10 24 4 27z" />
    <glyph glyph-name="registered" unicode="&#xae;" horiz-adv-x="586" 
d="M566 720q26 -29 17 -56q16 -11 22.5 -37t-3.5 -80q-16 -57 -80 -111q-40 -33 -84.5 -51.5t-82.5 -16.5q-71 7 -99 61.5t-8 117.5q24 77 83 129t120 68q73 20 115 -24zM568 567q17 46 -10 75q-20 0 -14 17q12 39 -43 45q-52 4 -117.5 -46.5t-97.5 -118.5
q-24 -51 -4.5 -87.5t70.5 -40.5q58 -3 127 45.5t89 110.5zM376 642q13 3 55 1.5t63 -16.5q26 -17 27.5 -36.5t-14.5 -27.5q-11 -8 -28.5 -12t-28.5 -5h-12q37 -53 60 -55q13 -3 -2 -15q-12 -9 -22 -7q-18 3 -40 26q-20 19 -34 52q-46 -67 -46 -75q-3 -14 -20 -1
q-15 11 -12 22q2 11 29 53l22.5 33l18.5 27q-12 -1 -21 15q-10 18 5 21zM434 603q-2 -4 -7.5 -14t-7.5 -13q19 -2 41.5 2.5t21.5 13.5q-1 13 -47 17q0 -4 -1 -6z" />
    <glyph glyph-name="macron" unicode="&#xaf;" horiz-adv-x="365" 
d="M206 589q5 1 104 -21q85 -17 100 -29q12 -8 14 -21q2 -16 -11 -17q-6 1 -41.5 9t-61.5 13q-68 12 -91 21q-13 6 -20 22q-10 21 7 23z" />
    <glyph glyph-name="degree" unicode="&#xb0;" horiz-adv-x="143" 
d="M150 503q22 33 47.5 44t40.5 7q28 0 40 -36t-4 -72q-19 -28 -50.5 -40.5t-55.5 -4.5q-23 9 -27 45.5t9 56.5zM179 450q6 -10 29.5 -4.5t33.5 19.5q8 10 5.5 24t-12.5 18l-1 -1q-1 0 -3 2h-5q-2 0 -4 3q-5 0 -17 -6q-15 -9 -25 -27.5t-1 -27.5z" />
    <glyph glyph-name="plusminus" unicode="&#xb1;" horiz-adv-x="344" 
d="M131 286q36 -6 106 -6l23 49q28 56 45 70q10 8 23 -3q20 -16 10 -25q-11 -7 -35 -52l-19 -39h54q56 -2 70 -10q11 -5 7 -17q-4 -14 -18 -13q-9 0 -67 -4q-38 -3 -67 -3l-23 -51q-26 -62 -27 -89q1 -8 -16 5q-3 2 -6 5q-19 19 -16 30q2 11 27 68l14 32q-45 0 -71 6
q-15 2 -25 21q-6 11 -3.5 19t14.5 7zM54 28q10 3 140 0q117 -3 137 -12q12 -11 14 -22q2 -12 -11 -12q-6 0 -61 1.5t-86 1.5q-32 1 -69 -0.5t-49 -0.5q-20 2 -24 24q-3 15 9 20z" />
    <glyph glyph-name="twosuperior" unicode="&#xb2;" horiz-adv-x="250" 
d="M157 473q22 30 50 52q41 31 71 26q34 -6 56 -42q28 -47 1 -87q-19 -29 -73 -77l-49.5 -41t-43 -36t-12.5 -15q4 -6 73 2q12 1 25.5 3t21.5 3t10 1q6 1 10 -5t3 -15q-2 -21 -15 -21l-64 -8q-63 -8 -82 -4q-23 1 -34 26t6 43q5 5 23.5 21.5l46 40.5l48.5 44q94 90 77 116
q-14 21 -64 -13q-46 -31 -59 -58q-6 -10 -12.5 -6t-11.5 16q-9 22 -2 34z" />
    <glyph glyph-name="threesuperior" unicode="&#xb3;" horiz-adv-x="242" 
d="M201 505q22 17 62 29q45 13 63 4q21 -10 32 -30q16 -28 0 -49q-24 -37 -100 -71q33 9 57.5 -9.5t13.5 -54.5q-8 -28 -58 -69q-37 -30 -82.5 -43t-63.5 -10q-9 1 -18 20q-13 27 -1 28q1 0 3 -1q14 -5 58 7t78 37q27 20 35.5 30t9.5 25q1 16 -30 17.5t-50 -11.5
q-4 -3 -9.5 3t-7.5 15q-6 24 7 35q6 5 60 33q38 20 58 34.5t11 23.5q-10 12 -65 -10q-36 -14 -52 -26q-5 -4 -9.5 3t-6.5 18q-2 17 5 22z" />
    <glyph glyph-name="acute" unicode="&#xb4;" horiz-adv-x="309" 
d="M235 472q-2 -7 -8.5 -5.5t-12.5 9.5q-12 14 -11 35q4 34 67 76q15 11 31.5 19.5t27 12.5t25.5 9t17 6q13 4 24 -11q10 -14 -5 -18q-44 -14 -89 -51q-13 -11 -25.5 -25t-19 -23.5t-13.5 -21t-8 -12.5z" />
    <glyph glyph-name="mu" unicode="&#xb5;" horiz-adv-x="386" 
d="M160 317q11 17 28 1q9 -7 12 -18t-3 -20q-38 -48 -81 -150q-41 -94 -16 -109q12 -7 45.5 32.5t78.5 103.5l36 52.5l32.5 48.5t17.5 25q16 20 37 3q12 -8 17.5 -21.5t0.5 -21.5q-23 -34 -42 -108q-23 -91 0 -96q25 -5 107 97q62 78 82 114q7 13 17 -6q8 -16 2 -29
q-19 -44 -74 -115q-61 -77 -102 -92q-27 -9 -50 2t-32 39q-3 9 -3.5 21.5t1 23.5t4.5 24l5 21t5 17t3 10q-28 -45 -72 -99q-45 -55 -74 -74q-20 -16 -51 -6t-32 45q-23 -43 -60 -124q-41 -90 -39 -100q1 -5 -3 -5q-5 0 -15 9q-21 19 -14 38q21 60 90 200q90 183 142 267z
" />
    <glyph glyph-name="mu" unicode="&#x3bc;" horiz-adv-x="386" 
d="M160 317q11 17 28 1q9 -7 12 -18t-3 -20q-38 -48 -81 -150q-41 -94 -16 -109q12 -7 45.5 32.5t78.5 103.5l36 52.5l32.5 48.5t17.5 25q16 20 37 3q12 -8 17.5 -21.5t0.5 -21.5q-23 -34 -42 -108q-23 -91 0 -96q25 -5 107 97q62 78 82 114q7 13 17 -6q8 -16 2 -29
q-19 -44 -74 -115q-61 -77 -102 -92q-27 -9 -50 2t-32 39q-3 9 -3.5 21.5t1 23.5t4.5 24l5 21t5 17t3 10q-28 -45 -72 -99q-45 -55 -74 -74q-20 -16 -51 -6t-32 45q-23 -43 -60 -124q-41 -90 -39 -100q1 -5 -3 -5q-5 0 -15 9q-21 19 -14 38q21 60 90 200q90 183 142 267z
" />
    <glyph glyph-name="paragraph" unicode="&#xb6;" horiz-adv-x="539" 
d="M291 375q-12 -6 -38 -6l-58 -145l-114 -275q-45 -112 -54 -146q-7 -20 -15 -16t-14 24q-12 44 -1 68q8 15 40 89l113 269l54 136q-72 11 -119 29q-47 17 -70 54t-5 75q16 38 96 79.5t164 61.5q124 31 221 31q20 -3 31 -38q9 -34 -2 -55l-77 -180q-78 -183 -105 -259
l-102 -277q-42 -115 -46 -139q-2 -14 -11.5 -16.5t-18.5 5.5q-26 21 -16 53q9 33 45 125l102 262l107 272l80 200q-60 3 -137 -9q5 -27 -2 -45q-3 -7 -12.5 -33.5l-25.5 -71l-30 -81.5q12 0 22 2q24 6 24 -12q0 -20 -26 -31zM42 496q2 -28 57.5 -48t122.5 -28l90 222
q-4 0 -10 -2q-63 -15 -123 -39.5t-99 -53t-38 -51.5z" />
    <glyph glyph-name="periodcentered" unicode="&#xb7;" horiz-adv-x="326" 
d="M226 378q18 -2 39 -15t18 -32q-4 -19 -16.5 -28.5t-24.5 -7.5q-12 1 -27 18.5t-13 27.5q1 11 7.5 24.5t16.5 12.5z" />
    <glyph glyph-name="cedilla" unicode="&#xb8;" horiz-adv-x="165" 
d="M77 -21q-4 -4 -18.5 -12.5t-25 -18t-11.5 -18.5q0 -7 17 -37q24 -46 20 -69q-5 -35 -64 -77q-46 -32 -77 -41q-11 -4 -22 15q-10 18 6 22q10 2 30.5 14.5t38.5 29.5q31 29 35 53q1 7 -1.5 14t-9.5 19t-9 17q-14 29 -7 51q6 22 45 47l40 23q12 7 20 -10q6 -13 -7 -22z" />
    <glyph glyph-name="onesuperior" unicode="&#xb9;" horiz-adv-x="219" 
d="M168 427q15 5 65 46q58 47 73 69q12 18 28 -2t6 -38q-64 -119 -83 -158q-52 -107 -47 -124q2 -6 -5 -6t-16 5q-21 11 -21 33q0 12 37 88l54 102q-12 -10 -27 -21q-29 -21 -38 -24q-12 -4 -24 6q-19 17 -2 24z" />
    <glyph glyph-name="ordmasculine" unicode="&#xba;" horiz-adv-x="224" 
d="M250 557q25 -2 49.5 -23.5t30.5 -51.5q10 -52 -42 -125q-66 -91 -106 -98q-22 -4 -47 17q-25 23 -25 47q0 61 42 127q26 41 37 48q-3 16 16 37.5t45 21.5zM233 477q-18 -16 -47 -71q-52 -99 -33 -106q14 -6 45.5 21.5t57.5 72.5q26 44 32.5 81t-5.5 42q-8 6 -23.5 -4.5
t-27.5 -26.5q6 -6 1 -9z" />
    <glyph glyph-name="guillemotright" unicode="&#xbb;" horiz-adv-x="443" 
d="M206 426q5 -5 36 -47q37 -53 48 -65q34 -46 11 -74q-11 -14 -53 -48q-35 -28 -56 -40q-11 -10 -21 4t2 31q6 8 48 45q43 37 43 43t-41 62q-23 30 -28 39q-6 10 -4 24q1 24 11 28q2 0 4 -2zM336 413q10 -10 48 -70q34 -54 42 -64q22 -31 -2 -63q-11 -17 -51 -52
q-44 -39 -63 -52q-11 -5 -16 7q-10 21 7 40q5 6 51 47q38 36 37 42q0 6 -33 58q-30 48 -34 56q-13 21 0 45q7 13 14 6z" />
    <glyph glyph-name="onequarter" unicode="&#xbc;" horiz-adv-x="539" 
d="M357 141q13 25 68 78q68 67 102 81q7 12 24 -5q12 -12 12 -25q-4 -23 -33 -119l-14 -46q60 5 64 1q7 -7 7 -23q0 -19 -8 -19q-2 0 -4 2q-8 6 -71 -1q-29 -99 -24 -113q4 -11 -3 -14t-16 2q-22 10 -22 32q0 20 19 87q-30 -4 -37 -4q-28 -1 -52 24q-28 32 -12 62zM609 505
q-12 -6 -85 -78l-154 -158q-226 -242 -226 -285q0 -11 -9 -13t-18 6q-20 18 -9 51q19 53 226 276q196 211 239 229q26 10 39 -9q7 -13 -3 -19zM168 427q19 8 71 51q55 46 67 64q11 17 27 -1q18 -20 7 -39l-65 -122q-71 -140 -65 -160q2 -7 -6 -6.5t-18 7.5q-18 13 -18 31
q0 16 35 84l56 106q-48 -38 -65 -45q-12 -4 -24 6q-19 17 -2 24zM393 95q2 -5 76 4l21 66l23 76q-44 -39 -69 -66q-60 -62 -51 -80z" />
    <glyph glyph-name="onehalf" unicode="&#xbd;" horiz-adv-x="539" 
d="M168 427q18 7 78 57q50 43 60 58q14 20 30 -4q13 -19 4 -36q-54 -99 -68 -127q-68 -135 -62 -155q2 -7 -6 -6q-10 0 -21 10q-15 13 -15 28q0 13 42 97l49 93q-48 -38 -65 -45q-12 -4 -24 6q-19 17 -2 24zM609 505q-12 -6 -82.5 -75l-151.5 -155q-231 -245 -231 -291
q0 -9 -7 -12t-15 2q-11 6 -15.5 19t1.5 35q10 27 78 109t156 177q188 201 231 219q26 10 39 -9q7 -13 -3 -19zM392 229q22 30 50 52q41 31 71 26q30 -6 52 -36q35 -50 5 -93q-21 -32 -71 -75l-50 -41.5t-44.5 -37.5t-12.5 -15q4 -7 69 1q12 1 27 3t23.5 3.5t10.5 1.5
q6 1 9.5 -4t3.5 -13q0 -23 -15 -24l-56 -7q-71 -8 -90 -5q-17 1 -29 17q-9 12 -9 26.5t10 25.5q5 5 23.5 21.5l46.5 41l49 44.5q94 88 76 115q-17 24 -76 -22q-37 -28 -47 -49q-5 -10 -11.5 -7t-11.5 15q-12 24 -3 36z" />
    <glyph glyph-name="threequarters" unicode="&#xbe;" horiz-adv-x="578" 
d="M386 141q15 29 77 87q66 61 93 72q6 11 21 -2q16 -14 15 -28q-6 -31 -31 -114l-16 -51q60 5 64 1q9 -9 7 -27q-1 -9 -4.5 -13t-7.5 0q-8 6 -71 -1q-29 -99 -24 -113q4 -12 -4.5 -14.5t-18.5 4.5q-18 12 -18 30q0 20 19 87q-30 -4 -37 -4q-26 -2 -47 18q-35 32 -17 68z
M638 505q-14 -7 -99 -91t-171 -178q-195 -212 -195 -252q0 -8 -5 -11.5t-12.5 -1t-13.5 9.5q-15 18 -5 47q18 49 195 243q90 99 168.5 176t101.5 86q22 9 36 -5q14 -16 0 -23zM188 508q17 15 54 27q49 17 71 6q23 -12 34 -33q12 -26 -2 -46q-24 -37 -100 -71q33 9 57.5 -9.5
t13.5 -54.5q-8 -28 -58 -69q-37 -29 -82.5 -42.5t-63.5 -10.5q-11 2 -19 23q-10 24 0 25q1 0 3 -1q13 -5 57 7.5t79 36.5q28 22 36 31.5t9 23.5q1 16 -30 17.5t-50 -11.5q-5 -3 -10.5 3.5t-7.5 17.5q-4 21 8 32l71 39q33 17 49.5 30.5t8.5 21.5q-10 12 -65 -10
q-38 -16 -52 -26q-4 -4 -9 1.5t-7 16.5q-4 19 5 25zM422 95q2 -5 76 4l22 71l22 71q-42 -37 -67 -64q-62 -64 -53 -82z" />
    <glyph glyph-name="questiondown" unicode="&#xbf;" horiz-adv-x="393" 
d="M274 -234q-36 -26 -72 -42q-57 -24 -99 -15q-41 9 -56 41q-18 40 3 88q17 39 137 180q106 125 102 142q-3 9 -5.5 13.5t-4 4.5h-2.5q2 3 3 6q4 9 22 7t30 -15q11 -12 2 -36q-11 -28 -48 -74q-8 -11 -101 -124q-123 -153 -106 -182q17 -30 100 9q42 20 64 38
q10 7 21.5 3.5t17.5 -13.5q11 -17 -8 -31zM361 319q-13 -5 -30.5 1.5t-23.5 12.5q-10 15 -1 27t23 13q12 1 26.5 -4.5t20.5 -13.5q9 -8 5 -18.5t-20 -17.5z" />
    <glyph glyph-name="Agrave" unicode="&#xc0;" horiz-adv-x="561" 
d="M536 517q17 -30 30 -64l23 32q6 7 14.5 4.5t16.5 -12.5q17 -21 6 -37q-21 -31 -56.5 -92.5t-52.5 -101.5q-19 -43 -38 -103q-39 -123 -15 -135q25 -13 127 111q65 79 90 123q12 22 22 5q10 -15 2 -32q-19 -45 -93 -136q-63 -79 -102 -102q-30 -17 -62.5 2.5t-36.5 62.5
q-4 33 9 88q15 63 40 112q-1 -1 -11.5 -15.5l-23.5 -31.5l-31.5 -40l-41.5 -50t-46 -51q-97 -103 -180 -150q-31 -17 -62 -2q-36 18 -50 64q-12 43 21.5 144t94.5 197q73 114 143 184t119 91q48 20 85 -2.5t59 -62.5zM72 -63q47 -15 205 159q121 134 255 312
q-20 117 -79 135q-33 10 -114.5 -60.5t-166.5 -205.5q-69 -109 -102 -217.5t2 -122.5zM611 627q5 1 6 -2t-1 -8q-9 -15 -31 -15q-21 0 -51.5 16.5t-52.5 39.5q-48 52 -48 94q0 16 19 25q11 6 22 4t11 -13q0 -12 11.5 -36.5t31.5 -46.5q51 -58 83 -58z" />
    <glyph glyph-name="Aacute" unicode="&#xc1;" horiz-adv-x="561" 
d="M536 517q17 -30 30 -64l23 32q6 7 14.5 4.5t16.5 -12.5q17 -21 6 -37q-21 -31 -56.5 -92.5t-52.5 -101.5q-19 -43 -38 -103q-39 -123 -15 -135q25 -13 127 111q65 79 90 123q12 22 22 5q10 -15 2 -32q-19 -45 -93 -136q-63 -79 -102 -102q-30 -17 -62.5 2.5t-36.5 62.5
q-4 33 9 88q15 63 40 112q-1 -1 -11.5 -15.5l-23.5 -31.5l-31.5 -40l-41.5 -50t-46 -51q-97 -103 -180 -150q-31 -17 -62 -2q-36 18 -50 64q-12 43 21.5 144t94.5 197q73 114 143 184t119 91q48 20 85 -2.5t59 -62.5zM72 -63q47 -15 205 159q121 134 255 312
q-20 117 -79 135q-33 10 -114.5 -60.5t-166.5 -205.5q-69 -109 -102 -217.5t2 -122.5zM523 599q-2 -7 -8.5 -5.5t-12.5 9.5q-12 14 -11 35q4 34 67 76q15 11 31.5 19.5t27 12.5t25.5 9t17 6q13 4 24 -11q10 -14 -5 -18q-44 -14 -89 -51q-13 -11 -25.5 -25t-19 -23.5
t-13.5 -21t-8 -12.5z" />
    <glyph glyph-name="Acircumflex" unicode="&#xc2;" horiz-adv-x="561" 
d="M536 517q17 -30 30 -64l23 32q6 7 14.5 4.5t16.5 -12.5q17 -21 6 -37q-21 -31 -56.5 -92.5t-52.5 -101.5q-19 -43 -38 -103q-39 -123 -15 -135q25 -13 127 111q65 79 90 123q12 22 22 5q10 -15 2 -32q-19 -45 -93 -136q-63 -79 -102 -102q-30 -17 -62.5 2.5t-36.5 62.5
q-4 33 9 88q15 63 40 112q-1 -1 -11.5 -15.5l-23.5 -31.5l-31.5 -40l-41.5 -50t-46 -51q-97 -103 -180 -150q-31 -17 -62 -2q-36 18 -50 64q-12 43 21.5 144t94.5 197q73 114 143 184t119 91q48 20 85 -2.5t59 -62.5zM72 -63q47 -15 205 159q121 134 255 312
q-20 117 -79 135q-33 10 -114.5 -60.5t-166.5 -205.5q-69 -109 -102 -217.5t2 -122.5zM409 676q14 0 70 39q58 41 68 57q11 14 28 -4q14 -14 14 -28q2 -19 10 -54q11 -42 26 -50q15 -6 4 -17q-15 -15 -28 -9q-18 8 -34 51q-14 37 -14 48l-48 -34q-54 -38 -64 -43
q-18 -6 -32 21q-12 21 0 23z" />
    <glyph glyph-name="Atilde" unicode="&#xc3;" horiz-adv-x="561" 
d="M536 517q17 -30 30 -64l23 32q6 7 14.5 4.5t16.5 -12.5q17 -21 6 -37q-21 -31 -56.5 -92.5t-52.5 -101.5q-19 -43 -38 -103q-39 -123 -15 -135q25 -13 127 111q65 79 90 123q12 22 22 5q10 -15 2 -32q-19 -45 -93 -136q-63 -79 -102 -102q-30 -17 -62.5 2.5t-36.5 62.5
q-4 33 9 88q15 63 40 112q-1 -1 -11.5 -15.5l-23.5 -31.5l-31.5 -40l-41.5 -50t-46 -51q-97 -103 -180 -150q-31 -17 -62 -2q-36 18 -50 64q-12 43 21.5 144t94.5 197q73 114 143 184t119 91q48 20 85 -2.5t59 -62.5zM72 -63q47 -15 205 159q121 134 255 312
q-20 117 -79 135q-33 10 -114.5 -60.5t-166.5 -205.5q-69 -109 -102 -217.5t2 -122.5zM434 680q17 21 40 33q23 11 42 7q18 -3 31 -26q15 -24 27 -27q21 -4 39 14q12 12 10 22q0 9 10 -1q1 -1 2 -2.5t2 -3.5t2 -3q5 -37 -17 -58q-11 -11 -34 -15q-21 -3 -35 6
q-12 8 -23.5 26t-19.5 20q-10 1 -23 -5q-21 -11 -33 -32q-4 -6 -10 -2.5t-10 13.5q-9 21 0 34z" />
    <glyph glyph-name="Adieresis" unicode="&#xc4;" horiz-adv-x="561" 
d="M536 517q17 -30 30 -64l23 32q6 7 14.5 4.5t16.5 -12.5q17 -21 6 -37q-21 -31 -56.5 -92.5t-52.5 -101.5q-19 -43 -38 -103q-39 -123 -15 -135q25 -13 127 111q65 79 90 123q12 22 22 5q10 -15 2 -32q-19 -45 -93 -136q-63 -79 -102 -102q-30 -17 -62.5 2.5t-36.5 62.5
q-4 33 9 88q15 63 40 112q-1 -1 -11.5 -15.5l-23.5 -31.5l-31.5 -40l-41.5 -50t-46 -51q-97 -103 -180 -150q-31 -17 -62 -2q-36 18 -50 64q-12 43 21.5 144t94.5 197q73 114 143 184t119 91q48 20 85 -2.5t59 -62.5zM72 -63q47 -15 205 159q121 134 255 312
q-20 117 -79 135q-33 10 -114.5 -60.5t-166.5 -205.5q-69 -109 -102 -217.5t2 -122.5zM473 661q-13 -3 -20 17.5t-4 39.5q2 16 13 28.5t25 14.5q14 4 27 -9t15 -29q0 -13 -20 -34.5t-36 -27.5zM599 727q15 0 28 -13t11 -30q-2 -11 -21 -32.5t-32 -25.5q-14 -3 -22.5 12.5
t-6.5 31.5q0 15 15.5 36t27.5 21z" />
    <glyph glyph-name="Aring" unicode="&#xc5;" horiz-adv-x="561" 
d="M536 517q17 -30 30 -64l23 32q6 7 14.5 4.5t16.5 -12.5q17 -21 6 -37q-21 -31 -56.5 -92.5t-52.5 -101.5q-19 -43 -38 -103q-39 -123 -15 -135q25 -13 127 111q65 79 90 123q12 22 22 5q10 -15 2 -32q-19 -45 -93 -136q-63 -79 -102 -102q-30 -17 -62.5 2.5t-36.5 62.5
q-4 33 9 88q15 63 40 112q-1 -1 -11.5 -15.5l-23.5 -31.5l-31.5 -40l-41.5 -50t-46 -51q-97 -103 -180 -150q-31 -17 -62 -2q-36 18 -50 64q-12 43 21.5 144t94.5 197q73 114 143 184t119 91q48 20 85 -2.5t59 -62.5zM72 -63q47 -15 205 159q121 134 255 312
q-20 117 -79 135q-33 10 -114.5 -60.5t-166.5 -205.5q-69 -109 -102 -217.5t2 -122.5zM508 699q22 33 47.5 44t40.5 7q28 0 40 -36t-4 -72q-19 -28 -50.5 -40.5t-55.5 -4.5q-23 9 -27 45.5t9 56.5zM537 646q6 -10 29.5 -4.5t33.5 19.5q8 10 5.5 24t-12.5 18l-1 -1q-1 0 -3 2
h-5q-2 0 -4 3q-5 0 -17 -6q-15 -9 -25 -27.5t-1 -27.5z" />
    <glyph glyph-name="AE" unicode="&#xc6;" horiz-adv-x="673" 
d="M214 227q2 0 7 0.5t14 1.5t16 2l67 67q60 58 141 145q80 87 99 118q11 17 36 10q21 -7 33 -22q54 6 104 7q92 2 101 -11q8 -11 8 -22t-5.5 -15t-12.5 2q-11 8 -91 4q-44 -1 -101 -7q-47 -72 -75 -119q-48 -80 -73 -130l93 10q73 7 81 6q20 -3 26 -24q4 -12 -1 -20.5
t-17 -4.5q-13 4 -88 -2q-93 -8 -116 -11q-32 -70 -45 -120q-22 -86 20 -104q34 -17 143 27q30 12 94 42q14 7 21.5 4.5t7.5 -11.5q0 -17 -18 -28q-2 -1 -29 -17t-48 -27q-70 -36 -122 -37q-51 0 -84 36q-50 55 -27 152q7 31 28 76q-68 -8 -134 -18l-103 -110l-41 -44.5
l-38.5 -42l-28.5 -30t-24 -23.5t-12 -8q-27 -6 -42 9q-7 6 -3.5 14.5t17.5 12.5q10 4 139 141l75 78q-11 11 -9 26q2 14 17 17zM561 489q-7 -6 -25 -25.5l-49.5 -54l-62.5 -65.5l-66 -66q-6 -5 -12.5 -11.5l-14.5 -15l-12 -12.5q84 11 104 13q12 26 50 92q49 86 88 145z" />
    <glyph glyph-name="Ccedilla" unicode="&#xc7;" horiz-adv-x="456" 
d="M498 442q-14 -19 -28 1t-6 36q15 38 20 53q16 51 -1 59q-15 7 -52.5 -15t-84.5 -65q-76 -70 -140 -163q-78 -112 -109 -211q-43 -135 9 -188q75 -77 259 58q61 45 144 144q58 69 74 96q12 19 21 3q8 -17 1 -35q-7 -20 -65 -94q-58 -72 -97 -107q-125 -114 -228 -125
q-67 -7 -117 25q-2 -1 -9.5 -5.5t-11.5 -7.5l-9.5 -7t-8.5 -8.5t-3 -9.5t15 -31q20 -38 17 -58q-5 -29 -54 -65q-43 -28 -65 -34q-10 -4 -19 12q-7 15 5 19q21 2 58 37q25 22 30 45q1 5 -1 11t-8 17t-8 14q-12 23 -6 43q5 18 38 39l14 10q-40 40 -43 96q-9 136 121 327
q80 118 155 187t126 85q36 11 70 -18q30 -25 35 -55q3 -23 -11 -59q-10 -26 -27 -56z" />
    <glyph glyph-name="Egrave" unicode="&#xc8;" horiz-adv-x="438" 
d="M522 608q9 -9 3 -19q-5 -7 -12.5 -9t-11.5 3q-19 20 -41 19q-49 0 -141 -77q-61 -51 -84 -97t-1 -69q14 -15 57 -30q61 32 90 35q39 3 54 -17q8 -11 -1 -20q-14 -14 -47 -28t-73 -13q-116 -62 -195 -137q-45 -41 -72 -82q-30 -47 -33 -84.5t22 -52.5q26 -21 99 -5.5
t157 66.5q97 58 178 142q44 47 90 114q10 14 17 0q10 -20 0 -40q-46 -89 -159 -184q-129 -109 -261 -141q-85 -21 -138 15q-42 28 -51 87q-8 62 53 140q34 42 82 80q70 56 140 97q-44 18 -61 51t-5 67q23 66 116 146q46 40 90 65t70 24q7 0 13.5 -1t12.5 -4.5l9.5 -5.5
t9.5 -8l8 -8t8.5 -10t7.5 -9zM587 701q5 1 6 -2t-1 -8q-9 -15 -31 -15q-21 0 -51.5 16.5t-52.5 39.5q-48 52 -48 94q0 16 19 25q11 6 22 4t11 -13q0 -12 11.5 -36.5t31.5 -46.5q51 -58 83 -58z" />
    <glyph glyph-name="Eacute" unicode="&#xc9;" horiz-adv-x="438" 
d="M522 608q9 -9 3 -19q-5 -7 -12.5 -9t-11.5 3q-19 20 -41 19q-49 0 -141 -77q-61 -51 -84 -97t-1 -69q14 -15 57 -30q61 32 90 35q39 3 54 -17q8 -11 -1 -20q-14 -14 -47 -28t-73 -13q-116 -62 -195 -137q-45 -41 -72 -82q-30 -47 -33 -84.5t22 -52.5q26 -21 99 -5.5
t157 66.5q97 58 178 142q44 47 90 114q10 14 17 0q10 -20 0 -40q-46 -89 -159 -184q-129 -109 -261 -141q-85 -21 -138 15q-42 28 -51 87q-8 62 53 140q34 42 82 80q70 56 140 97q-44 18 -61 51t-5 67q23 66 116 146q46 40 90 65t70 24q7 0 13.5 -1t12.5 -4.5l9.5 -5.5
t9.5 -8l8 -8t8.5 -10t7.5 -9zM406 683q-2 -7 -8.5 -5.5t-12.5 9.5q-12 14 -11 35q4 34 67 76q15 11 31.5 19.5t27 12.5t25.5 9t17 6q13 4 24 -11q10 -14 -5 -18q-44 -14 -89 -51q-13 -11 -25.5 -25t-19 -23.5t-13.5 -21t-8 -12.5z" />
    <glyph glyph-name="Ecircumflex" unicode="&#xca;" horiz-adv-x="438" 
d="M522 608q9 -9 3 -19q-5 -7 -12.5 -9t-11.5 3q-19 20 -41 19q-49 0 -141 -77q-61 -51 -84 -97t-1 -69q14 -15 57 -30q61 32 90 35q39 3 54 -17q8 -11 -1 -20q-14 -14 -47 -28t-73 -13q-116 -62 -195 -137q-45 -41 -72 -82q-30 -47 -33 -84.5t22 -52.5q26 -21 99 -5.5
t157 66.5q97 58 178 142q44 47 90 114q10 14 17 0q10 -20 0 -40q-46 -89 -159 -184q-129 -109 -261 -141q-85 -21 -138 15q-42 28 -51 87q-8 62 53 140q34 42 82 80q70 56 140 97q-44 18 -61 51t-5 67q23 66 116 146q46 40 90 65t70 24q7 0 13.5 -1t12.5 -4.5l9.5 -5.5
t9.5 -8l8 -8t8.5 -10t7.5 -9zM366 739q14 0 70 39q58 41 68 57q11 13 28 -4q14 -14 14 -28q2 -19 10 -54q11 -42 26 -50q15 -6 4 -17q-15 -15 -28 -9q-18 8 -34 51q-14 37 -14 48l-48 -34q-54 -38 -64 -43q-18 -6 -32 21q-12 21 0 23z" />
    <glyph glyph-name="Edieresis" unicode="&#xcb;" horiz-adv-x="438" 
d="M522 608q9 -9 3 -19q-5 -7 -12.5 -9t-11.5 3q-19 20 -41 19q-49 0 -141 -77q-61 -51 -84 -97t-1 -69q14 -15 57 -30q61 32 90 35q39 3 54 -17q8 -11 -1 -20q-14 -14 -47 -28t-73 -13q-116 -62 -195 -137q-45 -41 -72 -82q-30 -47 -33 -84.5t22 -52.5q26 -21 99 -5.5
t157 66.5q97 58 178 142q44 47 90 114q10 14 17 0q10 -20 0 -40q-46 -89 -159 -184q-129 -109 -261 -141q-85 -21 -138 15q-42 28 -51 87q-8 62 53 140q34 42 82 80q70 56 140 97q-44 18 -61 51t-5 67q23 66 116 146q46 40 90 65t70 24q7 0 13.5 -1t12.5 -4.5l9.5 -5.5
t9.5 -8l8 -8t8.5 -10t7.5 -9zM448 706q-13 -3 -20 17.5t-4 39.5q2 16 13 28.5t25 14.5q14 4 27 -9t15 -29q0 -13 -20 -34.5t-36 -27.5zM574 772q15 0 28 -13t11 -30q-2 -11 -21 -32.5t-32 -25.5q-14 -3 -22.5 12.5t-6.5 31.5q0 15 15.5 36t27.5 21z" />
    <glyph glyph-name="Igrave" unicode="&#xcc;" horiz-adv-x="209" 
d="M333 590q3 -16 -36 -110l-102 -234q-62 -135 -99 -238q-29 -81 -25 -93q2 -8 -5 -7q-9 1 -20 13q-17 19 -16 41q1 19 26 80l49.5 113.5l56.5 130.5q45 105 84 206q38 97 41 121q1 18 22 7t24 -30zM449 660q5 1 6 -2t-1 -8q-9 -15 -31 -15q-21 0 -51.5 16.5t-52.5 39.5
q-48 52 -48 94q0 16 19 25q11 6 22 4t11 -13q0 -12 11.5 -36.5t31.5 -46.5q51 -58 83 -58z" />
    <glyph glyph-name="Iacute" unicode="&#xcd;" horiz-adv-x="209" 
d="M333 590q3 -16 -36 -110l-102 -234q-62 -135 -99 -238q-29 -81 -25 -93q2 -8 -5 -7q-9 1 -20 13q-17 19 -16 41q1 19 26 80l49.5 113.5l56.5 130.5q45 105 84 206q38 97 41 121q1 18 22 7t24 -30zM347 676q-2 -7 -8.5 -5.5t-12.5 9.5q-12 14 -11 35q4 34 67 76
q15 11 31.5 19.5t27 12.5t25.5 9t17 6q13 4 24 -11q10 -14 -5 -18q-44 -14 -89 -51q-13 -11 -25.5 -25t-19 -23.5t-13.5 -21t-8 -12.5z" />
    <glyph glyph-name="Icircumflex" unicode="&#xce;" horiz-adv-x="209" 
d="M333 590q3 -16 -36 -110l-102 -234q-62 -135 -99 -238q-29 -81 -25 -93q2 -8 -5 -7q-9 1 -20 13q-17 19 -16 41q1 19 26 80l49.5 113.5l56.5 130.5q45 105 84 206q38 97 41 121q1 18 22 7t24 -30zM229 723q14 0 70 39q58 41 68 57q11 13 28 -4q14 -14 14 -28
q2 -19 10 -54q11 -42 26 -50q15 -6 4 -17q-15 -15 -28 -9q-18 8 -34 51q-14 37 -14 48l-48 -34q-54 -38 -64 -43q-18 -6 -32 21q-12 21 0 23z" />
    <glyph glyph-name="Idieresis" unicode="&#xcf;" horiz-adv-x="209" 
d="M333 590q3 -16 -36 -110l-102 -234q-62 -135 -99 -238q-29 -81 -25 -93q2 -8 -5 -7q-9 1 -20 13q-17 19 -16 41q1 19 26 80l49.5 113.5l56.5 130.5q45 105 84 206q38 97 41 121q1 18 22 7t24 -30zM296 702q-13 -3 -20 17.5t-4 39.5q2 16 13 28.5t25 14.5q14 4 27 -9
t15 -29q0 -13 -20 -34.5t-36 -27.5zM422 768q15 0 28 -13t11 -30q-2 -11 -21 -32.5t-32 -25.5q-14 -3 -22.5 12.5t-6.5 31.5q0 15 15.5 36t27.5 21z" />
    <glyph glyph-name="Eth" unicode="&#xd0;" horiz-adv-x="545" 
d="M303 595q-46 -4 -92 -16.5t-80.5 -28t-61.5 -32.5t-41 -30.5t-14 -20.5q0 -20 -16 -10q-8 4 -14 14q-12 17 -6 30q4 10 26.5 28.5t58.5 40.5t92 41t115 25q165 17 258 -39.5t102 -164.5q7 -85 -49 -190.5t-148 -176.5q-168 -131 -293 -127q-38 0 -63 28q-25 29 -18 66
q15 77 84 219l-44 -14q-21 -7 -25 -9q-10 -5 -20 0.5t-15 16.5q-12 24 9 25q9 0 53 11q43 11 65 18l54 110q54 114 58 142q1 15 21 -1q28 -24 20 -49q-15 -38 -40 -91l-46 -94q42 9 64 13q44 7 61 0q21 -7 28 -18q0 -9 -15 -10q-18 1 -75 -10q-51 -11 -86 -21
q-123 -242 -101 -285q9 -20 80.5 2t141.5 69q231 155 252 356q5 49 -9 85t-41.5 55.5t-65 31.5t-79.5 12.5t-85 -1.5z" />
    <glyph glyph-name="Ntilde" unicode="&#xd1;" horiz-adv-x="471" 
d="M11 -62q6 43 90 272l56.5 151l52.5 140t25 68q9 25 38 27q15 1 25 -8.5t9 -27.5q-5 -54 30 -291q20 -138 39 -226q39 123 103 277q64 153 99 217q41 74 68 78q21 4 35 -20q12 -22 2 -29q-3 -3 -8 -1q-23 7 -58 -51q-32 -54 -97 -212q-109 -269 -120 -324q-4 -20 -20 -15
q-19 6 -38 41q-25 47 -56 249q-23 154 -25 245q-26 -60 -124 -335q-81 -227 -88 -260q-5 -17 -24 2q-17 15 -14 33zM355 694q17 21 40 33q23 11 42 7q18 -3 31 -26q15 -24 27 -27q21 -4 39 14q12 12 10 22q0 9 10 -1l6 -9q5 -37 -17 -58q-11 -11 -34 -15q-21 -3 -35 6
q-12 8 -23.5 26t-19.5 20q-10 1 -23 -5q-21 -11 -33 -32q-4 -6 -10 -2.5t-10 13.5q-9 21 0 34z" />
    <glyph glyph-name="Ograve" unicode="&#xd2;" horiz-adv-x="478" 
d="M111 412q30 85 87 140q61 58 142 69q72 10 126 -22t71 -102q19 -72 -11 -170t-92 -191q-50 -75 -111.5 -130t-119.5 -74q-76 -25 -129 10q-60 41 -63 139q-3 68 27 154q24 70 60 128q5 26 13 49zM76 182q-20 -72 -20 -123q-2 -92 57 -98q39 -4 99.5 27t120.5 98
q65 73 115 180q47 102 44 190q-3 93 -54 121q-60 35 -149 -16q-74 -43 -112 -126q-32 -69 -35 -119q-2 -38 11 -59t30 -28q10 -5 9.5 -10t-8.5 -8q-19 -9 -40 -1q-25 9 -40 51q-17 -41 -28 -79zM560 654q5 1 6 -2t-1 -8q-9 -15 -31 -15q-21 0 -51.5 16.5t-52.5 39.5
q-48 52 -48 94q0 16 19 25q11 6 22 4t11 -13q0 -12 11.5 -36.5t31.5 -46.5q51 -58 83 -58z" />
    <glyph glyph-name="Oacute" unicode="&#xd3;" horiz-adv-x="478" 
d="M111 412q30 85 87 140q61 58 142 69q72 10 126 -22t71 -102q19 -72 -11 -170t-92 -191q-50 -75 -111.5 -130t-119.5 -74q-76 -25 -129 10q-60 41 -63 139q-3 68 27 154q24 70 60 128q5 26 13 49zM76 182q-20 -72 -20 -123q-2 -92 57 -98q39 -4 99.5 27t120.5 98
q65 73 115 180q47 102 44 190q-3 93 -54 121q-60 35 -149 -16q-74 -43 -112 -126q-32 -69 -35 -119q-2 -38 11 -59t30 -28q10 -5 9.5 -10t-8.5 -8q-19 -9 -40 -1q-25 9 -40 51q-17 -41 -28 -79zM409 659q-2 -7 -8.5 -5.5t-12.5 9.5q-12 14 -11 35q4 34 67 76
q15 11 31.5 19.5t27 12.5t25.5 9t17 6q13 4 24 -11q10 -14 -5 -18q-44 -14 -89 -51q-13 -11 -25.5 -25t-19 -23.5t-13.5 -21t-8 -12.5z" />
    <glyph glyph-name="Ocircumflex" unicode="&#xd4;" horiz-adv-x="478" 
d="M111 412q30 85 87 140q61 58 142 69q72 10 126 -22t71 -102q19 -72 -11 -170t-92 -191q-50 -75 -111.5 -130t-119.5 -74q-76 -25 -129 10q-60 41 -63 139q-3 68 27 154q24 70 60 128q5 26 13 49zM76 182q-20 -72 -20 -123q-2 -92 57 -98q39 -4 99.5 27t120.5 98
q65 73 115 180q47 102 44 190q-3 93 -54 121q-60 35 -149 -16q-74 -43 -112 -126q-32 -69 -35 -119q-2 -38 11 -59t30 -28q10 -5 9.5 -10t-8.5 -8q-19 -9 -40 -1q-25 9 -40 51q-17 -41 -28 -79zM312 709q14 0 70 39q58 41 68 57q11 13 28 -4q14 -14 14 -28q2 -19 10 -54
q11 -42 26 -50q15 -6 4 -17q-15 -15 -28 -9q-18 8 -34 51q-14 37 -14 48l-48 -34q-54 -38 -64 -43q-18 -6 -32 21q-12 21 0 23z" />
    <glyph glyph-name="Otilde" unicode="&#xd5;" horiz-adv-x="478" 
d="M111 412q30 85 87 140q61 58 142 69q72 10 126 -22t71 -102q19 -72 -11 -170t-92 -191q-50 -75 -111.5 -130t-119.5 -74q-76 -25 -129 10q-60 41 -63 139q-3 68 27 154q24 70 60 128q5 26 13 49zM76 182q-20 -72 -20 -123q-2 -92 57 -98q39 -4 99.5 27t120.5 98
q65 73 115 180q47 102 44 190q-3 93 -54 121q-60 35 -149 -16q-74 -43 -112 -126q-32 -69 -35 -119q-2 -38 11 -59t30 -28q10 -5 9.5 -10t-8.5 -8q-19 -9 -40 -1q-25 9 -40 51q-17 -41 -28 -79zM361 711q17 21 40 33q23 11 42 7q18 -3 31 -26q15 -24 27 -27q21 -4 39 14
q12 12 10 22q0 9 10 -1l6 -9q5 -37 -17 -58q-11 -11 -34 -15q-21 -3 -35 6q-12 8 -23.5 26t-19.5 20q-10 1 -23 -5q-21 -11 -33 -32q-4 -6 -10 -2.5t-10 13.5q-9 21 0 34z" />
    <glyph glyph-name="Odieresis" unicode="&#xd6;" horiz-adv-x="478" 
d="M111 412q30 85 87 140q61 58 142 69q72 10 126 -22t71 -102q19 -72 -11 -170t-92 -191q-50 -75 -111.5 -130t-119.5 -74q-76 -25 -129 10q-60 41 -63 139q-3 68 27 154q24 70 60 128q5 26 13 49zM76 182q-20 -72 -20 -123q-2 -92 57 -98q39 -4 99.5 27t120.5 98
q65 73 115 180q47 102 44 190q-3 93 -54 121q-60 35 -149 -16q-74 -43 -112 -126q-32 -69 -35 -119q-2 -38 11 -59t30 -28q10 -5 9.5 -10t-8.5 -8q-19 -9 -40 -1q-25 9 -40 51q-17 -41 -28 -79zM388 696q-13 -3 -20 17.5t-4 39.5q2 16 13 28.5t25 14.5q14 4 27 -9t15 -29
q0 -13 -20 -34.5t-36 -27.5zM514 762q15 0 28 -13t11 -30q-2 -11 -21 -32.5t-32 -25.5q-14 -3 -22.5 12.5t-6.5 31.5q0 15 15.5 36t27.5 21z" />
    <glyph glyph-name="multiply" unicode="&#xd7;" horiz-adv-x="296" 
d="M192 398q3 -12 23 -66l16 -40l71 62q54 44 64 45q16 2 29 -15q13 -14 -1 -22q-12 -6 -61 -45l-82 -69q22 -43 40 -71q22 -33 27 -36q11 -9 -4 -20q-16 -12 -25 -7q-11 4 -45 61q-1 2 -11 18.5t-15 26.5l-38 -35q-53 -49 -54 -59q-3 -9 -11 -9t-14 6q-8 7 -11.5 17.5
t1.5 21.5q4 7 53 52q9 9 29 26t25 22q-8 16 -18 42q-23 55 -21 66q0 8 8 16q14 17 23 16q2 -1 2 -4z" />
    <glyph glyph-name="Oslash" unicode="&#xd8;" horiz-adv-x="474" 
d="M576 618q-5 -3 -16 -16q15 -30 19 -63q11 -81 -26.5 -184t-107.5 -203q-140 -195 -287 -229q-43 -10 -75 20q-2 -9 -1 -12q4 -27 -10 -25t-24 26q-7 19 -3 41q2 12 6 18q-4 13 -5 17q-19 89 32 259q19 61 48.5 122.5t54.5 90.5q35 73 93 128q67 64 134 67q76 3 120 -34
q10 10 14 12q21 11 32 -3q6 -7 6.5 -17.5t-4.5 -14.5zM115 -38q50 -15 158 79t189 238q41 72 58 150.5t7 134.5q-84 -99 -218 -275q-165 -217 -213 -313q7 -9 19 -14zM123 223q-33 -106 -37 -170q62 100 183 265q147 200 236 299q-6 7 -12 12q-41 29 -113 -6
q-80 -39 -124 -114q-18 -30 -24 -42q0 -8 -7 -15q-20 -39 -26 -65q-6 -29 7 -36q12 -7 7 -15q-4 -6 -15 -9t-22 1q-7 2 -13 10q-16 -41 -40 -115z" />
    <glyph glyph-name="Ugrave" unicode="&#xd9;" horiz-adv-x="585" 
d="M382 605q-2 -11 -25 -51.5l-66 -118.5t-80 -155q-143 -296 -88 -299q29 -1 127 94t169 179q120 144 219 310q8 12 18 11t18 -11q16 -20 5 -39l-19 -28l-29.5 -44.5t-39 -68.5t-48.5 -102q-27 -63 -39 -117.5t-8.5 -84.5t18.5 -33q30 -6 119 101q54 65 72 99q10 19 20 -1
t-1 -38q-54 -83 -81 -116q-68 -85 -113 -90q-28 -3 -51 27q-20 27 -25 67q-4 33 3.5 78.5t25.5 84.5q-110 -131 -189 -209q-46 -47 -89.5 -78t-63.5 -34q-17 -3 -38 11q-34 25 -34 62q0 87 105 303l80 155t62 118t17 50q-1 15 23 1q6 -3 11 -7q18 -14 15 -26zM613 674
q5 1 6 -2t-1 -8q-9 -15 -31 -15q-21 0 -51.5 16.5t-52.5 39.5q-48 52 -48 94q0 16 19 25q11 6 22 4t11 -13q0 -12 11.5 -36.5t31.5 -46.5q51 -58 83 -58z" />
    <glyph glyph-name="Uacute" unicode="&#xda;" horiz-adv-x="585" 
d="M382 605q-2 -11 -25 -51.5l-66 -118.5t-80 -155q-143 -296 -88 -299q29 -1 127 94t169 179q120 144 219 310q8 12 18 11t18 -11q16 -20 5 -39l-19 -28l-29.5 -44.5t-39 -68.5t-48.5 -102q-27 -63 -39 -117.5t-8.5 -84.5t18.5 -33q30 -6 119 101q54 65 72 99q10 19 20 -1
t-1 -38q-54 -83 -81 -116q-68 -85 -113 -90q-28 -3 -51 27q-20 27 -25 67q-4 33 3.5 78.5t25.5 84.5q-110 -131 -189 -209q-46 -47 -89.5 -78t-63.5 -34q-17 -3 -38 11q-34 25 -34 62q0 87 105 303l80 155t62 118t17 50q-1 15 23 1q6 -3 11 -7q18 -14 15 -26zM518 632
q-2 -7 -8.5 -5.5t-12.5 9.5q-12 14 -11 35q4 34 67 76q15 11 31.5 19.5t27 12.5t25.5 9t17 6q13 4 24 -11q10 -14 -5 -18q-44 -14 -89 -51q-13 -11 -25.5 -25t-19 -23.5t-13.5 -21t-8 -12.5z" />
    <glyph glyph-name="Ucircumflex" unicode="&#xdb;" horiz-adv-x="585" 
d="M382 605q-2 -11 -25 -51.5l-66 -118.5t-80 -155q-143 -296 -88 -299q29 -1 127 94t169 179q120 144 219 310q8 12 18 11t18 -11q16 -20 5 -39l-19 -28l-29.5 -44.5t-39 -68.5t-48.5 -102q-27 -63 -39 -117.5t-8.5 -84.5t18.5 -33q30 -6 119 101q54 65 72 99q10 19 20 -1
t-1 -38q-54 -83 -81 -116q-68 -85 -113 -90q-28 -3 -51 27q-20 27 -25 67q-4 33 3.5 78.5t25.5 84.5q-110 -131 -189 -209q-46 -47 -89.5 -78t-63.5 -34q-17 -3 -38 11q-34 25 -34 62q0 87 105 303l80 155t62 118t17 50q-1 15 23 1q6 -3 11 -7q18 -14 15 -26zM435 716
q14 0 70 39q58 41 68 57q11 14 28 -4q14 -14 14 -28q2 -19 10 -54q11 -42 26 -50q15 -6 4 -17q-15 -15 -28 -9q-18 8 -34 51q-14 37 -14 48l-48 -34q-54 -38 -64 -43q-18 -6 -32 21q-12 21 0 23z" />
    <glyph glyph-name="Udieresis" unicode="&#xdc;" horiz-adv-x="585" 
d="M382 605q-2 -11 -25 -51.5l-66 -118.5t-80 -155q-143 -296 -88 -299q29 -1 127 94t169 179q120 144 219 310q8 12 18 11t18 -11q16 -20 5 -39l-19 -28l-29.5 -44.5t-39 -68.5t-48.5 -102q-27 -63 -39 -117.5t-8.5 -84.5t18.5 -33q30 -6 119 101q54 65 72 99q10 19 20 -1
t-1 -38q-54 -83 -81 -116q-68 -85 -113 -90q-28 -3 -51 27q-20 27 -25 67q-4 33 3.5 78.5t25.5 84.5q-110 -131 -189 -209q-46 -47 -89.5 -78t-63.5 -34q-17 -3 -38 11q-34 25 -34 62q0 87 105 303l80 155t62 118t17 50q-1 15 23 1q6 -3 11 -7q18 -14 15 -26zM488 682
q-13 -3 -20 17.5t-4 39.5q2 16 13 28.5t25 14.5q14 4 27 -9t15 -29q0 -13 -20 -34.5t-36 -27.5zM614 748q15 0 28 -13t11 -30q-2 -11 -21 -32.5t-32 -25.5q-14 -3 -22.5 12.5t-6.5 31.5q0 15 15.5 36t27.5 21z" />
    <glyph glyph-name="Yacute" unicode="&#xdd;" horiz-adv-x="463" 
d="M273 545q2 -13 -32.5 -92t-83.5 -173q-76 -145 -107.5 -218t-16.5 -84q10 -7 36.5 8.5t61.5 47.5l72.5 69.5l75.5 76.5l27 28q193 194 224 250q9 14 25.5 6.5t25.5 -25.5q13 -25 -6 -44q-27 -25 -117 -182l-123 -222q-46 -85 -72 -148q-44 -103 -44 -124q0 -7 13 -8.5
t15 -6.5q1 -4 -5.5 -9.5t-15.5 -9.5q-31 -12 -45 8q-19 30 31 153q25 61 67 145l79 148.5t66 116.5l24 40q-139 -163 -206 -224l-47 -42.5l-46 -40.5l-34 -27.5t-34.5 -22t-25.5 -5.5q-28 2 -44 18q-34 33 -22 90q6 26 28 70.5l57 110.5t57 112q53 112 74 169.5t11 79.5
q-5 10 9 10q16 0 31 -15q14 -14 17 -34zM444 584q-2 -7 -8.5 -5.5t-12.5 9.5q-12 14 -11 35q4 34 67 76q15 11 31.5 19.5t27 12.5t25.5 9t17 6q13 4 24 -11q10 -14 -5 -18q-44 -14 -89 -51q-13 -11 -25.5 -25t-19 -23.5t-13.5 -21t-8 -12.5z" />
    <glyph glyph-name="Thorn" unicode="&#xde;" horiz-adv-x="477" 
d="M-3 387q36 36 127 66q58 20 127 27l32 78q22 56 24 64q4 10 11.5 8t14.5 -13q16 -24 10 -38l-17 -40l-23 -56q76 5 136 -10q61 -14 93.5 -42.5t35.5 -64.5q6 -62 -66 -139q-55 -59 -141 -113q-54 -34 -113 -56.5t-84 -23.5q-9 0 -18 6q-10 8 -15 18l-36 -105
q-20 -63 -20 -78q0 -12 -7.5 -14.5t-15.5 4.5q-20 14 -20 42q1 21 35 115q11 30 75 193l58 140l31 76q-51 -10 -103 -30q-90 -33 -101 -57q-10 -16 -26 7q-17 24 -4 36zM285 439l-81 -198q-62 -152 -66 -163h1q1 1 2 1q85 9 211 88q80 50 131 112t44 101q-9 48 -124 59
q-57 6 -118 0z" />
    <glyph glyph-name="germandbls" unicode="&#xdf;" horiz-adv-x="368" 
d="M12 -9q1 10 129 310q122 286 126 307q3 17 18 10q19 -9 16 -35v-3q-3 -14 -44 -111l-67 -159q75 114 110 160q65 86 103 87q28 1 46 -25q18 -28 10 -53q-14 -46 -71 -126q-16 -23 -34.5 -47t-29.5 -36l-10 -12q2 0 6 0.5t15 -1t20 -5.5t19.5 -13t16.5 -23
q15 -39 -4.5 -83t-56.5 -79q-62 -63 -135 -66q-23 0 -41 10q-11 6 -16.5 15t-1.5 13t20.5 -2.5t33.5 -1.5q64 20 110 69q33 34 49.5 68.5t9.5 52.5q-6 15 -24.5 15.5t-37.5 -8t-34 -20.5q-20 -16 -34 8q-12 21 2 32q48 36 133 158q76 110 61 122q-18 14 -111 -110l-98 -135
q-17 -24 -77 -129l-75 -134q-17 -41 -17 -44q-2 -17 -20 -1q-15 11 -15 25z" />
    <glyph glyph-name="agrave" unicode="&#xe0;" horiz-adv-x="360" 
d="M222 336q22 4 47 -10t38 -41l17 22q10 13 24 2q10 -7 15.5 -20t0.5 -20q-34 -48 -62 -131q-32 -93 -4 -100q24 -5 96 84q29 36 56.5 74t33.5 51q5 8 11 6.5t10 -10.5q7 -15 1 -28q-17 -36 -70 -107q-36 -49 -64 -74q-68 -59 -111 -11q-20 23 -18 64q2 42 22 81
q-29 -42 -78 -94.5t-87 -79.5q-31 -22 -54 1q-13 13 -18.5 33t-1.5 36q18 67 73 154q70 109 123 118zM62 25q14 -10 121 111l102 122q-23 37 -38 38q-36 3 -103 -98q-24 -36 -45 -76t-31 -67t-6 -30zM384 398q5 1 6 -2t-1 -8q-9 -15 -31 -15q-21 0 -51.5 16.5t-52.5 39.5
q-48 52 -48 94q0 16 19 25q11 6 22 4t11 -13q0 -12 11.5 -36.5t31.5 -46.5q51 -58 83 -58z" />
    <glyph glyph-name="aacute" unicode="&#xe1;" horiz-adv-x="360" 
d="M222 336q22 4 47 -10t38 -41l17 22q10 13 24 2q10 -7 15.5 -20t0.5 -20q-34 -48 -62 -131q-32 -93 -4 -100q24 -5 96 84q29 36 56.5 74t33.5 51q5 8 11 6.5t10 -10.5q7 -15 1 -28q-17 -36 -70 -107q-36 -49 -64 -74q-68 -59 -111 -11q-20 23 -18 64q2 42 22 81
q-29 -42 -78 -94.5t-87 -79.5q-31 -22 -54 1q-13 13 -18.5 33t-1.5 36q18 67 73 154q70 109 123 118zM62 25q14 -10 121 111l102 122q-23 37 -38 38q-36 3 -103 -98q-24 -36 -45 -76t-31 -67t-6 -30zM312 369q-2 -7 -8.5 -5.5t-12.5 9.5q-12 14 -11 35q4 34 67 76
q15 11 31.5 19.5t27 12.5t25.5 9t17 6q13 4 24 -11q10 -14 -5 -18q-44 -14 -89 -51q-13 -11 -25.5 -25t-19 -23.5t-13.5 -21t-8 -12.5z" />
    <glyph glyph-name="acircumflex" unicode="&#xe2;" horiz-adv-x="360" 
d="M222 336q22 4 47 -10t38 -41l17 22q10 13 24 2q10 -7 15.5 -20t0.5 -20q-34 -48 -62 -131q-32 -93 -4 -100q24 -5 96 84q29 36 56.5 74t33.5 51q5 8 11 6.5t10 -10.5q7 -15 1 -28q-17 -36 -70 -107q-36 -49 -64 -74q-68 -59 -111 -11q-20 23 -18 64q2 42 22 81
q-29 -42 -78 -94.5t-87 -79.5q-31 -22 -54 1q-13 13 -18.5 33t-1.5 36q18 67 73 154q70 109 123 118zM62 25q14 -10 121 111l102 122q-23 37 -38 38q-36 3 -103 -98q-24 -36 -45 -76t-31 -67t-6 -30zM221 427q14 0 70 39q58 41 68 57q11 13 28 -4q14 -14 14 -28
q2 -19 10 -54q11 -42 26 -50q15 -6 4 -17q-15 -15 -28 -9q-18 8 -34 51q-14 37 -14 48l-48 -34q-54 -38 -64 -43q-18 -6 -32 21q-12 21 0 23z" />
    <glyph glyph-name="atilde" unicode="&#xe3;" horiz-adv-x="360" 
d="M222 336q22 4 47 -10t38 -41l17 22q10 13 24 2q10 -7 15.5 -20t0.5 -20q-34 -48 -62 -131q-32 -93 -4 -100q24 -5 96 84q29 36 56.5 74t33.5 51q5 8 11 6.5t10 -10.5q7 -15 1 -28q-17 -36 -70 -107q-36 -49 -64 -74q-68 -59 -111 -11q-20 23 -18 64q2 42 22 81
q-29 -42 -78 -94.5t-87 -79.5q-31 -22 -54 1q-13 13 -18.5 33t-1.5 36q18 67 73 154q70 109 123 118zM62 25q14 -10 121 111l102 122q-23 37 -38 38q-36 3 -103 -98q-24 -36 -45 -76t-31 -67t-6 -30zM217 431q17 21 40 33q23 11 42 7q18 -3 31 -26q15 -24 27 -27
q21 -4 39 14q12 12 10 22q0 9 10 -1q1 -1 2 -2.5t2 -3.5t2 -3q5 -37 -17 -58q-11 -11 -34 -15q-21 -3 -35 6q-12 8 -23.5 26t-19.5 20q-10 1 -23 -5q-21 -11 -33 -32q-4 -6 -10 -2.5t-10 13.5q-9 21 0 34z" />
    <glyph glyph-name="adieresis" unicode="&#xe4;" horiz-adv-x="360" 
d="M222 336q22 4 47 -10t38 -41l17 22q10 13 24 2q10 -7 15.5 -20t0.5 -20q-34 -48 -62 -131q-32 -93 -4 -100q24 -5 96 84q29 36 56.5 74t33.5 51q5 8 11 6.5t10 -10.5q7 -15 1 -28q-17 -36 -70 -107q-36 -49 -64 -74q-68 -59 -111 -11q-20 23 -18 64q2 42 22 81
q-29 -42 -78 -94.5t-87 -79.5q-31 -22 -54 1q-13 13 -18.5 33t-1.5 36q18 67 73 154q70 109 123 118zM62 25q14 -10 121 111l102 122q-23 37 -38 38q-36 3 -103 -98q-24 -36 -45 -76t-31 -67t-6 -30zM262 401q-13 -3 -20 17.5t-4 39.5q2 16 13 28.5t25 14.5q14 4 27 -9
t15 -29q0 -13 -20 -34.5t-36 -27.5zM388 467q15 0 28 -13t11 -30q-2 -11 -21 -32.5t-32 -25.5q-14 -3 -22.5 12.5t-6.5 31.5q0 15 15.5 36t27.5 21z" />
    <glyph glyph-name="aring" unicode="&#xe5;" horiz-adv-x="360" 
d="M222 336q22 4 47 -10t38 -41l17 22q10 13 24 2q10 -7 15.5 -20t0.5 -20q-34 -48 -62 -131q-32 -93 -4 -100q24 -5 96 84q29 36 56.5 74t33.5 51q5 8 11 6.5t10 -10.5q7 -15 1 -28q-17 -36 -70 -107q-36 -49 -64 -74q-68 -59 -111 -11q-20 23 -18 64q2 42 22 81
q-29 -42 -78 -94.5t-87 -79.5q-31 -22 -54 1q-13 13 -18.5 33t-1.5 36q18 67 73 154q70 109 123 118zM62 25q14 -10 121 111l102 122q-23 37 -38 38q-36 3 -103 -98q-24 -36 -45 -76t-31 -67t-6 -30zM282 446q22 33 47.5 44t40.5 7q28 0 40 -36t-4 -72q-19 -28 -50.5 -40.5
t-55.5 -4.5q-23 9 -27 45.5t9 56.5zM311 393q6 -11 29.5 -5t33.5 20q8 10 5.5 24t-12.5 18l-1 -1q-1 0 -3 2h-5q-2 0 -4 3q-5 0 -17 -6q-15 -9 -25 -27.5t-1 -27.5z" />
    <glyph glyph-name="ae" unicode="&#xe6;" horiz-adv-x="446" 
d="M302 117q-6 -1 -9 3t-3 11q-17 -46 -11.5 -82.5t31.5 -37.5q52 -4 139 83q87 86 121 153q7 14 19 2q10 -13 5 -27q-26 -68 -101 -149q-86 -94 -157 -99q-37 -2 -65 21t-36 63q-8 -19 -23 -67q-4 -13 -19 -9q-14 4 -17 20q-3 13 18 58q5 11 49 95q-41 -60 -90 -110
q-39 -41 -71 -59q-28 -16 -50 12t-14 58q11 44 76 149q78 122 119 133q22 4 45 -12.5t40 -45.5l8 -14q42 50 90 63q38 10 61 -9.5t17 -51.5q-8 -44 -72 -93q-29 -22 -59.5 -39t-40.5 -19zM55 20q8 -5 83 77q40 44 136 158q-5 13 -15.5 26.5t-20.5 15.5q-11 2 -45 -36
t-67 -88q-22 -32 -40.5 -67.5t-27 -59.5t-3.5 -26zM435 293q-11 21 -66 -35q-42 -43 -65 -93q1 1 2 1q33 11 80 53q59 54 49 74z" />
    <glyph glyph-name="ccedilla" unicode="&#xe7;" 
d="M85 -29q-4 -4 -18.5 -12.5t-25 -18t-11.5 -18.5q0 -7 17 -37q24 -46 20 -69q-5 -35 -64 -77q-46 -32 -77 -41q-11 -4 -22 15q-10 18 6 22q10 2 30.5 14.5t38.5 29.5q31 29 35 53q1 7 -1.5 14t-9.5 19t-9 17q-14 29 -7 51q6 22 45 47q15 11 29 18l-2 2q-23 31 -20 78
q5 50 46 115q68 107 134 120q23 5 45 -17q27 -25 22 -55q-2 -14 -14 -32t-24 -27q-12 -8 -23 1q-13 11 -4 26q37 59 27 66q-20 14 -56.5 -21.5t-68.5 -91.5q-24 -43 -36 -83t-4 -61q18 -46 102 18q38 29 79 75q62 69 99 134q10 17 22 5q6 -6 8 -16t-2 -18q-49 -81 -95 -134
q-80 -93 -149 -110q-34 -7 -58 3z" />
    <glyph glyph-name="egrave" unicode="&#xe8;" horiz-adv-x="263" 
d="M290 268q-8 -42 -87 -114q-60 -54 -110 -83q-2 -58 33 -60q60 -3 162 107q74 80 98 129q5 8 11 7.5t10 -7.5q7 -13 3 -25q-26 -68 -98 -146q-87 -97 -160 -102q-49 -3 -79 35q-23 29 -24.5 73.5t23.5 101.5q59 124 140 145q42 10 65 -13q19 -19 13 -48zM117 159
q-10 -22 -14 -37q50 36 97 88q60 65 51 83q-5 10 -24.5 -2t-44.5 -39q-42 -45 -65 -93zM361 380q5 1 6 -2t-1 -8q-9 -15 -31 -15q-21 0 -51.5 16.5t-52.5 39.5q-48 52 -48 94q0 16 19 25q11 6 22 4t11 -13q0 -12 11.5 -36.5t31.5 -46.5q51 -58 83 -58z" />
    <glyph glyph-name="eacute" unicode="&#xe9;" horiz-adv-x="263" 
d="M290 268q-8 -42 -87 -114q-60 -54 -110 -83q-2 -58 33 -60q60 -3 162 107q74 80 98 129q5 8 11 7.5t10 -7.5q7 -13 3 -25q-26 -68 -98 -146q-87 -97 -160 -102q-49 -3 -79 35q-23 29 -24.5 73.5t23.5 101.5q59 124 140 145q42 10 65 -13q19 -19 13 -48zM117 159
q-10 -22 -14 -37q50 36 97 88q60 65 51 83q-5 10 -24.5 -2t-44.5 -39q-42 -45 -65 -93zM253 371q-2 -7 -8.5 -5.5t-12.5 9.5q-12 14 -11 35q4 34 67 76q15 11 31.5 19.5t27 12.5t25.5 9t17 6q13 4 24 -11q10 -14 -5 -18q-44 -14 -89 -51q-13 -11 -25.5 -25t-19 -23.5
t-13.5 -21t-8 -12.5z" />
    <glyph glyph-name="ecircumflex" unicode="&#xea;" horiz-adv-x="263" 
d="M290 268q-8 -42 -87 -114q-60 -54 -110 -83q-2 -58 33 -60q60 -3 162 107q74 80 98 129q5 8 11 7.5t10 -7.5q7 -13 3 -25q-26 -68 -98 -146q-87 -97 -160 -102q-49 -3 -79 35q-23 29 -24.5 73.5t23.5 101.5q59 124 140 145q42 10 65 -13q19 -19 13 -48zM117 159
q-10 -22 -14 -37q50 36 97 88q60 65 51 83q-5 10 -24.5 -2t-44.5 -39q-42 -45 -65 -93zM149 420q14 0 70 39q58 41 68 57q11 14 28 -4q14 -14 14 -28q2 -19 10 -54q11 -42 26 -50q15 -6 4 -17q-15 -15 -28 -9q-18 8 -34 51q-14 37 -14 48l-48 -34q-54 -38 -64 -43
q-18 -6 -32 21q-12 21 0 23z" />
    <glyph glyph-name="edieresis" unicode="&#xeb;" horiz-adv-x="263" 
d="M290 268q-8 -42 -87 -114q-60 -54 -110 -83q-2 -58 33 -60q60 -3 162 107q74 80 98 129q5 8 11 7.5t10 -7.5q7 -13 3 -25q-26 -68 -98 -146q-87 -97 -160 -102q-49 -3 -79 35q-23 29 -24.5 73.5t23.5 101.5q59 124 140 145q42 10 65 -13q19 -19 13 -48zM117 159
q-10 -22 -14 -37q50 36 97 88q60 65 51 83q-5 10 -24.5 -2t-44.5 -39q-42 -45 -65 -93zM220 388q-13 -3 -20 17.5t-4 39.5q2 16 13 28.5t25 14.5q14 4 27 -9t15 -29q0 -13 -20 -34.5t-36 -27.5zM346 454q15 0 28 -13t11 -30q-2 -11 -21 -32.5t-32 -25.5q-14 -3 -22.5 12.5
t-6.5 31.5q0 15 15.5 36t27.5 21z" />
    <glyph glyph-name="igrave" unicode="&#xec;" horiz-adv-x="188" 
d="M192 280q-24 -44 -50 -116q-42 -111 -20 -123q24 -13 109 94q62 79 79 112q4 7 10 6t11 -8q8 -11 2 -27q-19 -43 -77 -118q-68 -89 -108 -95q-31 -4 -53 19q-32 35 -21 90q6 33 26 81q12 31 32.5 74l21.5 45q6 15 25 4q23 -15 13 -38zM309 385q5 1 6 -2t-1 -8
q-9 -15 -31 -15q-21 0 -51.5 16.5t-52.5 39.5q-48 52 -48 94q0 16 19 25q11 6 22 4t11 -13q0 -12 11.5 -36.5t31.5 -46.5q51 -58 83 -58z" />
    <glyph glyph-name="iacute" unicode="&#xed;" horiz-adv-x="188" 
d="M192 280q-24 -44 -50 -116q-42 -111 -20 -123q24 -13 109 94q62 79 79 112q4 7 10 6t11 -8q8 -11 2 -27q-19 -43 -77 -118q-68 -89 -108 -95q-31 -4 -53 19q-32 35 -21 90q6 33 26 81q12 31 32.5 74l21.5 45q6 15 25 4q23 -15 13 -38zM212 364q-2 -7 -8.5 -5.5t-12.5 9.5
q-12 14 -11 35q4 34 67 76q15 11 31.5 19.5t27 12.5t25.5 9t17 6q13 4 24 -11q10 -14 -5 -18q-44 -14 -89 -51q-13 -11 -25.5 -25t-19 -23.5t-13.5 -21t-8 -12.5z" />
    <glyph glyph-name="icircumflex" unicode="&#xee;" horiz-adv-x="188" 
d="M192 280q-24 -44 -50 -116q-42 -111 -20 -123q24 -13 109 94q62 79 79 112q4 7 10 6t11 -8q8 -11 2 -27q-19 -43 -77 -118q-68 -89 -108 -95q-31 -4 -53 19q-32 35 -21 90q6 33 26 81q12 31 32.5 74l21.5 45q6 15 25 4q23 -15 13 -38zM94 415q14 0 70 39q58 41 68 57
q11 13 28 -4q14 -14 14 -28q2 -19 10 -54q11 -42 26 -50q15 -6 4 -17q-15 -15 -28 -9q-18 8 -34 51q-14 37 -14 48l-48 -34q-54 -38 -64 -43q-18 -6 -32 21q-12 21 0 23z" />
    <glyph glyph-name="idieresis" unicode="&#xef;" horiz-adv-x="188" 
d="M192 280q-24 -44 -50 -116q-42 -111 -20 -123q24 -13 109 94q62 79 79 112q4 7 10 6t11 -8q8 -11 2 -27q-19 -43 -77 -118q-68 -89 -108 -95q-31 -4 -53 19q-32 35 -21 90q6 33 26 81q12 31 32.5 74l21.5 45q6 15 25 4q23 -15 13 -38zM151 392q-13 -3 -20 17.5t-4 39.5
q2 16 13 28.5t25 14.5q14 4 27 -9t15 -29q0 -13 -20 -34.5t-36 -27.5zM277 458q15 0 28 -13t11 -30q-2 -11 -21 -32.5t-32 -25.5q-14 -3 -22.5 12.5t-6.5 31.5q0 15 15.5 36t27.5 21z" />
    <glyph glyph-name="eth" unicode="&#xf0;" horiz-adv-x="266" 
d="M229 466q3 1 40 19l47 22q-3 55 -20 79q-4 5 -2.5 9t7 5t13.5 -1q13 -4 23 -14q13 -16 19 -60q39 15 50 13q9 -2 15 -13q10 -19 -6 -20q-13 -1 -55 -20q2 -83 -25 -171q-40 -126 -109 -221q-67 -91 -114 -109q-31 -11 -61 21q-34 38 -26 74q5 28 52 108q76 129 119 136
q41 7 76 -44q2 5 7.5 20l8.5 23q25 75 28 143q-16 -8 -40 -18t-31 -11q-12 -1 -20 13t4 17zM213 281q-12 -1 -37 -34t-51 -78q-31 -54 -46.5 -96t-1.5 -49q6 -3 21 6.5t38.5 33t47.5 55.5q43 58 74 126q-17 42 -45 36z" />
    <glyph glyph-name="ntilde" unicode="&#xf1;" horiz-adv-x="381" 
d="M183 271l-39 -80q-27 -56 -43 -102q41 63 120 148q70 74 105 83q21 5 38 -19q25 -35 9 -62q-27 -48 -47 -102q-32 -85 -10 -97q22 -11 101 85q65 78 88 122q3 6 9 6t11 -5q12 -12 2 -33q-27 -53 -75 -114q-51 -67 -93 -92q-43 -26 -73 12q-27 34 -19 79q9 47 37 100
q5 10 12.5 23l11 19.5l8.5 16t4.5 11.5t-1.5 7q-8 9 -39 -19.5t-80 -83.5q-47 -53 -92 -110.5t-52 -72.5q-5 -9 -22 5q-27 21 -20 46q8 27 53 129q44 98 64 130q6 11 20 -1q18 -14 12 -29zM200 421q17 21 40 33q23 11 42 7q18 -3 31 -26q15 -24 27 -27q21 -4 39 14
q12 12 10 22q0 9 10 -1l6 -9q5 -37 -17 -58q-11 -11 -34 -15q-21 -3 -35 6q-12 8 -23.5 26t-19.5 20q-10 1 -23 -5q-21 -11 -33 -32q-4 -6 -10 -2.5t-10 13.5q-9 21 0 34z" />
    <glyph glyph-name="ograve" unicode="&#xf2;" horiz-adv-x="285" 
d="M335 283q3 -35 -22 -85q-18 -38 -51 -79q43 7 87 51q31 33 55 74q8 11 14.5 10t9.5 -12q5 -16 -2 -31q-32 -56 -71 -90q-64 -57 -128 -43q-31 -33 -46 -46q-34 -29 -53 -34q-29 -7 -53 10q-29 21 -29 55q1 63 58 159q48 83 79 99q20 10 32 -8q48 43 88 27q29 -11 32 -57z
M294 291q-8 38 -45 6q-16 -12 -28 -31q-28 -41 -34 -83q-5 -40 18 -54q2 -2 3 -2q29 33 50 67q42 64 36 97zM92 32q14 -8 59 34q15 14 32 32q-18 13 -27 32q-11 21 -9 46q0 9 2 23q-32 -53 -48 -92q-28 -66 -9 -75zM391 388q5 1 6 -2t-1 -8q-9 -15 -31 -15q-21 0 -51.5 16.5
t-52.5 39.5q-48 52 -48 94q0 16 19 25q11 6 22 4t11 -13q0 -12 11.5 -36.5t31.5 -46.5q51 -58 83 -58z" />
    <glyph glyph-name="oacute" unicode="&#xf3;" horiz-adv-x="285" 
d="M335 283q3 -35 -22 -85q-18 -38 -51 -79q43 7 87 51q31 33 55 74q8 11 14.5 10t9.5 -12q5 -16 -2 -31q-32 -56 -71 -90q-64 -57 -128 -43q-31 -33 -46 -46q-34 -29 -53 -34q-29 -7 -53 10q-29 21 -29 55q1 63 58 159q48 83 79 99q20 10 32 -8q48 43 88 27q29 -11 32 -57z
M294 291q-8 38 -45 6q-16 -12 -28 -31q-28 -41 -34 -83q-5 -40 18 -54q2 -2 3 -2q29 33 50 67q42 64 36 97zM92 32q14 -8 59 34q15 14 32 32q-18 13 -27 32q-11 21 -9 46q0 9 2 23q-32 -53 -48 -92q-28 -66 -9 -75zM255 375q-2 -7 -8.5 -5.5t-12.5 9.5q-12 14 -11 35
q4 34 67 76q15 11 31.5 19.5t27 12.5t25.5 9t17 6q13 4 24 -11q10 -14 -5 -18q-44 -14 -89 -51q-13 -11 -25.5 -25t-19 -23.5t-13.5 -21t-8 -12.5z" />
    <glyph glyph-name="ocircumflex" unicode="&#xf4;" horiz-adv-x="285" 
d="M335 283q3 -35 -22 -85q-18 -38 -51 -79q43 7 87 51q31 33 55 74q8 11 14.5 10t9.5 -12q5 -16 -2 -31q-32 -56 -71 -90q-64 -57 -128 -43q-31 -33 -46 -46q-34 -29 -53 -34q-29 -7 -53 10q-29 21 -29 55q1 63 58 159q48 83 79 99q20 10 32 -8q48 43 88 27q29 -11 32 -57z
M294 291q-8 38 -45 6q-16 -12 -28 -31q-28 -41 -34 -83q-5 -40 18 -54q2 -2 3 -2q29 33 50 67q42 64 36 97zM92 32q14 -8 59 34q15 14 32 32q-18 13 -27 32q-11 21 -9 46q0 9 2 23q-32 -53 -48 -92q-28 -66 -9 -75zM169 420q14 0 70 39q58 41 68 57q11 14 28 -4
q14 -14 14 -28q2 -19 10 -54q11 -42 26 -50q15 -6 4 -17q-15 -15 -28 -9q-18 8 -34 51q-14 37 -14 48l-48 -34q-54 -38 -64 -43q-18 -6 -32 21q-12 21 0 23z" />
    <glyph glyph-name="otilde" unicode="&#xf5;" horiz-adv-x="285" 
d="M335 283q3 -35 -22 -85q-18 -38 -51 -79q43 7 87 51q31 33 55 74q8 11 14.5 10t9.5 -12q5 -16 -2 -31q-32 -56 -71 -90q-64 -57 -128 -43q-31 -33 -46 -46q-34 -29 -53 -34q-29 -7 -53 10q-29 21 -29 55q1 63 58 159q48 83 79 99q20 10 32 -8q48 43 88 27q29 -11 32 -57z
M294 291q-8 38 -45 6q-16 -12 -28 -31q-28 -41 -34 -83q-5 -40 18 -54q2 -2 3 -2q29 33 50 67q42 64 36 97zM92 32q14 -8 59 34q15 14 32 32q-18 13 -27 32q-11 21 -9 46q0 9 2 23q-32 -53 -48 -92q-28 -66 -9 -75zM183 425q17 21 40 33q23 11 42 7q18 -3 31 -26
q15 -24 27 -27q21 -4 39 14q12 12 10 22q0 9 10 -1q1 -1 2 -2.5t2 -3.5t2 -3q5 -37 -17 -58q-11 -11 -34 -15q-21 -3 -35 6q-12 8 -23.5 26t-19.5 20q-10 1 -23 -5q-21 -11 -33 -32q-4 -6 -10 -2.5t-10 13.5q-9 21 0 34z" />
    <glyph glyph-name="odieresis" unicode="&#xf6;" horiz-adv-x="285" 
d="M335 283q3 -35 -22 -85q-18 -38 -51 -79q43 7 87 51q31 33 55 74q8 11 14.5 10t9.5 -12q5 -16 -2 -31q-32 -56 -71 -90q-64 -57 -128 -43q-31 -33 -46 -46q-34 -29 -53 -34q-29 -7 -53 10q-29 21 -29 55q1 63 58 159q48 83 79 99q20 10 32 -8q48 43 88 27q29 -11 32 -57z
M294 291q-8 38 -45 6q-16 -12 -28 -31q-28 -41 -34 -83q-5 -40 18 -54q2 -2 3 -2q29 33 50 67q42 64 36 97zM92 32q14 -8 59 34q15 14 32 32q-18 13 -27 32q-11 21 -9 46q0 9 2 23q-32 -53 -48 -92q-28 -66 -9 -75zM237 397q-13 -3 -20 17.5t-4 39.5q2 16 13 28.5t25 14.5
q14 4 27 -9t15 -29q0 -13 -20 -34.5t-36 -27.5zM363 463q15 0 28 -13t11 -30q-2 -11 -21 -32.5t-32 -25.5q-14 -3 -22.5 12.5t-6.5 31.5q0 15 15.5 36t27.5 21z" />
    <glyph glyph-name="divide" unicode="&#xf7;" horiz-adv-x="498" 
d="M149 306q8 2 28 2.5t57 0t99 0.5q18 0 43.5 -0.5t37.5 -0.5t28.5 -0.5t24.5 -1.5t18 -2t16.5 -3t12.5 -5q20 -11 24 -30q2 -6 -1.5 -10t-11.5 -3q-27 -2 -192 -2q-43 0 -91 -2.5t-64 -1.5q-19 0 -32 23q-16 29 3 36zM370 367q-25 -6 -40 25q-18 31 14 40q14 8 34 5
t27 -18q5 -10 -11 -30.5t-24 -21.5zM256 170q57 7 72 -10q14 -13 -5 -29t-37 -17q-35 -14 -51 5q-10 8 -4 27t25 24z" />
    <glyph glyph-name="oslash" unicode="&#xf8;" horiz-adv-x="274" 
d="M322 276q8 -70 -85 -179q-31 -37 -62 -63t-48 -31q-27 -7 -50 9q-29 19 -29 53q1 55 44 135q22 41 47 74t39 41q11 5 16 4q24 13 52 14.5t50.5 -13t25.5 -44.5zM82 50q3 -7 8 -9q14 -8 44.5 13.5t64.5 59.5q55 62 76 117q-25 -19 -91 -81zM282 286q-4 14 -19 16.5
t-31 -5.5q-37 -17 -43 -46q-1 -9 -13 -3q-54 -71 -81 -135l24.5 25l34 34.5l31.5 30.5q69 67 97 83z" />
    <glyph glyph-name="ugrave" unicode="&#xf9;" horiz-adv-x="388" 
d="M163 320q11 18 30 -3q18 -20 6 -36q-29 -35 -73 -127q-12 -24 -20 -45t-12.5 -39t-2.5 -29t11 -12q21 -3 99 98q68 87 114 156q11 17 36 -2q26 -20 16 -36q-23 -33 -40 -108q-21 -89 3 -96q24 -6 119 116q57 75 65 90q7 11 16 0q15 -15 6 -32q-16 -32 -61 -94
q-69 -95 -115 -113q-26 -11 -49.5 0.5t-33.5 39.5q-9 28 -2 67q2 15 6 31t7 24l3 8q-24 -41 -69 -98q-54 -68 -91 -89q-33 -18 -60 20q-23 31 -18 70q6 42 31 98q19 42 79 141zM386 374q5 1 6 -2t-1 -8q-9 -15 -31 -15q-21 0 -51.5 16.5t-52.5 39.5q-48 52 -48 94
q0 16 19 25q11 6 22 4t11 -13q0 -12 11.5 -36.5t31.5 -46.5q51 -58 83 -58z" />
    <glyph glyph-name="uacute" unicode="&#xfa;" horiz-adv-x="388" 
d="M163 320q11 18 30 -3q18 -20 6 -36q-29 -35 -73 -127q-12 -24 -20 -45t-12.5 -39t-2.5 -29t11 -12q21 -3 99 98q68 87 114 156q11 17 36 -2q26 -20 16 -36q-23 -33 -40 -108q-21 -89 3 -96q24 -6 119 116q57 75 65 90q7 11 16 0q15 -15 6 -32q-16 -32 -61 -94
q-69 -95 -115 -113q-26 -11 -49.5 0.5t-33.5 39.5q-9 28 -2 67q2 15 6 31t7 24l3 8q-24 -41 -69 -98q-54 -68 -91 -89q-33 -18 -60 20q-23 31 -18 70q6 42 31 98q19 42 79 141zM276 330q-2 -7 -8.5 -5.5t-12.5 9.5q-12 14 -11 35q4 34 67 76q15 11 31.5 19.5t27 12.5t25.5 9
t17 6q13 4 24 -11q10 -14 -5 -18q-44 -14 -89 -51q-13 -11 -25.5 -25t-19 -23.5t-13.5 -21t-8 -12.5z" />
    <glyph glyph-name="ucircumflex" unicode="&#xfb;" horiz-adv-x="388" 
d="M163 320q11 18 30 -3q18 -20 6 -36q-29 -35 -73 -127q-12 -24 -20 -45t-12.5 -39t-2.5 -29t11 -12q21 -3 99 98q68 87 114 156q11 17 36 -2q26 -20 16 -36q-23 -33 -40 -108q-21 -89 3 -96q24 -6 119 116q57 75 65 90q7 11 16 0q15 -15 6 -32q-16 -32 -61 -94
q-69 -95 -115 -113q-26 -11 -49.5 0.5t-33.5 39.5q-9 28 -2 67q2 15 6 31t7 24l3 8q-24 -41 -69 -98q-54 -68 -91 -89q-33 -18 -60 20q-23 31 -18 70q6 42 31 98q19 42 79 141zM191 428q14 0 70 39q58 41 68 57q11 14 28 -4q14 -14 14 -28q2 -19 10 -54q11 -42 26 -50
q15 -6 4 -17q-15 -15 -28 -9q-18 8 -34 51q-14 37 -14 48l-48 -34q-54 -38 -64 -43q-18 -6 -32 21q-12 21 0 23z" />
    <glyph glyph-name="udieresis" unicode="&#xfc;" horiz-adv-x="388" 
d="M163 320q11 18 30 -3q18 -20 6 -36q-29 -35 -73 -127q-12 -24 -20 -45t-12.5 -39t-2.5 -29t11 -12q21 -3 99 98q68 87 114 156q11 17 36 -2q26 -20 16 -36q-23 -33 -40 -108q-21 -89 3 -96q24 -6 119 116q57 75 65 90q7 11 16 0q15 -15 6 -32q-16 -32 -61 -94
q-69 -95 -115 -113q-26 -11 -49.5 0.5t-33.5 39.5q-9 28 -2 67q2 15 6 31t7 24l3 8q-24 -41 -69 -98q-54 -68 -91 -89q-33 -18 -60 20q-23 31 -18 70q6 42 31 98q19 42 79 141zM237 386q-13 -3 -20 17.5t-4 39.5q2 16 13 28.5t25 14.5q14 4 27 -9t15 -29q0 -13 -20 -34.5
t-36 -27.5zM363 452q15 0 28 -13t11 -30q-2 -11 -21 -32.5t-32 -25.5q-14 -3 -22.5 12.5t-6.5 31.5q0 15 15.5 36t27.5 21z" />
    <glyph glyph-name="yacute" unicode="&#xfd;" horiz-adv-x="372" 
d="M150 0q-50 -25 -75 19q-19 33 -9 82q10 44 35 100q16 35 70 136q8 13 29 -10q19 -19 10 -32q-22 -31 -62 -115q-63 -132 -43 -150t160 151q65 79 109 138q9 13 30 -8q20 -20 11 -35q-19 -31 -60 -124l-57 -131q57 46 108 104q55 62 90 122q4 6 9.5 5.5t9.5 -6.5
q11 -17 1 -34q-41 -76 -98 -136q-40 -43 -106 -97q-9 -8 -26 -20.5t-23 -17.5q-32 -70 -65 -116q-43 -62 -81 -84q-45 -24 -85 1q-22 14 -26 37t15 47q24 27 80 63l61 39l68 44q8 20 13 30q48 116 64 163q-13 -21 -63 -79q-59 -68 -94 -86zM57 -198q-13 -14 -8 -24.5
t25 -6.5q29 5 65 46q30 35 51 75l-45.5 -28.5t-39 -24.5l-27.5 -19t-21 -18zM309 386q-2 -7 -8.5 -5.5t-12.5 9.5q-12 14 -11 35q4 34 67 76q15 11 31.5 19.5t27 12.5t25.5 9t17 6q13 4 24 -11q10 -14 -5 -18q-44 -14 -89 -51q-13 -11 -25.5 -25t-19 -23.5t-13.5 -21
t-8 -12.5z" />
    <glyph glyph-name="thorn" unicode="&#xfe;" horiz-adv-x="285" 
d="M305 548q-12 -19 -57 -118l-52 -119q24 24 58 34q32 8 56 -12q25 -19 28 -55q5 -58 -64 -160q-73 -109 -127 -127q-41 -13 -75 21l-45 -117q-32 -87 -33 -104q-1 -11 -5.5 -14t-10 1t-10.5 13q-9 17 -8 36q1 22 59 168l110 268l82 192l24.5 55l21.5 49t11 26q7 16 24 3
q9 -8 13.5 -19.5t-0.5 -20.5zM191 245q-12 -22 -26 -5l-10 -25l-72 -175q9 -11 28 -12q20 -2 55 31t76 93q31 45 47.5 87.5t4.5 60.5q-6 7 -24.5 1.5t-39.5 -19.5q-26 -16 -39 -37z" />
    <glyph glyph-name="ydieresis" unicode="&#xff;" horiz-adv-x="372" 
d="M150 0q-50 -25 -75 19q-19 33 -9 82q10 44 35 100q16 35 70 136q8 13 29 -10q19 -19 10 -32q-22 -31 -62 -115q-63 -132 -43 -150t160 151q65 79 109 138q9 13 30 -8q20 -20 11 -35q-19 -31 -60 -124l-57 -131q57 46 108 104q55 62 90 122q4 6 9.5 5.5t9.5 -6.5
q11 -17 1 -34q-41 -76 -98 -136q-40 -43 -106 -97q-9 -8 -26 -20.5t-23 -17.5q-32 -70 -65 -116q-43 -62 -81 -84q-45 -24 -85 1q-22 14 -26 37t15 47q24 27 80 63l61 39l68 44q8 20 13 30q48 116 64 163q-13 -21 -63 -79q-59 -68 -94 -86zM57 -198q-13 -14 -8 -24.5
t25 -6.5q29 5 65 46q30 35 51 75l-45.5 -28.5t-39 -24.5l-27.5 -19t-21 -18zM256 407q-13 -3 -20 17.5t-4 39.5q2 16 13 28.5t25 14.5q14 4 27 -9t15 -29q0 -13 -20 -34.5t-36 -27.5zM382 473q15 0 28 -13t11 -30q-2 -11 -21 -32.5t-32 -25.5q-14 -3 -22.5 12.5t-6.5 31.5
q0 15 15.5 36t27.5 21z" />
    <glyph glyph-name="Amacron" unicode="&#x100;" horiz-adv-x="561" 
d="M536 517q17 -30 30 -64l23 32q6 7 14.5 4.5t16.5 -12.5q17 -21 6 -37q-21 -31 -56.5 -92.5t-52.5 -101.5q-19 -43 -38 -103q-39 -123 -15 -135q25 -13 127 111q65 79 90 123q12 22 22 5q10 -15 2 -32q-19 -45 -93 -136q-63 -79 -102 -102q-30 -17 -62.5 2.5t-36.5 62.5
q-4 33 9 88q15 63 40 112q-1 -1 -11.5 -15.5l-23.5 -31.5l-31.5 -40l-41.5 -50t-46 -51q-97 -103 -180 -150q-31 -17 -62 -2q-36 18 -50 64q-12 43 21.5 144t94.5 197q73 114 143 184t119 91q48 20 85 -2.5t59 -62.5zM72 -63q47 -15 205 159q121 134 255 312
q-20 117 -79 135q-33 10 -114.5 -60.5t-166.5 -205.5q-69 -109 -102 -217.5t2 -122.5zM443 711q5 1 104 -21q85 -17 100 -29q12 -8 14 -21q2 -16 -11 -17q-6 1 -41.5 9t-61.5 13q-68 12 -91 21q-13 6 -20 22q-10 21 7 23z" />
    <glyph glyph-name="amacron" unicode="&#x101;" horiz-adv-x="360" 
d="M222 471q5 1 104 -21q85 -17 100 -29q12 -8 14 -21q2 -16 -11 -17q-6 1 -41.5 9t-61.5 13q-68 12 -91 21q-13 6 -20 22q-10 21 7 23zM222 336q22 4 47 -10t38 -41l17 22q10 13 24 2q10 -7 15.5 -20t0.5 -20q-34 -48 -62 -131q-32 -93 -4 -100q24 -5 96 84q29 36 56.5 74
t33.5 51q5 8 11 6.5t10 -10.5q7 -15 1 -28q-17 -36 -70 -107q-36 -49 -64 -74q-68 -59 -111 -11q-20 23 -18 64q2 42 22 81q-29 -42 -78 -94.5t-87 -79.5q-31 -22 -54 1q-13 13 -18.5 33t-1.5 36q18 67 73 154q70 109 123 118zM62 25q14 -10 121 111l102 122q-23 37 -38 38
q-36 3 -103 -98q-24 -36 -45 -76t-31 -67t-6 -30z" />
    <glyph glyph-name="Abreve" unicode="&#x102;" horiz-adv-x="561" 
d="M536 517q17 -30 30 -64l23 32q6 7 14.5 4.5t16.5 -12.5q17 -21 6 -37q-21 -31 -56.5 -92.5t-52.5 -101.5q-19 -43 -38 -103q-39 -123 -15 -135q25 -13 127 111q65 79 90 123q12 22 22 5q10 -15 2 -32q-19 -45 -93 -136q-63 -79 -102 -102q-30 -17 -62.5 2.5t-36.5 62.5
q-4 33 9 88q15 63 40 112q-1 -1 -11.5 -15.5l-23.5 -31.5l-31.5 -40l-41.5 -50t-46 -51q-97 -103 -180 -150q-31 -17 -62 -2q-36 18 -50 64q-12 43 21.5 144t94.5 197q73 114 143 184t119 91q48 20 85 -2.5t59 -62.5zM72 -63q47 -15 205 159q121 134 255 312
q-20 117 -79 135q-33 10 -114.5 -60.5t-166.5 -205.5q-69 -109 -102 -217.5t2 -122.5zM545 701q-6 -6 -9 -17t2.5 -21.5t22.5 -11.5q29 -1 52.5 20.5t29.5 38.5q4 11 13 9q11 -2 12 -17q0 -16 -12.5 -38.5t-35.5 -38.5q-30 -18 -59.5 -17t-47.5 16q-17 15 -18.5 38.5t6 40.5
t14.5 22q10 8 23 -3q16 -12 7 -21z" />
    <glyph glyph-name="abreve" unicode="&#x103;" horiz-adv-x="360" 
d="M222 336q22 4 47 -10t38 -41l17 22q10 13 24 2q10 -7 15.5 -20t0.5 -20q-34 -48 -62 -131q-32 -93 -4 -100q24 -5 96 84q29 36 56.5 74t33.5 51q5 8 11 6.5t10 -10.5q7 -15 1 -28q-17 -36 -70 -107q-36 -49 -64 -74q-68 -59 -111 -11q-20 23 -18 64q2 42 22 81
q-29 -42 -78 -94.5t-87 -79.5q-31 -22 -54 1q-13 13 -18.5 33t-1.5 36q18 67 73 154q70 109 123 118zM62 25q14 -10 121 111l102 122q-23 37 -38 38q-36 3 -103 -98q-24 -36 -45 -76t-31 -67t-6 -30zM299 466q-6 -6 -9 -17t2.5 -21.5t22.5 -11.5q29 -1 52.5 20.5t29.5 38.5
q4 11 13 9q11 -2 12 -17q0 -16 -12.5 -38.5t-35.5 -38.5q-30 -18 -59.5 -17t-47.5 16q-17 15 -18.5 38.5t6 40.5t14.5 22q10 8 23 -3q16 -12 7 -21z" />
    <glyph glyph-name="Aogonek" unicode="&#x104;" horiz-adv-x="561" 
d="M536 517q17 -30 30 -64l23 32q6 7 14.5 4.5t16.5 -12.5q17 -21 6 -37q-21 -31 -56.5 -92.5t-52.5 -101.5q-19 -43 -38 -103q-39 -123 -15 -135q25 -13 127 111q65 79 90 123q12 22 22 5q10 -15 2 -32q-19 -45 -93 -136q-63 -79 -102 -102q-8 -4 -12 -5q-20 -18 -34 -34
q-34 -40 -34 -68q1 -20 27 -31q17 -7 36 -7q10 -2 6 -16q-2 -14 -18 -14q-20 -3 -45 5q-32 10 -49 31q-13 17 -12 43q2 24 18 47q11 15 50 48l4 4q-32 21 -36 62q-4 33 9 88q15 63 40 112q-1 -1 -11.5 -15.5l-23.5 -31.5l-31.5 -40l-41.5 -50t-46 -51q-97 -103 -180 -150
q-31 -17 -62 -2q-36 18 -50 64q-12 43 21.5 144t94.5 197q73 114 143 184t119 91q48 20 85 -2.5t59 -62.5zM72 -63q47 -15 205 159q121 134 255 312q-20 117 -79 135q-33 10 -114.5 -60.5t-166.5 -205.5q-69 -109 -102 -217.5t2 -122.5z" />
    <glyph glyph-name="aogonek" unicode="&#x105;" horiz-adv-x="360" 
d="M222 336q22 4 47 -10t38 -41l17 22q10 13 24 2q10 -7 15.5 -20t0.5 -20q-34 -48 -62 -131q-32 -93 -4 -100q24 -5 96 84q29 36 56.5 74t33.5 51q5 8 11 6.5t10 -10.5q7 -15 1 -28q-17 -36 -70 -107q-36 -49 -64 -74q-22 -17 -25 -19q-21 -16 -40 -38q-34 -40 -34 -68
q1 -20 27 -31q18 -7 36 -7q10 -2 6 -16q-2 -14 -18 -14q-20 -3 -45 5q-32 10 -49 31q-13 17 -12 43q2 24 18 47q12 16 42 41q-10 7 -17 15q-20 23 -18 64q2 42 22 81q-29 -42 -78 -94.5t-87 -79.5q-31 -22 -54 1q-13 13 -18.5 33t-1.5 36q18 67 73 154q70 109 123 118z
M62 25q14 -10 121 111l102 122q-23 37 -38 38q-36 3 -103 -98q-24 -36 -45 -76t-31 -67t-6 -30z" />
    <glyph glyph-name="Cacute" unicode="&#x106;" horiz-adv-x="456" 
d="M498 442q-14 -19 -28 1t-6 36q15 38 20 53q16 51 -1 59q-15 7 -52.5 -15t-84.5 -65q-76 -70 -140 -163q-78 -112 -109 -211q-43 -135 9 -188q75 -77 259 58q58 43 148 149q51 62 70 91q12 19 21 3q8 -17 1 -35q-7 -20 -61 -89q-47 -62 -101 -112q-125 -114 -228 -125
q-78 -8 -131 35q-50 41 -55 107q-9 136 121 327q80 118 155 187t126 85q36 11 70 -18q30 -25 35 -55q3 -23 -11 -59q-10 -26 -27 -56zM530 661q-2 -7 -8.5 -5.5t-12.5 9.5q-12 14 -11 35q4 34 67 76q15 11 31.5 19.5t27 12.5t25.5 9t17 6q13 4 24 -11q10 -14 -5 -18
q-44 -14 -89 -51q-13 -11 -25.5 -25t-19 -23.5t-13.5 -21t-8 -12.5z" />
    <glyph glyph-name="cacute" unicode="&#x107;" 
d="M219 313q23 5 45 -17q27 -25 22 -55q-2 -14 -14 -32t-24 -27q-12 -8 -23 1q-13 11 -4 26q37 59 27 66q-20 14 -56.5 -21.5t-68.5 -91.5q-24 -43 -36 -83t-4 -61q18 -46 102 18q38 29 79 75q62 69 99 134q10 17 22 5q6 -6 8 -16t-2 -18q-49 -81 -95 -134
q-80 -93 -149 -110q-57 -14 -88 28q-23 31 -20 78q5 50 46 115q68 107 134 120zM290 350q-2 -7 -8.5 -5.5t-12.5 9.5q-12 14 -11 35q4 34 67 76q15 11 31.5 19.5t27 12.5t25.5 9t17 6q13 4 24 -11q10 -14 -5 -18q-44 -14 -89 -51q-13 -11 -25.5 -25t-19 -23.5t-13.5 -21
t-8 -12.5z" />
    <glyph glyph-name="Ccircumflex" unicode="&#x108;" horiz-adv-x="456" 
d="M498 442q-14 -19 -28 1t-6 36q15 38 20 53q16 51 -1 59q-15 7 -52.5 -15t-84.5 -65q-76 -70 -140 -163q-78 -112 -109 -211q-43 -135 9 -188q75 -77 259 58q65 49 147 148q52 62 71 92q12 19 21 3q8 -17 1 -35q-8 -21 -52 -77q-63 -81 -110 -124q-125 -114 -228 -125
q-78 -8 -131 35q-50 41 -55 107q-9 136 121 327q80 118 155 187t126 85q36 11 70 -18q30 -25 35 -55q3 -23 -11 -59q-10 -26 -27 -56zM367 725q14 0 70 39q58 41 68 57q11 13 28 -4q14 -14 14 -28q2 -19 10 -54q11 -42 26 -50q15 -6 4 -17q-15 -15 -28 -9q-18 8 -34 51
q-14 37 -14 48l-48 -34q-54 -38 -64 -43q-18 -6 -32 21q-12 21 0 23z" />
    <glyph glyph-name="ccircumflex" unicode="&#x109;" 
d="M143 402q14 0 70 39q58 41 68 57q11 14 28 -4q14 -14 14 -28q2 -19 10 -54q11 -42 26 -50q15 -6 4 -17q-15 -15 -28 -9q-18 8 -34 51q-14 37 -14 48l-48 -34q-54 -38 -64 -43q-18 -6 -32 21q-12 21 0 23zM219 313q23 5 45 -17q27 -25 22 -55q-2 -14 -14 -32t-24 -27
q-12 -8 -23 1q-13 11 -4 26q37 59 27 66q-20 14 -56.5 -21.5t-68.5 -91.5q-24 -43 -36 -83t-4 -61q18 -46 102 18q38 29 79 75q62 69 99 134q10 17 22 5q6 -6 8 -16t-2 -18q-49 -81 -95 -134q-80 -93 -149 -110q-57 -14 -88 28q-23 31 -20 78q5 50 46 115q68 107 134 120z
" />
    <glyph glyph-name="Cdotaccent" unicode="&#x10a;" horiz-adv-x="456" 
d="M498 442q-14 -19 -28 1t-6 36q15 38 20 53q16 51 -1 59q-15 7 -52.5 -15t-84.5 -65q-76 -70 -140 -163q-78 -112 -109 -211q-43 -135 9 -188q75 -77 259 58q73 55 166 170q40 49 52 70q12 19 21 3q8 -17 1 -35q-4 -13 -39 -59q-64 -87 -123 -142q-125 -114 -228 -125
q-78 -8 -131 35q-50 41 -55 107q-9 136 121 327q80 118 155 187t126 85q36 11 70 -18q30 -25 35 -55q3 -23 -11 -59q-10 -26 -27 -56zM513 743q4 3 33 2.5t39 -12.5q14 -13 -4.5 -28.5t-36.5 -17.5q-36 -12 -52 5q-10 8 -4 27.5t25 23.5z" />
    <glyph glyph-name="cdotaccent" unicode="&#x10b;" 
d="M219 313q23 5 45 -17q27 -25 22 -55q-2 -14 -14 -32t-24 -27q-12 -8 -23 1q-13 11 -4 26q37 59 27 66q-20 14 -56.5 -21.5t-68.5 -91.5q-24 -43 -36 -83t-4 -61q18 -46 102 18q38 29 79 75q62 69 99 134q10 17 22 5q6 -6 8 -16t-2 -18q-49 -81 -95 -134
q-80 -93 -149 -110q-57 -14 -88 28q-23 31 -20 78q5 50 46 115q68 107 134 120zM284 409q4 3 33 2.5t39 -12.5q14 -13 -4.5 -28.5t-36.5 -17.5q-36 -12 -52 5q-10 8 -4 27.5t25 23.5z" />
    <glyph glyph-name="Ccaron" unicode="&#x10c;" horiz-adv-x="456" 
d="M498 442q-14 -19 -28 1t-6 36q15 38 20 53q16 51 -1 59q-15 7 -52.5 -15t-84.5 -65q-76 -70 -140 -163q-78 -112 -109 -211q-43 -135 9 -188q75 -77 259 58q61 44 136 134q59 70 82 106q12 19 21 3q8 -17 1 -35q-6 -19 -65 -93q-61 -76 -97 -108q-125 -114 -228 -125
q-78 -8 -131 35q-50 41 -55 107q-9 136 121 327q80 118 155 187t126 85q36 11 70 -18q30 -25 35 -55q3 -23 -11 -59q-10 -26 -27 -56zM531 771q-10 -21 -5 -47q3 -10 8 -9q11 1 67 36q48 29 58 39q3 3 8.5 0.5t7.5 -8.5q6 -12 -5 -24q-11 -14 -52 -44q-51 -38 -68 -47
q-36 -21 -56 8q-12 17 -12 51q0 39 9 58q4 12 21 6q24 -9 19 -19z" />
    <glyph glyph-name="ccaron" unicode="&#x10d;" 
d="M219 313q23 5 45 -17q27 -25 22 -55q-2 -14 -14 -32t-24 -27q-12 -8 -23 1q-13 11 -4 26q37 59 27 66q-20 14 -56.5 -21.5t-68.5 -91.5q-24 -43 -36 -83t-4 -61q18 -46 102 18q38 29 79 75q62 69 99 134q10 17 22 5q6 -6 8 -16t-2 -18q-49 -81 -95 -134
q-80 -93 -149 -110q-57 -14 -88 28q-23 31 -20 78q5 50 46 115q68 107 134 120zM292 443q-10 -21 -5 -47q3 -10 8 -9q11 1 67 36q48 29 58 39q3 3 8.5 0.5t7.5 -8.5q6 -12 -5 -24q-11 -14 -52 -44q-51 -38 -68 -47q-36 -21 -56 8q-12 17 -12 51q0 39 9 58q4 12 21 6
q24 -9 19 -19z" />
    <glyph glyph-name="Dcaron" unicode="&#x10e;" horiz-adv-x="521" 
d="M273 595q-120 -9 -222 -70q-67 -40 -67 -58q0 -13 -7.5 -13t-15.5 9q-20 20 -13 38q9 23 67 59q100 63 225 76q165 17 258 -39.5t102 -164.5q7 -85 -49 -190.5t-148 -176.5q-168 -131 -293 -127q-40 2 -64 29q-24 28 -17 65q18 88 103 258q111 224 116 261q2 15 22 -2
q5 -4 9 -9q17 -21 10 -39q-21 -58 -109 -231q-123 -242 -101 -285q9 -20 80.5 2t141.5 69q231 155 252 356q5 49 -9 85t-41.5 55.5t-65 31.5t-79.5 12.5t-85 -1.5zM421 781q-10 -21 -5 -47q3 -10 8 -9q11 1 67 36q48 29 58 39q3 3 8.5 0.5t7.5 -8.5q6 -12 -5 -24
q-11 -14 -52 -44q-51 -38 -68 -47q-36 -21 -56 8q-12 17 -12 51q0 39 9 58q4 12 21 6q24 -9 19 -19z" />
    <glyph glyph-name="dcaron" unicode="&#x10f;" horiz-adv-x="683" 
d="M216 331q45 12 68 -42q40 72 72 148l32 78.5t22 53.5q12 26 30 3q15 -23 5 -54q-13 -36 -62 -135l-57 -114q-17 -29 -43 -119q-27 -97 -5 -103t93 78q59 68 90 122q9 14 18 3q12 -17 1 -41q-18 -36 -65 -99q-52 -68 -86 -88q-38 -21 -67 -7q-23 11 -31 39q-12 39 6 86
q-24 -32 -52 -64q-58 -68 -101 -95q-20 -12 -49 13q-26 23 -26 51q1 23 25.5 70t59.5 96q77 108 122 120zM249 231l16 26q-5 32 -22 32q-38 -3 -109 -106q-39 -57 -63.5 -108t-13.5 -55q24 -11 118 108q31 38 74 103zM510 629q-3 7 8 9q9 0 21 -3q17 -5 25 -16
q9 -19 5.5 -47t-13.5 -53q-30 -97 -67 -120q-14 -12 -30 -2t-5 21q26 37 46 97q12 36 14 71.5t-4 42.5z" />
    <glyph glyph-name="Dcroat" unicode="&#x110;" horiz-adv-x="521" 
d="M273 595q-115 -10 -211 -63q-35 -19 -56.5 -37.5t-21.5 -27.5q0 -13 -7.5 -13t-15.5 9q-20 20 -13 38q4 10 28.5 30.5t61.5 41.5q94 52 202 63q165 17 258 -39.5t102 -164.5q7 -85 -49 -190.5t-148 -176.5q-168 -131 -293 -127q-40 2 -64 29q-24 28 -17 65q8 39 31 97
q30 74 57 131q-58 -2 -59 -2q-17 0 -30 19q-16 24 3 32q9 2 111 2l55 113q47 100 51 127q2 15 22 -2q5 -4 9 -9q17 -21 10 -39q-14 -38 -48 -109l-40 -81q109 -1 131 -12q20 -11 22 -26q1 -5 -2.5 -7.5t-10.5 -1.5q-25 -2 -164 -2h-1q-42 -84 -61 -128q-51 -118 -36 -149
q9 -20 80.5 2t141.5 69q231 155 252 356q5 49 -9 85t-41.5 55.5t-65 31.5t-79.5 12.5t-85 -1.5z" />
    <glyph glyph-name="dcroat" unicode="&#x111;" horiz-adv-x="338" 
d="M233 464q9 2 110 -1q4 -1 12 -1h12l18 45l16 40l9 22q12 26 30 3q15 -23 5 -54q-6 -19 -25 -58q43 -3 55 -3q13 -1 19 -15q4 -9 0.5 -18t-14.5 -9h-81l-16 -32l-57 -114q-17 -29 -43 -119q-27 -97 -5 -103t93 78q59 68 90 122q9 14 18 3q12 -17 1 -41q-18 -36 -65 -99
q-52 -68 -86 -88q-38 -21 -67 -7q-23 11 -31 39q-12 39 6 86q-24 -32 -52 -64q-58 -68 -101 -95q-20 -12 -49 13q-26 23 -26 51q1 23 25.5 70t59.5 96q77 108 122 120t68 -42q31 55 62 126q-25 0 -46 0.5t-32 1t-12 0.5q-17 0 -27 20q-10 24 4 27zM249 231l16 26
q-5 32 -22 32q-38 -3 -109 -106q-39 -57 -63.5 -108t-13.5 -55q24 -11 118 108q31 38 74 103z" />
    <glyph glyph-name="Emacron" unicode="&#x112;" horiz-adv-x="438" 
d="M522 608q9 -9 3 -19q-5 -7 -12.5 -9t-11.5 3q-19 20 -41 19q-49 0 -141 -77q-61 -51 -84 -97t-1 -69q14 -15 57 -30q61 32 90 35q39 3 54 -17q8 -11 -1 -20q-14 -14 -47 -28t-73 -13q-116 -62 -195 -137q-45 -41 -72 -82q-30 -47 -33 -84.5t22 -52.5q26 -21 99 -5.5
t157 66.5q97 58 178 142q44 47 90 114q10 14 17 0q10 -20 0 -40q-46 -89 -159 -184q-129 -109 -261 -141q-85 -21 -138 15q-42 28 -51 87q-8 62 53 140q34 42 82 80q70 56 140 97q-44 18 -61 51t-5 67q23 66 116 146q46 40 90 65t70 24q7 0 13.5 -1t12.5 -4.5l9.5 -5.5
t9.5 -8l8 -8t8.5 -10t7.5 -9zM406 769q5 1 104 -21q85 -17 100 -29q12 -8 14 -21q2 -16 -11 -17q-6 1 -41.5 9t-61.5 13q-68 12 -91 21q-13 6 -20 22q-10 21 7 23z" />
    <glyph glyph-name="emacron" unicode="&#x113;" horiz-adv-x="263" 
d="M290 268q-8 -42 -87 -114q-60 -54 -110 -83q-2 -58 33 -60q60 -3 162 107q74 80 98 129q5 8 11 7.5t10 -7.5q7 -13 3 -25q-26 -68 -98 -146q-87 -97 -160 -102q-49 -3 -79 35q-23 29 -24.5 73.5t23.5 101.5q59 124 140 145q42 10 65 -13q19 -19 13 -48zM117 159
q-10 -22 -14 -37q50 36 97 88q60 65 51 83q-5 10 -24.5 -2t-44.5 -39q-42 -45 -65 -93zM167 460q5 1 104 -21q85 -17 100 -29q12 -8 14 -21q2 -16 -11 -17q-6 1 -41.5 9t-61.5 13q-68 12 -91 21q-13 6 -20 22q-10 21 7 23z" />
    <glyph glyph-name="Ebreve" unicode="&#x114;" horiz-adv-x="438" 
d="M522 608q9 -9 3 -19q-5 -7 -12.5 -9t-11.5 3q-19 20 -41 19q-49 0 -141 -77q-61 -51 -84 -97t-1 -69q14 -15 57 -30q61 32 90 35q39 3 54 -17q8 -11 -1 -20q-14 -14 -47 -28t-73 -13q-116 -62 -195 -137q-45 -41 -72 -82q-30 -47 -33 -84.5t22 -52.5q26 -21 99 -5.5
t157 66.5q97 58 178 142q44 47 90 114q10 14 17 0q10 -20 0 -40q-46 -89 -159 -184q-129 -109 -261 -141q-85 -21 -138 15q-42 28 -51 87q-8 62 53 140q34 42 82 80q70 56 140 97q-44 18 -61 51t-5 67q23 66 116 146q46 40 90 65t70 24q7 0 13.5 -1t12.5 -4.5l9.5 -5.5
t9.5 -8l8 -8t8.5 -10t7.5 -9zM502 778q-6 -6 -9 -17t2.5 -21.5t22.5 -11.5q29 -1 52.5 20.5t29.5 38.5q4 11 13 9q11 -2 12 -17q0 -16 -12.5 -38.5t-35.5 -38.5q-30 -18 -59.5 -17t-47.5 16q-17 15 -18.5 38.5t6 40.5t14.5 22q10 8 23 -3q16 -12 7 -21z" />
    <glyph glyph-name="ebreve" unicode="&#x115;" horiz-adv-x="263" 
d="M290 268q-8 -42 -87 -114q-60 -54 -110 -83q-2 -58 33 -60q60 -3 162 107q74 80 98 129q5 8 11 7.5t10 -7.5q7 -13 3 -25q-26 -68 -98 -146q-87 -97 -160 -102q-49 -3 -79 35q-23 29 -24.5 73.5t23.5 101.5q59 124 140 145q42 10 65 -13q19 -19 13 -48zM117 159
q-10 -22 -14 -37q50 36 97 88q60 65 51 83q-5 10 -24.5 -2t-44.5 -39q-42 -45 -65 -93zM285 464q-6 -6 -9 -17t2.5 -21.5t22.5 -11.5q29 -1 52.5 20.5t29.5 38.5q4 11 13 9q11 -2 12 -17q0 -16 -12.5 -38.5t-35.5 -38.5q-30 -18 -59.5 -17t-47.5 16q-17 15 -18.5 38.5
t6 40.5t14.5 22q10 8 23 -3q16 -12 7 -21z" />
    <glyph glyph-name="Edotaccent" unicode="&#x116;" horiz-adv-x="438" 
d="M522 608q9 -9 3 -19q-5 -7 -12.5 -9t-11.5 3q-19 20 -41 19q-49 0 -141 -77q-61 -51 -84 -97t-1 -69q14 -15 57 -30q61 32 90 35q39 3 54 -17q8 -11 -1 -20q-14 -14 -47 -28t-73 -13q-116 -62 -195 -137q-45 -41 -72 -82q-30 -47 -33 -84.5t22 -52.5q26 -21 99 -5.5
t157 66.5q97 58 178 142q44 47 90 114q10 14 17 0q10 -20 0 -40q-46 -89 -159 -184q-129 -109 -261 -141q-85 -21 -138 15q-42 28 -51 87q-8 62 53 140q34 42 82 80q70 56 140 97q-44 18 -61 51t-5 67q23 66 116 146q46 40 90 65t70 24q7 0 13.5 -1t12.5 -4.5l9.5 -5.5
t9.5 -8l8 -8t8.5 -10t7.5 -9zM488 781q4 3 33 2.5t39 -12.5q14 -13 -4.5 -28.5t-36.5 -17.5q-36 -12 -52 5q-10 8 -4 27.5t25 23.5z" />
    <glyph glyph-name="edotaccent" unicode="&#x117;" horiz-adv-x="263" 
d="M290 268q-8 -42 -87 -114q-60 -54 -110 -83q-2 -58 33 -60q60 -3 162 107q74 80 98 129q5 8 11 7.5t10 -7.5q7 -13 3 -25q-26 -68 -98 -146q-87 -97 -160 -102q-49 -3 -79 35q-23 29 -24.5 73.5t23.5 101.5q59 124 140 145q42 10 65 -13q19 -19 13 -48zM117 159
q-10 -22 -14 -37q50 36 97 88q60 65 51 83q-5 10 -24.5 -2t-44.5 -39q-42 -45 -65 -93zM281 441q4 3 33 2.5t39 -12.5q14 -13 -4.5 -28.5t-36.5 -17.5q-36 -12 -52 5q-10 8 -4 27.5t25 23.5z" />
    <glyph glyph-name="Eogonek" unicode="&#x118;" horiz-adv-x="438" 
d="M522 608q9 -9 3 -19q-5 -7 -12.5 -9t-11.5 3q-19 20 -41 19q-49 0 -141 -77q-61 -51 -84 -97t-1 -69q14 -15 57 -30q61 32 90 35q39 3 54 -17q8 -11 -1 -20q-14 -14 -47 -28t-73 -13q-116 -62 -195 -137q-45 -41 -72 -82q-30 -47 -33 -84.5t22 -52.5q26 -21 99 -5.5
t157 66.5q97 58 178 142q44 47 90 114q10 14 17 0q10 -20 0 -40q-46 -89 -159 -184q-129 -109 -261 -141q-51 -12 -94 -4q-21 -17 -39 -38q-34 -40 -34 -68q1 -20 27 -31q18 -7 36 -7q10 -2 6 -16q-2 -14 -18 -14q-20 -3 -45 5q-32 10 -49 31q-13 17 -12 43q2 24 18 47
q11 15 50 48l20 16l-4 3q-42 28 -51 87q-8 62 53 140q34 42 82 80q70 56 140 97q-44 18 -61 51t-5 67q23 66 116 146q46 40 90 65t70 24q7 0 13.5 -1t12.5 -4.5l9.5 -5.5t9.5 -8l8 -8t8.5 -10t7.5 -9z" />
    <glyph glyph-name="eogonek" unicode="&#x119;" horiz-adv-x="263" 
d="M114 -30q-21 -14 -46 -43q-34 -40 -34 -68q1 -20 27 -31q17 -7 36 -7q10 -2 6 -16q-2 -14 -18 -14q-20 -3 -45 5q-32 10 -49 31q-13 17 -12 43q2 24 18 47q11 15 50 48q20 17 39 30q-5 4 -13 14q-23 29 -24.5 73.5t23.5 101.5q59 124 140 145q42 10 65 -13q19 -19 13 -48
q-8 -42 -87 -114q-60 -54 -110 -83q-2 -58 33 -60q60 -3 162 107q74 80 98 129q5 8 11 7.5t10 -7.5q7 -13 3 -25q-26 -68 -98 -146q-87 -97 -160 -102q-19 0 -34 4q0 -4 -4 -8zM117 159q-10 -22 -14 -37q50 36 97 88q60 65 51 83q-5 10 -24.5 -2t-44.5 -39q-42 -45 -65 -93z
" />
    <glyph glyph-name="Ecaron" unicode="&#x11a;" horiz-adv-x="438" 
d="M522 608q9 -9 3 -19q-5 -7 -12.5 -9t-11.5 3q-19 20 -41 19q-49 0 -141 -77q-61 -51 -84 -97t-1 -69q14 -15 57 -30q61 32 90 35q39 3 54 -17q8 -11 -1 -20q-14 -14 -47 -28t-73 -13q-116 -62 -195 -137q-45 -41 -72 -82q-30 -47 -33 -84.5t22 -52.5q26 -21 99 -5.5
t157 66.5q97 58 178 142q44 47 90 114q10 14 17 0q10 -20 0 -40q-46 -89 -159 -184q-129 -109 -261 -141q-85 -21 -138 15q-42 28 -51 87q-8 62 53 140q34 42 82 80q70 56 140 97q-44 18 -61 51t-5 67q23 66 116 146q46 40 90 65t70 24q7 0 13.5 -1t12.5 -4.5l9.5 -5.5
t9.5 -8l8 -8t8.5 -10t7.5 -9zM464 803q-10 -21 -5 -47q3 -10 8 -9q11 1 67 36q48 29 58 39q3 3 8.5 0.5t7.5 -8.5q6 -12 -5 -24q-11 -14 -52 -44q-51 -38 -68 -47q-36 -21 -56 8q-12 17 -12 51q0 39 9 58q4 12 21 6q24 -9 19 -19z" />
    <glyph glyph-name="ecaron" unicode="&#x11b;" horiz-adv-x="263" 
d="M290 268q-8 -42 -87 -114q-60 -54 -110 -83q-2 -58 33 -60q60 -3 162 107q74 80 98 129q5 8 11 7.5t10 -7.5q7 -13 3 -25q-26 -68 -98 -146q-87 -97 -160 -102q-49 -3 -79 35q-23 29 -24.5 73.5t23.5 101.5q59 124 140 145q42 10 65 -13q19 -19 13 -48zM117 159
q-10 -22 -14 -37q50 36 97 88q60 65 51 83q-5 10 -24.5 -2t-44.5 -39q-42 -45 -65 -93zM290 480q-10 -21 -5 -47q3 -10 8 -9q11 1 67 36q48 29 58 39q3 3 8.5 0.5t7.5 -8.5q6 -12 -5 -24q-11 -14 -52 -44q-51 -38 -68 -47q-36 -21 -56 8q-12 16 -12 51q0 39 9 58q4 12 21 6
q24 -9 19 -19z" />
    <glyph glyph-name="Gcircumflex" unicode="&#x11c;" horiz-adv-x="481" 
d="M474 460q-6 -7 -13 -4t-12 12q-9 16 -1 28q19 32 31 61q18 42 8 48q-14 8 -51.5 -8.5t-88.5 -58.5q-77 -65 -155 -167q-72 -94 -110 -197q-22 -59 -25 -100t17 -53q28 -13 195 82q73 42 142.5 88t88.5 64q8 8 17 4.5t15 -14.5q14 -24 -2 -48q-67 -88 -151 -254
q-26 -52 -48.5 -109.5t-17.5 -70.5q2 -5 17 -8t15 -14q0 -5 -9.5 -8t-21.5 -2q-33 4 -44 32q-15 37 81 220l103 183q-66 -47 -142 -93q-127 -77 -187 -90q-47 -10 -79 16q-33 26 -35 70q-5 81 55 196q26 49 69 114q68 102 159 179q76 64 141 85q35 12 63.5 -9t32.5 -47
q3 -18 -16 -56q-16 -34 -41 -71zM374 736q14 0 70 39q58 41 68 57q10 14 28 -4q14 -14 14 -28q2 -19 10 -54q11 -42 26 -50q15 -6 4 -17q-15 -15 -28 -9q-18 8 -34 51q-14 37 -14 48l-48 -34q-54 -38 -64 -43q-18 -6 -32 21q-12 21 0 23z" />
    <glyph glyph-name="gcircumflex" unicode="&#x11d;" horiz-adv-x="330" 
d="M193 -22l11 24q63 152 69 172q-25 -33 -66 -79q-73 -81 -112 -99q-26 -12 -47 16q-22 28 -12 69q12 56 67 137q69 101 114 109q27 4 50 -9t34 -37q8 12 13 22t15 6t19 -16q15 -21 8 -37q-17 -35 -55 -132l-42 -103q54 41 108 104q32 37 89 123q10 15 20 -5q8 -15 0 -31
q-24 -47 -80 -113q-58 -68 -121 -115q-8 -6 -50 -35q-38 -73 -65 -117q-49 -79 -84 -102q-25 -15 -50 -12t-46 20q-22 18 -28 43t11 48q31 37 108 81q12 7 55 30.5zM245 283q-34 3 -107 -108q-33 -50 -52 -92.5t-10 -46.5q15 -8 112 102q49 55 87 106q-15 37 -30 39zM1 -195
q-13 -15 -4 -33.5t33 -15.5q22 3 56.5 45.5t69.5 103.5l-52 -30l-46 -26.5t-32 -21t-25 -22.5zM200 422q14 0 70 39q58 41 68 57q10 14 28 -4q14 -14 14 -28q2 -19 10 -54q11 -42 26 -50q15 -6 4 -17q-15 -15 -28 -9q-18 8 -34 51q-14 37 -14 48l-48 -34q-54 -38 -64 -43
q-18 -6 -32 21q-12 21 0 23z" />
    <glyph glyph-name="Gbreve" unicode="&#x11e;" horiz-adv-x="482" 
d="M474 460q-6 -7 -13 -4t-12 12q-9 16 -1 28q19 32 31 61q18 42 8 48q-14 8 -51.5 -8.5t-88.5 -58.5q-77 -65 -155 -167q-72 -94 -110 -197q-22 -59 -25 -100t17 -53q28 -13 195 82q73 42 142.5 88t88.5 64q8 8 17 4.5t15 -14.5q14 -24 -2 -48q-67 -88 -151 -254
q-26 -52 -48.5 -109.5t-17.5 -70.5q2 -5 17 -8t15 -14q0 -5 -9.5 -8t-21.5 -2q-33 4 -44 32q-15 37 81 220l103 183q-66 -47 -142 -93q-127 -77 -187 -90q-47 -10 -79 16q-33 26 -35 70q-5 81 55 196q26 49 69 114q68 102 159 179q76 64 141 85q35 12 63.5 -9t32.5 -47
q3 -18 -16 -56q-16 -34 -41 -71zM532 776q-6 -6 -9 -17t2.5 -21.5t22.5 -11.5q29 -1 52.5 20.5t29.5 38.5q4 11 13 9q11 -2 12 -17q0 -16 -12.5 -38.5t-35.5 -38.5q-30 -18 -59.5 -17t-47.5 16q-17 15 -18.5 38.5t6 40.5t14.5 22q10 8 23 -3q16 -12 7 -21z" />
    <glyph glyph-name="gbreve" unicode="&#x11f;" horiz-adv-x="330" 
d="M193 -22l11 24q63 152 69 172q-25 -33 -66 -79q-73 -81 -112 -99q-26 -12 -47 16q-22 28 -12 69q12 56 67 137q69 101 114 109q27 4 50 -9t34 -37q8 12 13 22t15 6t19 -16q15 -21 8 -37q-17 -35 -55 -132l-42 -103q54 41 108 104q32 37 89 123q10 15 20 -5q8 -15 0 -31
q-24 -47 -80 -113q-58 -68 -121 -115q-8 -6 -50 -35q-38 -73 -65 -117q-49 -79 -84 -102q-25 -15 -50 -12t-46 20q-22 18 -28 43t11 48q31 37 108 81q12 7 55 30.5zM245 283q-34 3 -107 -108q-33 -50 -52 -92.5t-10 -46.5q15 -8 112 102q49 55 87 106q-15 37 -30 39zM1 -195
q-13 -15 -4 -33.5t33 -15.5q22 3 56.5 45.5t69.5 103.5l-52 -30l-46 -26.5t-32 -21t-25 -22.5zM297 472q-6 -6 -9 -17t2.5 -21.5t22.5 -11.5q29 -1 52.5 20.5t29.5 38.5q4 11 13 9q11 -2 12 -17q0 -16 -12.5 -38.5t-35.5 -38.5q-30 -18 -59.5 -17t-47.5 16
q-17 15 -18.5 38.5t6 40.5t14.5 22q10 8 23 -3q16 -12 7 -21z" />
    <glyph glyph-name="Gdotaccent" unicode="&#x120;" horiz-adv-x="482" 
d="M474 460q-6 -7 -13 -4t-12 12q-9 16 -1 28q19 32 31 61q18 42 8 48q-14 8 -51.5 -8.5t-88.5 -58.5q-77 -65 -155 -167q-72 -94 -110 -197q-22 -59 -25 -100t17 -53q28 -13 195 82q73 42 142.5 88t88.5 64q8 8 17 4.5t15 -14.5q14 -24 -2 -48q-67 -88 -151 -254
q-26 -52 -48.5 -109.5t-17.5 -70.5q2 -5 17 -8t15 -14q0 -5 -9.5 -8t-21.5 -2q-33 4 -44 32q-15 37 81 220l103 183q-66 -47 -142 -93q-127 -77 -187 -90q-47 -10 -79 16q-33 26 -35 70q-5 81 55 196q26 49 69 114q68 102 159 179q76 64 141 85q35 12 63.5 -9t32.5 -47
q3 -18 -16 -56q-16 -34 -41 -71zM514 755q4 3 33 2.5t39 -12.5q14 -13 -4.5 -28.5t-36.5 -17.5q-36 -12 -52 5q-10 8 -4 27.5t25 23.5z" />
    <glyph glyph-name="gdotaccent" unicode="&#x121;" horiz-adv-x="330" 
d="M193 -22l11 24q63 152 69 172q-25 -33 -66 -79q-73 -81 -112 -99q-26 -12 -47 16q-22 28 -12 69q12 56 67 137q69 101 114 109q27 4 50 -9t34 -37q8 12 13 22t15 6t19 -16q15 -21 8 -37q-17 -35 -55 -132l-42 -103q54 41 108 104q32 37 89 123q10 15 20 -5q8 -15 0 -31
q-24 -47 -80 -113q-58 -68 -121 -115q-8 -6 -50 -35q-38 -73 -65 -117q-49 -79 -84 -102q-25 -15 -50 -12t-46 20q-22 18 -28 43t11 48q31 37 108 81q12 7 55 30.5zM245 283q-34 3 -107 -108q-33 -50 -52 -92.5t-10 -46.5q15 -8 112 102q49 55 87 106q-15 37 -30 39zM1 -195
q-13 -15 -4 -33.5t33 -15.5q22 3 56.5 45.5t69.5 103.5l-52 -30l-46 -26.5t-32 -21t-25 -22.5zM300 439q4 3 33 2.5t39 -12.5q14 -13 -4.5 -28.5t-36.5 -17.5q-36 -12 -52 5q-10 8 -4 27.5t25 23.5z" />
    <glyph glyph-name="Gcommaaccent" unicode="&#x122;" horiz-adv-x="480" 
d="M474 460q-6 -7 -13 -4t-12 12q-9 16 -1 28q19 32 31 61q18 42 8 48q-14 8 -51.5 -8.5t-88.5 -58.5q-77 -65 -155 -167q-72 -94 -110 -197q-22 -59 -25 -100t17 -53q28 -13 195 82q73 42 142.5 88t88.5 64q8 8 17 4.5t15 -14.5q14 -24 -2 -48q-67 -88 -151 -254
q-26 -52 -48.5 -109.5t-17.5 -70.5q2 -5 17 -8t15 -14q0 -5 -9.5 -8t-21.5 -2q-33 4 -44 32q-15 37 81 220l103 183q-66 -47 -142 -93q-127 -77 -187 -90q-47 -10 -79 16q-33 26 -35 70q-5 81 55 196q26 49 69 114q68 102 159 179q76 64 141 85q35 12 63.5 -9t32.5 -47
q3 -18 -16 -56q-16 -34 -41 -71zM194 -93q0 4 7 4.5t15 -3.5q21 -10 18 -27q-3 -18 -40 -71q-51 -74 -72 -95q-9 -8 -22 3q-8 6 -10.5 16t3.5 16q9 10 48 70q51 77 53 87z" />
    <glyph glyph-name="gcommaaccent" unicode="&#x123;" horiz-adv-x="330" 
d="M193 -22l11 24q63 152 69 172q-25 -33 -66 -79q-73 -81 -112 -99q-26 -12 -47 16q-22 28 -12 69q12 56 67 137q69 101 114 109q27 4 50 -9t34 -37q8 12 13 22t15 6t19 -16q15 -21 8 -37q-17 -35 -55 -132l-42 -103q54 41 108 104q32 37 89 123q10 15 20 -5q8 -15 0 -31
q-24 -47 -80 -113q-58 -68 -121 -115q-8 -6 -50 -35q-38 -73 -65 -117q-49 -79 -84 -102q-25 -15 -50 -12t-46 20q-22 18 -28 43t11 48q31 37 108 81q12 7 55 30.5zM245 283q-34 3 -107 -108q-33 -50 -52 -92.5t-10 -46.5q15 -8 112 102q49 55 87 106q-15 37 -30 39zM1 -195
q-13 -15 -4 -33.5t33 -15.5q22 3 56.5 45.5t69.5 103.5l-52 -30l-46 -26.5t-32 -21t-25 -22.5zM333 389q15 -10 -6 -16q-17 -6 -30 0q-17 10 -26 42.5t1 83.5q23 95 64 131q18 16 40 5q11 -6 16.5 -15t-0.5 -14q-14 -7 -36.5 -43.5t-30.5 -68.5q-23 -86 8 -105z" />
    <glyph glyph-name="Hcircumflex" unicode="&#x124;" horiz-adv-x="647" 
d="M12 224q43 25 215 48l30 69l39 97q57 148 49 181q-1 4 4 5q11 2 28 -7q19 -9 20 -23q4 -21 -54 -166l-43 -105l-19 -45q71 8 110 10q122 7 200 5l70 171q54 131 53 146q-1 17 19 6q5 -3 10 -7q18 -16 15 -29q-2 -10 -58 -144l-59 -144q31 0 38 2q7 1 11.5 -3.5t4.5 -11.5
q1 -11 -6.5 -20t-20.5 -8q-4 0 -42 2q-1 -1 -1 -3q-21 -53 -55 -151q-44 -131 -43 -156q1 -11 -7.5 -13t-19.5 4q-30 15 -24 36q3 22 50 153q30 83 49 130q-95 -2 -199 -10q-61 -4 -116 -12l-70 -155q-71 -158 -72 -184q0 -7 -6 -8.5t-13.5 2t-13.5 10.5q-13 15 -10 31
q6 33 75 179l56 118q-135 -22 -164 -46q-12 -11 -31 12t1 34zM452 734q14 0 70 39q58 41 68 57q10 14 28 -4q14 -14 14 -28q2 -19 10 -54q11 -42 26 -50q15 -6 4 -17q-15 -15 -28 -9q-18 8 -34 51q-14 37 -14 48l-48 -34q-54 -38 -64 -43q-18 -6 -32 21q-12 21 0 23z" />
    <glyph glyph-name="hcircumflex" unicode="&#x125;" horiz-adv-x="380" 
d="M297 492q-10 -35 -43 -96q-65 -116 -86 -156q-57 -114 -71 -154q42 69 96 133q59 70 94 82q27 9 52 -18q25 -28 17 -55q-2 -7 -7 -20.5l-12.5 -34l-12.5 -34.5q-37 -102 -20 -110q24 -11 113 98q30 37 57 75t30 45t9 6t11 -8q9 -12 3 -28q-14 -36 -75 -114
q-57 -74 -98 -100q-41 -28 -69.5 1.5t-23.5 79.5q3 35 29 100q4 9 9.5 23l8 20t6.5 16.5t3 12.5t-1 8q-5 8 -29 -14t-63 -66q-49 -56 -96.5 -118.5t-57.5 -83.5q-2 -5 -9.5 -3t-15.5 10q-18 18 -14 40q2 12 26 71q29 70 94 208l65 135q45 92 46 95q3 8 11.5 8t16.5 -8
q15 -17 7 -46zM327 560q14 0 70 39q58 41 68 57q11 13 28 -4q14 -14 14 -28q2 -19 10 -54q11 -42 26 -50q15 -6 4 -17q-15 -15 -28 -9q-18 8 -34 51q-14 37 -14 48l-48 -34q-54 -38 -64 -43q-18 -6 -32 21q-12 21 0 23z" />
    <glyph glyph-name="Hbar" unicode="&#x126;" horiz-adv-x="647" 
d="M12 224q43 25 215 48l30 69l17 42q-69 -6 -85 -15q-19 -10 -27 -5.5t-7 17.5q1 11 8 22t16 15q12 5 113 10q6 18 18.5 50.5t17.5 48.5q23 68 17 93q-1 4 4 5q11 2 28 -7q19 -9 20 -23q2 -16 -23 -83l-31 -82q86 4 187 6q44 1 119 1q16 33 34 81q32 77 31 93q-1 17 19 6
q5 -3 10 -7q18 -16 15 -29q-2 -12 -30 -77l-28 -67v-1l-1 -1q36 -2 41 -5q17 -17 15 -33q-1 -10 -7.5 -14.5t-16.5 1.5q-6 3 -51 6l-39 -97q31 0 38 2q7 1 11.5 -3.5t4.5 -11.5q1 -11 -6.5 -20t-20.5 -8q-4 0 -42 2q-1 -1 -1 -3q-21 -53 -55 -151q-44 -131 -43 -156
q1 -11 -7.5 -13t-19.5 4q-30 15 -24 36q3 22 50 153q30 83 49 130q-95 -2 -199 -10q-61 -4 -116 -12l-70 -155q-71 -158 -72 -184q0 -7 -6 -8.5t-13.5 2t-13.5 10.5q-13 15 -10 31q6 33 75 179l56 118q-135 -22 -164 -46q-12 -11 -31 12t1 34zM326 386l-26 -63l-19 -45
q71 8 110 10q122 7 200 5l39 98q-55 2 -124 0q-126 -2 -180 -5z" />
    <glyph glyph-name="hbar" unicode="&#x127;" horiz-adv-x="380" 
d="M136 443q5 1 45 1h35q44 89 46 94q3 8 11.5 8t16.5 -8q15 -17 7 -46q-8 -24 -19 -50q33 -2 47 -4q25 -3 28 -10q7 -15 5 -27q-2 -13 -14 -5q-6 3 -36 6q-42 3 -49 3l-91 -165q-57 -114 -71 -154q42 69 96 133q59 70 94 82q27 9 52 -18q25 -28 17 -55q-2 -7 -7 -20.5
l-12.5 -34l-12.5 -34.5q-37 -102 -20 -110q24 -11 113 98q30 37 57 75t30 45t9 6t11 -8q9 -12 3 -28q-14 -36 -75 -114q-57 -74 -98 -100q-41 -28 -69.5 1.5t-23.5 79.5q3 35 29 100q4 9 9.5 23l8 20t6.5 16.5t3 12.5t-1 8q-5 8 -29 -14t-63 -66q-49 -56 -96.5 -118.5
t-57.5 -83.5q-2 -5 -9.5 -3t-15.5 10q-18 18 -14 40q2 12 26 71q29 70 94 208l47 99h-20q-21 0 -33 -3q-6 -2 -11.5 3t-7.5 13q-6 22 10 23z" />
    <glyph glyph-name="Itilde" unicode="&#x128;" horiz-adv-x="209" 
d="M333 590q3 -16 -36 -110l-102 -234q-62 -135 -99 -238q-29 -81 -25 -93q2 -8 -5 -7q-9 1 -20 13q-17 19 -16 41q1 19 26 80l49.5 113.5l56.5 130.5q45 105 84 206q38 97 41 121q1 18 22 7t24 -30zM243 738q17 21 40 33q23 11 42 7q18 -3 31 -26q15 -24 27 -27
q21 -4 39 14q12 12 10 22q0 9 10 -1l6 -9q5 -37 -17 -58q-11 -11 -34 -15q-21 -3 -35 6q-12 8 -23.5 26t-19.5 20q-10 1 -23 -5q-21 -11 -33 -32q-4 -6 -10 -2.5t-10 13.5q-9 21 0 34z" />
    <glyph glyph-name="itilde" unicode="&#x129;" horiz-adv-x="188" 
d="M123 439q17 21 40 33q23 11 42 7q18 -3 31 -26q15 -24 27 -27q21 -4 39 14q12 12 10 22q0 9 10 -1l6 -9q5 -37 -17 -58q-11 -11 -34 -15q-21 -3 -35 6q-12 8 -23.5 26t-19.5 20q-10 1 -23 -5q-21 -11 -33 -32q-4 -6 -10 -2.5t-10 13.5q-9 21 0 34zM192 280
q-24 -44 -50 -116q-42 -111 -20 -123q24 -13 109 94q62 79 79 112q4 7 10 6t11 -8q8 -11 2 -27q-19 -43 -77 -118q-68 -89 -108 -95q-31 -4 -53 19q-32 35 -21 90q6 33 26 81q12 31 32.5 74l21.5 45q6 15 25 4q23 -15 13 -38z" />
    <glyph glyph-name="Imacron" unicode="&#x12a;" horiz-adv-x="209" 
d="M333 590q3 -16 -36 -110l-102 -234q-62 -135 -99 -238q-29 -81 -25 -93q2 -8 -5 -7q-9 1 -20 13q-17 19 -16 41q1 19 26 80l49.5 113.5l56.5 130.5q45 105 84 206q38 97 41 121q1 18 22 7t24 -30zM242 739q5 1 104 -21q85 -17 100 -29q12 -8 14 -21q2 -16 -11 -17
q-6 1 -41.5 9t-61.5 13q-68 12 -91 21q-13 6 -20 22q-10 21 7 23z" />
    <glyph glyph-name="imacron" unicode="&#x12b;" horiz-adv-x="188" 
d="M192 280q-24 -44 -50 -116q-42 -111 -20 -123q24 -13 109 94q62 79 79 112q4 7 10 6t11 -8q8 -11 2 -27q-19 -43 -77 -118q-68 -89 -108 -95q-31 -4 -53 19q-32 35 -21 90q6 33 26 81q12 31 32.5 74l21.5 45q6 15 25 4q23 -15 13 -38zM112 476q5 1 104 -21
q85 -17 100 -29q12 -8 14 -21q2 -16 -11 -17q-6 1 -41.5 9t-61.5 13q-68 12 -91 21q-13 6 -20 22q-10 21 7 23z" />
    <glyph glyph-name="Ibreve" unicode="&#x12c;" horiz-adv-x="209" 
d="M333 590q3 -16 -36 -110l-102 -234q-62 -135 -99 -238q-29 -81 -25 -93q2 -8 -5 -7q-9 1 -20 13q-17 19 -16 41q1 19 26 80l49.5 113.5l56.5 130.5q45 105 84 206q38 97 41 121q1 18 22 7t24 -30zM344 769q-6 -6 -9 -17t2.5 -21.5t22.5 -11.5q29 -1 52.5 20.5t29.5 38.5
q4 11 13 9q11 -2 12 -17q0 -16 -12.5 -38.5t-35.5 -38.5q-30 -18 -59.5 -17t-47.5 16q-17 15 -18.5 38.5t6 40.5t14.5 22q10 8 23 -3q16 -12 7 -21z" />
    <glyph glyph-name="ibreve" unicode="&#x12d;" horiz-adv-x="188" 
d="M192 280q-24 -44 -50 -116q-42 -111 -20 -123q24 -13 109 94q62 79 79 112q4 7 10 6t11 -8q8 -11 2 -27q-19 -43 -77 -118q-68 -89 -108 -95q-31 -4 -53 19q-32 35 -21 90q6 33 26 81q12 31 32.5 74l21.5 45q6 15 25 4q23 -15 13 -38zM220 478q-6 -6 -9 -17t2.5 -21.5
t22.5 -11.5q29 -1 52.5 20.5t29.5 38.5q4 11 13 9q11 -2 12 -17q0 -16 -12.5 -38.5t-35.5 -38.5q-30 -18 -59.5 -17t-47.5 16q-17 15 -18.5 38.5t6 40.5t14.5 22q10 8 23 -3q16 -12 7 -21z" />
    <glyph glyph-name="Iogonek" unicode="&#x12e;" horiz-adv-x="209" 
d="M333 590q3 -16 -36 -110l-102 -234q-62 -135 -99 -238q-29 -81 -25 -93q2 -7 -5 -7q-4 0 -11 5q-20 -15 -43 -42q-34 -40 -34 -68q1 -20 27 -31q17 -7 36 -7q10 -2 6 -16q-2 -14 -18 -14q-20 -3 -45 5q-32 10 -49 31q-13 17 -12 43q2 24 18 47q11 15 50 48q25 21 42 32
q-4 14 -3 21q1 19 26 80l49.5 113.5l56.5 130.5q45 105 84 206q38 97 41 121q1 18 22 7t24 -30z" />
    <glyph glyph-name="iogonek" unicode="&#x12f;" horiz-adv-x="188" 
d="M192 280q-37 -74 -61 -147q-27 -82 -9 -92q26 -13 114 99q62 79 74 107q4 8 10 6t11 -10q7 -13 2 -25q-16 -38 -67 -105q-69 -94 -112 -107q-19 -13 -41 -39q-34 -40 -34 -68q1 -20 27 -31q18 -7 36 -7q10 -2 6 -16q-2 -14 -18 -14q-20 -3 -45 5q-32 10 -49 31
q-13 17 -12 43q2 24 18 47q11 15 50 48l12 10q-5 3 -8 8q-33 35 -22 91q10 45 34 100q11 26 27.5 60.5t18.5 39.5q4 13 21 6q11 -5 17 -16.5t0 -23.5zM192 472q23 12 56 -5q14 -7 19 -19.5t-5 -18.5q-9 -6 -32 -4.5t-35 7.5t-12.5 21t9.5 19z" />
    <glyph glyph-name="Idotaccent" unicode="&#x130;" horiz-adv-x="209" 
d="M333 590q3 -16 -36 -110l-102 -234q-62 -135 -99 -238q-29 -81 -25 -93q2 -8 -5 -7q-9 1 -20 13q-17 19 -16 41q1 19 26 80l49.5 113.5l56.5 130.5q45 105 84 206q38 97 41 121q1 18 22 7t24 -30zM352 780q4 3 33 2.5t39 -12.5q14 -13 -4.5 -28.5t-36.5 -17.5
q-36 -12 -52 5q-10 8 -4 27.5t25 23.5z" />
    <glyph glyph-name="dotlessi" unicode="&#x131;" horiz-adv-x="188" 
d="M192 280q-24 -44 -50 -116q-42 -111 -20 -123q24 -13 109 94q62 79 79 112q4 7 10 6t11 -8q8 -11 2 -27q-19 -43 -77 -118q-68 -89 -108 -95q-31 -4 -53 19q-32 35 -21 90q6 33 26 81q12 31 32.5 74l21.5 45q6 15 25 4q23 -15 13 -38z" />
    <glyph glyph-name="IJ" unicode="&#x132;" horiz-adv-x="584" 
d="M333 590q3 -16 -36 -110l-102 -234q-62 -135 -99 -238q-29 -81 -25 -93q2 -8 -5 -7q-9 1 -20 13q-17 19 -16 41q1 19 26 80l49.5 113.5l56.5 130.5q45 105 84 206q38 97 41 121q1 18 22 7t24 -30zM962 536q0 -9 -13 -16q-19 -11 -28 -4q-2 3 0 8q3 6 -3 13.5t-28 14.5
t-56 9q-91 5 -135 4q0 -1 -0.5 -3.5t-0.5 -4.5q-13 -43 -54 -134q-31 -70 -93 -196q-44 -87 -81 -148q-71 -113 -130 -147q-61 -32 -101 -19t-50 54q-7 28 5 63t25 53q4 7 21 1t12 -22q0 -1 -6.5 -20.5t-9 -31t-4.5 -28.5t2.5 -27t15.5 -13q54 -12 144 115q59 84 114 194
q44 87 87 184l55 128q-27 -1 -131 -13q-113 -14 -145 -40q-6 -5 -12 0t-8 15q-8 32 10 41q58 27 220 38q99 7 189 1q101 -6 147 -25q44 -17 42 -44z" />
    <glyph glyph-name="ij" unicode="&#x133;" horiz-adv-x="340" 
d="M350 353q4 10 11 6.5t14 -15.5q16 -28 7 -45q-15 -31 -57 -138l-55 -137q58 45 119 119q49 60 75 105q9 15 19 -3q10 -17 1 -33q-23 -44 -69 -100q-61 -73 -123 -121l-56 -41q-87 -178 -150 -220q-25 -15 -50 -12t-46 20q-22 18 -28 43t11 48q31 37 115 85l52.5 29
t60.5 35l11 24l34 85q-60 -77 -98 -82q-31 -4 -52 18q-33 35 -22 91q10 45 34 100q11 26 27.5 60.5t18.5 39.5q4 13 21 6q11 -5 17 -16.5t0 -23.5q-37 -74 -61 -147q-27 -82 -9 -92q26 -13 114 99q50 64 71 102q38 97 43 111zM10 -192q-13 -17 -2 -37q11 -18 32 -15
q23 3 59 47q31 38 66 103l-48.5 -27t-43.5 -25q-46 -26 -63 -46zM192 472q23 12 56 -5q14 -7 19 -19.5t-5 -18.5q-9 -6 -32 -4.5t-35 7.5t-12.5 21t9.5 19zM366 491q23 11 56 -5q14 -7 19 -19.5t-5 -18.5t-32.5 -4.5t-34.5 7.5t-12.5 21t9.5 19z" />
    <glyph glyph-name="Jcircumflex" unicode="&#x134;" horiz-adv-x="375" 
d="M753 536q0 -9 -13 -16q-19 -11 -28 -4q-2 3 0 8q3 6 -3 13.5t-28 14.5t-56 9q-91 5 -135 4q0 -1 -0.5 -3.5t-0.5 -4.5q-13 -43 -54 -134q-31 -70 -93 -196q-44 -87 -81 -148q-71 -113 -130 -147q-61 -32 -101 -19t-50 54q-7 28 5 63t25 53q4 7 21 1t12 -22
q0 -1 -6.5 -20.5t-9 -31t-4.5 -28.5t2.5 -27t15.5 -13q54 -12 144 115q59 84 114 194q44 87 87 184l55 128q-27 -1 -131 -13q-113 -14 -145 -40q-6 -5 -12 0t-8 15q-8 32 10 41q58 27 220 38q99 7 189 1q101 -6 147 -25q44 -17 42 -44zM363 727q14 0 70 39q58 41 68 57
q11 13 28 -4q14 -14 14 -28q2 -19 10 -54q11 -42 26 -50q15 -6 4 -17q-15 -15 -28 -9q-18 8 -34 51q-14 37 -14 48l-48 -34q-54 -38 -64 -43q-18 -6 -32 21q-12 21 0 23z" />
    <glyph glyph-name="jcircumflex" unicode="&#x135;" horiz-adv-x="152" 
d="M162 353q4 10 11 6.5t14 -15.5q16 -28 7 -45q-15 -31 -57 -138l-55 -137q58 45 119 119q49 60 75 105q9 15 19 -3q10 -17 1 -33q-23 -44 -69 -100q-61 -73 -123 -121l-56 -41q-87 -178 -150 -220q-25 -15 -50 -12t-46 20q-22 18 -28 43t11 48q31 37 115 85l52.5 29
t60.5 35l11 24l67 168q62 158 71 183zM-178 -192q-13 -17 -2 -37q11 -18 32 -15q23 3 59 47q31 38 66 103l-48.5 -27t-43.5 -25q-46 -26 -63 -46zM97 468q14 0 70 39q58 41 68 57q11 14 28 -4q14 -14 14 -28q2 -19 10 -54q11 -42 26 -50q15 -6 4 -17q-15 -15 -28 -9
q-18 8 -34 51q-14 37 -14 48l-48 -34q-54 -38 -64 -43q-18 -6 -32 21q-12 21 0 23z" />
    <glyph glyph-name="Kcommaaccent" unicode="&#x136;" horiz-adv-x="500" 
d="M621 581q17 0 31 -16q18 -21 -1 -22q-40 -2 -197 -88q-188 -103 -252 -176q9 -59 51 -117q35 -48 91 -86q34 -22 73 -29t70 0t52 24t22 39q1 11 8 12.5t14 -6.5q17 -19 5 -48q-18 -43 -78 -61t-125 -1q-59 16 -107 56q-55 46 -95 122q-17 33 -20 55q-80 -221 -80 -282
q0 -19 -10 -22t-21 8q-26 20 -21 38q8 43 108 318q24 67 59 156l53 137.5t18 62.5q0 13 10.5 13.5t20.5 -8.5q22 -18 19 -39q-2 -12 -18.5 -51l-48 -111l-53.5 -126l19 19q61 62 208 144q152 87 195 85zM247 -47q0 4 7.5 4.5t14.5 -3.5q21 -10 18 -27q-3 -18 -40 -71
q-51 -74 -72 -95q-9 -8 -22 3q-8 6 -10.5 16t3.5 16q10 10 48 70q51 77 53 87z" />
    <glyph glyph-name="kcommaaccent" unicode="&#x137;" horiz-adv-x="321" 
d="M192 -69q0 4 7 4.5t15 -3.5q21 -10 18 -27q-3 -18 -40 -71q-51 -74 -72 -95q-9 -8 -22 3q-8 6 -10.5 16t3.5 16q10 10 48 70q51 77 53 87zM140 180l12 14q42 45 101 83q62 38 97 37q16 0 28 -14q5 -6 6 -12t-1.5 -9.5t-9.5 -2.5q-34 6 -118 -56q-61 -46 -95 -90
q-35 -45 -24 -66q7 -14 30.5 -15.5t52.5 5.5t61 20q90 36 107 66q2 4 5.5 4t7 -4t4.5 -10q4 -14 -8 -33q-9 -13 -37.5 -33t-62.5 -36q-58 -26 -100 -25q-43 1 -68.5 20.5t-28.5 51.5q-13 -35 -25 -76q-11 -38 -9 -52q1 -8 -5 -7q-7 0 -17 10q-19 17 -17 36t37 114
q25 68 51 132l79 182q35 83 42 95q8 12 16 11t16 -11q14 -15 10 -30q-2 -6 -73 -160l-43 -92z" />
    <glyph glyph-name="Lacute" unicode="&#x139;" horiz-adv-x="354" 
d="M317 578q-3 -7 -12 -25l-26.5 -52.5l-35.5 -72.5l-70 -151q-49 -115 -69 -173q-11 -31 -18.5 -56t-11 -46t-1.5 -32.5t11 -12.5q32 -3 185 52q82 29 103 41q10 7 15 1t0 -17q-8 -23 -39 -38q-39 -19 -103 -43q-70 -26 -115 -39q-39 -7 -72 14q-39 25 -35 72q3 41 28 110
q16 46 109 260l59 129q45 96 50 118q5 20 31 2q27 -19 17 -41zM358 670q-2 -7 -8.5 -5.5t-12.5 9.5q-12 14 -11 35q4 34 67 76q15 11 31.5 19.5t27 12.5t25.5 9t17 6q13 4 24 -11q10 -14 -5 -18q-44 -14 -89 -51q-13 -11 -25.5 -25t-19 -23.5t-13.5 -21t-8 -12.5z" />
    <glyph glyph-name="lacute" unicode="&#x13a;" horiz-adv-x="227" 
d="M139 20q27 -11 122 104q68 81 88 121q9 17 19 4q12 -14 4 -34q-17 -41 -86 -126q-76 -95 -108 -107q-26 -10 -53 5q-30 17 -38 50q-23 97 56 314q30 80 61.5 143.5t47.5 76.5q33 26 62 11q18 -10 24.5 -33t-1.5 -53q-14 -48 -73 -143q-58 -92 -125 -173q-11 -56 -14 -93
q-3 -60 14 -67zM242 398q23 37 39 71t21.5 54.5t1.5 24.5q-19 19 -64 -79l-11 -24q-26 -62 -37 -91q-10 -25 -26 -77zM351 612q-2 -7 -8.5 -5.5t-12.5 9.5q-12 14 -11 35q4 34 67 76q15 11 31.5 19.5t27 12.5t25.5 9t17 6q13 4 24 -11q10 -14 -5 -18q-44 -14 -89 -51
q-13 -11 -25.5 -25t-19 -23.5t-13.5 -21t-8 -12.5z" />
    <glyph glyph-name="Lcommaaccent" unicode="&#x13b;" horiz-adv-x="354" 
d="M317 578q-6 -15 -38 -77q-55 -109 -106 -224q-43 -100 -73 -184q-10 -29 -16.5 -52.5t-9.5 -42.5t-0.5 -29.5t10.5 -11.5q29 -2 180 50q89 31 108 43q10 7 15 1t0 -17q-8 -23 -39 -38q-42 -20 -98 -41q-78 -29 -120 -41q-39 -9 -74 15q-36 24 -33 71q3 37 27 105
q27 78 110 265l70 153q34 73 39 94q5 20 29 4q12 -7 18 -19.5t1 -23.5zM172 -114q0 4 7 4.5t15 -3.5q21 -10 18 -27q-3 -18 -40 -71q-51 -74 -72 -95q-9 -8 -22 3q-8 6 -10.5 16t3.5 16q10 9 48 70q51 77 53 87z" />
    <glyph glyph-name="lcommaaccent" unicode="&#x13c;" horiz-adv-x="227" 
d="M123 -70q0 4 7.5 4.5t14.5 -3.5q21 -10 18 -27q-3 -18 -40 -71q-51 -74 -72 -95q-9 -8 -22 3q-8 6 -10.5 16t3.5 16q10 9 48 70q51 77 53 87zM139 20q27 -11 122 104q68 81 88 121q9 17 19 4q12 -14 4 -34q-17 -41 -86 -126q-76 -95 -108 -107q-26 -10 -53 5
q-30 17 -38 50q-23 97 56 314q30 80 61.5 143.5t47.5 76.5q33 26 62 11q18 -10 24.5 -33t-1.5 -53q-14 -48 -73 -143q-58 -92 -125 -173q-11 -56 -14 -93q-3 -60 14 -67zM242 398q23 37 39 71t21.5 54.5t1.5 24.5q-19 19 -64 -79l-11 -24q-26 -62 -37 -91q-10 -25 -26 -77z
" />
    <glyph glyph-name="Lcaron" unicode="&#x13d;" horiz-adv-x="354" 
d="M317 578q-2 -5 -7 -15l-14.5 -28.5l-17.5 -35.5q-55 -110 -105 -222q-47 -110 -74 -188q-10 -28 -16 -50.5t-9 -41.5t-0.5 -29t10.5 -11q28 -2 146 38t142 55q7 5 12 3t5.5 -9t-4.5 -16q-11 -20 -37 -32q-103 -50 -218 -82q-43 -9 -78 18q-32 25 -29 68q3 42 30 115
q23 64 107 255l70 152q34 72 39 95q3 10 13.5 9.5t20.5 -9.5q23 -19 14 -39zM393 625q-3 7 8 9q9 0 21 -3q17 -5 25 -16q9 -19 5.5 -47t-13.5 -53q-30 -97 -67 -120q-14 -12 -30 -2t-5 21q26 37 46 97q12 36 14 71.5t-4 42.5z" />
    <glyph glyph-name="lcaron" unicode="&#x13e;" horiz-adv-x="572" 
d="M139 20q27 -11 122 104q68 81 88 121q9 17 19 4q12 -14 4 -34q-17 -41 -86 -126q-76 -95 -108 -107q-26 -10 -53 5q-30 17 -38 50q-23 97 56 314q30 80 61.5 143.5t47.5 76.5q33 26 62 11q18 -10 24.5 -33t-1.5 -53q-14 -48 -73 -143q-58 -92 -125 -173q-11 -56 -14 -93
q-3 -60 14 -67zM242 398q23 37 39 71t21.5 54.5t1.5 24.5q-19 19 -64 -79l-11 -24q-26 -62 -37 -91q-10 -25 -26 -77zM412 626q-3 7 8 9q9 0 21 -3q17 -5 25 -16q9 -19 5.5 -47t-13.5 -53q-30 -97 -67 -120q-14 -12 -30 -2t-5 21q26 37 46 97q12 36 14 71.5t-4 42.5z" />
    <glyph glyph-name="Ldot" unicode="&#x13f;" horiz-adv-x="354" 
d="M317 578q0 -1 -37 -76l-107 -225q-60 -139 -87 -228q-26 -91 -2 -92q29 -3 169 46q99 35 119 47q15 10 17 -4q1 -8 -5 -19q-12 -19 -36 -31q-40 -19 -107 -44q-77 -29 -111 -38q-43 -9 -79 19q-31 24 -28 67q1 26 20 84q21 65 117 286l42 92t29 63q34 75 38 92q5 19 28 4
q31 -20 20 -43zM277 292q18 -2 39 -15t18 -32q-4 -19 -16.5 -28.5t-24.5 -7.5q-12 1 -27 18.5t-13 27.5q1 11 7.5 24.5t16.5 12.5z" />
    <glyph glyph-name="ldot" unicode="&#x140;" horiz-adv-x="227" 
d="M139 20q27 -11 122 104q68 81 88 121q9 17 19 4q12 -14 4 -34q-17 -41 -86 -126q-76 -95 -108 -107q-26 -10 -53 5q-30 17 -38 50q-23 97 56 314q30 80 61.5 143.5t47.5 76.5q33 26 62 11q18 -10 24.5 -33t-1.5 -53q-14 -48 -73 -143q-58 -92 -125 -173q-11 -56 -14 -93
q-3 -60 14 -67zM242 398q23 37 39 71t21.5 54.5t1.5 24.5q-19 19 -64 -79l-11 -24q-26 -62 -37 -91q-10 -25 -26 -77zM259 276q14 -2 30 -13.5t13 -27.5q-3 -17 -12.5 -25t-18.5 -6q-9 0 -20.5 15.5t-9.5 24.5q0 9 5 21t13 11z" />
    <glyph glyph-name="Lslash" unicode="&#x141;" horiz-adv-x="484" 
d="M152 434q4 -10 32.5 -22.5t73.5 -17.5q43 -5 97 1q68 119 100 159q57 70 117 82q53 11 89 -25q39 -37 16 -89q-25 -57 -89 -99q-55 -36 -134 -59q-42 -11 -72 -15q-1 -2 -47 -88q95 33 110 34q6 1 15 -6t14 -16q9 -16 -8 -19q-53 -9 -156 -42l-67 -129q74 -8 157 -35
q86 -27 103 -50q5 -7 -3 -23q-6 -11 -13.5 -15t-12.5 5q-10 20 -88 42q-99 28 -167 34q-72 -118 -117 -124q-23 -3 -45 14t-36 45q-15 28 -15 58.5t21 46.5q34 26 162 10l52 99q-40 -13 -81 -28q-23 -8 -39 14q-13 17 6 26q15 6 141 39q13 25 45 80l14 24q-59 -2 -100 5
q-55 8 -81 27q-22 14 -16 39q5 18 16 21q5 2 6 -3zM638 588q-51 36 -131 -52q-43 -47 -95 -134q84 15 147 55q37 23 61 51.5t26.5 48t-8.5 31.5zM66 50q-15 -4 -17.5 -21t5.5 -33q5 -15 14.5 -25.5t18.5 -10.5q13 -1 33 22.5t45 65.5q-78 8 -99 2z" />
    <glyph glyph-name="lslash" unicode="&#x142;" horiz-adv-x="234" 
d="M107 414q11 4 78 21q49 115 75 136q40 32 70.5 5t14.5 -80l-6 -17q30 9 42 10q10 1 22 -12q17 -21 -6 -24q-31 -6 -79 -20q-16 -32 -46 -80q-37 -59 -121 -156q-38 -164 -4 -177q28 -12 124 106q65 79 86 119q11 20 21 0q8 -16 2 -30q-16 -40 -91 -132q-72 -89 -103 -101
q-28 -11 -56 7t-35 48q-14 63 14 177q18 74 56 174q-4 -2 -15 -5.5l-17 -5.5q-20 -8 -34 10t8 27zM312 548q-20 19 -70 -92q-1 -4 -3 -7q1 0 7 2q16 4 40 12q35 74 26 85zM250 398l9 15l-14 -4q-4 -1 -8 -2.5t-9.5 -3t-9.5 -2.5l-18 -47q-14 -37 -23 -65q33 44 73 109z" />
    <glyph glyph-name="Nacute" unicode="&#x143;" horiz-adv-x="471" 
d="M11 -62q6 43 90 272l56.5 151l52.5 140t25 68q9 25 38 27q15 1 25 -8.5t9 -27.5q-5 -54 30 -291q20 -138 39 -226q39 123 103 277q64 153 99 217q41 74 68 78q21 4 35 -20q12 -22 2 -29q-3 -3 -8 -1q-23 7 -58 -51q-32 -54 -97 -212q-109 -269 -120 -324q-4 -20 -20 -15
q-19 6 -38 41q-25 47 -56 249q-23 154 -25 245q-26 -60 -124 -335q-81 -227 -88 -260q-5 -17 -24 2q-17 15 -14 33zM444 607q-2 -7 -8.5 -5.5t-12.5 9.5q-12 14 -11 35q4 34 67 76q15 11 31.5 19.5t27 12.5t25.5 9t17 6q13 4 24 -11q10 -14 -5 -18q-44 -14 -89 -51
q-13 -11 -25.5 -25t-19 -23.5t-13.5 -21t-8 -12.5z" />
    <glyph glyph-name="nacute" unicode="&#x144;" horiz-adv-x="381" 
d="M183 271l-39 -80q-27 -56 -43 -102q41 63 120 148q70 74 105 83q21 5 38 -19q25 -35 9 -62q-27 -48 -47 -102q-32 -85 -10 -97q22 -11 101 85q65 78 88 122q3 6 9 6t11 -5q12 -12 2 -33q-27 -53 -75 -114q-51 -67 -93 -92q-43 -26 -73 12q-27 34 -19 79q9 47 37 100
q5 10 12.5 23l11 19.5l8.5 16t4.5 11.5t-1.5 7q-8 9 -39 -19.5t-80 -83.5q-47 -53 -92 -110.5t-52 -72.5q-5 -9 -22 5q-27 21 -20 46q8 27 53 129q44 98 64 130q6 11 20 -1q18 -14 12 -29zM285 350q-2 -7 -8.5 -5.5t-12.5 9.5q-12 14 -11 35q4 34 67 76q15 11 31.5 19.5
t27 12.5t25.5 9t17 6q13 4 24 -11q10 -14 -5 -18q-44 -14 -89 -51q-13 -11 -25.5 -25t-19 -23.5t-13.5 -21t-8 -12.5z" />
    <glyph glyph-name="Ncommaaccent" unicode="&#x145;" horiz-adv-x="471" 
d="M11 -62q6 43 90 272l56.5 151l52.5 140t25 68q9 25 38 27q15 1 25 -8.5t9 -27.5q-5 -54 30 -291q20 -138 39 -226q39 123 103 277q64 153 99 217q41 74 68 78q21 4 35 -20q12 -22 2 -29q-3 -3 -8 -1q-23 7 -58 -51q-32 -54 -97 -212q-109 -269 -120 -324q-4 -20 -20 -15
q-19 6 -38 41q-25 47 -56 249q-23 154 -25 245q-26 -60 -124 -335q-81 -227 -88 -260q-5 -17 -24 2q-17 15 -14 33zM242 -56q0 4 7 4.5t15 -3.5q21 -10 18 -27q-3 -18 -40 -71q-51 -74 -72 -95q-9 -8 -22 3q-8 6 -10.5 16t3.5 16q10 9 48 70q51 77 53 87z" />
    <glyph glyph-name="ncommaaccent" unicode="&#x146;" horiz-adv-x="381" 
d="M177 -44q0 4 7.5 4.5t14.5 -3.5q21 -10 18 -27q-3 -18 -40 -71q-51 -74 -72 -95q-9 -8 -22 3q-8 6 -10.5 16t3.5 16q9 9 48 70q51 77 53 87zM183 271l-39 -80q-27 -56 -43 -102q41 63 120 148q70 74 105 83q21 5 38 -19q25 -35 9 -62q-27 -48 -47 -102q-32 -85 -10 -97
q22 -11 101 85q65 78 88 122q3 6 9 6t11 -5q12 -12 2 -33q-27 -53 -75 -114q-51 -67 -93 -92q-43 -26 -73 12q-27 34 -19 79q9 47 37 100q5 10 12.5 23l11 19.5l8.5 16t4.5 11.5t-1.5 7q-8 9 -39 -19.5t-80 -83.5q-47 -53 -92 -110.5t-52 -72.5q-5 -9 -22 5q-27 21 -20 46
q8 27 53 129q44 98 64 130q6 11 20 -1q18 -14 12 -29z" />
    <glyph glyph-name="Ncaron" unicode="&#x147;" horiz-adv-x="471" 
d="M11 -62q6 43 90 272l56.5 151l52.5 140t25 68q9 25 38 27q15 1 25 -8.5t9 -27.5q-5 -54 30 -291q20 -138 39 -226q39 123 103 277q64 153 99 217q41 74 68 78q21 4 35 -20q12 -22 2 -29q-3 -3 -8 -1q-23 7 -58 -51q-32 -54 -97 -212q-109 -269 -120 -324q-4 -20 -20 -15
q-19 6 -38 41q-25 47 -56 249q-23 154 -25 245q-26 -60 -124 -335q-81 -227 -88 -260q-5 -17 -24 2q-17 15 -14 33zM455 733q-10 -21 -5 -47q3 -10 8 -9q11 1 67 36q48 29 58 39q3 3 8.5 0.5t7.5 -8.5q6 -12 -5 -24q-11 -14 -52 -44q-51 -38 -68 -47q-36 -21 -56 8
q-12 16 -12 51q0 39 9 58q4 12 21 6q24 -9 19 -19z" />
    <glyph glyph-name="ncaron" unicode="&#x148;" horiz-adv-x="381" 
d="M183 271l-39 -80q-27 -56 -43 -102q41 63 120 148q70 74 105 83q21 5 38 -19q25 -35 9 -62q-27 -48 -47 -102q-32 -85 -10 -97q22 -11 101 85q65 78 88 122q3 6 9 6t11 -5q12 -12 2 -33q-27 -53 -75 -114q-51 -67 -93 -92q-43 -26 -73 12q-27 34 -19 79q9 47 37 100
q5 10 12.5 23l11 19.5l8.5 16t4.5 11.5t-1.5 7q-8 9 -39 -19.5t-80 -83.5q-47 -53 -92 -110.5t-52 -72.5q-5 -9 -22 5q-27 21 -20 46q8 27 53 129q44 98 64 130q6 11 20 -1q18 -14 12 -29zM282 469q-10 -21 -5 -47q3 -10 8 -9q11 1 67 36q48 29 58 39q3 3 8.5 0.5t7.5 -8.5
q6 -12 -5 -24q-11 -14 -52 -44q-51 -38 -68 -47q-36 -21 -56 8q-12 16 -12 51q0 39 9 58q4 12 21 6q24 -9 19 -19z" />
    <glyph glyph-name="Eng" unicode="&#x14a;" horiz-adv-x="471" 
d="M11 -62q6 43 90 272l56.5 151l52.5 140t25 68q9 25 38 27q15 1 25 -8.5t9 -27.5q-5 -54 30 -291q20 -138 39 -226q39 123 103 277q64 153 99 217q41 74 68 78q21 4 35 -20q12 -22 2 -29q-3 -3 -8 -1q-23 7 -58 -51q-42 -72 -97 -212q-73 -189 -108 -303q-3 -9 -8.5 -34
t-12.5 -46t-17 -37q-24 -41 -66 -50q-49 -11 -101 19q-43 25 -48 53q-3 18 23 26q10 3 17.5 1t5.5 -10q-5 -20 28 -43q39 -28 67 -17q26 10 42 48q8 21 18 69q-12 14 -18 26q-25 47 -56 249q-23 154 -25 245q-26 -60 -124 -335q-81 -227 -88 -260q-5 -17 -24 2
q-17 15 -14 33z" />
    <glyph glyph-name="eng" unicode="&#x14b;" horiz-adv-x="352" 
d="M285 133q5 13 15 36l16.5 38l13 31.5t9 26.5t0.5 12q-8 9 -39 -19.5t-80 -83.5q-47 -53 -92 -110.5t-52 -72.5q-5 -9 -22 5q-27 21 -20 46q8 27 53 129q44 98 64 130q6 11 20 -1q18 -14 12 -29l-39 -80q-27 -56 -43 -102q41 63 120 148q70 74 105 83q21 5 38 -19
q21 -29 9 -62l-38 -91q-42 -96 -58 -127q57 46 108 104q55 62 90 122q4 6 9.5 5.5t9.5 -6.5q11 -17 1 -34q-41 -76 -98 -136q-40 -43 -106 -97q-9 -8 -26 -20.5t-23 -17.5q-32 -70 -65 -116q-43 -62 -81 -84q-45 -24 -85 1q-22 14 -26 37t15 47q24 27 80 63l61 39l68 44
q46 90 76 161zM36 -198q-13 -14 -8 -24.5t25 -6.5q29 5 65 46q30 35 51 75l-45.5 -28.5t-39 -24.5l-27.5 -19t-21 -18z" />
    </font>
</defs>
</svg>
