<?xml version="1.0" encoding="utf-8"?>
<!-- Generator: Adobe Illustrator 24.0.0, SVG Export Plug-In . SVG Version: 6.00 Build 0)  -->
<svg version="1.1" id="Capa_1" xmlns="http://www.w3.org/2000/svg" xmlns:xlink="http://www.w3.org/1999/xlink" x="0px" y="0px"
	 viewBox="0 0 50 9" style="enable-background:new 0 0 50 9;" xml:space="preserve">
<g>
	<g>
		<path d="M19.1,5.8h0.1c0.1,0.3,0.2,0.6,0.3,0.9c0.1,0.2,0.2,0.4,0.4,0.6c0.1,0.1,0.3,0.3,0.4,0.3c0.1,0.1,0.3,0.1,0.4,0.2
			c0.1,0,0.3,0.1,0.4,0.1c0.1,0,0.3,0,0.4,0c0.3,0,0.6-0.1,0.8-0.1c0.2-0.1,0.4-0.2,0.5-0.4C22.9,7.2,23,7,23,6.8
			c0.1-0.2,0.1-0.3,0.1-0.5c0-0.2,0-0.4-0.1-0.6c-0.1-0.2-0.2-0.3-0.3-0.4c-0.1-0.1-0.3-0.2-0.4-0.3C22.1,5,22,5,21.8,4.9l-1.1-0.3
			c-0.5-0.2-0.9-0.4-1.1-0.6c-0.3-0.3-0.4-0.6-0.4-1c0-0.3,0.1-0.5,0.1-0.8c0.1-0.2,0.2-0.4,0.4-0.6c0.2-0.2,0.4-0.3,0.7-0.4
			C20.7,1.1,21,1,21.3,1c0.2,0,0.4,0,0.5,0.1c0.1,0,0.3,0.1,0.4,0.1c0.1,0,0.2,0.1,0.3,0.1c0.1,0,0.2,0.1,0.3,0.1c0.1,0,0.1,0,0.2,0
			c0,0,0.1-0.1,0.1-0.2h0.1v1.7H23c0-0.2-0.1-0.4-0.2-0.7c-0.1-0.2-0.2-0.4-0.4-0.6c-0.1-0.2-0.3-0.3-0.5-0.4
			c-0.2-0.1-0.4-0.1-0.7-0.1c-0.2,0-0.3,0-0.5,0.1c-0.2,0-0.3,0.1-0.5,0.2c-0.2,0.1-0.3,0.2-0.4,0.4c-0.1,0.2-0.2,0.4-0.2,0.6
			c0,0.2,0,0.4,0.1,0.5c0.1,0.1,0.2,0.3,0.3,0.4c0.1,0.1,0.3,0.2,0.4,0.2c0.2,0.1,0.3,0.1,0.5,0.2l1.1,0.4c0.1,0,0.3,0.1,0.4,0.1
			c0.2,0.1,0.4,0.2,0.5,0.3c0.2,0.1,0.3,0.3,0.4,0.5c0.1,0.2,0.2,0.5,0.2,0.8c0,0.3-0.1,0.6-0.2,0.8c-0.1,0.3-0.3,0.5-0.5,0.7
			c-0.2,0.2-0.5,0.4-0.7,0.5c-0.3,0.1-0.6,0.2-1,0.2c-0.1,0-0.2,0-0.3,0c-0.1,0-0.2,0-0.3,0c-0.1,0-0.2,0-0.3,0
			c-0.1,0-0.2,0-0.3-0.1c-0.1,0-0.3-0.1-0.4-0.1c-0.1,0-0.3-0.1-0.4-0.1c-0.1,0-0.2,0-0.2,0.1c0,0-0.1,0.1-0.1,0.1h-0.1V5.8z"/>
		<path d="M13.6,5.8h0.1c0.1,0.3,0.2,0.6,0.3,0.9c0.1,0.2,0.2,0.4,0.4,0.6c0.1,0.1,0.3,0.3,0.4,0.3c0.1,0.1,0.3,0.1,0.4,0.2
			c0.1,0,0.3,0.1,0.4,0.1c0.1,0,0.3,0,0.4,0c0.3,0,0.6-0.1,0.8-0.1c0.2-0.1,0.4-0.2,0.5-0.4c0.1-0.2,0.2-0.3,0.3-0.5
			c0.1-0.2,0.1-0.3,0.1-0.5c0-0.2,0-0.4-0.1-0.6c-0.1-0.2-0.2-0.3-0.3-0.4c-0.1-0.1-0.3-0.2-0.4-0.3C16.7,5,16.5,5,16.4,4.9
			l-1.1-0.3c-0.5-0.2-0.9-0.4-1.1-0.6c-0.3-0.3-0.4-0.6-0.4-1c0-0.3,0-0.5,0.1-0.8c0.1-0.2,0.2-0.4,0.4-0.6c0.2-0.2,0.4-0.3,0.7-0.4
			C15.3,1.1,15.5,1,15.8,1c0.2,0,0.4,0,0.5,0.1c0.1,0,0.3,0.1,0.4,0.1c0.1,0,0.2,0.1,0.3,0.1c0.1,0,0.2,0.1,0.3,0.1
			c0.1,0,0.1,0,0.2,0c0,0,0.1-0.1,0.1-0.2h0.1v1.7h-0.1c0-0.2-0.1-0.4-0.2-0.7c-0.1-0.2-0.2-0.4-0.4-0.6c-0.1-0.2-0.3-0.3-0.5-0.4
			c-0.2-0.1-0.4-0.1-0.7-0.1c-0.1,0-0.3,0-0.5,0.1c-0.2,0-0.3,0.1-0.5,0.2c-0.2,0.1-0.3,0.2-0.4,0.4c-0.1,0.2-0.2,0.4-0.2,0.6
			c0,0.2,0,0.4,0.1,0.5c0.1,0.1,0.2,0.3,0.3,0.4c0.1,0.1,0.3,0.2,0.4,0.2c0.2,0.1,0.3,0.1,0.5,0.2l1.1,0.4c0.1,0,0.3,0.1,0.4,0.1
			c0.2,0.1,0.4,0.2,0.5,0.3c0.2,0.1,0.3,0.3,0.4,0.5c0.1,0.2,0.2,0.5,0.2,0.8c0,0.3-0.1,0.6-0.2,0.8c-0.1,0.3-0.3,0.5-0.5,0.7
			c-0.2,0.2-0.5,0.4-0.7,0.5C16.7,7.9,16.4,8,16,8c-0.1,0-0.2,0-0.3,0c-0.1,0-0.2,0-0.3,0c-0.1,0-0.2,0-0.3,0c-0.1,0-0.2,0-0.3-0.1
			c-0.1,0-0.3-0.1-0.4-0.1c-0.1,0-0.3-0.1-0.4-0.1c-0.1,0-0.2,0-0.2,0.1c0,0-0.1,0.1-0.1,0.1h-0.1V5.8z"/>
		<g>
			<g>
				<path d="M6.2,7.8H6.1C6,7.8,6,7.7,5.9,7.7c-0.1,0-0.1-0.1-0.3-0.1c-0.1,0-0.2,0-0.3,0.1C5.2,7.7,5.1,7.8,5,7.8
					c-0.1,0-0.3,0.1-0.5,0.1C4.3,8,4.1,8,3.9,8C3.5,8,3.1,7.9,2.8,7.8C2.4,7.6,2,7.4,1.7,7.1C1.4,6.7,1.1,6.4,0.9,6
					C0.7,5.6,0.6,5.1,0.6,4.5c0-0.5,0.1-0.9,0.3-1.3c0.2-0.4,0.4-0.8,0.7-1.1c0.3-0.3,0.7-0.6,1.1-0.8C3,1.1,3.5,1,4,1
					c0.2,0,0.4,0,0.5,0.1c0.2,0,0.3,0.1,0.4,0.1c0.1,0,0.2,0.1,0.3,0.1c0.1,0,0.2,0.1,0.3,0.1c0.1,0,0.2,0,0.3-0.1
					c0.1,0,0.1-0.1,0.1-0.1h0.1V3H6C5.9,2.8,5.8,2.6,5.7,2.3C5.7,2.1,5.5,1.9,5.4,1.7C5.2,1.5,5,1.4,4.8,1.3
					C4.5,1.2,4.2,1.1,3.9,1.1C3.6,1.1,3.3,1.2,3,1.3C2.8,1.4,2.6,1.5,2.4,1.7C2.3,1.9,2.1,2.1,2,2.3C2,2.5,1.9,2.8,1.8,3
					C1.8,3.3,1.7,3.5,1.7,3.8c0,0.3,0,0.5,0,0.7c0,0.7,0.1,1.2,0.2,1.6c0.1,0.4,0.3,0.8,0.4,1C2.5,7.4,2.7,7.6,3,7.7
					c0.3,0.1,0.6,0.1,0.9,0.1c0.4,0,0.8-0.1,1-0.2c0.3-0.1,0.5-0.3,0.6-0.5C5.7,7,5.8,6.8,5.9,6.6C6,6.3,6,6.1,6.1,5.8h0.1V7.8z"/>
			</g>
		</g>
		<g>
			<rect x="6.9" y="7.8" width="2.3" height="0.1"/>
			<polygon points="8.1,3.3 8.1,2.8 11.2,7.8 10.7,7.8 10.7,8 12.9,8 12.9,7.8 12.4,7.8 8.1,1 8.1,1 8,1 8,2.8 8,3.3 8,5 8.1,5 			
				"/>
		</g>
		<g>
			<rect x="24.5" y="7.8" width="2.3" height="0.1"/>
			<polygon points="25.7,3.3 25.7,2.8 28.8,7.8 28.3,7.8 28.3,8 30.5,8 30.5,7.8 30,7.8 25.7,1 25.7,1 25.6,1 25.6,2.8 25.6,3.3 
				25.6,5 25.7,5 			"/>
		</g>
	</g>
	<g>
		<path d="M42.1,2c-0.3-0.3-0.7-0.6-1-0.7C40.7,1.1,40.3,1,39.8,1c-0.4,0-0.8,0.1-1.2,0.3c-0.4,0.2-0.7,0.4-1,0.7
			c-0.3,0.3-0.6,0.7-0.8,1.1c-0.2,0.4-0.3,0.9-0.3,1.4c0,0.4,0.1,0.9,0.2,1.3c0.2,0.4,0.4,0.8,0.7,1.1c0.3,0.3,0.6,0.6,1,0.8
			C38.9,7.9,39.4,8,39.8,8c0.5,0,0.9-0.1,1.3-0.3c0.4-0.2,0.7-0.5,1-0.8c0.3-0.3,0.5-0.7,0.7-1.1C43,5.4,43.1,5,43.1,4.5
			c0-0.5-0.1-1-0.3-1.4C42.6,2.7,42.4,2.3,42.1,2z M41.9,6c-0.1,0.4-0.2,0.8-0.4,1c-0.2,0.3-0.4,0.5-0.7,0.6c-0.3,0.1-0.6,0.2-1,0.2
			c-0.4,0-0.7-0.1-1-0.2c-0.3-0.1-0.5-0.3-0.7-0.6c-0.2-0.3-0.3-0.6-0.4-1c-0.1-0.4-0.1-0.9-0.1-1.5c0-0.4,0-0.8,0.1-1.2
			c0.1-0.4,0.2-0.8,0.3-1.1c0.2-0.3,0.4-0.6,0.7-0.8c0.3-0.2,0.7-0.3,1.1-0.3c0.5,0,0.8,0.1,1.1,0.3c0.3,0.2,0.5,0.4,0.7,0.8
			c0.2,0.3,0.3,0.7,0.3,1.1C42,3.7,42,4.1,42,4.5C42,5.1,42,5.6,41.9,6z"/>
		<g>
			<g>
				<rect x="47.5" y="1" width="2.3" height="0.1"/>
				<rect x="43.7" y="7.9" width="2.3" height="0.1"/>
				<polygon points="48.6,6.2 45.4,1.1 46,1.1 46,1 43.7,1 43.7,1.1 44.3,1.1 48.6,8 48.6,8 48.7,8 48.7,6.4 48.6,6.2 				"/>
			</g>
			<g>
				<rect x="33.7" y="1" width="2.3" height="0.1"/>
				<polygon points="34.8,5.7 34.8,6.2 31.6,1.1 32.2,1.1 32.2,1 29.9,1 29.9,1.1 30.5,1.1 34.8,8 34.8,8 34.9,8 34.9,6.2 34.9,5.7 
					34.9,4 34.8,4 				"/>
			</g>
		</g>
	</g>
</g>
</svg>
