<?xml version="1.0" encoding="utf-8"?>
<!-- Generator: Adobe Illustrator 24.0.0, SVG Export Plug-In . SVG Version: 6.00 Build 0)  -->
<svg version="1.1" id="Capa_1" xmlns="http://www.w3.org/2000/svg" xmlns:xlink="http://www.w3.org/1999/xlink" x="0px" y="0px"
	 viewBox="0 0 319 48" style="enable-background:new 0 0 319 48;" xml:space="preserve">
<style type="text/css">
	.st0{fill:#231F20;}
</style>
<g>
	<path class="st0" d="M21.3,2.7C21,2.8,20.8,3,20.7,3.3c-0.1,0.3-0.2,0.8-0.2,1.5v13.6c0,0.7,0.1,1.2,0.2,1.5
		c0.1,0.3,0.3,0.5,0.6,0.6c0.3,0.1,0.8,0.2,1.4,0.2v0.5c-0.9-0.1-2-0.1-3.5-0.1c-1.6,0-2.7,0-3.5,0.1v-0.5c0.7,0,1.1-0.1,1.4-0.2
		c0.3-0.1,0.5-0.3,0.6-0.6c0.1-0.3,0.2-0.8,0.2-1.5V3.8l-6.6,17.7h-0.4L4,3.7v14.5c0,0.7,0.1,1.2,0.2,1.6c0.1,0.4,0.4,0.6,0.7,0.8
		c0.3,0.2,0.9,0.2,1.6,0.3v0.5c-0.7-0.1-1.6-0.1-2.8-0.1c-1.1,0-1.9,0-2.5,0.1v-0.5c0.6,0,1.1-0.1,1.4-0.3s0.5-0.4,0.6-0.8
		c0.1-0.4,0.2-0.9,0.2-1.6V4.8c0-0.7-0.1-1.2-0.2-1.5C3.1,3,2.9,2.8,2.6,2.7C2.3,2.6,1.8,2.5,1.2,2.5V1.9C1.8,2,2.6,2,3.7,2
		c1,0,1.7,0,2.3-0.1l6,15.9L18,2h1.3c1.5,0,2.6,0,3.5-0.1v0.5C22.1,2.5,21.6,2.6,21.3,2.7z"/>
	<path class="st0" d="M41.3,20.8v0.5c-0.7-0.1-1.7-0.1-2.9-0.1c-1.6,0-2.7,0-3.5,0.1v-0.5c0.7,0,1.2-0.1,1.5-0.3
		c0.3-0.1,0.4-0.4,0.4-0.8c0-0.3-0.1-0.7-0.3-1.3L34.8,14h-6.6l-1.1,2.9c-0.4,0.9-0.5,1.7-0.5,2.2c0,0.6,0.2,1,0.6,1.2
		c0.4,0.2,1,0.4,1.8,0.4v0.5c-1-0.1-2.1-0.1-3.2-0.1c-0.8,0-1.5,0-2,0.1v-0.5c0.9-0.2,1.6-1,2.2-2.4l6.4-16.6h0.4L39.4,19
		C39.9,20.2,40.5,20.8,41.3,20.8z M31.5,5.3l-3.1,8.2h6.2L31.5,5.3z"/>
	<path class="st0" d="M57,4.4c1.6,1.6,2.4,4,2.4,7.1c0,2-0.4,3.7-1.2,5.2c-0.8,1.5-1.9,2.6-3.4,3.5c-1.5,0.8-3.3,1.2-5.3,1.2
		c-0.4,0-1,0-1.6,0c-1.5,0-2.3,0-2.2,0c-1.5,0-2.6,0-3.4,0.1v-0.5c0.7,0,1.1-0.1,1.4-0.2c0.3-0.1,0.5-0.3,0.6-0.6
		c0.1-0.3,0.2-0.8,0.2-1.5V4.8c0-0.7-0.1-1.2-0.2-1.5C44.2,3,44,2.8,43.7,2.7c-0.3-0.1-0.8-0.2-1.4-0.2V1.9C43.3,2,44.2,2,45,2
		l0.7,0l1.1,0c1.4,0,2.4-0.1,3-0.1C53,1.9,55.4,2.8,57,4.4z M47.8,2.6c-0.3,0.1-0.5,0.4-0.6,0.7C47.1,3.7,47,4.1,47,4.8v13.7
		c0,0.7,0.1,1.2,0.2,1.5c0.1,0.3,0.3,0.6,0.6,0.7c0.3,0.1,0.7,0.2,1.3,0.2c1.9,0,3.5-0.4,4.6-1.1c1.1-0.7,1.9-1.7,2.3-3.1
		c0.5-1.4,0.7-3.1,0.7-5.2c0-2.1-0.2-3.8-0.7-5.1c-0.5-1.3-1.3-2.3-2.4-3c-1.1-0.7-2.6-1-4.5-1C48.5,2.4,48.1,2.5,47.8,2.6z"/>
	<path class="st0" d="M76.3,21.3c-1.2-0.1-3.3-0.1-6.3-0.1c-3.5,0-6.2,0-7.9,0.1v-0.5c0.7,0,1.1-0.1,1.4-0.2
		c0.3-0.1,0.5-0.3,0.6-0.6c0.1-0.3,0.2-0.8,0.2-1.5V4.8c0-0.7-0.1-1.2-0.2-1.5C64,3,63.8,2.8,63.5,2.7c-0.3-0.1-0.8-0.2-1.4-0.2V1.9
		C63.9,2,66.5,2,70,2c2.7,0,4.6,0,5.7-0.1c-0.1,1.2-0.2,2.3-0.2,3.2c0,0.7,0,1.3,0.1,1.7H75c-0.1-1.2-0.3-2.1-0.5-2.6
		c-0.2-0.6-0.5-1-1-1.3c-0.5-0.3-1.2-0.4-2.2-0.4h-2.3c-0.7,0-1.1,0.1-1.4,0.2C67.3,2.8,67.1,3,67,3.4c-0.1,0.3-0.2,0.8-0.2,1.5v6.5
		h1.8c0.6,0,1.1-0.2,1.5-0.5c0.3-0.3,0.6-0.7,0.7-1.1c0.1-0.4,0.2-0.9,0.3-1.6c0-0.2,0-0.3,0.1-0.5h0.6c-0.1,0.9-0.1,1.8-0.1,2.6
		l0,1.3c0,0.9,0.1,2.2,0.2,3.9h-0.6l0-0.4c-0.1-0.7-0.2-1.3-0.3-1.7c-0.1-0.4-0.4-0.8-0.7-1.1c-0.4-0.3-0.9-0.4-1.6-0.4h-1.8v6.6
		c0,0.7,0.1,1.2,0.2,1.5c0.1,0.3,0.3,0.5,0.6,0.6c0.3,0.1,0.8,0.2,1.4,0.2h2c1.1,0,2-0.2,2.6-0.5c0.6-0.3,1-0.8,1.3-1.5
		c0.3-0.7,0.5-1.6,0.6-2.9h0.6c-0.1,0.5-0.1,1.2-0.1,2C76.1,18.9,76.2,20,76.3,21.3z"/>
	<path class="st0" d="M91.2,2.7c-0.3,0.1-0.5,0.3-0.6,0.6c-0.1,0.3-0.2,0.8-0.2,1.5v13.6c0,0.7,0.1,1.2,0.2,1.5
		c0.1,0.3,0.3,0.5,0.6,0.6c0.3,0.1,0.8,0.2,1.4,0.2v0.5c-0.8-0.1-2-0.1-3.5-0.1c-1.6,0-2.7,0-3.5,0.1v-0.5c0.7,0,1.1-0.1,1.4-0.2
		c0.3-0.1,0.5-0.3,0.6-0.6c0.1-0.3,0.2-0.8,0.2-1.5V4.8c0-0.7-0.1-1.2-0.2-1.5C87.5,3,87.3,2.8,87,2.7c-0.3-0.1-0.8-0.2-1.4-0.2V1.9
		C86.4,2,87.5,2,89.1,2c1.5,0,2.6,0,3.5-0.1v0.5C91.9,2.5,91.5,2.6,91.2,2.7z"/>
	<path class="st0" d="M110.7,2.8c-0.3,0.2-0.5,0.4-0.6,0.8c-0.1,0.4-0.2,0.9-0.2,1.6v16.3h-0.6L97.7,3.7v14.5c0,0.7,0.1,1.2,0.2,1.6
		c0.1,0.4,0.4,0.6,0.7,0.8c0.3,0.2,0.9,0.2,1.6,0.3v0.5c-0.7-0.1-1.6-0.1-2.8-0.1c-1.1,0-1.9,0-2.5,0.1v-0.5c0.6,0,1.1-0.1,1.4-0.3
		c0.3-0.2,0.5-0.4,0.6-0.8c0.1-0.4,0.2-0.9,0.2-1.6V4.8c0-0.7-0.1-1.2-0.2-1.5c-0.1-0.3-0.3-0.5-0.6-0.6c-0.3-0.1-0.8-0.2-1.4-0.2
		V1.9C95.5,2,96.3,2,97.4,2c0.8,0,1.5,0,2.1-0.1l9.7,14.9V5.1c0-0.7-0.1-1.2-0.2-1.6c-0.1-0.4-0.4-0.6-0.7-0.8
		c-0.3-0.2-0.9-0.2-1.6-0.3V1.9c0.7,0.1,1.6,0.1,2.8,0.1c1.1,0,1.9,0,2.5-0.1v0.5C111.5,2.5,111,2.6,110.7,2.8z"/>
	<path class="st0" d="M135.9,5.4c0,0.9,0,1.7,0.1,2.2h-0.6c-0.1-1.4-0.3-2.5-0.5-3.2c-0.2-0.7-0.6-1.2-1.2-1.5
		c-0.5-0.3-1.4-0.5-2.5-0.5h-1.5v15.6c0,0.8,0.1,1.3,0.2,1.7c0.1,0.4,0.4,0.6,0.8,0.7c0.4,0.1,1,0.2,1.8,0.2v0.5
		c-1-0.1-2.3-0.1-4-0.1c-1.8,0-3.2,0-4.1,0.1v-0.5c0.8,0,1.4-0.1,1.8-0.2c0.4-0.1,0.6-0.4,0.8-0.7c0.1-0.4,0.2-0.9,0.2-1.7V2.6h-1.5
		c-1.1,0-2,0.2-2.5,0.5c-0.5,0.3-0.9,0.8-1.2,1.5c-0.2,0.7-0.4,1.7-0.5,3.2h-0.6c0.1-0.6,0.1-1.3,0.1-2.2c0-1.1-0.1-2.2-0.2-3.5
		c1.5,0.1,4.1,0.1,7.7,0.1c3.6,0,6.2,0,7.7-0.1C136,3.2,135.9,4.4,135.9,5.4z"/>
	<path class="st0" d="M155.1,2.7c-0.3,0.1-0.5,0.3-0.6,0.6c-0.1,0.3-0.2,0.8-0.2,1.5v13.6c0,0.7,0.1,1.2,0.2,1.5
		c0.1,0.3,0.3,0.5,0.6,0.6c0.3,0.1,0.8,0.2,1.4,0.2v0.5c-0.8-0.1-1.9-0.1-3.5-0.1c-1.5,0-2.6,0-3.5,0.1v-0.5c0.7,0,1.1-0.1,1.4-0.2
		c0.3-0.1,0.5-0.3,0.6-0.6c0.1-0.3,0.2-0.8,0.2-1.5v-6.6h-8.9v6.6c0,0.7,0.1,1.2,0.2,1.5c0.1,0.3,0.3,0.5,0.6,0.6
		c0.3,0.1,0.8,0.2,1.4,0.2v0.5c-0.8-0.1-2-0.1-3.5-0.1c-1.6,0-2.7,0-3.5,0.1v-0.5c0.7,0,1.1-0.1,1.4-0.2c0.3-0.1,0.5-0.3,0.6-0.6
		c0.1-0.3,0.2-0.8,0.2-1.5V4.8c0-0.7-0.1-1.2-0.2-1.5c-0.1-0.3-0.3-0.5-0.6-0.6c-0.3-0.1-0.8-0.2-1.4-0.2V1.9C138.8,2,140,2,141.6,2
		c1.5,0,2.6,0,3.5-0.1v0.5c-0.7,0-1.1,0.1-1.4,0.2c-0.3,0.1-0.5,0.3-0.6,0.6c-0.1,0.3-0.2,0.8-0.2,1.5v6.5h8.9V4.8
		c0-0.7-0.1-1.2-0.2-1.5c-0.1-0.3-0.3-0.5-0.6-0.6c-0.3-0.1-0.8-0.2-1.4-0.2V1.9c0.9,0.1,2,0.1,3.5,0.1c1.6,0,2.7,0,3.5-0.1v0.5
		C155.9,2.5,155.4,2.6,155.1,2.7z"/>
	<path class="st0" d="M173,21.3c-1.2-0.1-3.3-0.1-6.3-0.1c-3.5,0-6.2,0-7.9,0.1v-0.5c0.7,0,1.1-0.1,1.4-0.2c0.3-0.1,0.5-0.3,0.6-0.6
		c0.1-0.3,0.2-0.8,0.2-1.5V4.8c0-0.7-0.1-1.2-0.2-1.5c-0.1-0.3-0.3-0.5-0.6-0.6c-0.3-0.1-0.8-0.2-1.4-0.2V1.9
		c1.8,0.1,4.4,0.1,7.9,0.1c2.7,0,4.6,0,5.7-0.1c-0.1,1.2-0.2,2.3-0.2,3.2c0,0.7,0,1.3,0.1,1.7h-0.6c-0.1-1.2-0.3-2.1-0.5-2.6
		c-0.2-0.6-0.5-1-1-1.3c-0.5-0.3-1.2-0.4-2.2-0.4h-2.3c-0.7,0-1.1,0.1-1.4,0.2c-0.3,0.1-0.5,0.3-0.6,0.6c-0.1,0.3-0.2,0.8-0.2,1.5
		v6.5h1.8c0.6,0,1.1-0.2,1.5-0.5c0.3-0.3,0.6-0.7,0.7-1.1c0.1-0.4,0.2-0.9,0.3-1.6c0-0.2,0-0.3,0.1-0.5h0.6
		c-0.1,0.9-0.1,1.8-0.1,2.6l0,1.3c0,0.9,0.1,2.2,0.2,3.9H168l0-0.4c-0.1-0.7-0.2-1.3-0.3-1.7c-0.1-0.4-0.4-0.8-0.7-1.1
		c-0.4-0.3-0.9-0.4-1.6-0.4h-1.8v6.6c0,0.7,0.1,1.2,0.2,1.5c0.1,0.3,0.3,0.5,0.6,0.6c0.3,0.1,0.8,0.2,1.4,0.2h2c1.1,0,2-0.2,2.6-0.5
		c0.6-0.3,1-0.8,1.3-1.5c0.3-0.7,0.5-1.6,0.6-2.9h0.6c-0.1,0.5-0.1,1.2-0.1,2C172.8,18.9,172.9,20,173,21.3z"/>
	<path class="st0" d="M195.8,5.4c0,0.9,0,1.7,0.1,2.2h-0.6c-0.1-1.4-0.3-2.5-0.5-3.2c-0.2-0.7-0.6-1.2-1.2-1.5
		c-0.5-0.3-1.4-0.5-2.5-0.5h-1.7c-0.7,0-1.1,0.1-1.4,0.2c-0.3,0.1-0.5,0.3-0.6,0.6c-0.1,0.3-0.2,0.8-0.2,1.5v6.7h2
		c0.6,0,1.1-0.2,1.5-0.5c0.3-0.3,0.6-0.7,0.7-1.1c0.1-0.4,0.2-0.9,0.3-1.6c0-0.2,0-0.3,0.1-0.5h0.6c-0.1,0.9-0.1,1.8-0.1,2.6l0,1.3
		c0,1,0.1,2.3,0.2,3.9h-0.6l0-0.4c-0.1-0.7-0.2-1.3-0.3-1.7c-0.1-0.4-0.4-0.8-0.7-1.1c-0.4-0.3-0.9-0.4-1.6-0.4h-2v6.3
		c0,0.7,0.1,1.2,0.2,1.5c0.1,0.3,0.4,0.5,0.8,0.6c0.4,0.1,1,0.2,1.8,0.2v0.5c-0.9-0.1-2.3-0.1-4-0.1c-1.6,0-2.7,0-3.5,0.1v-0.5
		c0.7,0,1.1-0.1,1.4-0.2c0.3-0.1,0.5-0.3,0.6-0.6c0.1-0.3,0.2-0.8,0.2-1.5V4.8c0-0.7-0.1-1.2-0.2-1.5c-0.1-0.3-0.3-0.5-0.6-0.6
		c-0.3-0.1-0.8-0.2-1.4-0.2V1.9c1.8,0.1,4.4,0.1,7.9,0.1c2.7,0,4.6,0,5.7-0.1C195.9,3.2,195.8,4.4,195.8,5.4z"/>
	<path class="st0" d="M214.2,20.8v0.5c-0.7-0.1-1.7-0.1-2.9-0.1c-1.6,0-2.7,0-3.5,0.1v-0.5c0.7,0,1.2-0.1,1.5-0.3
		c0.3-0.1,0.4-0.4,0.4-0.8c0-0.3-0.1-0.7-0.3-1.3l-1.7-4.5h-6.6l-1.1,2.9c-0.4,0.9-0.5,1.7-0.5,2.2c0,0.6,0.2,1,0.6,1.2
		c0.4,0.2,1,0.4,1.8,0.4v0.5c-1-0.1-2.1-0.1-3.2-0.1c-0.8,0-1.5,0-2,0.1v-0.5c0.9-0.2,1.6-1,2.2-2.4l6.4-16.6h0.4l6.7,17.2
		C212.7,20.2,213.4,20.8,214.2,20.8z M204.4,5.3l-3.1,8.2h6.2L204.4,5.3z"/>
	<path class="st0" d="M228.6,12.8c0.9,0.9,1.3,2,1.3,3.2c0,1-0.3,2-0.8,2.8c-0.5,0.8-1.3,1.4-2.3,1.9c-1,0.5-2.2,0.7-3.5,0.7l-1.3,0
		c-1.2,0-2.3-0.1-3.5-0.1c-1.5,0-2.6,0-3.4,0.1v-0.5c0.7,0,1.1-0.1,1.4-0.2c0.3-0.1,0.5-0.3,0.6-0.6c0.1-0.3,0.2-0.8,0.2-1.5V4.8
		c0-0.7-0.1-1.2-0.2-1.5c-0.1-0.3-0.3-0.5-0.6-0.6c-0.3-0.1-0.8-0.2-1.4-0.2V1.9C215.9,2,217,2,218.5,2c0.3,0,1.3,0,3,0l1.2,0
		c1.2,0,2.3,0.2,3.2,0.5c0.9,0.4,1.5,0.9,2,1.5c0.4,0.6,0.7,1.4,0.7,2.3c0,1.1-0.3,2-1,2.8c-0.7,0.8-1.7,1.5-3.2,1.9v0.1
		C226.3,11.4,227.7,11.9,228.6,12.8z M220.7,2.7c-0.3,0.1-0.5,0.4-0.6,0.7c-0.1,0.3-0.2,0.8-0.2,1.5V11h1.8c1.5,0,2.5-0.4,3.1-1.2
		c0.6-0.8,0.9-1.9,0.9-3.3c0-1.4-0.3-2.4-0.9-3.1c-0.6-0.7-1.6-1-2.9-1C221.4,2.5,221,2.6,220.7,2.7z M227.1,15.9
		c0-1.4-0.4-2.5-1.2-3.3c-0.8-0.7-2-1.1-3.7-1.1h-2.3v6.9c0,0.7,0.1,1.1,0.2,1.5c0.1,0.3,0.3,0.5,0.6,0.6c0.3,0.1,0.7,0.2,1.3,0.2
		C225.4,20.7,227.1,19.1,227.1,15.9z"/>
	<path class="st0" d="M247.6,2.8c-0.3,0.2-0.5,0.4-0.6,0.8c-0.1,0.4-0.2,0.9-0.2,1.6v8.2c0,1.3-0.1,2.4-0.3,3.4
		c-0.2,0.9-0.5,1.8-0.9,2.4c-0.5,0.8-1.1,1.4-2,1.9c-0.9,0.5-1.9,0.7-3,0.7c-2,0-3.5-0.5-4.6-1.5c-0.5-0.5-1-1-1.3-1.6
		c-0.3-0.6-0.5-1.3-0.6-2.1c-0.1-0.8-0.2-1.8-0.2-3.1V4.8c0-0.7-0.1-1.2-0.2-1.5c-0.1-0.3-0.3-0.5-0.6-0.6c-0.3-0.1-0.8-0.2-1.4-0.2
		V1.9c0.8,0.1,1.9,0.1,3.5,0.1c1.5,0,2.6,0,3.5-0.1v0.5c-0.7,0-1.1,0.1-1.4,0.2c-0.3,0.1-0.5,0.3-0.6,0.6c-0.1,0.3-0.2,0.8-0.2,1.5
		v9.1c0,1.5,0.1,2.7,0.3,3.6c0.2,1,0.6,1.7,1.2,2.3c0.6,0.6,1.6,0.9,2.8,0.9c1.9,0,3.3-0.6,4.1-1.9c0.8-1.2,1.2-3,1.2-5.2V5.1
		c0-0.7-0.1-1.2-0.2-1.6c-0.2-0.4-0.4-0.6-0.8-0.8c-0.4-0.2-0.8-0.3-1.5-0.3V1.9c0.7,0.1,1.6,0.1,2.8,0.1c1.1,0,1.9,0,2.5-0.1v0.5
		C248.4,2.5,247.9,2.6,247.6,2.8z"/>
	<path class="st0" d="M256.5,2.7c-0.3,0.1-0.5,0.3-0.6,0.6c-0.1,0.3-0.2,0.8-0.2,1.5v13.6c0,0.7,0.1,1.2,0.2,1.5
		c0.1,0.3,0.3,0.5,0.6,0.6c0.3,0.1,0.8,0.2,1.4,0.2h2c1.1,0,2-0.2,2.6-0.5c0.6-0.3,1-0.8,1.3-1.5c0.3-0.7,0.5-1.7,0.6-3.1h0.6
		c-0.1,0.6-0.1,1.3-0.1,2.2c0,1,0.1,2.2,0.2,3.5c-1.2-0.1-3.3-0.1-6.3-0.1c-3.5,0-6.2,0-7.9,0.1v-0.5c0.7,0,1.1-0.1,1.4-0.2
		c0.3-0.1,0.5-0.3,0.6-0.6c0.1-0.3,0.2-0.8,0.2-1.5V4.8c0-0.7-0.1-1.2-0.2-1.5c-0.1-0.3-0.3-0.5-0.6-0.6c-0.3-0.1-0.8-0.2-1.4-0.2
		V1.9c0.8,0.1,1.9,0.1,3.5,0.1c1.5,0,2.6,0,3.5-0.1v0.5C257.3,2.5,256.8,2.6,256.5,2.7z"/>
	<path class="st0" d="M280.6,2.7c1.3,0.8,2.3,1.9,3,3.4c0.7,1.5,1.1,3.3,1.1,5.3c0,2-0.4,3.8-1.1,5.4c-0.7,1.6-1.8,2.8-3.1,3.6
		c-1.3,0.9-2.8,1.3-4.5,1.3c-1.7,0-3.3-0.4-4.6-1.2c-1.3-0.8-2.3-1.9-3-3.4c-0.7-1.5-1.1-3.3-1.1-5.3c0-2,0.4-3.8,1.1-5.4
		c0.7-1.6,1.8-2.8,3.1-3.6c1.3-0.9,2.8-1.3,4.5-1.3C277.8,1.6,279.3,1.9,280.6,2.7z M272.9,3.3c-0.9,0.8-1.6,2-2.1,3.4
		c-0.5,1.5-0.7,3.1-0.7,5c0,1.9,0.3,3.6,0.8,5c0.5,1.4,1.3,2.6,2.2,3.3c0.9,0.8,1.9,1.2,3.1,1.2c1.2,0,2.2-0.4,3.1-1.2
		c0.9-0.8,1.6-2,2.1-3.4c0.5-1.5,0.7-3.1,0.7-5c0-1.9-0.3-3.6-0.8-5S279.9,4,279,3.2c-0.9-0.8-1.9-1.2-3.1-1.2
		C274.8,2.1,273.7,2.5,272.9,3.3z"/>
	<path class="st0" d="M302.7,2.8c-0.3,0.2-0.5,0.4-0.6,0.8c-0.1,0.4-0.2,0.9-0.2,1.6v8.2c0,1.3-0.1,2.4-0.3,3.4
		c-0.2,0.9-0.5,1.8-0.9,2.4c-0.5,0.8-1.1,1.4-2,1.9c-0.9,0.5-1.9,0.7-3,0.7c-2,0-3.5-0.5-4.6-1.5c-0.5-0.5-1-1-1.3-1.6
		c-0.3-0.6-0.5-1.3-0.6-2.1c-0.1-0.8-0.2-1.8-0.2-3.1V4.8c0-0.7-0.1-1.2-0.2-1.5c-0.1-0.3-0.3-0.5-0.6-0.6c-0.3-0.1-0.8-0.2-1.4-0.2
		V1.9c0.8,0.1,1.9,0.1,3.5,0.1c1.5,0,2.6,0,3.5-0.1v0.5c-0.7,0-1.1,0.1-1.4,0.2c-0.3,0.1-0.5,0.3-0.6,0.6c-0.1,0.3-0.2,0.8-0.2,1.5
		v9.1c0,1.5,0.1,2.7,0.3,3.6c0.2,1,0.6,1.7,1.2,2.3c0.6,0.6,1.6,0.9,2.8,0.9c1.9,0,3.3-0.6,4.1-1.9c0.8-1.2,1.2-3,1.2-5.2V5.1
		c0-0.7-0.1-1.2-0.2-1.6c-0.2-0.4-0.4-0.6-0.8-0.8c-0.4-0.2-0.8-0.3-1.5-0.3V1.9c0.7,0.1,1.6,0.1,2.8,0.1c1.1,0,1.9,0,2.5-0.1v0.5
		C303.5,2.5,303,2.6,302.7,2.8z"/>
	<path class="st0" d="M313.3,1.8c0.4,0.1,0.7,0.2,1,0.3c0.3,0.1,0.6,0.3,0.9,0.5c0.4,0.3,0.7,0.4,0.9,0.4c0.2,0,0.3-0.1,0.4-0.3
		c0.1-0.2,0.2-0.5,0.2-0.9h0.6c-0.1,1.1-0.1,2.9-0.1,5.6h-0.6c-0.1-0.9-0.3-1.8-0.6-2.6c-0.3-0.8-0.8-1.4-1.5-1.9
		c-0.6-0.5-1.5-0.7-2.4-0.7c-0.6,0-1.2,0.1-1.7,0.4c-0.5,0.3-0.9,0.6-1.2,1.1c-0.3,0.5-0.4,1-0.4,1.7c0,0.7,0.2,1.3,0.5,1.8
		c0.3,0.5,0.7,0.9,1.2,1.3c0.5,0.4,1.2,0.8,2.1,1.4l0.8,0.5c1.2,0.7,2.1,1.3,2.7,1.9c0.7,0.5,1.2,1.1,1.6,1.8
		c0.4,0.7,0.6,1.5,0.6,2.4c0,1.1-0.3,2.1-0.8,2.9c-0.5,0.8-1.2,1.4-2.1,1.8c-0.9,0.4-1.9,0.6-2.9,0.6c-0.9,0-1.6-0.1-2.2-0.3
		c-0.6-0.2-1.1-0.4-1.6-0.7c-0.4-0.3-0.7-0.4-0.9-0.4c-0.2,0-0.3,0.1-0.4,0.3c-0.1,0.2-0.2,0.5-0.2,0.9h-0.6c0.1-1,0.1-3.2,0.1-6.6
		h0.6c0.1,1.9,0.6,3.4,1.4,4.5c0.8,1.1,2,1.7,3.6,1.7c0.6,0,1.2-0.1,1.7-0.4c0.5-0.3,1-0.7,1.3-1.2c0.3-0.5,0.5-1.2,0.5-2.1
		c0-0.7-0.2-1.3-0.5-1.9c-0.3-0.6-0.8-1.1-1.4-1.5c-0.6-0.5-1.4-1-2.4-1.6c-1.1-0.7-2-1.2-2.6-1.8c-0.7-0.5-1.2-1.1-1.6-1.9
		c-0.4-0.7-0.6-1.6-0.6-2.5c0-1,0.2-1.9,0.7-2.6c0.5-0.7,1.1-1.2,1.9-1.6c0.8-0.4,1.6-0.5,2.6-0.5C312.5,1.6,312.9,1.7,313.3,1.8z"
		/>
</g>
<g>
	<path class="st0" d="M16.1,28.7c1.8,1.8,2.6,4.3,2.6,7.7c0,2.2-0.4,4.1-1.3,5.7c-0.9,1.6-2.1,2.9-3.7,3.8c-1.6,0.9-3.6,1.3-5.8,1.3
		c-0.5,0-1.1,0-1.8,0c-1.7,0-2.5,0-2.4,0c-1.6,0-2.9,0-3.7,0.1v-0.6c0.7,0,1.2-0.1,1.6-0.2c0.3-0.1,0.6-0.4,0.7-0.7
		c0.1-0.3,0.2-0.9,0.2-1.6V29.2c0-0.8-0.1-1.3-0.2-1.6c-0.1-0.3-0.3-0.6-0.7-0.7c-0.3-0.1-0.9-0.2-1.6-0.2V26c1.1,0.1,2,0.1,2.9,0.1
		l0.7,0l1.2,0c1.6,0,2.7-0.1,3.3-0.1C11.7,26,14.4,26.9,16.1,28.7z M6,26.8c-0.3,0.1-0.5,0.4-0.6,0.8c-0.1,0.4-0.2,0.9-0.2,1.6v15
		c0,0.7,0.1,1.3,0.2,1.6c0.1,0.4,0.3,0.6,0.7,0.7c0.3,0.1,0.8,0.2,1.4,0.2c2.1,0,3.8-0.4,5-1.2c1.2-0.8,2.1-1.9,2.6-3.4
		c0.5-1.5,0.7-3.4,0.7-5.7c0-2.3-0.3-4.2-0.8-5.6c-0.5-1.4-1.4-2.5-2.6-3.2c-1.2-0.7-2.8-1.1-4.9-1.1C6.8,26.6,6.3,26.7,6,26.8z"/>
	<path class="st0" d="M36.5,26.9c1.4,0.9,2.5,2.1,3.3,3.7c0.8,1.6,1.2,3.6,1.2,5.8c0,2.2-0.4,4.2-1.2,5.9c-0.8,1.7-1.9,3-3.4,4
		c-1.4,0.9-3.1,1.4-4.9,1.4c-1.9,0-3.6-0.4-5-1.3c-1.4-0.9-2.5-2.1-3.3-3.7C22.4,41,22,39.1,22,36.8c0-2.2,0.4-4.2,1.2-5.9
		c0.8-1.7,1.9-3,3.4-3.9c1.4-0.9,3.1-1.4,4.9-1.4C33.4,25.6,35.1,26,36.5,26.9z M28,27.5c-1,0.9-1.7,2.1-2.3,3.7
		c-0.5,1.6-0.8,3.4-0.8,5.5c0,2.1,0.3,3.9,0.9,5.5c0.6,1.6,1.4,2.8,2.4,3.7c1,0.9,2.1,1.3,3.4,1.3c1.3,0,2.4-0.4,3.4-1.3
		c1-0.9,1.7-2.1,2.2-3.7c0.5-1.6,0.8-3.4,0.8-5.5c0-2.1-0.3-3.9-0.9-5.5c-0.6-1.6-1.4-2.8-2.4-3.7c-1-0.9-2.1-1.3-3.4-1.3
		C30.1,26.2,29,26.6,28,27.5z"/>
	<path class="st0" d="M65.9,26.9c-0.3,0.1-0.6,0.4-0.7,0.7c-0.1,0.3-0.2,0.9-0.2,1.6v14.9c0,0.8,0.1,1.3,0.2,1.6
		c0.1,0.3,0.3,0.6,0.7,0.7c0.3,0.1,0.9,0.2,1.6,0.2v0.6c-0.9-0.1-2.2-0.1-3.8-0.1c-1.7,0-3,0-3.8,0.1v-0.6c0.7,0,1.2-0.1,1.6-0.2
		c0.3-0.1,0.5-0.4,0.7-0.7c0.1-0.3,0.2-0.9,0.2-1.6V28L55,47.4h-0.5L47,28v15.8c0,0.8,0.1,1.4,0.2,1.7c0.1,0.4,0.4,0.7,0.8,0.8
		c0.4,0.2,1,0.3,1.7,0.3v0.6c-0.7-0.1-1.7-0.1-3.1-0.1c-1.2,0-2.1,0-2.8,0.1v-0.6c0.7,0,1.2-0.1,1.5-0.3c0.3-0.2,0.6-0.5,0.7-0.8
		c0.1-0.4,0.2-1,0.2-1.7V29.2c0-0.8-0.1-1.3-0.2-1.6c-0.1-0.3-0.3-0.6-0.7-0.7c-0.3-0.1-0.9-0.2-1.6-0.2V26c0.7,0.1,1.6,0.1,2.8,0.1
		c1.1,0,1.9,0,2.6-0.1l6.6,17.4l6.4-17.3h1.4c1.6,0,2.9,0,3.8-0.1v0.6C66.7,26.7,66.2,26.7,65.9,26.9z"/>
	<path class="st0" d="M76,26.9c-0.3,0.1-0.6,0.4-0.7,0.7c-0.1,0.3-0.2,0.9-0.2,1.6v14.9c0,0.8,0.1,1.3,0.2,1.6
		c0.1,0.3,0.3,0.6,0.7,0.7c0.3,0.1,0.9,0.2,1.6,0.2v0.6c-0.9-0.1-2.2-0.1-3.8-0.1c-1.7,0-3,0-3.8,0.1v-0.6c0.7,0,1.2-0.1,1.6-0.2
		c0.3-0.1,0.6-0.4,0.7-0.7c0.1-0.3,0.2-0.9,0.2-1.6V29.2c0-0.8-0.1-1.3-0.2-1.6c-0.1-0.3-0.3-0.6-0.7-0.7c-0.3-0.1-0.9-0.2-1.6-0.2
		V26c0.8,0.1,2.1,0.1,3.8,0.1c1.6,0,2.9,0,3.8-0.1v0.6C76.9,26.7,76.4,26.7,76,26.9z"/>
	<path class="st0" d="M97.4,26.9c-0.3,0.2-0.6,0.5-0.7,0.8c-0.1,0.4-0.2,1-0.2,1.7v17.9h-0.7L83.2,28v15.8c0,0.8,0.1,1.4,0.2,1.7
		c0.1,0.4,0.4,0.7,0.8,0.8c0.4,0.2,1,0.3,1.7,0.3v0.6c-0.7-0.1-1.7-0.1-3.1-0.1c-1.2,0-2.1,0-2.8,0.1v-0.6c0.7,0,1.2-0.1,1.5-0.3
		c0.3-0.2,0.6-0.5,0.7-0.8c0.1-0.4,0.2-1,0.2-1.7V29.2c0-0.8-0.1-1.3-0.2-1.6c-0.1-0.3-0.3-0.6-0.7-0.7c-0.3-0.1-0.9-0.2-1.6-0.2V26
		c0.7,0.1,1.6,0.1,2.8,0.1c0.9,0,1.7,0,2.3-0.1l10.6,16.3V29.5c0-0.8-0.1-1.4-0.2-1.7c-0.1-0.4-0.4-0.7-0.8-0.8
		c-0.4-0.2-1-0.3-1.8-0.3V26c0.7,0.1,1.7,0.1,3.1,0.1c1.2,0,2.1,0,2.8-0.1v0.6C98.2,26.7,97.7,26.8,97.4,26.9z"/>
	<path class="st0" d="M107.3,26.9c-0.3,0.1-0.6,0.4-0.7,0.7c-0.1,0.3-0.2,0.9-0.2,1.6v14.9c0,0.8,0.1,1.3,0.2,1.6
		c0.1,0.3,0.3,0.6,0.7,0.7c0.3,0.1,0.9,0.2,1.6,0.2v0.6c-0.9-0.1-2.2-0.1-3.8-0.1c-1.7,0-3,0-3.8,0.1v-0.6c0.7,0,1.2-0.1,1.6-0.2
		c0.3-0.1,0.6-0.4,0.7-0.7c0.1-0.3,0.2-0.9,0.2-1.6V29.2c0-0.8-0.1-1.3-0.2-1.6c-0.1-0.3-0.3-0.6-0.7-0.7c-0.3-0.1-0.9-0.2-1.6-0.2
		V26c0.8,0.1,2.1,0.1,3.8,0.1c1.6,0,2.9,0,3.8-0.1v0.6C108.2,26.7,107.7,26.7,107.3,26.9z"/>
	<path class="st0" d="M124.3,26.1c0.8,0.3,1.7,0.8,2.5,1.4c0.2,0.2,0.4,0.3,0.6,0.3c0.4,0,0.7-0.6,0.8-1.8h0.7
		c-0.1,1.3-0.1,3.6-0.1,6.9H128c-0.1-0.9-0.3-1.6-0.4-2.1c-0.1-0.5-0.3-0.9-0.4-1.3c-0.2-0.3-0.4-0.7-0.7-1.1
		c-0.6-0.8-1.4-1.4-2.3-1.8c-0.9-0.4-1.9-0.6-3-0.6c-1.3,0-2.4,0.4-3.4,1.3c-1,0.9-1.7,2.1-2.3,3.7c-0.5,1.6-0.8,3.5-0.8,5.6
		c0,2.2,0.3,4,0.9,5.6c0.6,1.6,1.4,2.7,2.4,3.6c1,0.8,2.2,1.2,3.5,1.2c1,0,2-0.2,2.9-0.6c0.9-0.4,1.7-1,2.2-1.7
		c0.4-0.5,0.7-1.1,0.9-1.8c0.2-0.6,0.3-1.6,0.5-3h0.7c0,3.4,0,5.8,0.1,7.2h-0.7c0-0.6-0.1-1.1-0.2-1.4c-0.1-0.3-0.3-0.4-0.5-0.4
		c-0.2,0-0.4,0.1-0.6,0.2c-0.6,0.4-1.1,0.8-1.6,1c-0.5,0.3-1.1,0.5-1.7,0.7c-0.6,0.2-1.4,0.3-2.2,0.3c-1.9,0-3.6-0.4-5-1.3
		c-1.4-0.9-2.5-2.1-3.3-3.7c-0.8-1.6-1.2-3.6-1.2-5.8c0-2.2,0.4-4.2,1.2-5.9c0.8-1.7,1.9-3,3.4-3.9c1.4-0.9,3.1-1.4,4.9-1.4
		C122.5,25.6,123.5,25.8,124.3,26.1z"/>
	<path class="st0" d="M149.9,46.7v0.6c-0.8-0.1-1.9-0.1-3.2-0.1c-1.7,0-3,0-3.8,0.1v-0.6c0.8,0,1.3-0.1,1.6-0.3
		c0.3-0.2,0.5-0.4,0.5-0.8c0-0.3-0.1-0.8-0.4-1.4l-1.8-4.9h-7.2l-1.2,3.2c-0.4,1-0.6,1.8-0.6,2.5c0,0.6,0.2,1.1,0.6,1.4
		c0.4,0.3,1.1,0.4,2,0.4v0.6c-1.1-0.1-2.3-0.1-3.5-0.1c-0.9,0-1.6,0-2.2,0.1v-0.6c1-0.2,1.8-1.1,2.4-2.6l7.1-18.2h0.5l7.3,18.8
		C148.3,46,149,46.6,149.9,46.7z M139.2,29.7l-3.4,8.9h6.8L139.2,29.7z"/>
	<path class="st0" d="M168.2,26.9c-0.3,0.2-0.6,0.5-0.7,0.8c-0.1,0.4-0.2,1-0.2,1.7v17.9h-0.7L154,28v15.8c0,0.8,0.1,1.4,0.2,1.7
		c0.1,0.4,0.4,0.7,0.8,0.8c0.4,0.2,1,0.3,1.7,0.3v0.6c-0.7-0.1-1.7-0.1-3.1-0.1c-1.2,0-2.1,0-2.8,0.1v-0.6c0.7,0,1.2-0.1,1.5-0.3
		c0.3-0.2,0.6-0.5,0.7-0.8c0.1-0.4,0.2-1,0.2-1.7V29.2c0-0.8-0.1-1.3-0.2-1.6c-0.1-0.3-0.3-0.6-0.7-0.7c-0.3-0.1-0.9-0.2-1.6-0.2V26
		c0.7,0.1,1.6,0.1,2.8,0.1c0.9,0,1.7,0,2.3-0.1l10.6,16.3V29.5c0-0.8-0.1-1.4-0.2-1.7c-0.1-0.4-0.4-0.7-0.8-0.8
		c-0.4-0.2-1-0.3-1.8-0.3V26c0.7,0.1,1.7,0.1,3.1,0.1c1.2,0,2.1,0,2.8-0.1v0.6C169,26.7,168.5,26.8,168.2,26.9z"/>
	<path class="st0" d="M196.7,47.2c-0.5,0.3-1.1,0.5-1.8,0.5c-0.8,0-1.5-0.2-2-0.7c-0.5-0.5-0.9-1.3-1.2-2.5l-0.7-3
		c-0.2-1-0.5-1.8-0.7-2.4c-0.2-0.6-0.5-1-1-1.3c-0.4-0.3-1-0.5-1.8-0.5h-2.9v6.9c0,0.8,0.1,1.3,0.2,1.6c0.1,0.3,0.3,0.6,0.7,0.7
		c0.3,0.1,0.9,0.2,1.6,0.2v0.6c-0.9-0.1-2.2-0.1-3.8-0.1c-1.7,0-3,0-3.8,0.1v-0.6c0.7,0,1.2-0.1,1.6-0.2c0.3-0.1,0.6-0.4,0.7-0.7
		c0.1-0.3,0.2-0.9,0.2-1.6V29.2c0-0.8-0.1-1.3-0.2-1.6c-0.1-0.3-0.3-0.6-0.7-0.7c-0.3-0.1-0.9-0.2-1.6-0.2V26
		c0.8,0.1,2.1,0.1,3.7,0.1c0.4,0,1.4,0,3.2,0l1.3,0c1.6,0,2.9,0.2,4,0.7s1.9,1.1,2.4,1.9c0.5,0.8,0.8,1.7,0.8,2.7
		c0,0.8-0.2,1.6-0.6,2.4c-0.4,0.8-1,1.5-1.9,2.1c-0.9,0.6-2,1.1-3.4,1.3l0.4,0.1c0.9,0.1,1.6,0.4,2.2,0.7c0.5,0.3,1,0.7,1.3,1.2
		c0.3,0.5,0.6,1.2,0.8,2.1l0.7,3.1c0.1,0.6,0.3,1.1,0.4,1.4c0.1,0.3,0.3,0.6,0.5,0.8c0.2,0.2,0.4,0.2,0.7,0.2c0.3,0,0.6-0.1,0.8-0.3
		c0.2-0.2,0.5-0.5,0.8-0.9l0.5,0.3C197.6,46.4,197.1,46.9,196.7,47.2z M185.6,26.9c-0.3,0.1-0.5,0.4-0.6,0.8
		c-0.1,0.4-0.2,0.9-0.2,1.6v7.4h2c1.3,0,2.4-0.2,3.2-0.6c0.8-0.4,1.3-1,1.6-1.7c0.3-0.7,0.4-1.6,0.4-2.6c0-1.6-0.4-2.9-1.2-3.7
		c-0.8-0.8-2-1.3-3.8-1.3C186.3,26.6,185.9,26.7,185.6,26.9z"/>
	<path class="st0" d="M214.5,47.3c-1.4-0.1-3.6-0.1-6.9-0.1c-3.8,0-6.7,0-8.7,0.1v-0.6c0.7,0,1.2-0.1,1.6-0.2
		c0.3-0.1,0.6-0.4,0.7-0.7c0.1-0.3,0.2-0.9,0.2-1.6V29.2c0-0.8-0.1-1.3-0.2-1.6c-0.1-0.3-0.3-0.6-0.7-0.7c-0.3-0.1-0.9-0.2-1.6-0.2
		V26c2,0.1,4.9,0.1,8.7,0.1c2.9,0,5,0,6.3-0.1c-0.1,1.3-0.2,2.5-0.2,3.5c0,0.8,0,1.4,0.1,1.9h-0.7c-0.1-1.3-0.3-2.3-0.5-2.9
		c-0.2-0.6-0.6-1.1-1.1-1.4c-0.5-0.3-1.3-0.4-2.4-0.4h-2.5c-0.7,0-1.2,0.1-1.6,0.2c-0.3,0.1-0.6,0.3-0.7,0.7
		c-0.1,0.3-0.2,0.9-0.2,1.6v7.1h2c0.7,0,1.2-0.2,1.6-0.5c0.4-0.3,0.6-0.7,0.8-1.2c0.1-0.4,0.2-1,0.3-1.7c0-0.2,0-0.4,0.1-0.6h0.7
		c-0.1,1-0.1,1.9-0.1,2.8l0,1.4c0,1,0.1,2.4,0.2,4.3H209l0-0.4c-0.1-0.8-0.2-1.4-0.3-1.9c-0.1-0.5-0.4-0.9-0.8-1.2
		c-0.4-0.3-1-0.5-1.7-0.5h-2v7.2c0,0.8,0.1,1.3,0.2,1.6c0.1,0.3,0.3,0.6,0.7,0.7c0.3,0.1,0.9,0.2,1.6,0.2h2.2c1.2,0,2.2-0.2,2.8-0.5
		c0.6-0.3,1.1-0.9,1.4-1.6c0.3-0.7,0.5-1.8,0.7-3.2h0.7c-0.1,0.5-0.1,1.3-0.1,2.2C214.3,44.5,214.4,45.8,214.5,47.3z"/>
	<path class="st0" d="M222.4,44.1c0,0.8,0.1,1.3,0.2,1.6c0.2,0.3,0.4,0.6,0.8,0.7c0.4,0.1,1.1,0.2,1.9,0.2v0.6
		c-1-0.1-2.5-0.1-4.4-0.1c-1.7,0-3,0-3.8,0.1v-0.6c0.7,0,1.2-0.1,1.6-0.2c0.3-0.1,0.6-0.4,0.7-0.7c0.1-0.3,0.2-0.9,0.2-1.6V29.2
		c0-0.8-0.1-1.3-0.2-1.6c-0.1-0.3-0.3-0.6-0.7-0.7c-0.3-0.1-0.9-0.2-1.6-0.2V26c0.8,0.1,2,0.1,3.7,0.1c0.4,0,1.4,0,3.2,0l1.3,0
		c1.6,0,2.9,0.2,4,0.7c1.1,0.5,1.9,1.2,2.4,2.1c0.5,0.9,0.8,1.9,0.8,3.1c0,1.1-0.2,2.1-0.7,3.2c-0.5,1-1.3,1.9-2.5,2.5
		c-1.2,0.7-2.7,1-4.7,1h-2.3V44.1z M223.2,26.9c-0.3,0.1-0.5,0.4-0.6,0.8c-0.1,0.4-0.2,0.9-0.2,1.6v8.9h2c2,0,3.3-0.5,4.1-1.6
		c0.8-1,1.1-2.4,1.1-4.2c0-1.3-0.2-2.3-0.5-3.2c-0.3-0.8-0.9-1.5-1.6-1.9c-0.7-0.4-1.7-0.6-2.9-0.6C224,26.6,223.5,26.7,223.2,26.9z
		"/>
	<path class="st0" d="M251.5,26.9c-0.3,0.2-0.6,0.5-0.7,0.8c-0.1,0.4-0.2,1-0.2,1.7v9c0,1.4-0.1,2.7-0.3,3.7c-0.2,1-0.5,1.9-0.9,2.7
		c-0.5,0.9-1.2,1.5-2.2,2c-1,0.5-2.1,0.8-3.3,0.8c-2.2,0-3.9-0.5-5-1.6c-0.6-0.6-1.1-1.1-1.4-1.8c-0.3-0.6-0.5-1.4-0.7-2.2
		c-0.1-0.9-0.2-2-0.2-3.4v-9.4c0-0.8-0.1-1.3-0.2-1.6c-0.1-0.3-0.3-0.6-0.7-0.7c-0.3-0.1-0.9-0.2-1.6-0.2V26
		c0.8,0.1,2.1,0.1,3.8,0.1c1.6,0,2.9,0,3.8-0.1v0.6c-0.7,0-1.2,0.1-1.6,0.2c-0.3,0.1-0.6,0.4-0.7,0.7c-0.1,0.3-0.2,0.9-0.2,1.6v9.9
		c0,1.6,0.1,2.9,0.3,4c0.2,1.1,0.7,1.9,1.4,2.5s1.7,1,3.1,1c2.1,0,3.6-0.7,4.5-2c0.9-1.4,1.3-3.3,1.3-5.7v-9.3
		c0-0.7-0.1-1.3-0.3-1.7c-0.2-0.4-0.4-0.7-0.8-0.9c-0.4-0.2-0.9-0.3-1.6-0.3V26c0.7,0.1,1.7,0.1,3.1,0.1c1.2,0,2.1,0,2.8-0.1v0.6
		C252.4,26.7,251.9,26.8,251.5,26.9z"/>
	<path class="st0" d="M269.8,37.9c0.9,1,1.4,2.1,1.4,3.5c0,1.1-0.3,2.1-0.9,3c-0.6,0.9-1.4,1.6-2.5,2.1c-1.1,0.5-2.4,0.7-3.8,0.7
		l-1.4,0c-1.3,0-2.5-0.1-3.8-0.1c-1.6,0-2.9,0-3.7,0.1v-0.6c0.7,0,1.2-0.1,1.6-0.2c0.3-0.1,0.6-0.4,0.7-0.7c0.1-0.3,0.2-0.9,0.2-1.6
		V29.2c0-0.8-0.1-1.3-0.2-1.6c-0.1-0.3-0.3-0.6-0.7-0.7c-0.3-0.1-0.9-0.2-1.6-0.2V26c0.8,0.1,2,0.1,3.7,0.1c0.4,0,1.4,0,3.2,0l1.3,0
		c1.4,0,2.5,0.2,3.5,0.6c0.9,0.4,1.7,0.9,2.1,1.7c0.5,0.7,0.7,1.5,0.7,2.5c0,1.2-0.4,2.2-1.1,3.1c-0.7,0.9-1.9,1.6-3.5,2.1V36
		C267.3,36.3,268.9,37,269.8,37.9z M261.2,26.9c-0.3,0.1-0.5,0.4-0.6,0.8c-0.1,0.4-0.2,0.9-0.2,1.6V36h2c1.6,0,2.8-0.4,3.4-1.3
		c0.7-0.9,1-2.1,1-3.6c0-1.5-0.3-2.6-1-3.4c-0.7-0.7-1.7-1.1-3.2-1.1C262,26.6,261.5,26.7,261.2,26.9z M268.2,41.3
		c0-1.6-0.4-2.8-1.3-3.6c-0.9-0.8-2.2-1.2-4.1-1.2h-2.5v7.6c0,0.7,0.1,1.3,0.2,1.6c0.1,0.3,0.3,0.6,0.6,0.7c0.3,0.1,0.8,0.2,1.4,0.2
		C266.4,46.6,268.2,44.8,268.2,41.3z"/>
	<path class="st0" d="M279.9,26.9c-0.3,0.1-0.6,0.4-0.7,0.7c-0.1,0.3-0.2,0.9-0.2,1.6v14.9c0,0.8,0.1,1.3,0.2,1.6
		c0.1,0.3,0.3,0.6,0.7,0.7c0.3,0.1,0.9,0.2,1.6,0.2h2.2c1.2,0,2.2-0.2,2.8-0.5c0.6-0.4,1.1-0.9,1.4-1.7c0.3-0.8,0.5-1.9,0.7-3.4h0.7
		c-0.1,0.6-0.1,1.4-0.1,2.5c0,1.1,0.1,2.4,0.2,3.8c-1.4-0.1-3.6-0.1-6.9-0.1c-3.8,0-6.7,0-8.7,0.1v-0.6c0.7,0,1.2-0.1,1.6-0.2
		c0.3-0.1,0.6-0.4,0.7-0.7c0.1-0.3,0.2-0.9,0.2-1.6V29.2c0-0.8-0.1-1.3-0.2-1.6c-0.1-0.3-0.3-0.6-0.7-0.7c-0.3-0.1-0.9-0.2-1.6-0.2
		V26c0.8,0.1,2.1,0.1,3.8,0.1c1.6,0,2.9,0,3.8-0.1v0.6C280.7,26.7,280.2,26.7,279.9,26.9z"/>
	<path class="st0" d="M297.5,26.9c-0.3,0.1-0.6,0.4-0.7,0.7c-0.1,0.3-0.2,0.9-0.2,1.6v14.9c0,0.8,0.1,1.3,0.2,1.6
		c0.1,0.3,0.3,0.6,0.7,0.7c0.3,0.1,0.9,0.2,1.6,0.2v0.6c-0.9-0.1-2.2-0.1-3.8-0.1c-1.7,0-3,0-3.8,0.1v-0.6c0.7,0,1.2-0.1,1.6-0.2
		c0.3-0.1,0.6-0.4,0.7-0.7c0.1-0.3,0.2-0.9,0.2-1.6V29.2c0-0.8-0.1-1.3-0.2-1.6c-0.1-0.3-0.3-0.6-0.7-0.7c-0.3-0.1-0.9-0.2-1.6-0.2
		V26c0.8,0.1,2.1,0.1,3.8,0.1c1.6,0,2.9,0,3.8-0.1v0.6C298.4,26.7,297.8,26.7,297.5,26.9z"/>
	<path class="st0" d="M314.5,26.1c0.8,0.3,1.7,0.8,2.5,1.4c0.2,0.2,0.4,0.3,0.6,0.3c0.4,0,0.7-0.6,0.8-1.8h0.7
		c-0.1,1.3-0.1,3.6-0.1,6.9h-0.7c-0.1-0.9-0.3-1.6-0.4-2.1c-0.1-0.5-0.3-0.9-0.4-1.3s-0.4-0.7-0.7-1.1c-0.6-0.8-1.4-1.4-2.3-1.8
		c-0.9-0.4-1.9-0.6-3-0.6c-1.3,0-2.4,0.4-3.4,1.3c-1,0.9-1.7,2.1-2.3,3.7c-0.5,1.6-0.8,3.5-0.8,5.6c0,2.2,0.3,4,0.9,5.6
		c0.6,1.6,1.4,2.7,2.4,3.6c1,0.8,2.2,1.2,3.5,1.2c1,0,2-0.2,2.9-0.6c0.9-0.4,1.7-1,2.2-1.7c0.4-0.5,0.7-1.1,0.9-1.8
		c0.2-0.6,0.3-1.6,0.5-3h0.7c0,3.4,0,5.8,0.1,7.2h-0.7c0-0.6-0.1-1.1-0.2-1.4c-0.1-0.3-0.3-0.4-0.5-0.4c-0.2,0-0.4,0.1-0.6,0.2
		c-0.6,0.4-1.1,0.8-1.6,1c-0.5,0.3-1.1,0.5-1.7,0.7s-1.4,0.3-2.2,0.3c-1.9,0-3.6-0.4-5-1.3c-1.4-0.9-2.5-2.1-3.3-3.7
		c-0.8-1.6-1.2-3.6-1.2-5.8c0-2.2,0.4-4.2,1.2-5.9c0.8-1.7,1.9-3,3.4-3.9c1.4-0.9,3.1-1.4,4.9-1.4C312.6,25.6,313.7,25.8,314.5,26.1
		z"/>
</g>
</svg>
