<?xml version="1.0" encoding="utf-8"?>
<!-- Generator: Adobe Illustrator 24.0.0, SVG Export Plug-In . SVG Version: 6.00 Build 0)  -->
<svg version="1.1" id="Capa_1" xmlns="http://www.w3.org/2000/svg" xmlns:xlink="http://www.w3.org/1999/xlink" x="0px" y="0px"
	 viewBox="0 0 60 60" style="enable-background:new 0 0 60 60;" xml:space="preserve">
<style type="text/css">
	.st0{stroke:#000000;stroke-miterlimit:10;}
	.st1{fill:none;stroke:#000000;stroke-width:2;stroke-miterlimit:10;}
</style>
<g>
	<path class="st0" d="M33.37,17.52c-0.13-0.13-0.31-0.21-0.49-0.21c-0.19,0-0.37,0.07-0.5,0.2l-11.8,11.57
		c-0.28,0.27-0.28,0.71-0.02,0.98c0,0,0,0,0.01,0.01l11.57,11.8c0.26,0.29,0.71,0.3,0.99,0.04c0.29-0.26,0.3-0.71,0.04-0.99
		c-0.01-0.01-0.02-0.02-0.03-0.03l-11.08-11.3l11.3-11.08C33.64,18.24,33.64,17.8,33.37,17.52C33.37,17.52,33.37,17.52,33.37,17.52z
		"/>
	<path class="st1" d="M29.25,57.05C44.14,57.19,56.38,45.2,56.52,30.3C56.67,15.41,44.67,3.17,29.78,3.03
		C14.88,2.88,2.65,14.88,2.5,29.77C2.36,44.67,14.36,56.9,29.25,57.05z"/>
</g>
</svg>
