<?xml version="1.0" encoding="utf-8"?>
<!-- Generator: Adobe Illustrator 23.0.6, SVG Export Plug-In . SVG Version: 6.00 Build 0)  -->
<svg version="1.1" xmlns="http://www.w3.org/2000/svg" xmlns:xlink="http://www.w3.org/1999/xlink" x="0px" y="0px"
	 viewBox="0 0 400.89 109.22" style="enable-background:new 0 0 400.89 109.22;" xml:space="preserve">
<style type="text/css">
	.st0{display:none;}
</style>
<g id="Fondos">
</g>
<g id="Fotos">
</g>
<g id="Transparencias">
</g>
<g id="q">
</g>
<g id="Layer_6">
</g>
<g id="Layer_5">
</g>
<g id="Layer_2">
	<g>
		<g>
			<g>
				<path d="M89.42,54.67c0-5.73,1.13-11.03,3.38-15.9c2.25-4.87,5.15-9.09,8.7-12.68c3.54-3.57,7.53-6.38,11.97-8.42
					c4.44-2.04,8.87-3.06,13.32-3.06c4.72,0,9.33,1.03,13.79,3.06c4.47,2.04,8.46,4.85,11.98,8.42c3.49,3.59,6.32,7.82,8.42,12.68
					c2.11,4.87,3.17,10.16,3.17,15.9c0,5-0.97,9.91-2.89,14.71c-1.93,4.79-4.59,9.05-7.96,12.78c-3.36,3.72-7.31,6.72-11.85,9.01
					c-4.55,2.3-9.44,3.44-14.66,3.44c-5.37,0-10.35-1.11-14.93-3.33c-4.59-2.22-8.53-5.17-11.86-8.85
					c-3.34-3.7-5.94-7.96-7.79-12.78C90.35,64.81,89.42,59.82,89.42,54.67 M101.76,54.67c0,6.43,0.42,12.05,1.28,16.85
					c0.86,4.8,2.3,8.81,4.3,12.04c1.99,3.22,4.58,5.61,7.74,7.2c3.14,1.57,7.04,2.35,11.7,2.35c4.58,0,8.47-0.78,11.64-2.35
					c3.18-1.59,5.8-3.98,7.79-7.2c2.01-3.22,3.44-7.23,4.3-12.04c0.85-4.8,1.28-10.41,1.28-16.85c0-4.95-0.33-9.72-0.95-14.34
					c-0.66-4.62-1.89-8.73-3.72-12.36c-1.83-3.61-4.37-6.5-7.63-8.64c-3.26-2.15-7.5-3.22-12.72-3.22c-5.23,0-9.47,1.07-12.74,3.22
					c-3.25,2.14-5.78,5.03-7.61,8.64c-1.83,3.62-3.06,7.74-3.71,12.36C102.09,44.95,101.76,49.72,101.76,54.67"/>
				<g>
					<rect x="209.46" y="14.61" width="25.95" height="1.44"/>
					<rect x="166.09" y="93.17" width="25.94" height="1.44"/>
					<polygon points="221.73,48.32 221.73,68.66 221.73,74.25 185.62,16.05 192.03,16.05 192.03,14.61 166.09,14.61 166.09,16.05 
						172.44,16.05 221.73,94.58 221.73,94.61 223.16,94.61 223.16,74.27 223.16,68.66 223.16,48.32 					"/>
				</g>
				<g>
					<rect x="51.26" y="14.61" width="25.95" height="1.44"/>
					<polygon points="63.52,48.32 63.52,68.66 63.52,74.25 27.42,16.05 33.83,16.05 33.83,14.61 7.88,14.61 7.88,16.05 14.24,16.05 
						63.52,94.58 63.52,94.61 64.96,94.61 64.96,74.27 64.96,68.66 64.96,48.32 					"/>
				</g>
			</g>
		</g>
		<path d="M275.81,74.95c0,3.16-0.44,5.97-1.34,8.42c-0.9,2.45-2.14,4.5-3.74,6.16c-1.59,1.66-3.41,2.92-5.46,3.78
			c-2.05,0.86-4.19,1.3-6.43,1.3c-3.67,0-6.93-0.8-9.78-2.43c-2.84-1.61-5.16-3.94-6.97-6.97l1.94-1.41
			c1.73,2.88,3.93,5.05,6.59,6.49c2.67,1.45,5.37,2.16,8.11,2.16c1.94,0,3.8-0.39,5.57-1.19c1.76-0.79,3.31-1.93,4.64-3.41
			c1.33-1.47,2.42-3.31,3.24-5.52c0.83-2.19,1.24-4.7,1.24-7.51c0-2.59-0.43-4.9-1.3-6.92c-0.86-2.03-2-3.8-3.41-5.36
			c-1.4-1.55-2.96-2.89-4.69-4.05c-1.74-1.15-3.47-2.16-5.2-3.03c-2.01-1.01-3.98-2.14-5.88-3.41c-1.91-1.25-3.59-2.74-5.03-4.42
			c-1.45-1.7-2.62-3.67-3.51-5.9c-0.9-2.24-1.35-4.82-1.35-7.79c0-3.17,0.47-5.96,1.4-8.37c0.94-2.41,2.2-4.42,3.79-6.05
			c1.58-1.63,3.43-2.85,5.52-3.68c2.08-0.82,4.27-1.23,6.58-1.23c2.97,0,5.69,0.6,8.16,1.78c2.5,1.18,4.54,3.19,6.12,6l-1.72,1.4
			c-1.61-2.67-3.45-4.5-5.59-5.52c-2.11-1-4.48-1.52-7.08-1.52c-1.8,0-3.58,0.35-5.34,1.02c-1.78,0.69-3.36,1.74-4.76,3.14
			c-1.41,1.41-2.55,3.21-3.42,5.41c-0.85,2.19-1.28,4.81-1.28,7.83c0,2.67,0.39,5,1.19,6.97c0.79,1.98,1.84,3.7,3.13,5.13
			c1.3,1.45,2.76,2.71,4.38,3.78c1.61,1.08,3.22,2.02,4.8,2.82c2.23,1.15,4.37,2.4,6.38,3.73c2.02,1.34,3.8,2.86,5.35,4.59
			c1.54,1.73,2.79,3.71,3.72,5.94C275.35,69.39,275.81,71.99,275.81,74.95z"/>
		<path d="M291.94,94.61v-80h2.48v80H291.94z"/>
		<path d="M330.04,16.86v77.75h-2.48V16.86h-15.82v-2.25h34.12v2.25H330.04z"/>
		<path d="M363.4,94.61v-80h28.81v2.25h-26.32v35.15h24.74v2.26h-24.74v38.08H393v2.25H363.4z"/>
	</g>
</g>
<g id="Guias" class="st0">
</g>
</svg>
