<?xml version="1.0" encoding="utf-8"?>
<!-- Generator: Adobe Illustrator 24.0.0, SVG Export Plug-In . SVG Version: 6.00 Build 0)  -->
<svg version="1.1" id="Capa_1" xmlns="http://www.w3.org/2000/svg" xmlns:xlink="http://www.w3.org/1999/xlink" x="0px" y="0px"
	 viewBox="0 0 400.9 109.2" style="enable-background:new 0 0 400.9 109.2;" xml:space="preserve">
<style type="text/css">
	.st0{display:none;}
	.st1{fill:#FFFFFF;}
</style>
<g id="Fondos">
</g>
<g id="Fotos">
</g>
<g id="Transparencias">
</g>
<g id="q">
</g>
<g id="Layer_6">
</g>
<g id="Layer_5">
</g>
<g id="Guias" class="st0">
</g>
<g>
	<path class="st1" d="M36.1,64.5c0,3.7-1.2,6.5-3.7,8.5c-2.5,2-6.2,2.9-11,2.9H6.5V35.1h14.8c4.1,0,7.2,0.8,9.4,2.3
		c2.2,1.6,3.3,4,3.3,7.4c0,0.9-0.1,1.9-0.3,2.9c-0.2,1-0.5,1.9-1,2.8c-0.5,0.9-1.2,1.6-2,2.3c-0.9,0.7-2,1.2-3.4,1.5
		c1.9,0.2,3.4,0.6,4.6,1.2s2.1,1.5,2.7,2.4c0.6,0.9,1.1,2,1.3,3.1C36,62.3,36.1,63.4,36.1,64.5z M9.5,53h11c3.6,0,6.3-0.6,8-1.8
		c1.7-1.2,2.6-3.1,2.6-5.9c0-2.5-0.8-4.3-2.4-5.5C27,38.6,24.5,38,21,38l-11.5,0V53z M9.5,72.9h11.8c7.7,0,11.6-2.8,11.6-8.5
		c0-1.5-0.2-2.7-0.6-3.8c-0.4-1.1-1.1-1.9-2-2.6c-1-0.7-2.2-1.2-3.8-1.5c-1.6-0.3-3.6-0.5-5.9-0.5h-11V72.9z"/>
	<path class="st1" d="M62.4,34.3c2.8,0,5.4,0.5,7.7,1.5c2.4,1,4.4,2.4,6.1,4.2c1.7,1.8,3,4.1,4,6.6c1,2.6,1.4,5.5,1.4,8.6
		c0,3.2-0.5,6-1.4,8.6c-0.9,2.6-2.3,4.9-4,6.7c-1.7,1.9-3.7,3.3-6.1,4.4c-2.3,1-4.9,1.5-7.8,1.5c-2.8,0-5.4-0.5-7.8-1.5
		c-2.4-1-4.4-2.5-6.1-4.3c-1.7-1.9-3-4.1-4-6.7s-1.4-5.5-1.4-8.7c0-3.2,0.5-6.1,1.4-8.7c1-2.6,2.3-4.8,4-6.6
		c1.7-1.8,3.7-3.2,6.1-4.2C57,34.8,59.5,34.3,62.4,34.3z M62.3,73.7c2.3,0,4.5-0.4,6.5-1.2c2-0.8,3.7-2,5.1-3.6
		c1.4-1.6,2.6-3.5,3.4-5.8c0.8-2.3,1.2-4.9,1.2-7.8c0-2.9-0.4-5.5-1.2-7.8c-0.8-2.2-1.9-4.1-3.4-5.6c-1.4-1.5-3.1-2.7-5.1-3.5
		c-2-0.8-4.1-1.2-6.4-1.2c-2.4,0-4.5,0.4-6.5,1.2c-2,0.8-3.7,2-5.1,3.5c-1.4,1.5-2.6,3.4-3.4,5.6c-0.8,2.2-1.2,4.8-1.2,7.7
		c0,2.9,0.4,5.5,1.2,7.8c0.8,2.3,1.9,4.2,3.3,5.8c1.4,1.6,3.1,2.8,5.1,3.6C57.8,73.3,60,73.7,62.3,73.7z"/>
	<path class="st1" d="M94.5,75.9h-3V35.1h3V75.9z"/>
	<path class="st1" d="M130.5,75.9h-24V35.1h3v37.8h21.1V75.9z"/>
	<path class="st1" d="M168.1,75.9h-29.5V35.1h28.5v3h-25.5v15.1h23.9v3h-23.9v16.8h26.5V75.9z"/>
	<path class="st1" d="M209.9,75.9h-3.3l-4.1-10.8c-0.4-1-0.8-2-1.3-2.9c-0.5-0.9-1-1.7-1.7-2.4s-1.4-1.2-2.2-1.6
		c-0.8-0.4-1.8-0.6-2.9-0.6h-14.3v18.4h-3V35.1h18.4c1.7,0,3.4,0.2,5,0.5c1.6,0.3,3,0.9,4.3,1.7c1.3,0.8,2.3,1.9,3,3.3
		c0.7,1.4,1.1,3.2,1.1,5.4c0,1.4-0.2,2.6-0.5,3.8c-0.3,1.2-0.8,2.2-1.5,3.2s-1.6,1.7-2.6,2.4c-1.1,0.7-2.3,1.1-3.7,1.4
		c0.8,0.6,1.4,1.2,1.9,1.7c0.5,0.5,0.9,1.1,1.3,1.8c0.4,0.6,0.7,1.3,1,2c0.3,0.7,0.6,1.6,1,2.6L209.9,75.9z M180.2,54.5h14.2
		c2,0,3.7-0.1,5.2-0.4c1.4-0.3,2.6-0.8,3.6-1.5c0.9-0.7,1.6-1.6,2.1-2.7c0.4-1.1,0.7-2.4,0.7-4c0-2.8-0.9-4.8-2.7-6
		c-1.8-1.2-4.4-1.8-8-1.8h-15V54.5z"/>
	<path class="st1" d="M219,35.1h14.8c2,0,3.9,0.2,5.7,0.5c1.8,0.3,3.5,0.9,4.9,1.8s2.5,2,3.4,3.5c0.8,1.5,1.2,3.3,1.2,5.6
		c0,4-1.3,7-3.8,9.1c-2.5,2.1-6.2,3.1-11.1,3.1H222v17.2h-3V35.1z M222,55.7h12.3c2.1,0,3.9-0.2,5.3-0.6c1.5-0.4,2.7-1,3.6-1.8
		c0.9-0.8,1.6-1.7,2-2.9s0.6-2.4,0.6-3.9c0-1.8-0.3-3.3-1-4.4s-1.5-2-2.6-2.6c-1.1-0.6-2.3-1-3.7-1.2c-1.4-0.2-2.9-0.3-4.5-0.3H222
		V55.7z"/>
	<path class="st1" d="M281.8,75.9h-24V35.1h3v37.8h21.1V75.9z"/>
	<path class="st1" d="M322.2,75.9h-3.6l-5-13.1h-20.1c-0.7,2.1-1.5,4.2-2.3,6.5s-1.7,4.5-2.4,6.6h-3.2c1.3-3.5,2.7-7,4-10.4
		c1.3-3.4,2.6-6.7,3.9-10.1c1.3-3.3,2.6-6.7,3.9-10.1c1.3-3.4,2.6-6.8,4-10.3h4.2L322.2,75.9z M312.8,60.4l-9.5-22.7l-9,22.7H312.8z
		"/>
	<path class="st1" d="M356.7,38.1h-14.3v37.8h-3V38.1h-14.1v-3h31.4V38.1z"/>
	<path class="st1" d="M393.5,75.9H364V35.1h28.5v3H367v15.1h23.9v3H367v16.8h26.5V75.9z"/>
</g>
</svg>
