<?xml version="1.0" encoding="utf-8"?>
<!-- Generator: Adobe Illustrator 24.0.0, SVG Export Plug-In . SVG Version: 6.00 Build 0)  -->
<svg version="1.1" id="Capa_1" xmlns="http://www.w3.org/2000/svg" xmlns:xlink="http://www.w3.org/1999/xlink" x="0px" y="0px"
	 viewBox="0 0 110 110" style="enable-background:new 0 0 110 110;" xml:space="preserve">
<style type="text/css">
	.st0{fill:#D6D2C4;}
</style>
<path class="st0" d="M94.7,32.7l9.9-23h-4.1l-8.8,20.6c-1.2-0.8-2.4-1.6-3.7-2.2l7.8-18.3h-3.9l-7.2,16.9c-3.2-1.2-6.7-1.8-10.3-1.8
	c-7.5,0-14.3,2.7-19.6,7.2c-5.5-4.7-12.4-7.2-19.6-7.2c-8.1,0-15.7,3.1-21.4,8.9c-5.9,5.5-9,13.1-9,21.2s3.1,15.7,8.9,21.4
	c5.7,5.7,13.3,8.9,21.4,8.9c7.3,0,14.2-2.6,19.6-7.2c1.9,1.6,4,3,6.3,4.1l-7.7,18.2h2.6h1.5l7.1-16.7c3.1,1.1,6.4,1.7,9.9,1.7
	c16.7,0,30.3-13.6,30.3-30.2C104.6,46.2,100.8,38.2,94.7,32.7z M16.3,73.8c-5-5-7.8-11.7-7.8-18.8s2.8-13.8,7.8-18.8
	s11.7-7.8,18.8-7.8c6.3,0,12.2,2.2,17,6.1c-5,5.4-8,12.6-8,20.4c0,7.9,3,15,8,20.4c-4.8,4-10.7,6.1-17,6.1
	C28,81.5,21.3,78.8,16.3,73.8z M57.4,75.4c2.7-3,4.8-6.4,6.2-10.2l0.5-1.5h-0.8H61h-0.8l-0.3,0.7c-1.2,3.1-2.9,5.9-5.2,8.4
	c-4.3-4.7-7-11-7-17.9s2.6-13.2,7-17.9c2.4,2.7,4.3,5.7,5.5,9.2l0.3,0.7h0.8h2.3h0.8l-0.5-1.4c-1.3-4.1-3.5-7.8-6.5-11
	c4.6-3.8,10.5-6.1,17-6.1c3.1,0,6.1,0.5,8.9,1.5L62.4,78.7C60.6,77.8,58.9,76.7,57.4,75.4z M74.3,81.5c-3,0-5.8-0.5-8.5-1.4
	l20.7-48.7c1.3,0.7,2.5,1.4,3.7,2.3L74.6,70.1h2.6h1.5l14.5-33.8c4.8,4.8,7.7,11.4,7.7,18.7C100.9,69.6,89,81.5,74.3,81.5z"/>
</svg>
